<svg width="326" height="658" viewBox="0 0 326 658" fill="none" xmlns="http://www.w3.org/2000/svg">
<path d="M52.4331 136.359L51.2008 133.611C49.7739 130.43 48.9969 127.536 48.87 124.93C48.7431 122.324 49.158 119.764 50.1149 117.25C51.0285 114.64 52.4457 111.863 54.3665 108.917C56.5432 105.509 58.0568 102.687 58.9074 100.453C59.7579 98.219 59.5346 95.6559 58.2374 92.7639C56.8969 89.7756 54.9434 87.8728 52.3767 87.0556C49.7668 86.142 46.6303 86.5068 42.9672 88.1499C38.7256 90.0525 35.9719 92.5614 34.7061 95.6767C33.4933 98.6523 33.8166 102.213 35.676 106.358L14.5647 115.827C11.1487 108.212 10.0152 101.425 11.164 95.4678C12.3661 89.3705 15.2388 84.0291 19.7822 79.4436C24.422 74.815 30.2123 70.944 37.153 67.8307C47.564 63.1607 56.538 61.7408 64.0749 63.5708C71.7082 65.3575 77.1896 69.9622 80.5191 77.3849C82.6379 82.1084 83.2805 86.5098 82.447 90.5891C81.5703 94.572 79.7611 98.7994 77.0195 103.271C74.8861 106.776 73.2495 109.71 72.1097 112.074C70.9268 114.342 70.2956 116.419 70.2163 118.308C70.0937 120.1 70.5513 122.152 71.5891 124.466L72.8214 127.213L52.4331 136.359ZM74.8136 159.147C71.3432 160.704 68.0936 160.946 65.0648 159.873C61.9928 158.703 59.7865 156.624 58.4461 153.636C57.0624 150.551 56.9985 147.569 58.2545 144.69C59.4672 141.714 61.8088 139.448 65.2791 137.891C68.8458 136.292 72.1436 136.028 75.1724 137.101C78.158 138.078 80.3426 140.109 81.7263 143.193C83.0667 146.182 83.1522 149.212 81.9828 152.284C80.77 155.26 78.3803 157.547 74.8136 159.147Z" fill="white"/>
<path d="M250.568 607.543L251.081 604.932C251.675 601.909 252.591 599.424 253.829 597.479C255.067 595.534 256.673 593.898 258.646 592.573C260.637 591.156 263.077 589.875 265.966 588.73C269.276 587.382 271.807 586.118 273.561 584.94C275.315 583.762 276.462 581.799 277.001 579.051C277.559 576.21 277.121 573.841 275.686 571.941C274.269 569.95 271.82 568.613 268.338 567.929C264.307 567.138 261.04 567.543 258.537 569.145C256.143 570.673 254.56 573.407 253.786 577.346L233.722 573.406C235.143 566.168 237.788 560.693 241.657 556.981C245.636 553.195 250.434 550.807 256.052 549.817C261.762 548.845 267.915 549.006 274.511 550.302C284.406 552.245 291.606 555.8 296.11 560.966C300.706 566.15 302.311 572.27 300.926 579.324C300.044 583.813 298.262 587.317 295.579 589.835C292.914 592.261 289.451 594.388 285.191 596.216C281.864 597.656 279.186 598.938 277.157 600.062C275.147 601.094 273.631 602.271 272.61 603.593C271.607 604.824 270.89 606.538 270.458 608.737L269.945 611.348L250.568 607.543ZM255.088 635.406C251.789 634.758 249.321 633.274 247.684 630.955C246.064 628.543 245.533 625.917 246.091 623.077C246.666 620.146 248.142 617.961 250.517 616.525C252.911 614.997 255.756 614.556 259.055 615.204C262.445 615.87 264.958 617.363 266.596 619.682C268.252 621.91 268.792 624.49 268.216 627.422C267.658 630.262 266.174 632.492 263.763 634.112C261.369 635.64 258.477 636.071 255.088 635.406Z" fill="white"/>
<path d="M275.982 263.666L276.57 261.471C277.251 258.93 278.175 256.866 279.343 255.28C280.511 253.695 281.973 252.394 283.731 251.38C285.51 250.288 287.663 249.338 290.191 248.529C293.089 247.572 295.319 246.643 296.881 245.741C298.444 244.838 299.534 243.232 300.153 240.922C300.793 238.534 300.557 236.49 299.444 234.788C298.352 233.01 296.343 231.729 293.417 230.945C290.028 230.037 287.221 230.192 284.995 231.412C282.868 232.575 281.36 234.813 280.473 238.125L263.606 233.605C265.237 227.521 267.807 223.009 271.319 220.071C274.928 217.076 279.155 215.319 283.998 214.801C288.919 214.303 294.152 214.798 299.698 216.283C308.015 218.512 313.943 221.958 317.482 226.621C321.097 231.304 322.11 236.611 320.521 242.541C319.51 246.315 317.789 249.196 315.357 251.186C312.946 253.099 309.872 254.711 306.137 256.021C303.218 257.055 300.862 257.992 299.069 258.832C297.296 259.596 295.936 260.511 294.99 261.578C294.064 262.568 293.354 263.987 292.859 265.836L292.271 268.031L275.982 263.666ZM278.218 287.667C275.445 286.924 273.429 285.517 272.168 283.446C270.927 281.297 270.627 279.029 271.267 276.642C271.927 274.177 273.311 272.402 275.418 271.316C277.545 270.152 279.996 269.942 282.768 270.685C285.618 271.448 287.673 272.866 288.934 274.937C290.216 276.932 290.526 279.161 289.866 281.626C289.226 284.013 287.832 285.827 285.684 287.067C283.556 288.231 281.067 288.431 278.218 287.667Z" fill="white"/>
<path d="M112.158 442.811L111.819 438.079C111.428 432.6 111.842 427.897 113.063 423.972C114.284 420.046 116.282 416.482 119.057 413.279C121.82 409.911 125.419 406.566 129.855 403.245C134.918 399.378 138.683 396.022 141.15 393.175C143.616 390.329 144.671 386.415 144.315 381.434C143.947 376.287 142.085 372.415 138.728 369.818C135.36 367.055 130.521 365.899 124.212 366.35C116.906 366.873 111.475 369.097 107.917 373.023C104.514 376.771 103.067 382.215 103.578 389.354L67.2166 391.955C66.2784 378.838 68.2697 368.182 73.1906 359.987C78.2657 351.613 85.4046 345.262 94.6073 340.932C103.976 336.59 114.638 333.992 126.592 333.137C144.524 331.854 158.572 334.604 168.736 341.387C179.067 348.158 184.689 357.936 185.603 370.72C186.185 378.856 184.757 385.717 181.318 391.303C177.868 396.723 172.905 402.001 166.43 407.137C161.378 411.17 157.37 414.628 154.405 417.51C151.429 420.226 149.372 422.96 148.233 425.711C147.083 428.297 146.651 431.582 146.936 435.567L147.274 440.299L112.158 442.811ZM132.958 488.634C126.981 489.062 122.042 487.663 118.139 484.437C114.225 481.046 112.084 476.777 111.716 471.63C111.336 466.317 112.854 461.869 116.269 458.287C119.672 454.539 124.363 452.451 130.34 452.024C136.483 451.584 141.506 452.977 145.408 456.203C149.298 459.262 151.433 463.448 151.813 468.762C152.182 473.909 150.67 478.439 147.278 482.353C143.875 486.101 139.102 488.195 132.958 488.634Z" fill="white"/>
<path d="M87.4771 634.461L86.2443 633.229C84.8169 631.801 83.8004 630.396 83.1948 629.011C82.5893 627.627 82.2865 626.157 82.2865 624.599C82.2432 622.999 82.4379 621.204 82.8704 619.214C83.3462 616.922 83.5841 615.083 83.5841 613.699C83.5841 612.315 82.9353 610.974 81.6376 609.676C80.2967 608.335 78.8477 607.708 77.2905 607.795C75.6901 607.838 74.068 608.682 72.4243 610.325C70.5211 612.228 69.5479 614.153 69.5046 616.1C69.4614 617.96 70.3697 619.82 72.2297 621.68L62.7568 631.152C59.3397 627.735 57.3283 624.297 56.7228 620.836C56.1172 617.289 56.5714 613.807 58.0853 610.39C59.6425 606.93 61.9783 603.642 65.0926 600.528C69.7642 595.856 74.3276 593.239 78.7828 592.677C83.2813 592.072 87.1959 593.434 90.5265 596.765C92.646 598.884 93.9004 601.134 94.2897 603.513C94.6358 605.848 94.5276 608.509 93.9653 611.493C93.5328 613.829 93.2516 615.754 93.1218 617.268C92.9488 618.738 93.0353 619.993 93.3814 621.031C93.6842 622.026 94.3546 623.042 95.3927 624.08L96.6255 625.313L87.4771 634.461ZM104.282 642.183C102.724 643.74 101.016 644.54 99.1559 644.583C97.2527 644.583 95.6306 643.913 94.2897 642.572C92.9056 641.188 92.2567 639.587 92.3433 637.771C92.3865 635.911 93.1867 634.202 94.7439 632.645C96.3443 631.044 98.0745 630.223 99.9345 630.179C101.751 630.093 103.352 630.742 104.736 632.126C106.077 633.467 106.747 635.089 106.747 636.992C106.704 638.852 105.882 640.582 104.282 642.183Z" fill="white"/>
<path d="M228.946 42.4118L229.675 40.8544C230.518 39.051 231.48 37.636 232.56 36.6092C233.64 35.5825 234.902 34.8075 236.346 34.2841C237.816 33.7061 239.546 33.2833 241.536 33.0157C243.822 32.6864 245.607 32.2892 246.89 31.824C248.174 31.3588 249.199 30.3065 249.966 28.6671C250.759 26.973 250.853 25.4186 250.25 24.0037C249.672 22.5341 248.345 21.3135 246.268 20.3418C243.864 19.2166 241.752 18.961 239.932 19.5751C238.193 20.1601 236.773 21.6275 235.674 23.9773L223.706 18.377C225.726 14.0598 228.239 11.039 231.244 9.31448C234.33 7.56088 237.711 6.81177 241.389 7.06716C245.121 7.34812 248.954 8.40921 252.889 10.2504C258.791 13.0123 262.751 16.3643 264.77 20.3067C266.843 24.2746 266.895 28.3624 264.926 32.5702C263.673 35.248 262.009 37.1671 259.934 38.3276C257.884 39.4335 255.381 40.2273 252.425 40.709C250.113 41.0929 248.234 41.4791 246.787 41.8676C245.365 42.2014 244.231 42.7032 243.384 43.373C242.563 43.9881 241.846 44.9514 241.232 46.263L240.504 47.8204L228.946 42.4118ZM227.434 60.5894C225.467 59.6688 224.15 58.3534 223.485 56.6432C222.845 54.8784 222.922 53.1489 223.715 51.4549C224.533 49.7062 225.799 48.5666 227.513 48.0363C229.252 47.4513 231.105 47.6191 233.073 48.5397C235.095 49.4859 236.438 50.8141 237.103 52.5243C237.794 54.1798 237.73 55.8819 236.912 57.6306C236.119 59.3247 234.841 60.4915 233.076 61.1312C231.336 61.7162 229.456 61.5356 227.434 60.5894Z" fill="white"/>
</svg>
