<svg width="600" height="800" viewBox="0 0 600 800" fill="none" xmlns="http://www.w3.org/2000/svg">
<g clip-path="url(#clip0_1162_194)">
<rect x="-508.154" y="-45.4163" width="2038.94" height="38.579" transform="rotate(21.6551 -508.154 -45.4163)" fill="#FEC65A"/>
<path d="M17.8342 190.005C17.983 190.064 18.0868 190.167 18.1454 190.314L18.7578 191.87C17.9692 192.329 17.1164 192.576 16.1994 192.612C15.2884 192.65 14.2971 192.456 13.2256 192.031C12.2552 191.646 11.448 191.136 10.8041 190.501C10.1626 189.86 9.68792 189.138 9.38018 188.333C9.07244 187.529 8.93345 186.664 8.9632 185.738C8.99295 184.813 9.1981 183.871 9.57865 182.912C9.83393 182.27 10.1447 181.686 10.5109 181.163C10.8854 180.637 11.3035 180.182 11.7652 179.801C12.2269 179.419 12.7233 179.106 13.2544 178.862C13.7914 178.62 14.3524 178.457 14.9374 178.372C15.5247 178.282 16.1266 178.276 16.7429 178.355C17.3675 178.431 17.9984 178.595 18.6354 178.848C19.1116 179.037 19.5445 179.257 19.9341 179.509C20.3297 179.762 20.6824 180.037 20.9924 180.332C21.3025 180.627 21.5697 180.944 21.7942 181.281C22.027 181.615 22.2187 181.956 22.3695 182.305L20.9783 183.18C20.894 183.236 20.7984 183.277 20.6914 183.303C20.5844 183.33 20.4595 183.315 20.3166 183.258C20.1737 183.201 20.0479 183.093 19.9393 182.932C19.8366 182.774 19.7029 182.59 19.5382 182.38C19.3795 182.173 19.1595 181.954 18.8782 181.725C18.6029 181.499 18.2211 181.289 17.733 181.095C17.1912 180.88 16.6551 180.781 16.1247 180.798C15.5942 180.814 15.0908 180.945 14.6145 181.19C14.1465 181.432 13.7156 181.788 13.3219 182.259C12.9282 182.73 12.5943 183.31 12.3201 184.001C12.0436 184.697 11.8918 185.357 11.8649 185.981C11.8462 186.6 11.9291 187.164 12.1136 187.671C12.304 188.181 12.5835 188.623 12.952 188.997C13.3288 189.367 13.7732 189.654 14.2851 189.857C14.5888 189.977 14.8685 190.071 15.1244 190.138C15.3863 190.208 15.6356 190.248 15.8723 190.26C16.115 190.273 16.351 190.26 16.5805 190.22C16.8159 190.183 17.0631 190.116 17.3222 190.019C17.409 189.991 17.4951 189.974 17.5808 189.966C17.6664 189.959 17.7509 189.972 17.8342 190.005ZM36.1191 193.45C35.7433 194.397 35.2339 195.211 34.591 195.893C33.954 196.577 33.2268 197.098 32.4094 197.456C31.5979 197.816 30.717 198.004 29.7667 198.019C28.8187 198.029 27.8476 197.836 26.8535 197.442C25.8593 197.047 25.0206 196.521 24.3373 195.864C23.6565 195.201 23.1413 194.459 22.7919 193.638C22.4425 192.817 22.2678 191.937 22.2678 191C22.2737 190.065 22.4646 189.124 22.8404 188.178C23.2163 187.231 23.7215 186.419 24.3561 185.74C24.999 185.058 25.7292 184.539 26.5466 184.181C27.364 183.823 28.2467 183.64 29.1947 183.63C30.145 183.614 31.1173 183.804 32.1115 184.199C33.1056 184.594 33.9432 185.122 34.624 185.786C35.3073 186.443 35.8194 187.184 36.1605 188.008C36.5099 188.829 36.6817 189.707 36.6757 190.642C36.6781 191.574 36.4926 192.509 36.1191 193.45ZM33.3776 192.362C33.6471 191.683 33.7989 191.04 33.833 190.434C33.8695 189.821 33.7926 189.26 33.6021 188.75C33.42 188.237 33.1269 187.786 32.7227 187.398C32.3268 187.006 31.8252 186.69 31.218 186.449C30.6108 186.208 30.0259 186.093 29.4633 186.104C28.9031 186.109 28.3777 186.235 27.887 186.481C27.4048 186.723 26.9668 187.08 26.5731 187.551C26.1817 188.016 25.8514 188.588 25.5819 189.266C25.3101 189.951 25.1559 190.6 25.1194 191.212C25.0853 191.819 25.1604 192.376 25.3449 192.883C25.5353 193.393 25.8315 193.845 26.2333 194.239C26.6375 194.627 27.1432 194.941 27.7505 195.182C28.3577 195.424 28.9384 195.54 29.4927 195.533C30.0553 195.522 30.5777 195.395 31.06 195.153C31.5483 194.912 31.988 194.56 32.3794 194.095C32.7731 193.624 33.1058 193.046 33.3776 192.362ZM56.7198 194.135L51.5752 207.092L49.2088 206.152L52.3679 198.196C52.4341 198.029 52.5079 197.852 52.5895 197.664C52.6771 197.478 52.7718 197.291 52.8736 197.104L46.3774 202.661C46.0213 202.967 45.632 203.037 45.2093 202.869L44.8342 202.72C44.6259 202.637 44.4602 202.516 44.3373 202.357C44.2168 202.192 44.1467 201.996 44.1271 201.767L43.2043 193.234C43.1394 193.45 43.0739 193.658 43.0078 193.859C42.9441 194.054 42.8791 194.235 42.813 194.402L39.6539 202.359L37.2875 201.419L42.432 188.462L44.468 189.27C44.5811 189.315 44.6812 189.358 44.7681 189.4C44.855 189.441 44.9253 189.49 44.979 189.545C45.041 189.598 45.087 189.664 45.1169 189.745C45.1552 189.822 45.181 189.922 45.1944 190.045L46.0757 198.396C46.1061 198.649 46.1251 198.905 46.1329 199.163C46.1467 199.423 46.1521 199.687 46.1492 199.955C46.3331 199.752 46.5175 199.557 46.7026 199.368C46.8936 199.182 47.0871 199.007 47.2829 198.844L53.6152 193.388C53.709 193.308 53.7963 193.253 53.8771 193.223C53.9602 193.187 54.0393 193.17 54.1142 193.173C54.1975 193.171 54.282 193.184 54.3677 193.211C54.4593 193.241 54.5647 193.279 54.6838 193.326L56.7198 194.135ZM58.7579 209.944L56.0611 208.873L61.2056 195.916L63.9024 196.987L58.7579 209.944ZM79.4981 203.179L74.3536 216.136L72.9695 215.586C72.7611 215.504 72.5985 215.401 72.4816 215.279C72.3671 215.151 72.2745 214.976 72.2037 214.755L69.0093 203.976C68.9444 204.192 68.8748 204.402 68.8004 204.607C68.7319 204.814 68.6634 205.004 68.5949 205.176L65.6202 212.668L63.2538 211.729L68.3983 198.772L69.8092 199.332C69.9224 199.377 70.0152 199.42 70.0879 199.463C70.1689 199.502 70.235 199.552 70.2863 199.614C70.34 199.67 70.386 199.736 70.4242 199.814C70.4625 199.891 70.4996 199.988 70.5356 200.106L73.7605 210.938C73.8265 210.703 73.8949 210.478 73.9657 210.265C74.0389 210.046 74.1133 209.841 74.1889 209.651L77.1317 202.239L79.4981 203.179ZM87.7777 213.826L92.2248 215.592L90.101 220.941C89.2487 221.161 88.4026 221.235 87.5627 221.163C86.7311 221.088 85.8986 220.885 85.0651 220.554C83.9995 220.131 83.1001 219.584 82.3668 218.914C81.636 218.238 81.081 217.484 80.7018 216.651C80.3226 215.818 80.1271 214.931 80.1152 213.989C80.1032 213.047 80.2875 212.096 80.6681 211.138C81.0534 210.168 81.5645 209.34 82.2015 208.656C82.8444 207.974 83.5764 207.458 84.3974 207.109C85.2184 206.759 86.1106 206.586 87.0741 206.59C88.0435 206.596 89.0461 206.804 90.082 207.215C90.6178 207.428 91.1001 207.671 91.529 207.945C91.9603 208.213 92.3416 208.502 92.6731 208.813C93.0069 209.118 93.2962 209.439 93.5409 209.778C93.7856 210.116 93.9922 210.463 94.1609 210.82L92.9089 211.708C92.7142 211.851 92.5133 211.906 92.3062 211.872C92.0992 211.838 91.9097 211.707 91.7379 211.481C91.5756 211.265 91.4103 211.065 91.2421 210.881C91.0823 210.693 90.9016 210.515 90.7002 210.345C90.4987 210.176 90.2693 210.016 90.012 209.865C89.7547 209.715 89.4475 209.569 89.0903 209.427C88.489 209.188 87.9029 209.076 87.3321 209.091C86.7612 209.105 86.2274 209.234 85.7309 209.478C85.2403 209.724 84.7963 210.079 84.399 210.541C84.0018 211.004 83.6719 211.566 83.4096 212.226C83.1259 212.941 82.973 213.621 82.9509 214.267C82.9311 214.907 83.029 215.494 83.2444 216.027C83.4599 216.561 83.7834 217.03 84.215 217.436C84.6526 217.844 85.1869 218.173 85.8179 218.424C86.2466 218.594 86.6441 218.704 87.0106 218.753C87.3854 218.798 87.7631 218.81 88.1436 218.789L89.0087 216.61L87.5442 216.029C87.3716 215.96 87.2524 215.861 87.1866 215.732C87.1292 215.598 87.1289 215.46 87.1856 215.318L87.7777 213.826ZM110.782 218.474C110.645 218.577 110.518 218.644 110.403 218.674C110.296 218.701 110.174 218.687 110.037 218.632C109.906 218.58 109.781 218.479 109.661 218.328C109.55 218.174 109.415 218.003 109.255 217.816C109.095 217.628 108.902 217.438 108.676 217.244C108.451 217.045 108.164 216.876 107.813 216.736C107.193 216.49 106.674 216.446 106.253 216.603C105.835 216.754 105.537 217.052 105.359 217.499C105.246 217.785 105.235 218.056 105.326 218.313C105.425 218.566 105.585 218.815 105.804 219.061C106.03 219.309 106.297 219.556 106.605 219.803C106.914 220.049 107.227 220.311 107.544 220.589C107.864 220.86 108.165 221.152 108.447 221.464C108.73 221.777 108.956 222.118 109.126 222.489C109.302 222.862 109.398 223.272 109.413 223.719C109.437 224.163 109.341 224.655 109.126 225.197C108.892 225.786 108.568 226.299 108.154 226.734C107.748 227.165 107.275 227.498 106.734 227.731C106.196 227.959 105.598 228.069 104.939 228.062C104.286 228.058 103.599 227.913 102.879 227.627C102.468 227.464 102.074 227.259 101.696 227.013C101.324 226.768 100.977 226.496 100.655 226.196C100.34 225.899 100.056 225.579 99.8055 225.239C99.5549 224.898 99.3554 224.55 99.207 224.195L100.496 223.239C100.6 223.169 100.717 223.126 100.847 223.109C100.981 223.086 101.107 223.098 101.226 223.146C101.386 223.21 101.533 223.336 101.664 223.526C101.795 223.716 101.949 223.929 102.124 224.164C102.299 224.399 102.515 224.636 102.772 224.876C103.034 225.118 103.379 225.324 103.808 225.494C104.433 225.742 104.972 225.791 105.425 225.64C105.884 225.491 106.225 225.134 106.45 224.569C106.58 224.241 106.599 223.942 106.506 223.671C106.42 223.402 106.267 223.145 106.048 222.9C105.828 222.654 105.562 222.414 105.248 222.179C104.937 221.938 104.621 221.685 104.299 221.42C103.977 221.154 103.674 220.868 103.389 220.562C103.104 220.256 102.879 219.912 102.713 219.529C102.548 219.146 102.46 218.718 102.448 218.245C102.442 217.774 102.558 217.238 102.797 216.637C102.988 216.154 103.269 215.725 103.639 215.348C104.01 214.971 104.449 214.681 104.957 214.476C105.466 214.271 106.031 214.168 106.652 214.166C107.278 214.167 107.94 214.306 108.637 214.582C109.417 214.892 110.088 215.3 110.652 215.807C111.225 216.309 111.655 216.866 111.943 217.477L110.782 218.474ZM126.321 229.264C125.945 230.21 125.436 231.025 124.793 231.707C124.156 232.391 123.429 232.912 122.611 233.27C121.8 233.63 120.919 233.818 119.969 233.833C119.021 233.843 118.049 233.65 117.055 233.256C116.061 232.861 115.222 232.335 114.539 231.678C113.858 231.014 113.343 230.272 112.994 229.451C112.644 228.63 112.47 227.751 112.47 226.814C112.476 225.879 112.666 224.938 113.042 223.992C113.418 223.045 113.923 222.233 114.558 221.554C115.201 220.872 115.931 220.352 116.748 219.995C117.566 219.637 118.449 219.453 119.397 219.444C120.347 219.428 121.319 219.618 122.313 220.013C123.307 220.407 124.145 220.936 124.826 221.599C125.509 222.257 126.021 222.998 126.362 223.822C126.712 224.643 126.883 225.521 126.878 226.456C126.88 227.387 126.694 228.323 126.321 229.264ZM123.579 228.175C123.849 227.497 124.001 226.854 124.035 226.247C124.071 225.635 123.994 225.074 123.804 224.564C123.622 224.05 123.329 223.6 122.924 223.212C122.529 222.82 122.027 222.504 121.42 222.263C120.813 222.022 120.228 221.907 119.665 221.918C119.105 221.923 118.579 222.048 118.089 222.295C117.607 222.537 117.169 222.894 116.775 223.365C116.384 223.83 116.053 224.402 115.784 225.08C115.512 225.765 115.358 226.413 115.321 227.026C115.287 227.633 115.362 228.19 115.547 228.697C115.737 229.207 116.033 229.659 116.435 230.053C116.839 230.441 117.345 230.755 117.952 230.996C118.56 231.237 119.14 231.354 119.695 231.347C120.257 231.336 120.78 231.209 121.262 230.966C121.75 230.726 122.19 230.374 122.581 229.909C122.975 229.438 123.308 228.86 123.579 228.175ZM142.583 235.721C142.207 236.667 141.698 237.481 141.055 238.163C140.418 238.848 139.691 239.369 138.873 239.727C138.062 240.087 137.181 240.275 136.231 240.29C135.283 240.3 134.312 240.107 133.317 239.712C132.323 239.318 131.484 238.792 130.801 238.134C130.12 237.471 129.605 236.729 129.256 235.908C128.906 235.087 128.732 234.208 128.732 233.271C128.738 232.336 128.928 231.395 129.304 230.448C129.68 229.502 130.185 228.689 130.82 228.011C131.463 227.329 132.193 226.809 133.011 226.451C133.828 226.094 134.711 225.91 135.659 225.9C136.609 225.885 137.581 226.075 138.575 226.469C139.57 226.864 140.407 227.393 141.088 228.056C141.771 228.713 142.283 229.454 142.624 230.279C142.974 231.1 143.146 231.978 143.14 232.913C143.142 233.844 142.956 234.78 142.583 235.721ZM139.842 234.632C140.111 233.954 140.263 233.311 140.297 232.704C140.333 232.091 140.256 231.53 140.066 231.02C139.884 230.507 139.591 230.056 139.187 229.669C138.791 229.277 138.289 228.961 137.682 228.72C137.075 228.479 136.49 228.363 135.927 228.374C135.367 228.379 134.842 228.505 134.351 228.751C133.869 228.994 133.431 229.351 133.037 229.822C132.646 230.286 132.315 230.858 132.046 231.537C131.774 232.222 131.62 232.87 131.583 233.483C131.549 234.09 131.624 234.647 131.809 235.154C131.999 235.664 132.295 236.116 132.697 236.51C133.101 236.897 133.607 237.212 134.214 237.453C134.822 237.694 135.402 237.811 135.957 237.804C136.519 237.793 137.042 237.666 137.524 237.423C138.012 237.183 138.452 236.83 138.843 236.365C139.237 235.895 139.57 235.317 139.842 234.632ZM159.996 235.139L154.851 248.097L153.467 247.547C153.259 247.464 153.096 247.362 152.979 247.24C152.865 247.112 152.772 246.937 152.701 246.716L149.507 235.937C149.442 236.152 149.372 236.363 149.298 236.567C149.23 236.774 149.161 236.964 149.092 237.137L146.118 244.629L143.751 243.69L148.896 230.732L150.307 231.293C150.42 231.338 150.513 231.381 150.585 231.424C150.666 231.463 150.733 231.513 150.784 231.575C150.838 231.631 150.884 231.697 150.922 231.775C150.96 231.852 150.997 231.949 151.033 232.067L154.258 242.899C154.324 242.663 154.392 242.439 154.463 242.226C154.536 242.007 154.611 241.802 154.687 241.612L157.629 234.2L159.996 235.139Z" fill="black"/>
<path d="M354.493 323.671C354.642 323.73 354.745 323.833 354.804 323.98L355.416 325.536C354.628 325.995 353.775 326.242 352.858 326.278C351.947 326.316 350.956 326.122 349.884 325.697C348.914 325.311 348.107 324.801 347.463 324.167C346.821 323.526 346.347 322.804 346.039 321.999C345.731 321.195 345.592 320.33 345.622 319.404C345.652 318.479 345.857 317.537 346.237 316.578C346.493 315.935 346.803 315.352 347.169 314.829C347.544 314.303 347.962 313.848 348.424 313.466C348.886 313.085 349.382 312.772 349.913 312.528C350.45 312.286 351.011 312.123 351.596 312.038C352.183 311.947 352.785 311.942 353.402 312.021C354.026 312.097 354.657 312.261 355.294 312.514C355.77 312.703 356.203 312.923 356.593 313.174C356.988 313.428 357.341 313.702 357.651 313.998C357.961 314.293 358.228 314.609 358.453 314.947C358.686 315.28 358.877 315.622 359.028 315.971L357.637 316.845C357.553 316.901 357.457 316.943 357.35 316.969C357.243 316.996 357.118 316.98 356.975 316.924C356.832 316.867 356.707 316.759 356.598 316.598C356.495 316.44 356.362 316.256 356.197 316.046C356.038 315.838 355.818 315.62 355.537 315.391C355.261 315.165 354.88 314.955 354.392 314.761C353.85 314.546 353.314 314.447 352.783 314.463C352.253 314.48 351.749 314.611 351.273 314.856C350.805 315.098 350.374 315.454 349.981 315.925C349.587 316.395 349.253 316.976 348.979 317.667C348.702 318.363 348.55 319.023 348.523 319.647C348.505 320.266 348.588 320.83 348.772 321.337C348.963 321.847 349.242 322.289 349.611 322.663C349.987 323.033 350.432 323.319 350.944 323.523C351.247 323.643 351.527 323.737 351.783 323.804C352.045 323.874 352.294 323.914 352.531 323.925C352.774 323.939 353.01 323.926 353.239 323.886C353.475 323.849 353.722 323.781 353.981 323.684C354.068 323.657 354.154 323.639 354.239 323.632C354.325 323.625 354.409 323.638 354.493 323.671ZM372.778 327.116C372.402 328.063 371.893 328.877 371.25 329.559C370.613 330.243 369.885 330.764 369.068 331.122C368.257 331.482 367.376 331.67 366.425 331.685C365.477 331.695 364.506 331.502 363.512 331.108C362.518 330.713 361.679 330.187 360.996 329.53C360.315 328.867 359.8 328.124 359.451 327.303C359.101 326.482 358.926 325.603 358.926 324.666C358.932 323.731 359.123 322.79 359.499 321.844C359.875 320.897 360.38 320.085 361.015 319.406C361.658 318.724 362.388 318.204 363.205 317.847C364.023 317.489 364.905 317.305 365.853 317.296C366.804 317.28 367.776 317.47 368.77 317.865C369.764 318.259 370.602 318.788 371.283 319.451C371.966 320.109 372.478 320.85 372.819 321.674C373.169 322.495 373.34 323.373 373.334 324.308C373.337 325.239 373.151 326.175 372.778 327.116ZM370.036 326.027C370.306 325.349 370.458 324.706 370.492 324.099C370.528 323.487 370.451 322.926 370.261 322.416C370.079 321.902 369.785 321.452 369.381 321.064C368.985 320.672 368.484 320.356 367.877 320.115C367.269 319.874 366.684 319.759 366.122 319.77C365.562 319.775 365.036 319.9 364.546 320.147C364.063 320.389 363.625 320.746 363.232 321.217C362.84 321.682 362.51 322.254 362.241 322.932C361.969 323.617 361.815 324.265 361.778 324.878C361.744 325.485 361.819 326.042 362.004 326.549C362.194 327.059 362.49 327.511 362.892 327.905C363.296 328.293 363.802 328.607 364.409 328.848C365.016 329.089 365.597 329.206 366.151 329.199C366.714 329.188 367.236 329.061 367.719 328.818C368.207 328.578 368.647 328.226 369.038 327.761C369.432 327.29 369.764 326.712 370.036 326.027ZM393.378 327.801L388.234 340.758L385.867 339.818L389.026 331.862C389.093 331.695 389.167 331.518 389.248 331.329C389.336 331.144 389.43 330.957 389.532 330.77L383.036 336.327C382.68 336.633 382.291 336.703 381.868 336.535L381.493 336.386C381.284 336.303 381.119 336.182 380.996 336.023C380.875 335.858 380.805 335.662 380.786 335.433L379.863 326.9C379.798 327.116 379.733 327.324 379.666 327.525C379.603 327.72 379.538 327.901 379.472 328.068L376.313 336.024L373.946 335.085L379.091 322.128L381.127 322.936C381.24 322.981 381.34 323.024 381.427 323.066C381.514 323.107 381.584 323.156 381.638 323.211C381.7 323.264 381.746 323.33 381.776 323.411C381.814 323.488 381.84 323.588 381.853 323.71L382.734 332.062C382.765 332.315 382.784 332.57 382.792 332.829C382.805 333.089 382.811 333.353 382.808 333.621C382.992 333.418 383.176 333.222 383.361 333.034C383.552 332.848 383.746 332.673 383.942 332.51L390.274 327.054C390.368 326.974 390.455 326.919 390.536 326.889C390.619 326.853 390.698 326.836 390.773 326.838C390.856 326.837 390.941 326.85 391.026 326.877C391.118 326.906 391.223 326.945 391.342 326.992L393.378 327.801ZM395.417 343.61L392.72 342.539L397.864 329.582L400.561 330.652L395.417 343.61ZM416.157 336.844L411.012 349.802L409.628 349.252C409.42 349.169 409.257 349.067 409.14 348.945C409.026 348.817 408.933 348.642 408.862 348.421L405.668 337.642C405.603 337.857 405.533 338.068 405.459 338.272C405.391 338.479 405.322 338.669 405.253 338.842L402.279 346.334L399.912 345.395L405.057 332.437L406.468 332.998C406.581 333.042 406.674 333.086 406.747 333.129C406.828 333.168 406.894 333.218 406.945 333.28C406.999 333.336 407.045 333.402 407.083 333.48C407.121 333.557 407.158 333.654 407.194 333.772L410.419 344.604C410.485 344.368 410.553 344.144 410.624 343.931C410.697 343.712 410.772 343.507 410.848 343.317L413.79 335.905L416.157 336.844ZM424.436 347.492L428.883 349.258L426.76 354.607C425.907 354.827 425.061 354.901 424.221 354.829C423.39 354.754 422.557 354.551 421.724 354.22C420.658 353.797 419.759 353.25 419.025 352.58C418.295 351.904 417.74 351.15 417.36 350.317C416.981 349.484 416.786 348.596 416.774 347.654C416.762 346.712 416.946 345.762 417.327 344.804C417.712 343.833 418.223 343.006 418.86 342.322C419.503 341.64 420.235 341.124 421.056 340.774C421.877 340.425 422.769 340.252 423.733 340.256C424.702 340.261 425.705 340.47 426.741 340.881C427.276 341.094 427.759 341.337 428.188 341.611C428.619 341.879 429 342.168 429.332 342.479C429.666 342.783 429.955 343.105 430.2 343.443C430.444 343.782 430.651 344.129 430.819 344.486L429.567 345.374C429.373 345.517 429.172 345.572 428.965 345.538C428.758 345.504 428.568 345.373 428.396 345.147C428.234 344.93 428.069 344.73 427.901 344.547C427.741 344.359 427.56 344.18 427.359 344.011C427.157 343.841 426.928 343.681 426.671 343.531C426.413 343.381 426.106 343.234 425.749 343.093C425.148 342.854 424.562 342.742 423.991 342.756C423.42 342.771 422.886 342.9 422.389 343.144C421.899 343.39 421.455 343.745 421.058 344.207C420.66 344.67 420.331 345.231 420.068 345.892C419.785 346.607 419.632 347.287 419.61 347.933C419.59 348.573 419.688 349.159 419.903 349.693C420.118 350.226 420.442 350.696 420.874 351.102C421.311 351.51 421.846 351.839 422.477 352.09C422.905 352.26 423.303 352.369 423.669 352.418C424.044 352.464 424.422 352.476 424.802 352.455L425.667 350.276L424.203 349.694C424.03 349.626 423.911 349.527 423.845 349.397C423.788 349.264 423.787 349.126 423.844 348.983L424.436 347.492ZM447.441 352.139C447.303 352.243 447.177 352.31 447.061 352.34C446.954 352.367 446.832 352.353 446.695 352.298C446.565 352.246 446.439 352.145 446.32 351.994C446.209 351.84 446.074 351.669 445.914 351.481C445.754 351.294 445.561 351.103 445.334 350.91C445.11 350.711 444.822 350.542 444.471 350.402C443.852 350.156 443.332 350.112 442.911 350.269C442.493 350.42 442.195 350.718 442.018 351.165C441.905 351.451 441.893 351.722 441.984 351.978C442.084 352.232 442.243 352.481 442.463 352.727C442.688 352.975 442.955 353.222 443.264 353.469C443.573 353.715 443.886 353.977 444.203 354.255C444.522 354.526 444.823 354.818 445.106 355.13C445.389 355.442 445.615 355.784 445.785 356.154C445.96 356.527 446.056 356.938 446.072 357.385C446.095 357.828 446 358.321 445.784 358.863C445.55 359.452 445.226 359.964 444.812 360.4C444.407 360.831 443.934 361.164 443.393 361.397C442.855 361.624 442.256 361.735 441.597 361.728C440.944 361.724 440.258 361.579 439.537 361.293C439.126 361.13 438.732 360.925 438.355 360.678C437.983 360.434 437.636 360.162 437.314 359.862C436.998 359.564 436.715 359.245 436.464 358.904C436.213 358.564 436.014 358.216 435.866 357.86L437.155 356.904C437.258 356.835 437.375 356.792 437.506 356.775C437.639 356.752 437.765 356.764 437.884 356.812C438.045 356.875 438.191 357.002 438.322 357.192C438.454 357.382 438.607 357.595 438.783 357.83C438.958 358.065 439.174 358.302 439.43 358.542C439.693 358.784 440.038 358.99 440.467 359.16C441.092 359.408 441.631 359.457 442.083 359.306C442.542 359.157 442.884 358.8 443.108 358.234C443.238 357.907 443.257 357.608 443.165 357.337C443.079 357.068 442.926 356.811 442.706 356.565C442.487 356.32 442.22 356.08 441.907 355.845C441.596 355.604 441.279 355.351 440.958 355.086C440.636 354.82 440.332 354.534 440.047 354.228C439.762 353.922 439.537 353.577 439.372 353.195C439.207 352.812 439.118 352.384 439.106 351.911C439.101 351.44 439.217 350.904 439.456 350.302C439.647 349.82 439.928 349.391 440.298 349.014C440.668 348.637 441.108 348.346 441.616 348.142C442.125 347.937 442.689 347.834 443.31 347.832C443.937 347.833 444.599 347.972 445.295 348.248C446.075 348.558 446.747 348.966 447.311 349.472C447.883 349.975 448.313 350.532 448.602 351.143L447.441 352.139ZM462.98 362.93C462.604 363.876 462.094 364.691 461.451 365.373C460.814 366.057 460.087 366.578 459.27 366.936C458.458 367.296 457.577 367.484 456.627 367.499C455.679 367.509 454.708 367.316 453.714 366.921C452.72 366.527 451.881 366.001 451.198 365.343C450.517 364.68 450.002 363.938 449.652 363.117C449.303 362.296 449.128 361.417 449.128 360.48C449.134 359.545 449.325 358.604 449.701 357.658C450.077 356.711 450.582 355.899 451.217 355.22C451.859 354.538 452.59 354.018 453.407 353.661C454.224 353.303 455.107 353.119 456.055 353.11C457.005 353.094 457.978 353.284 458.972 353.678C459.966 354.073 460.804 354.602 461.484 355.265C462.168 355.922 462.68 356.663 463.021 357.488C463.37 358.309 463.542 359.187 463.536 360.122C463.539 361.053 463.353 361.989 462.98 362.93ZM460.238 361.841C460.508 361.163 460.659 360.52 460.693 359.913C460.73 359.301 460.653 358.739 460.463 358.23C460.28 357.716 459.987 357.266 459.583 356.878C459.187 356.486 458.686 356.17 458.078 355.929C457.471 355.688 456.886 355.573 456.324 355.584C455.763 355.589 455.238 355.714 454.747 355.96C454.265 356.203 453.827 356.56 453.433 357.031C453.042 357.496 452.712 358.067 452.442 358.746C452.17 359.431 452.016 360.079 451.98 360.692C451.946 361.299 452.021 361.856 452.205 362.363C452.396 362.873 452.692 363.325 453.094 363.719C453.498 364.107 454.004 364.421 454.611 364.662C455.218 364.903 455.799 365.02 456.353 365.013C456.916 365.002 457.438 364.875 457.92 364.632C458.409 364.392 458.848 364.039 459.24 363.574C459.633 363.104 459.966 362.526 460.238 361.841ZM479.242 369.386C478.866 370.333 478.356 371.147 477.713 371.829C477.076 372.514 476.349 373.035 475.532 373.392C474.72 373.753 473.839 373.94 472.889 373.956C471.941 373.965 470.97 373.773 469.976 373.378C468.982 372.983 468.143 372.457 467.46 371.8C466.779 371.137 466.264 370.395 465.914 369.574C465.565 368.753 465.39 367.874 465.39 366.937C465.396 366.002 465.587 365.061 465.963 364.114C466.339 363.168 466.844 362.355 467.479 361.677C468.122 360.995 468.852 360.475 469.669 360.117C470.487 359.76 471.369 359.576 472.317 359.566C473.268 359.551 474.24 359.74 475.234 360.135C476.228 360.53 477.066 361.059 477.747 361.722C478.43 362.379 478.942 363.12 479.283 363.945C479.632 364.766 479.804 365.644 479.798 366.579C479.801 367.51 479.615 368.446 479.242 369.386ZM476.5 368.298C476.77 367.619 476.921 366.977 476.956 366.37C476.992 365.757 476.915 365.196 476.725 364.686C476.543 364.173 476.249 363.722 475.845 363.334C475.449 362.943 474.948 362.627 474.34 362.385C473.733 362.144 473.148 362.029 472.586 362.04C472.026 362.045 471.5 362.171 471.01 362.417C470.527 362.66 470.089 363.017 469.696 363.487C469.304 363.952 468.974 364.524 468.704 365.203C468.433 365.887 468.278 366.536 468.242 367.149C468.208 367.755 468.283 368.312 468.467 368.82C468.658 369.33 468.954 369.781 469.356 370.175C469.76 370.563 470.266 370.878 470.873 371.119C471.48 371.36 472.061 371.477 472.615 371.469C473.178 371.458 473.7 371.332 474.183 371.089C474.671 370.849 475.111 370.496 475.502 370.031C475.896 369.56 476.228 368.983 476.5 368.298ZM496.654 368.805L491.51 381.763L490.126 381.213C489.917 381.13 489.755 381.028 489.638 380.906C489.523 380.777 489.431 380.603 489.36 380.382L486.166 369.603C486.101 369.818 486.031 370.028 485.957 370.233C485.888 370.44 485.82 370.63 485.751 370.803L482.776 378.295L480.41 377.355L485.555 364.398L486.965 364.958C487.079 365.003 487.171 365.047 487.244 365.09C487.325 365.129 487.391 365.179 487.443 365.241C487.496 365.297 487.542 365.363 487.58 365.44C487.619 365.518 487.656 365.615 487.692 365.733L490.917 376.565C490.983 376.329 491.051 376.105 491.122 375.892C491.195 375.673 491.269 375.468 491.345 375.278L494.288 367.866L496.654 368.805Z" fill="black"/>
<g filter="url(#filter0_d_1162_194)">
<rect x="-355.031" y="541.559" width="2038.94" height="38.579" transform="rotate(-25.2014 -355.031 541.559)" fill="#FEC65A"/>
<path d="M176.426 318.763C176.571 318.695 176.717 318.69 176.864 318.748L178.419 319.365C178.214 320.254 177.811 321.045 177.21 321.739C176.615 322.429 175.796 323.02 174.752 323.511C173.808 323.956 172.884 324.196 171.98 324.232C171.074 324.262 170.222 324.114 169.425 323.788C168.628 323.463 167.901 322.973 167.246 322.318C166.592 321.664 166.045 320.87 165.605 319.937C165.311 319.311 165.098 318.685 164.967 318.06C164.839 317.427 164.793 316.811 164.83 316.213C164.867 315.615 164.978 315.039 165.164 314.485C165.354 313.928 165.619 313.407 165.957 312.922C166.293 312.432 166.7 311.988 167.179 311.593C167.662 311.189 168.213 310.841 168.833 310.549C169.297 310.331 169.754 310.166 170.203 310.053C170.659 309.938 171.1 309.868 171.528 309.844C171.955 309.82 172.369 309.841 172.768 309.908C173.171 309.966 173.551 310.06 173.909 310.189L173.596 311.802C173.579 311.902 173.544 312 173.49 312.096C173.436 312.192 173.339 312.273 173.2 312.338C173.061 312.404 172.896 312.421 172.705 312.391C172.519 312.358 172.294 312.329 172.028 312.306C171.768 312.28 171.458 312.291 171.099 312.34C170.745 312.386 170.331 312.52 169.855 312.744C169.328 312.992 168.889 313.316 168.539 313.714C168.188 314.113 167.94 314.57 167.793 315.085C167.649 315.591 167.614 316.149 167.688 316.758C167.763 317.368 167.958 318.008 168.274 318.681C168.593 319.359 168.971 319.921 169.408 320.367C169.847 320.804 170.315 321.129 170.811 321.341C171.313 321.551 171.827 321.649 172.352 321.636C172.879 321.614 173.392 321.486 173.891 321.251C174.186 321.112 174.446 320.972 174.67 320.832C174.9 320.688 175.1 320.534 175.27 320.369C175.446 320.201 175.598 320.02 175.726 319.825C175.859 319.628 175.979 319.401 176.086 319.146C176.125 319.064 176.171 318.989 176.224 318.922C176.277 318.854 176.345 318.801 176.426 318.763ZM191.443 307.778C191.877 308.699 192.123 309.628 192.181 310.563C192.244 311.496 192.127 312.383 191.829 313.224C191.537 314.062 191.072 314.833 190.433 315.537C189.792 316.235 188.987 316.812 188.02 317.268C187.052 317.723 186.094 317.976 185.148 318.025C184.198 318.068 183.305 317.936 182.467 317.63C181.629 317.323 180.868 316.85 180.184 316.209C179.506 315.565 178.95 314.783 178.516 313.861C178.082 312.94 177.835 312.015 177.774 311.088C177.716 310.153 177.836 309.265 178.134 308.424C178.432 307.582 178.902 306.813 179.543 306.115C180.181 305.411 180.985 304.831 181.953 304.375C182.92 303.92 183.879 303.671 184.829 303.627C185.775 303.578 186.666 303.711 187.501 304.026C188.339 304.333 189.097 304.808 189.775 305.451C190.456 306.086 191.012 306.862 191.443 307.778ZM188.774 309.034C188.463 308.373 188.098 307.823 187.679 307.383C187.257 306.937 186.795 306.61 186.293 306.4C185.794 306.182 185.264 306.087 184.705 306.117C184.148 306.138 183.575 306.288 182.983 306.566C182.392 306.844 181.908 307.192 181.532 307.61C181.152 308.023 180.885 308.492 180.729 309.018C180.576 309.536 180.537 310.1 180.611 310.709C180.683 311.312 180.874 311.944 181.185 312.605C181.499 313.272 181.867 313.828 182.289 314.273C182.708 314.713 183.166 315.039 183.662 315.251C184.164 315.461 184.696 315.554 185.259 315.53C185.818 315.5 186.393 315.347 186.985 315.068C187.576 314.79 188.058 314.446 188.432 314.037C188.808 313.619 189.073 313.151 189.226 312.633C189.384 312.113 189.428 311.551 189.356 310.947C189.282 310.338 189.088 309.7 188.774 309.034ZM206.03 293.215L211.966 305.829L209.662 306.913L206.017 299.167C205.941 299.005 205.862 298.83 205.781 298.641C205.705 298.45 205.634 298.254 205.567 298.052L205.179 306.591C205.159 307.061 204.943 307.392 204.532 307.586L204.167 307.758C203.964 307.853 203.762 307.891 203.562 307.872C203.359 307.847 203.168 307.764 202.988 307.622L196.131 302.46C196.244 302.655 196.351 302.845 196.452 303.031C196.551 303.211 196.639 303.382 196.715 303.544L200.36 311.29L198.057 312.374L192.121 299.76L194.103 298.828C194.213 298.776 194.313 298.732 194.402 298.697C194.492 298.662 194.576 298.644 194.653 298.643C194.733 298.633 194.813 298.645 194.893 298.679C194.975 298.704 195.066 298.753 195.164 298.827L201.86 303.895C202.066 304.046 202.266 304.207 202.459 304.377C202.659 304.546 202.855 304.722 203.048 304.907C203.026 304.635 203.01 304.366 202.999 304.102C202.994 303.836 202.998 303.575 203.013 303.32L203.362 294.969C203.368 294.846 203.388 294.745 203.421 294.665C203.452 294.58 203.493 294.511 203.546 294.458C203.602 294.396 203.669 294.343 203.748 294.299C203.832 294.253 203.932 294.202 204.048 294.147L206.03 293.215ZM218.959 302.538L216.333 303.774L210.397 291.159L213.023 289.924L218.959 302.538ZM228.205 282.779L234.142 295.393L232.794 296.027C232.591 296.123 232.405 296.171 232.236 296.173C232.064 296.169 231.874 296.117 231.664 296.018L221.615 290.977C221.728 291.172 221.833 291.367 221.932 291.561C222.036 291.753 222.128 291.932 222.207 292.1L225.639 299.394L223.336 300.478L217.399 287.864L218.773 287.218C218.883 287.166 218.979 287.128 219.059 287.104C219.143 287.072 219.225 287.058 219.305 287.063C219.383 287.062 219.463 287.074 219.545 287.099C219.628 287.124 219.724 287.163 219.835 287.217L229.944 292.272C229.817 292.062 229.7 291.859 229.593 291.662C229.483 291.458 229.385 291.264 229.297 291.079L225.902 283.863L228.205 282.779ZM241.636 284.019L245.966 281.982L248.416 287.189C247.994 287.961 247.469 288.629 246.843 289.193C246.219 289.749 245.502 290.217 244.69 290.599C243.653 291.087 242.639 291.37 241.649 291.446C240.655 291.517 239.725 291.406 238.858 291.113C237.991 290.821 237.21 290.356 236.515 289.721C235.819 289.085 235.252 288.301 234.813 287.368C234.368 286.423 234.114 285.485 234.05 284.552C233.992 283.616 234.117 282.73 234.423 281.892C234.73 281.054 235.214 280.284 235.875 279.584C236.542 278.881 237.38 278.292 238.388 277.817C238.91 277.572 239.417 277.386 239.91 277.26C240.401 277.129 240.872 277.048 241.326 277.019C241.776 276.984 242.209 276.993 242.623 277.045C243.037 277.098 243.432 277.185 243.807 277.306L243.599 278.827C243.571 279.067 243.473 279.25 243.307 279.378C243.14 279.506 242.916 279.555 242.633 279.526C242.364 279.496 242.105 279.48 241.856 279.477C241.61 279.465 241.356 279.475 241.095 279.506C240.833 279.537 240.56 279.595 240.274 279.68C239.988 279.765 239.671 279.889 239.324 280.053C238.738 280.328 238.256 280.679 237.876 281.106C237.496 281.532 237.226 282.01 237.064 282.539C236.908 283.066 236.863 283.632 236.929 284.238C236.995 284.844 237.179 285.469 237.482 286.112C237.809 286.808 238.201 287.384 238.657 287.842C239.11 288.294 239.605 288.624 240.142 288.832C240.679 289.039 241.242 289.124 241.834 289.087C242.431 289.047 243.036 288.882 243.651 288.593C244.068 288.396 244.42 288.181 244.706 287.947C244.995 287.705 245.263 287.438 245.507 287.146L244.509 285.024L243.083 285.695C242.915 285.774 242.762 285.794 242.622 285.753C242.486 285.704 242.385 285.61 242.319 285.471L241.636 284.019ZM260.758 270.412C260.74 270.583 260.702 270.721 260.645 270.826C260.591 270.922 260.498 271.002 260.364 271.064C260.237 271.124 260.077 271.146 259.886 271.13C259.697 271.106 259.48 271.088 259.234 271.076C258.988 271.065 258.717 271.075 258.421 271.108C258.122 271.136 257.802 271.23 257.46 271.391C256.857 271.674 256.469 272.023 256.296 272.437C256.12 272.846 256.134 273.267 256.339 273.702C256.47 273.98 256.66 274.174 256.91 274.283C257.162 274.384 257.453 274.438 257.783 274.446C258.118 274.451 258.481 274.425 258.872 274.368C259.263 274.312 259.668 274.263 260.087 274.221C260.504 274.174 260.923 274.154 261.344 274.161C261.765 274.168 262.169 274.236 262.555 274.366C262.948 274.493 263.312 274.703 263.649 274.998C263.989 275.284 264.283 275.691 264.531 276.218C264.801 276.792 264.953 277.379 264.988 277.978C265.025 278.569 264.944 279.142 264.745 279.696C264.543 280.244 264.214 280.756 263.759 281.233C263.309 281.706 262.733 282.108 262.032 282.438C261.632 282.626 261.213 282.774 260.775 282.881C260.343 282.985 259.907 283.052 259.468 283.082C259.035 283.109 258.608 283.097 258.188 283.047C257.768 282.997 257.378 282.905 257.017 282.77L257.201 281.175C257.221 281.053 257.27 280.938 257.347 280.831C257.421 280.718 257.516 280.634 257.632 280.58C257.789 280.506 257.981 280.486 258.21 280.52C258.438 280.554 258.698 280.588 258.989 280.621C259.281 280.653 259.602 280.658 259.952 280.635C260.308 280.609 260.694 280.498 261.112 280.301C261.72 280.015 262.124 279.655 262.324 279.221C262.529 278.785 262.502 278.292 262.243 277.741C262.093 277.422 261.887 277.204 261.627 277.086C261.372 276.965 261.079 276.901 260.75 276.893C260.421 276.885 260.063 276.915 259.678 276.984C259.289 277.046 258.888 277.104 258.474 277.157C258.061 277.21 257.644 277.236 257.226 277.235C256.808 277.233 256.403 277.162 256.011 277.021C255.619 276.88 255.246 276.652 254.892 276.337C254.544 276.019 254.233 275.567 253.957 274.982C253.736 274.513 253.615 274.014 253.593 273.486C253.571 272.959 253.66 272.439 253.858 271.928C254.057 271.417 254.367 270.935 254.791 270.48C255.22 270.024 255.774 269.636 256.452 269.317C257.211 268.959 257.968 268.748 258.723 268.683C259.482 268.609 260.182 268.676 260.825 268.883L260.758 270.412ZM279.257 266.453C279.691 267.374 279.937 268.303 279.995 269.238C280.058 270.171 279.941 271.058 279.643 271.899C279.351 272.737 278.886 273.509 278.247 274.213C277.606 274.911 276.801 275.488 275.833 275.943C274.866 276.399 273.908 276.651 272.962 276.7C272.012 276.743 271.118 276.612 270.28 276.305C269.442 275.999 268.681 275.525 267.998 274.884C267.319 274.24 266.764 273.458 266.33 272.536C265.896 271.615 265.649 270.691 265.588 269.764C265.53 268.828 265.65 267.94 265.948 267.099C266.246 266.258 266.716 265.488 267.357 264.79C267.995 264.086 268.799 263.506 269.766 263.051C270.734 262.595 271.693 262.346 272.642 262.303C273.589 262.254 274.48 262.386 275.315 262.701C276.153 263.008 276.911 263.483 277.589 264.127C278.27 264.762 278.826 265.537 279.257 266.453ZM276.588 267.709C276.277 267.048 275.912 266.498 275.493 266.058C275.071 265.613 274.609 265.285 274.106 265.075C273.607 264.857 273.078 264.763 272.519 264.793C271.962 264.814 271.389 264.963 270.797 265.242C270.206 265.52 269.722 265.868 269.346 266.286C268.966 266.698 268.698 267.167 268.543 267.694C268.39 268.211 268.351 268.775 268.425 269.384C268.497 269.988 268.688 270.62 268.999 271.28C269.313 271.947 269.68 272.503 270.102 272.949C270.522 273.388 270.98 273.714 271.476 273.927C271.978 274.136 272.51 274.229 273.073 274.205C273.632 274.176 274.207 274.022 274.798 273.744C275.39 273.466 275.872 273.122 276.246 272.712C276.622 272.294 276.887 271.826 277.04 271.309C277.198 270.788 277.242 270.226 277.17 269.622C277.096 269.013 276.902 268.375 276.588 267.709ZM295.089 259.003C295.522 259.924 295.768 260.853 295.826 261.788C295.89 262.721 295.773 263.608 295.475 264.449C295.183 265.287 294.717 266.058 294.079 266.762C293.437 267.461 292.633 268.037 291.665 268.493C290.697 268.948 289.74 269.201 288.793 269.25C287.844 269.293 286.95 269.161 286.112 268.855C285.274 268.549 284.513 268.075 283.829 267.434C283.151 266.79 282.595 266.008 282.162 265.086C281.728 264.165 281.481 263.24 281.419 262.313C281.362 261.378 281.482 260.49 281.779 259.649C282.077 258.808 282.547 258.038 283.188 257.34C283.827 256.636 284.63 256.056 285.598 255.601C286.566 255.145 287.524 254.896 288.474 254.852C289.421 254.803 290.312 254.936 291.146 255.251C291.984 255.558 292.742 256.033 293.421 256.676C294.102 257.312 294.658 258.087 295.089 259.003ZM292.42 260.259C292.109 259.598 291.744 259.048 291.324 258.608C290.902 258.162 290.44 257.835 289.938 257.625C289.439 257.407 288.91 257.313 288.35 257.342C287.794 257.363 287.22 257.513 286.629 257.791C286.038 258.07 285.554 258.418 285.177 258.836C284.798 259.248 284.53 259.717 284.374 260.243C284.222 260.761 284.182 261.325 284.257 261.934C284.328 262.537 284.519 263.169 284.83 263.83C285.144 264.497 285.512 265.053 285.934 265.498C286.353 265.938 286.811 266.264 287.308 266.477C287.81 266.686 288.342 266.779 288.904 266.755C289.464 266.726 290.039 266.572 290.63 266.293C291.221 266.015 291.704 265.671 292.077 265.262C292.454 264.844 292.719 264.376 292.871 263.858C293.03 263.338 293.073 262.776 293.002 262.172C292.927 261.563 292.733 260.925 292.42 260.259ZM306.572 245.9L312.508 258.514L311.161 259.149C310.958 259.244 310.772 259.293 310.603 259.294C310.431 259.29 310.24 259.238 310.03 259.139L299.981 254.099C300.094 254.293 300.2 254.488 300.298 254.682C300.403 254.874 300.494 255.054 300.573 255.222L304.006 262.515L301.702 263.6L295.766 250.985L297.14 250.339C297.25 250.287 297.345 250.249 297.426 250.226C297.51 250.193 297.592 250.179 297.672 250.184C297.749 250.183 297.829 250.195 297.912 250.22C297.994 250.245 298.091 250.284 298.201 250.339L308.31 255.393C308.183 255.184 308.066 254.98 307.959 254.783C307.85 254.58 307.751 254.385 307.664 254.2L304.268 246.984L306.572 245.9Z" fill="black"/>
<path d="M504.166 164.53C504.311 164.461 504.457 164.456 504.605 164.514L506.159 165.131C505.954 166.021 505.552 166.812 504.951 167.505C504.355 168.196 503.536 168.787 502.493 169.278C501.548 169.722 500.624 169.962 499.721 169.998C498.815 170.028 497.963 169.881 497.165 169.555C496.368 169.229 495.642 168.739 494.987 168.085C494.332 167.43 493.785 166.636 493.346 165.703C493.051 165.077 492.838 164.452 492.707 163.827C492.579 163.194 492.533 162.578 492.571 161.98C492.608 161.382 492.719 160.806 492.904 160.251C493.095 159.694 493.359 159.173 493.698 158.689C494.033 158.198 494.441 157.755 494.92 157.36C495.402 156.956 495.954 156.608 496.574 156.316C497.037 156.098 497.494 155.932 497.944 155.82C498.399 155.705 498.841 155.635 499.268 155.611C499.696 155.586 500.109 155.608 500.509 155.675C500.911 155.733 501.292 155.826 501.65 155.955L501.336 157.568C501.319 157.668 501.284 157.766 501.23 157.862C501.176 157.958 501.08 158.039 500.941 158.105C500.802 158.17 500.637 158.188 500.445 158.157C500.26 158.124 500.034 158.096 499.768 158.072C499.508 158.046 499.198 158.057 498.839 158.106C498.486 158.152 498.071 158.287 497.596 158.511C497.069 158.759 496.63 159.082 496.279 159.481C495.929 159.879 495.68 160.336 495.533 160.851C495.389 161.358 495.354 161.916 495.429 162.525C495.503 163.134 495.698 163.775 496.015 164.447C496.334 165.125 496.712 165.687 497.148 166.133C497.587 166.571 498.055 166.896 498.552 167.108C499.054 167.318 499.567 167.416 500.092 167.403C500.62 167.381 501.133 167.253 501.631 167.018C501.927 166.879 502.187 166.739 502.411 166.598C502.64 166.455 502.84 166.3 503.01 166.135C503.186 165.968 503.338 165.786 503.466 165.592C503.6 165.394 503.72 165.168 503.826 164.913C503.865 164.83 503.911 164.756 503.965 164.688C504.018 164.621 504.085 164.568 504.166 164.53ZM519.184 153.544C519.617 154.466 519.863 155.394 519.921 156.33C519.985 157.262 519.868 158.149 519.57 158.99C519.278 159.829 518.812 160.6 518.174 161.304C517.532 162.002 516.728 162.579 515.76 163.034C514.792 163.49 513.835 163.742 512.888 163.791C511.939 163.834 511.045 163.703 510.207 163.396C509.369 163.09 508.608 162.616 507.924 161.975C507.246 161.332 506.69 160.549 506.257 159.628C505.823 158.706 505.576 157.782 505.515 156.855C505.457 155.919 505.577 155.031 505.875 154.19C506.172 153.349 506.642 152.579 507.283 151.881C507.922 151.177 508.725 150.597 509.693 150.142C510.661 149.686 511.62 149.437 512.569 149.394C513.516 149.345 514.407 149.478 515.241 149.793C516.079 150.099 516.837 150.574 517.516 151.218C518.197 151.853 518.753 152.628 519.184 153.544ZM516.515 154.8C516.204 154.139 515.839 153.589 515.419 153.149C514.997 152.704 514.535 152.376 514.033 152.166C513.534 151.948 513.005 151.854 512.445 151.884C511.889 151.905 511.315 152.055 510.724 152.333C510.133 152.611 509.649 152.959 509.272 153.377C508.893 153.789 508.625 154.258 508.469 154.785C508.317 155.303 508.277 155.866 508.352 156.475C508.423 157.079 508.615 157.711 508.925 158.372C509.239 159.038 509.607 159.594 510.029 160.04C510.448 160.479 510.906 160.806 511.403 161.018C511.905 161.228 512.437 161.321 512.999 161.297C513.559 161.267 514.134 161.113 514.725 160.835C515.316 160.557 515.799 160.213 516.172 159.803C516.549 159.385 516.814 158.918 516.966 158.4C517.125 157.879 517.168 157.317 517.097 156.714C517.022 156.104 516.828 155.467 516.515 154.8ZM533.771 138.981L539.707 151.595L537.403 152.679L533.758 144.934C533.681 144.771 533.602 144.596 533.521 144.408C533.445 144.217 533.374 144.02 533.307 143.818L532.919 152.358C532.899 152.827 532.684 153.159 532.272 153.352L531.907 153.524C531.704 153.62 531.503 153.658 531.303 153.639C531.1 153.614 530.908 153.531 530.728 153.389L523.871 148.227C523.984 148.422 524.091 148.612 524.193 148.798C524.292 148.978 524.379 149.149 524.456 149.311L528.101 157.057L525.797 158.141L519.861 145.527L521.843 144.594C521.953 144.542 522.053 144.499 522.143 144.464C522.232 144.429 522.316 144.41 522.393 144.409C522.474 144.4 522.554 144.412 522.633 144.445C522.716 144.47 522.806 144.52 522.905 144.594L529.601 149.661C529.806 149.812 530.006 149.973 530.2 150.144C530.399 150.312 530.595 150.489 530.789 150.674C530.767 150.401 530.75 150.133 530.739 149.869C530.734 149.602 530.739 149.342 530.753 149.087L531.103 140.736C531.108 140.613 531.128 140.511 531.161 140.432C531.192 140.347 531.234 140.277 531.287 140.224C531.343 140.163 531.41 140.11 531.488 140.066C531.572 140.019 531.673 139.968 531.788 139.914L533.771 138.981ZM546.699 148.305L544.074 149.54L538.138 136.926L540.763 135.691L546.699 148.305ZM555.946 128.546L561.882 141.16L560.535 141.794C560.332 141.889 560.146 141.938 559.977 141.94C559.805 141.936 559.614 141.884 559.404 141.784L549.355 136.744C549.468 136.939 549.574 137.133 549.672 137.328C549.777 137.519 549.868 137.699 549.947 137.867L553.38 145.161L551.076 146.245L545.14 133.631L546.513 132.984C546.624 132.933 546.719 132.895 546.8 132.871C546.884 132.838 546.966 132.825 547.046 132.829C547.123 132.828 547.203 132.84 547.286 132.865C547.368 132.89 547.465 132.93 547.575 132.984L557.684 138.038C557.557 137.829 557.44 137.626 557.333 137.428C557.223 137.225 557.125 137.031 557.038 136.845L553.642 129.63L555.946 128.546ZM569.377 129.786L573.706 127.748L576.157 132.956C575.734 133.728 575.21 134.396 574.583 134.96C573.959 135.515 573.242 135.984 572.431 136.366C571.393 136.854 570.379 137.136 569.389 137.213C568.396 137.284 567.466 137.173 566.599 136.88C565.732 136.587 564.951 136.123 564.255 135.488C563.56 134.852 562.992 134.068 562.553 133.135C562.109 132.19 561.855 131.251 561.791 130.319C561.733 129.383 561.857 128.496 562.164 127.658C562.47 126.82 562.954 126.051 563.615 125.35C564.283 124.647 565.12 124.058 566.129 123.584C566.65 123.338 567.158 123.153 567.651 123.027C568.141 122.895 568.613 122.815 569.066 122.785C569.517 122.75 569.949 122.759 570.364 122.812C570.778 122.865 571.173 122.952 571.548 123.072L571.34 124.593C571.311 124.833 571.214 125.017 571.047 125.145C570.881 125.273 570.656 125.322 570.373 125.292C570.105 125.263 569.846 125.247 569.597 125.244C569.35 125.232 569.097 125.242 568.835 125.273C568.574 125.304 568.3 125.362 568.014 125.447C567.729 125.531 567.412 125.656 567.064 125.819C566.479 126.095 565.996 126.446 565.616 126.872C565.237 127.299 564.966 127.777 564.804 128.306C564.649 128.832 564.604 129.398 564.669 130.005C564.735 130.611 564.919 131.235 565.222 131.879C565.549 132.574 565.941 133.151 566.397 133.609C566.851 134.061 567.346 134.391 567.882 134.598C568.419 134.806 568.983 134.891 569.574 134.853C570.171 134.813 570.777 134.648 571.391 134.359C571.808 134.163 572.16 133.948 572.446 133.714C572.736 133.472 573.003 133.204 573.248 132.912L572.25 130.791L570.824 131.462C570.656 131.541 570.502 131.56 570.363 131.52C570.226 131.471 570.125 131.377 570.06 131.237L569.377 129.786ZM588.499 116.178C588.48 116.35 588.443 116.488 588.386 116.593C588.332 116.689 588.238 116.768 588.105 116.831C587.977 116.891 587.818 116.913 587.626 116.897C587.438 116.872 587.22 116.854 586.974 116.843C586.728 116.831 586.457 116.842 586.161 116.875C585.862 116.902 585.542 116.996 585.2 117.157C584.597 117.441 584.21 117.79 584.036 118.204C583.86 118.612 583.875 119.034 584.079 119.469C584.21 119.747 584.4 119.94 584.65 120.05C584.903 120.15 585.194 120.204 585.523 120.212C585.858 120.217 586.221 120.192 586.612 120.135C587.003 120.078 587.408 120.029 587.828 119.988C588.244 119.94 588.663 119.92 589.084 119.927C589.505 119.935 589.909 120.003 590.296 120.132C590.688 120.259 591.053 120.47 591.389 120.764C591.729 121.051 592.023 121.457 592.272 121.985C592.542 122.558 592.694 123.145 592.728 123.745C592.766 124.336 592.685 124.909 592.485 125.463C592.283 126.011 591.954 126.523 591.499 126.999C591.049 127.473 590.474 127.875 589.773 128.205C589.373 128.393 588.954 128.54 588.516 128.647C588.083 128.752 587.648 128.819 587.208 128.848C586.775 128.875 586.349 128.864 585.928 128.814C585.508 128.763 585.118 128.671 584.757 128.536L584.942 126.942C584.962 126.819 585.01 126.704 585.087 126.597C585.162 126.484 585.257 126.401 585.373 126.346C585.529 126.273 585.722 126.253 585.95 126.287C586.178 126.321 586.438 126.354 586.73 126.387C587.021 126.42 587.342 126.425 587.692 126.401C588.048 126.376 588.435 126.264 588.852 126.068C589.461 125.782 589.865 125.422 590.064 124.988C590.269 124.552 590.242 124.058 589.983 123.508C589.833 123.189 589.628 122.97 589.367 122.852C589.112 122.732 588.82 122.667 588.49 122.66C588.161 122.652 587.804 122.682 587.418 122.75C587.03 122.813 586.629 122.87 586.215 122.924C585.801 122.977 585.385 123.003 584.967 123.001C584.548 123 584.143 122.929 583.751 122.788C583.359 122.646 582.986 122.418 582.633 122.103C582.285 121.786 581.973 121.334 581.698 120.749C581.477 120.279 581.356 119.781 581.334 119.253C581.312 118.725 581.4 118.206 581.599 117.695C581.797 117.184 582.108 116.701 582.531 116.247C582.961 115.79 583.514 115.402 584.192 115.083C584.952 114.726 585.709 114.515 586.464 114.449C587.222 114.376 587.922 114.443 588.565 114.65L588.499 116.178ZM606.998 112.22C607.431 113.141 607.677 114.07 607.735 115.005C607.799 115.938 607.682 116.825 607.384 117.666C607.091 118.504 606.626 119.275 605.988 119.979C605.346 120.677 604.542 121.254 603.574 121.71C602.606 122.165 601.649 122.417 600.702 122.467C599.753 122.51 598.859 122.378 598.021 122.072C597.183 121.765 596.422 121.292 595.738 120.651C595.06 120.007 594.504 119.224 594.07 118.303C593.637 117.381 593.389 116.457 593.328 115.53C593.27 114.595 593.39 113.706 593.688 112.865C593.986 112.024 594.456 111.255 595.097 110.557C595.736 109.853 596.539 109.273 597.507 108.817C598.475 108.362 599.433 108.112 600.383 108.069C601.33 108.02 602.22 108.153 603.055 108.468C603.893 108.775 604.651 109.25 605.329 109.893C606.011 110.528 606.567 111.304 606.998 112.22ZM604.329 113.475C604.018 112.815 603.653 112.265 603.233 111.825C602.811 111.379 602.349 111.052 601.847 110.842C601.348 110.624 600.819 110.529 600.259 110.559C599.703 110.58 599.129 110.73 598.538 111.008C597.947 111.286 597.463 111.634 597.086 112.052C596.707 112.465 596.439 112.934 596.283 113.46C596.13 113.978 596.091 114.542 596.166 115.151C596.237 115.754 596.428 116.386 596.739 117.047C597.053 117.713 597.421 118.27 597.843 118.715C598.262 119.155 598.72 119.481 599.216 119.693C599.719 119.903 600.251 119.996 600.813 119.972C601.372 119.942 601.948 119.788 602.539 119.51C603.13 119.232 603.612 118.888 603.986 118.479C604.363 118.061 604.627 117.593 604.78 117.075C604.939 116.554 604.982 115.992 604.911 115.389C604.836 114.78 604.642 114.142 604.329 113.475ZM622.829 104.769C623.263 105.691 623.509 106.619 623.567 107.555C623.63 108.488 623.513 109.374 623.215 110.215C622.923 111.054 622.458 111.825 621.819 112.529C621.178 113.227 620.373 113.804 619.405 114.259C618.438 114.715 617.48 114.967 616.534 115.016C615.584 115.06 614.69 114.928 613.852 114.622C613.014 114.315 612.253 113.841 611.57 113.2C610.891 112.557 610.336 111.774 609.902 110.853C609.468 109.931 609.221 109.007 609.16 108.08C609.102 107.145 609.222 106.256 609.52 105.415C609.818 104.574 610.288 103.805 610.929 103.106C611.567 102.402 612.371 101.823 613.338 101.367C614.306 100.912 615.265 100.662 616.214 100.619C617.161 100.57 618.052 100.703 618.887 101.018C619.725 101.324 620.483 101.799 621.161 102.443C621.842 103.078 622.398 103.854 622.829 104.769ZM620.16 106.025C619.849 105.365 619.484 104.814 619.065 104.375C618.643 103.929 618.181 103.601 617.678 103.392C617.179 103.173 616.65 103.079 616.091 103.109C615.534 103.13 614.96 103.28 614.369 103.558C613.778 103.836 613.294 104.184 612.918 104.602C612.538 105.014 612.27 105.484 612.115 106.01C611.962 106.528 611.923 107.091 611.997 107.701C612.069 108.304 612.26 108.936 612.571 109.597C612.884 110.263 613.252 110.819 613.674 111.265C614.094 111.705 614.552 112.031 615.048 112.243C615.55 112.453 616.082 112.546 616.645 112.522C617.204 112.492 617.779 112.338 618.37 112.06C618.962 111.782 619.444 111.438 619.818 111.029C620.194 110.611 620.459 110.143 620.612 109.625C620.77 109.104 620.814 108.542 620.742 107.939C620.668 107.33 620.474 106.692 620.16 106.025ZM634.312 91.6668L640.249 104.281L638.901 104.915C638.698 105.011 638.512 105.059 638.343 105.061C638.171 105.057 637.981 105.005 637.771 104.905L627.722 99.8653C627.835 100.06 627.94 100.254 628.039 100.449C628.143 100.64 628.235 100.82 628.314 100.988L631.746 108.282L629.443 109.366L623.506 96.752L624.88 96.1056C624.99 96.0538 625.086 96.016 625.166 95.9921C625.25 95.9597 625.332 95.9459 625.412 95.9507C625.49 95.9496 625.57 95.9616 625.652 95.9865C625.735 96.0113 625.831 96.0509 625.942 96.1051L636.051 101.16C635.924 100.95 635.807 100.747 635.7 100.549C635.59 100.346 635.491 100.152 635.404 99.9665L632.009 92.7509L634.312 91.6668Z" fill="black"/>
</g>
<g filter="url(#filter1_d_1162_194)">
<rect x="-465.299" y="707.718" width="2038.94" height="38.579" transform="rotate(-9.37395 -465.299 707.718)" fill="#FEC65A"/>
<path d="M106.774 638.319C106.932 638.293 107.074 638.328 107.201 638.424L108.527 639.442C108.088 640.241 107.485 640.893 106.717 641.396C105.956 641.898 105.007 642.243 103.87 642.431C102.839 642.601 101.885 642.58 101.006 642.368C100.126 642.15 99.3468 641.775 98.6684 641.244C97.99 640.714 97.425 640.044 96.9735 639.236C96.5219 638.427 96.2122 637.514 96.0442 636.497C95.9315 635.814 95.8972 635.155 95.9414 634.518C95.9908 633.873 96.115 633.268 96.3138 632.703C96.5127 632.138 96.7767 631.614 97.106 631.131C97.4416 630.647 97.8382 630.218 98.2958 629.844C98.7524 629.464 99.2651 629.149 99.8342 628.899C100.408 628.642 101.034 628.457 101.71 628.346C102.216 628.262 102.7 628.228 103.163 628.242C103.633 628.256 104.077 628.309 104.495 628.402C104.912 628.496 105.305 628.629 105.671 628.802C106.042 628.968 106.383 629.162 106.692 629.383L105.95 630.85C105.907 630.941 105.846 631.026 105.768 631.104C105.69 631.181 105.575 631.233 105.424 631.258C105.272 631.283 105.108 631.255 104.933 631.173C104.763 631.091 104.554 631.002 104.304 630.907C104.061 630.811 103.76 630.737 103.401 630.686C103.048 630.634 102.613 630.651 102.095 630.736C101.52 630.831 101.009 631.023 100.563 631.31C100.117 631.598 99.7536 631.97 99.4717 632.425C99.1952 632.874 99.0095 633.401 98.9149 634.007C98.8202 634.614 98.8334 635.283 98.9544 636.017C99.0765 636.756 99.2866 637.4 99.5848 637.948C99.8883 638.488 100.25 638.929 100.67 639.268C101.095 639.607 101.563 639.841 102.071 639.972C102.585 640.095 103.113 640.111 103.657 640.022C103.979 639.968 104.267 639.905 104.521 639.83C104.781 639.755 105.016 639.661 105.224 639.549C105.439 639.435 105.635 639.302 105.811 639.15C105.994 638.996 106.171 638.811 106.343 638.595C106.403 638.526 106.468 638.467 106.537 638.416C106.607 638.366 106.686 638.334 106.774 638.319ZM124.219 631.846C124.385 632.851 124.368 633.811 124.168 634.727C123.975 635.642 123.621 636.463 123.105 637.191C122.595 637.918 121.937 638.533 121.131 639.036C120.323 639.533 119.392 639.868 118.337 640.042C117.281 640.217 116.291 640.198 115.367 639.987C114.442 639.77 113.618 639.4 112.895 638.876C112.173 638.353 111.57 637.69 111.087 636.886C110.61 636.082 110.288 635.178 110.122 634.173C109.957 633.168 109.971 632.211 110.165 631.303C110.364 630.387 110.722 629.565 111.238 628.837C111.754 628.109 112.416 627.497 113.223 627C114.029 626.497 114.96 626.158 116.016 625.984C117.071 625.81 118.061 625.831 118.987 626.049C119.911 626.26 120.732 626.631 121.449 627.161C122.172 627.685 122.771 628.349 123.248 629.153C123.73 629.95 124.054 630.847 124.219 631.846ZM121.308 632.326C121.19 631.606 120.988 630.977 120.705 630.439C120.42 629.896 120.065 629.454 119.639 629.116C119.218 628.77 118.735 628.535 118.189 628.411C117.648 628.279 117.055 628.267 116.41 628.373C115.765 628.479 115.205 628.682 114.729 628.982C114.251 629.275 113.866 629.653 113.572 630.117C113.284 630.574 113.093 631.105 112.998 631.712C112.902 632.312 112.914 632.972 113.033 633.692C113.153 634.419 113.355 635.055 113.64 635.598C113.923 636.136 114.275 636.574 114.694 636.914C115.12 637.253 115.607 637.487 116.154 637.618C116.701 637.742 117.296 637.751 117.941 637.644C118.585 637.538 119.143 637.338 119.614 637.046C120.091 636.747 120.473 636.369 120.761 635.913C121.056 635.455 121.251 634.926 121.346 634.326C121.441 633.72 121.428 633.053 121.308 632.326ZM142.224 621.813L144.495 635.568L141.983 635.983L140.589 627.537C140.559 627.36 140.531 627.17 140.504 626.966C140.484 626.762 140.469 626.554 140.459 626.341L137.757 634.451C137.61 634.897 137.312 635.157 136.863 635.231L136.465 635.297C136.244 635.333 136.04 635.315 135.852 635.242C135.664 635.163 135.503 635.031 135.368 634.845L130.179 628.009C130.234 628.227 130.286 628.439 130.333 628.646C130.379 628.846 130.416 629.034 130.445 629.211L131.84 637.658L129.328 638.072L127.057 624.317L129.218 623.96C129.338 623.941 129.446 623.926 129.542 623.917C129.638 623.907 129.723 623.913 129.798 623.933C129.878 623.946 129.952 623.979 130.019 624.033C130.092 624.079 130.165 624.151 130.24 624.25L135.3 630.951C135.456 631.153 135.605 631.362 135.744 631.579C135.89 631.795 136.031 632.019 136.167 632.25C136.22 631.981 136.277 631.718 136.338 631.462C136.406 631.204 136.482 630.954 136.565 630.713L139.179 622.774C139.218 622.657 139.265 622.565 139.319 622.498C139.371 622.424 139.43 622.369 139.496 622.332C139.566 622.288 139.645 622.255 139.733 622.234C139.827 622.212 139.937 622.191 140.063 622.17L142.224 621.813ZM152.12 634.31L149.257 634.782L146.986 621.027L149.849 620.555L152.12 634.31ZM166.405 617.822L168.676 631.577L167.207 631.819C166.985 631.856 166.793 631.852 166.63 631.807C166.466 631.756 166.297 631.654 166.122 631.502L157.828 623.912C157.884 624.13 157.933 624.346 157.974 624.56C158.022 624.772 158.062 624.97 158.092 625.154L159.405 633.107L156.893 633.522L154.622 619.767L156.12 619.52C156.24 619.5 156.342 619.489 156.426 619.488C156.516 619.48 156.598 619.489 156.674 619.516C156.749 619.536 156.823 619.569 156.895 619.615C156.968 619.662 157.05 619.726 157.141 619.809L165.489 627.428C165.424 627.193 165.367 626.965 165.317 626.746C165.267 626.52 165.225 626.307 165.192 626.104L163.893 618.236L166.405 617.822ZM178.989 622.678L183.71 621.898L184.647 627.577C184.03 628.204 183.343 628.704 182.586 629.076C181.835 629.44 181.017 629.695 180.132 629.841C179.001 630.028 177.949 630.023 176.975 629.827C176 629.624 175.135 629.264 174.381 628.746C173.627 628.227 173.002 627.568 172.506 626.767C172.01 625.966 171.679 625.056 171.511 624.039C171.341 623.009 171.352 622.036 171.545 621.121C171.744 620.206 172.106 619.386 172.629 618.664C173.153 617.941 173.828 617.333 174.656 616.839C175.489 616.345 176.456 616.007 177.556 615.825C178.124 615.731 178.663 615.691 179.172 615.704C179.679 615.711 180.155 615.763 180.599 615.858C181.042 615.947 181.456 616.074 181.84 616.238C182.224 616.401 182.58 616.593 182.909 616.811L182.294 618.217C182.201 618.441 182.057 618.591 181.862 618.669C181.667 618.746 181.437 618.732 181.173 618.626C180.923 618.525 180.678 618.439 180.439 618.368C180.205 618.29 179.959 618.23 179.698 618.188C179.438 618.147 179.159 618.128 178.861 618.132C178.563 618.135 178.225 618.169 177.846 618.231C177.207 618.337 176.647 618.543 176.166 618.849C175.684 619.156 175.293 619.542 174.993 620.007C174.7 620.471 174.502 621.003 174.4 621.604C174.298 622.206 174.305 622.857 174.421 623.558C174.546 624.317 174.766 624.978 175.08 625.543C175.393 626.102 175.779 626.554 176.238 626.9C176.698 627.246 177.217 627.482 177.796 627.607C178.382 627.731 179.009 627.738 179.679 627.627C180.134 627.552 180.531 627.441 180.871 627.294C181.215 627.14 181.545 626.956 181.86 626.742L181.478 624.429L179.924 624.685C179.741 624.715 179.587 624.692 179.464 624.615C179.346 624.531 179.275 624.413 179.25 624.261L178.989 622.678ZM201.097 614.802C201.032 614.962 200.959 615.084 200.875 615.169C200.797 615.247 200.685 615.298 200.54 615.322C200.401 615.345 200.242 615.323 200.062 615.255C199.887 615.18 199.683 615.103 199.449 615.025C199.215 614.947 198.952 614.883 198.658 614.834C198.363 614.779 198.029 614.782 197.657 614.844C196.999 614.952 196.531 615.182 196.251 615.534C195.971 615.878 195.87 616.288 195.948 616.762C195.998 617.065 196.128 617.303 196.338 617.476C196.554 617.642 196.819 617.774 197.134 617.871C197.455 617.967 197.811 618.042 198.203 618.094C198.595 618.146 198.998 618.209 199.413 618.284C199.826 618.352 200.235 618.447 200.638 618.568C201.041 618.69 201.411 618.866 201.747 619.096C202.09 619.325 202.384 619.627 202.627 620.002C202.876 620.37 203.048 620.842 203.143 621.417C203.247 622.043 203.233 622.649 203.103 623.235C202.977 623.814 202.743 624.343 202.4 624.821C202.056 625.293 201.6 625.697 201.032 626.031C200.47 626.364 199.807 626.593 199.043 626.719C198.606 626.791 198.163 626.819 197.712 626.803C197.268 626.785 196.831 626.731 196.4 626.639C195.976 626.547 195.569 626.42 195.178 626.257C194.788 626.094 194.437 625.899 194.127 625.671L194.739 624.187C194.792 624.074 194.87 623.977 194.973 623.895C195.076 623.807 195.19 623.752 195.316 623.731C195.487 623.703 195.677 623.737 195.888 623.832C196.098 623.927 196.339 624.03 196.611 624.141C196.882 624.252 197.19 624.344 197.533 624.417C197.882 624.489 198.285 624.488 198.74 624.413C199.403 624.303 199.89 624.067 200.2 623.704C200.517 623.34 200.625 622.858 200.526 622.258C200.469 621.91 200.331 621.644 200.112 621.46C199.9 621.274 199.636 621.132 199.321 621.035C199.007 620.938 198.655 620.869 198.265 620.83C197.874 620.784 197.473 620.73 197.06 620.668C196.647 620.607 196.24 620.518 195.838 620.403C195.436 620.287 195.065 620.108 194.727 619.865C194.388 619.623 194.092 619.302 193.837 618.902C193.589 618.502 193.413 617.982 193.307 617.344C193.223 616.832 193.242 616.319 193.365 615.805C193.488 615.292 193.715 614.816 194.045 614.379C194.375 613.941 194.806 613.562 195.337 613.24C195.875 612.918 196.513 612.695 197.253 612.573C198.08 612.437 198.867 612.44 199.611 612.583C200.36 612.719 201.016 612.975 201.578 613.349L201.097 614.802ZM219.974 616.038C220.14 617.043 220.123 618.004 219.924 618.919C219.731 619.834 219.376 620.655 218.86 621.383C218.351 622.11 217.693 622.725 216.886 623.228C216.079 623.725 215.147 624.061 214.092 624.235C213.037 624.409 212.047 624.391 211.123 624.18C210.197 623.963 209.373 623.592 208.651 623.069C207.928 622.545 207.325 621.882 206.842 621.079C206.365 620.275 206.044 619.37 205.878 618.365C205.712 617.361 205.726 616.404 205.92 615.495C206.12 614.58 206.477 613.758 206.994 613.03C207.51 612.302 208.171 611.69 208.979 611.193C209.785 610.69 210.716 610.351 211.771 610.177C212.827 610.002 213.817 610.024 214.742 610.241C215.667 610.452 216.487 610.823 217.205 611.354C217.927 611.877 218.527 612.541 219.004 613.345C219.486 614.142 219.809 615.04 219.974 616.038ZM217.064 616.519C216.945 615.798 216.744 615.169 216.46 614.632C216.176 614.088 215.821 613.647 215.395 613.308C214.974 612.962 214.49 612.727 213.944 612.603C213.403 612.472 212.81 612.459 212.166 612.566C211.521 612.672 210.96 612.875 210.484 613.174C210.007 613.467 209.621 613.846 209.328 614.31C209.039 614.766 208.848 615.298 208.753 615.904C208.658 616.504 208.669 617.164 208.788 617.885C208.908 618.612 209.11 619.247 209.395 619.791C209.679 620.328 210.03 620.767 210.45 621.107C210.876 621.445 211.362 621.68 211.91 621.81C212.456 621.934 213.052 621.943 213.696 621.837C214.341 621.73 214.899 621.531 215.37 621.239C215.846 620.94 216.229 620.562 216.517 620.105C216.811 619.647 217.006 619.119 217.102 618.519C217.197 617.912 217.184 617.246 217.064 616.519ZM237.238 613.188C237.403 614.193 237.387 615.154 237.187 616.069C236.994 616.984 236.64 617.806 236.124 618.534C235.614 619.26 234.956 619.875 234.15 620.379C233.342 620.875 232.411 621.211 231.355 621.385C230.3 621.559 229.31 621.541 228.386 621.33C227.461 621.113 226.637 620.742 225.914 620.219C225.191 619.696 224.589 619.032 224.105 618.229C223.629 617.425 223.307 616.52 223.141 615.516C222.975 614.511 222.99 613.554 223.184 612.646C223.383 611.73 223.741 610.908 224.257 610.18C224.773 609.452 225.435 608.84 226.242 608.343C227.048 607.84 227.979 607.501 229.035 607.327C230.09 607.153 231.08 607.174 232.006 607.391C232.93 607.602 233.751 607.973 234.468 608.504C235.191 609.027 235.79 609.691 236.267 610.495C236.749 611.292 237.073 612.19 237.238 613.188ZM234.327 613.669C234.208 612.948 234.007 612.319 233.724 611.782C233.439 611.238 233.084 610.797 232.658 610.458C232.237 610.112 231.754 609.877 231.207 609.753C230.666 609.622 230.074 609.609 229.429 609.716C228.784 609.822 228.224 610.025 227.747 610.324C227.27 610.617 226.884 610.996 226.591 611.46C226.303 611.916 226.111 612.448 226.017 613.054C225.921 613.654 225.933 614.315 226.052 615.035C226.172 615.762 226.374 616.397 226.658 616.941C226.942 617.478 227.293 617.917 227.713 618.257C228.139 618.595 228.626 618.83 229.173 618.96C229.719 619.084 230.315 619.093 230.959 618.987C231.604 618.88 232.162 618.681 232.633 618.389C233.11 618.09 233.492 617.712 233.78 617.255C234.075 616.798 234.27 616.269 234.365 615.669C234.46 615.062 234.447 614.396 234.327 613.669ZM251.859 603.715L254.13 617.47L252.66 617.712C252.439 617.749 252.247 617.745 252.084 617.7C251.92 617.649 251.75 617.548 251.576 617.395L243.282 609.805C243.338 610.023 243.386 610.239 243.428 610.453C243.476 610.665 243.515 610.863 243.546 611.047L244.859 619L242.347 619.415L240.076 605.66L241.574 605.413C241.694 605.393 241.796 605.382 241.88 605.382C241.97 605.373 242.052 605.382 242.128 605.409C242.203 605.429 242.276 605.462 242.349 605.509C242.422 605.555 242.504 605.619 242.595 605.702L250.942 613.322C250.877 613.086 250.82 612.858 250.771 612.639C250.721 612.414 250.679 612.2 250.646 611.998L249.347 604.129L251.859 603.715Z" fill="black"/>
<path d="M464.16 579.322C464.318 579.296 464.46 579.331 464.586 579.427L465.913 580.444C465.474 581.244 464.87 581.895 464.103 582.399C463.342 582.901 462.393 583.246 461.255 583.434C460.225 583.604 459.27 583.583 458.391 583.371C457.511 583.152 456.732 582.778 456.054 582.247C455.375 581.717 454.81 581.047 454.359 580.239C453.907 579.43 453.598 578.517 453.43 577.5C453.317 576.817 453.283 576.158 453.327 575.521C453.376 574.876 453.5 574.271 453.699 573.706C453.898 573.141 454.162 572.617 454.491 572.134C454.827 571.65 455.224 571.221 455.681 570.847C456.138 570.467 456.651 570.152 457.22 569.902C457.794 569.645 458.419 569.46 459.095 569.349C459.601 569.265 460.085 569.231 460.549 569.245C461.018 569.258 461.462 569.312 461.88 569.405C462.298 569.498 462.69 569.632 463.056 569.805C463.428 569.971 463.768 570.165 464.077 570.386L463.336 571.853C463.292 571.944 463.232 572.029 463.154 572.107C463.076 572.184 462.961 572.236 462.809 572.261C462.657 572.286 462.494 572.258 462.318 572.176C462.149 572.094 461.939 572.005 461.69 571.91C461.447 571.814 461.146 571.74 460.787 571.689C460.434 571.637 459.998 571.654 459.48 571.739C458.905 571.834 458.395 572.025 457.949 572.313C457.503 572.601 457.139 572.973 456.857 573.428C456.581 573.877 456.395 574.404 456.3 575.01C456.206 575.617 456.219 576.286 456.34 577.019C456.462 577.759 456.672 578.403 456.97 578.951C457.274 579.491 457.635 579.931 458.055 580.271C458.481 580.61 458.948 580.844 459.457 580.975C459.97 581.098 460.499 581.114 461.042 581.025C461.365 580.971 461.653 580.908 461.907 580.833C462.167 580.758 462.401 580.664 462.61 580.551C462.825 580.438 463.02 580.305 463.197 580.153C463.379 579.999 463.556 579.814 463.728 579.598C463.788 579.529 463.853 579.47 463.923 579.419C463.992 579.369 464.071 579.336 464.16 579.322ZM481.604 572.849C481.77 573.854 481.753 574.814 481.554 575.73C481.361 576.645 481.006 577.466 480.49 578.194C479.981 578.921 479.322 579.536 478.516 580.039C477.709 580.536 476.777 580.871 475.722 581.045C474.667 581.22 473.677 581.201 472.753 580.99C471.827 580.773 471.003 580.403 470.281 579.879C469.558 579.356 468.955 578.693 468.472 577.889C467.995 577.085 467.674 576.181 467.508 575.176C467.342 574.171 467.356 573.214 467.55 572.306C467.75 571.39 468.107 570.568 468.623 569.84C469.139 569.112 469.801 568.5 470.609 568.003C471.415 567.5 472.346 567.161 473.401 566.987C474.457 566.813 475.447 566.834 476.372 567.052C477.296 567.263 478.117 567.634 478.835 568.164C479.557 568.688 480.157 569.352 480.634 570.156C481.116 570.953 481.439 571.85 481.604 572.849ZM478.694 573.329C478.575 572.609 478.374 571.98 478.09 571.442C477.806 570.899 477.451 570.457 477.025 570.119C476.604 569.773 476.12 569.537 475.574 569.413C475.033 569.282 474.44 569.27 473.796 569.376C473.151 569.482 472.59 569.685 472.114 569.985C471.637 570.278 471.251 570.656 470.958 571.12C470.669 571.577 470.478 572.108 470.383 572.715C470.288 573.315 470.299 573.975 470.418 574.695C470.538 575.422 470.74 576.057 471.025 576.601C471.308 577.139 471.66 577.577 472.08 577.917C472.506 578.256 472.992 578.49 473.54 578.621C474.086 578.745 474.681 578.753 475.326 578.647C475.971 578.541 476.529 578.341 477 578.049C477.476 577.75 477.858 577.372 478.147 576.915C478.441 576.458 478.636 575.929 478.732 575.329C478.827 574.723 478.814 574.056 478.694 573.329ZM499.61 562.816L501.881 576.571L499.369 576.986L497.974 568.54C497.945 568.363 497.917 568.173 497.89 567.969C497.869 567.765 497.854 567.556 497.845 567.344L495.142 575.454C494.995 575.9 494.698 576.16 494.249 576.234L493.851 576.3C493.629 576.336 493.425 576.318 493.238 576.245C493.05 576.166 492.888 576.034 492.754 575.848L487.564 569.012C487.62 569.23 487.671 569.442 487.718 569.648C487.764 569.849 487.802 570.037 487.831 570.214L489.225 578.66L486.713 579.075L484.442 565.32L486.604 564.963C486.724 564.944 486.832 564.929 486.928 564.92C487.024 564.91 487.109 564.916 487.184 564.936C487.264 564.949 487.337 564.982 487.405 565.036C487.477 565.082 487.551 565.154 487.625 565.252L492.685 571.954C492.842 572.156 492.99 572.365 493.13 572.582C493.276 572.798 493.417 573.022 493.552 573.252C493.605 572.984 493.662 572.721 493.724 572.465C493.792 572.207 493.867 571.957 493.951 571.716L496.565 563.777C496.604 563.66 496.65 563.568 496.704 563.501C496.757 563.427 496.816 563.372 496.881 563.335C496.952 563.291 497.031 563.258 497.118 563.237C497.212 563.215 497.322 563.194 497.449 563.173L499.61 562.816ZM509.506 575.313L506.643 575.785L504.372 562.03L507.235 561.558L509.506 575.313ZM523.791 558.825L526.061 572.579L524.592 572.822C524.371 572.859 524.179 572.855 524.016 572.81C523.851 572.759 523.682 572.657 523.507 572.504L515.214 564.915C515.269 565.133 515.318 565.349 515.36 565.562C515.408 565.775 515.447 565.973 515.477 566.157L516.79 574.11L514.278 574.525L512.008 560.77L513.505 560.522C513.625 560.503 513.728 560.492 513.812 560.491C513.901 560.483 513.984 560.492 514.06 560.519C514.134 560.539 514.208 560.572 514.281 560.618C514.353 560.665 514.435 560.729 514.527 560.811L522.874 568.431C522.809 568.195 522.752 567.968 522.703 567.749C522.653 567.523 522.611 567.31 522.577 567.107L521.279 559.239L523.791 558.825ZM536.374 563.681L541.095 562.901L542.032 568.58C541.415 569.207 540.729 569.707 539.972 570.079C539.221 570.443 538.402 570.698 537.518 570.844C536.386 571.031 535.334 571.026 534.36 570.83C533.385 570.627 532.521 570.267 531.767 569.748C531.013 569.23 530.387 568.571 529.892 567.77C529.396 566.969 529.064 566.059 528.896 565.042C528.726 564.012 528.738 563.039 528.931 562.124C529.13 561.209 529.491 560.389 530.015 559.667C530.538 558.944 531.214 558.336 532.041 557.842C532.875 557.348 533.841 557.01 534.941 556.828C535.51 556.734 536.048 556.694 536.557 556.707C537.065 556.714 537.54 556.766 537.985 556.861C538.428 556.95 538.842 557.077 539.226 557.241C539.61 557.404 539.966 557.596 540.294 557.814L539.679 559.22C539.586 559.444 539.442 559.594 539.247 559.671C539.052 559.749 538.823 559.735 538.559 559.629C538.308 559.528 538.063 559.442 537.824 559.371C537.591 559.292 537.344 559.233 537.084 559.191C536.824 559.15 536.545 559.131 536.247 559.135C535.949 559.138 535.61 559.171 535.231 559.234C534.593 559.339 534.033 559.546 533.551 559.852C533.069 560.159 532.679 560.545 532.379 561.01C532.085 561.474 531.888 562.006 531.786 562.607C531.684 563.209 531.691 563.86 531.806 564.561C531.932 565.32 532.151 565.981 532.465 566.546C532.778 567.105 533.164 567.557 533.624 567.903C534.084 568.249 534.603 568.485 535.182 568.61C535.767 568.734 536.395 568.741 537.065 568.63C537.52 568.555 537.917 568.444 538.256 568.297C538.601 568.143 538.931 567.959 539.246 567.745L538.864 565.431L537.309 565.688C537.126 565.718 536.973 565.695 536.85 565.618C536.732 565.533 536.66 565.415 536.635 565.264L536.374 563.681ZM558.482 555.805C558.418 555.965 558.344 556.087 558.261 556.172C558.183 556.25 558.071 556.301 557.926 556.325C557.787 556.348 557.627 556.326 557.447 556.258C557.272 556.183 557.068 556.106 556.835 556.028C556.601 555.95 556.337 555.886 556.044 555.837C555.749 555.782 555.415 555.785 555.042 555.847C554.385 555.955 553.916 556.185 553.637 556.536C553.356 556.881 553.255 557.291 553.333 557.765C553.383 558.068 553.514 558.306 553.724 558.479C553.939 558.645 554.205 558.777 554.519 558.874C554.84 558.97 555.197 559.045 555.588 559.097C555.98 559.149 556.383 559.212 556.798 559.287C557.212 559.355 557.62 559.449 558.023 559.571C558.426 559.693 558.796 559.869 559.133 560.099C559.476 560.328 559.769 560.63 560.013 561.005C560.262 561.373 560.434 561.845 560.529 562.42C560.632 563.045 560.618 563.651 560.488 564.238C560.363 564.817 560.129 565.346 559.786 565.824C559.442 566.296 558.986 566.7 558.418 567.034C557.856 567.366 557.193 567.596 556.428 567.722C555.992 567.794 555.549 567.822 555.098 567.806C554.654 567.788 554.216 567.734 553.786 567.642C553.361 567.55 552.954 567.423 552.564 567.26C552.173 567.097 551.823 566.902 551.512 566.674L552.124 565.19C552.177 565.077 552.255 564.98 552.359 564.898C552.461 564.81 552.575 564.755 552.702 564.734C552.872 564.706 553.063 564.74 553.273 564.835C553.484 564.93 553.725 565.033 553.996 565.144C554.268 565.255 554.575 565.347 554.918 565.42C555.268 565.492 555.67 565.491 556.125 565.416C556.789 565.306 557.276 565.07 557.586 564.707C557.902 564.343 558.011 563.861 557.912 563.261C557.854 562.913 557.716 562.647 557.498 562.463C557.285 562.277 557.022 562.135 556.707 562.038C556.392 561.941 556.04 561.872 555.65 561.833C555.26 561.787 554.858 561.733 554.446 561.671C554.033 561.609 553.625 561.521 553.223 561.406C552.821 561.29 552.451 561.111 552.112 560.868C551.773 560.626 551.477 560.305 551.223 559.905C550.975 559.505 550.798 558.985 550.693 558.347C550.608 557.835 550.628 557.322 550.751 556.808C550.874 556.295 551.1 555.819 551.43 555.382C551.761 554.944 552.191 554.565 552.723 554.243C553.26 553.921 553.899 553.698 554.638 553.576C555.466 553.44 556.252 553.443 556.996 553.586C557.746 553.722 558.401 553.978 558.963 554.352L558.482 555.805ZM577.36 557.041C577.526 558.046 577.509 559.006 577.309 559.922C577.116 560.837 576.762 561.658 576.246 562.386C575.736 563.113 575.078 563.728 574.272 564.231C573.464 564.728 572.533 565.064 571.477 565.238C570.422 565.412 569.432 565.394 568.508 565.183C567.583 564.965 566.759 564.595 566.036 564.072C565.314 563.548 564.711 562.885 564.228 562.082C563.751 561.278 563.429 560.373 563.263 559.368C563.098 558.363 563.112 557.407 563.306 556.498C563.505 555.583 563.863 554.761 564.379 554.033C564.895 553.305 565.557 552.693 566.364 552.196C567.17 551.693 568.101 551.354 569.157 551.18C570.212 551.005 571.202 551.027 572.128 551.244C573.052 551.455 573.873 551.826 574.59 552.357C575.313 552.88 575.912 553.544 576.389 554.348C576.871 555.145 577.195 556.043 577.36 557.041ZM574.449 557.522C574.331 556.801 574.129 556.172 573.846 555.635C573.561 555.091 573.206 554.65 572.78 554.311C572.359 553.965 571.876 553.73 571.33 553.606C570.789 553.475 570.196 553.462 569.551 553.568C568.906 553.675 568.346 553.878 567.87 554.177C567.392 554.47 567.007 554.849 566.713 555.313C566.425 555.769 566.234 556.301 566.139 556.907C566.043 557.507 566.055 558.167 566.174 558.888C566.294 559.615 566.496 560.25 566.78 560.794C567.064 561.331 567.416 561.77 567.835 562.11C568.261 562.448 568.748 562.683 569.295 562.813C569.841 562.937 570.437 562.946 571.082 562.84C571.726 562.733 572.284 562.534 572.755 562.242C573.232 561.943 573.614 561.565 573.902 561.108C574.197 560.65 574.392 560.122 574.487 559.521C574.582 558.915 574.569 558.248 574.449 557.522ZM594.623 554.191C594.789 555.196 594.772 556.157 594.573 557.072C594.38 557.987 594.025 558.809 593.509 559.536C592.999 560.263 592.341 560.878 591.535 561.381C590.728 561.878 589.796 562.214 588.741 562.388C587.685 562.562 586.696 562.544 585.771 562.333C584.846 562.116 584.022 561.745 583.3 561.222C582.577 560.698 581.974 560.035 581.491 559.232C581.014 558.428 580.693 557.523 580.527 556.518C580.361 555.514 580.375 554.557 580.569 553.648C580.769 552.733 581.126 551.911 581.642 551.183C582.158 550.455 582.82 549.843 583.627 549.346C584.434 548.843 585.365 548.504 586.42 548.33C587.475 548.156 588.466 548.177 589.391 548.394C590.315 548.605 591.136 548.976 591.853 549.507C592.576 550.03 593.176 550.694 593.653 551.498C594.135 552.295 594.458 553.193 594.623 554.191ZM591.713 554.672C591.594 553.951 591.393 553.322 591.109 552.785C590.825 552.241 590.469 551.8 590.043 551.461C589.623 551.115 589.139 550.88 588.593 550.756C588.052 550.625 587.459 550.612 586.814 550.719C586.17 550.825 585.609 551.028 585.133 551.327C584.655 551.62 584.27 551.999 583.976 552.463C583.688 552.919 583.497 553.451 583.402 554.057C583.307 554.657 583.318 555.318 583.437 556.038C583.557 556.765 583.759 557.4 584.044 557.944C584.327 558.481 584.679 558.92 585.098 559.26C585.524 559.598 586.011 559.833 586.558 559.963C587.105 560.087 587.7 560.096 588.345 559.99C588.99 559.883 589.547 559.684 590.019 559.392C590.495 559.093 590.877 558.715 591.165 558.258C591.46 557.801 591.655 557.272 591.751 556.672C591.845 556.065 591.833 555.399 591.713 554.672ZM609.245 544.718L611.515 558.473L610.046 558.715C609.825 558.752 609.633 558.748 609.469 558.703C609.305 558.652 609.136 558.551 608.961 558.398L600.668 550.808C600.723 551.026 600.772 551.242 600.814 551.456C600.862 551.668 600.901 551.866 600.931 552.05L602.244 560.003L599.732 560.418L597.461 546.663L598.959 546.416C599.079 546.396 599.181 546.385 599.266 546.384C599.355 546.376 599.438 546.385 599.514 546.412C599.588 546.432 599.662 546.465 599.735 546.512C599.807 546.558 599.889 546.622 599.981 546.705L608.328 554.325C608.263 554.089 608.206 553.861 608.157 553.642C608.106 553.417 608.065 553.203 608.031 553L606.732 545.132L609.245 544.718Z" fill="black"/>
</g>
</g>
<defs>
<filter id="filter0_d_1162_194" x="-356.953" y="-327.585" width="1865.14" height="906.933" filterUnits="userSpaceOnUse" color-interpolation-filters="sRGB">
<feFlood flood-opacity="0" result="BackgroundImageFix"/>
<feColorMatrix in="SourceAlpha" type="matrix" values="0 0 0 0 0 0 0 0 0 0 0 0 0 0 0 0 0 0 127 0" result="hardAlpha"/>
<feOffset dy="0.960795"/>
<feGaussianBlur stdDeviation="0.960795"/>
<feComposite in2="hardAlpha" operator="out"/>
<feColorMatrix type="matrix" values="0 0 0 0 0 0 0 0 0 0 0 0 0 0 0 0 0 0 0.25 0"/>
<feBlend mode="normal" in2="BackgroundImageFix" result="effect1_dropShadow_1162_194"/>
<feBlend mode="normal" in="SourceGraphic" in2="effect1_dropShadow_1162_194" result="shape"/>
</filter>
<filter id="filter1_d_1162_194" x="-467.22" y="374.66" width="2021.84" height="374.004" filterUnits="userSpaceOnUse" color-interpolation-filters="sRGB">
<feFlood flood-opacity="0" result="BackgroundImageFix"/>
<feColorMatrix in="SourceAlpha" type="matrix" values="0 0 0 0 0 0 0 0 0 0 0 0 0 0 0 0 0 0 127 0" result="hardAlpha"/>
<feOffset dy="0.960795"/>
<feGaussianBlur stdDeviation="0.960795"/>
<feComposite in2="hardAlpha" operator="out"/>
<feColorMatrix type="matrix" values="0 0 0 0 0 0 0 0 0 0 0 0 0 0 0 0 0 0 0.25 0"/>
<feBlend mode="normal" in2="BackgroundImageFix" result="effect1_dropShadow_1162_194"/>
<feBlend mode="normal" in="SourceGraphic" in2="effect1_dropShadow_1162_194" result="shape"/>
</filter>
<clipPath id="clip0_1162_194">
<rect width="600" height="800" fill="white"/>
</clipPath>
</defs>
</svg>
