<svg width="162" height="131" viewBox="0 0 162 131" fill="none" xmlns="http://www.w3.org/2000/svg">
<path d="M56.2328 36.5136C55.5073 36.1545 55.18 35.5975 55.251 34.8425L55.3118 34.7043C55.3812 34.6122 55.4593 34.5086 55.546 34.3935C55.6385 34.2612 55.7339 34.1346 55.8322 34.0137C55.9334 33.8843 56.0633 33.7837 56.222 33.712C56.2741 33.6429 56.3608 33.5423 56.4821 33.41C56.615 33.2719 56.8216 33.0721 57.1018 32.8104C57.3242 32.6063 57.4989 32.4439 57.626 32.3231C57.7618 32.2052 57.8686 32.1161 57.9466 32.0558C57.9124 31.8712 57.8423 31.6794 57.7361 31.4803C57.6849 31.1746 57.6467 30.8878 57.6213 30.6197C57.6076 30.3458 57.6067 30.1051 57.6187 29.8976C57.6797 29.6874 57.7163 29.4641 57.7283 29.2278C57.7401 29.1067 57.7519 28.9857 57.7638 28.8647C57.7756 28.7436 57.8018 28.6226 57.8424 28.5017C57.8282 28.4296 57.8241 28.3417 57.8301 28.2379L57.9082 28.0911C57.9746 28.0365 58.0138 27.9487 58.0256 27.8276C58.0489 27.7009 58.0636 27.5712 58.0697 27.4386C58.0815 27.3176 58.0948 27.1923 58.1095 27.0626C58.1357 26.9272 58.1735 26.8005 58.2228 26.6824C58.272 26.5643 58.3415 26.4579 58.431 26.3629C58.5293 26.2709 58.6605 26.2093 58.8249 26.1779L58.985 26.1308L59.0885 26.2521C59.1632 26.3445 59.2365 26.4268 59.3084 26.499C59.3803 26.5712 59.4522 26.6434 59.5241 26.7157C59.6103 26.8023 59.6951 26.8933 59.7785 26.9886C59.8648 27.0753 59.9568 27.1735 60.0545 27.2833L60.1537 27.4175L60.0928 27.5557C60.087 27.573 60.0841 27.5961 60.084 27.6249C60.0839 27.6537 60.0896 27.6797 60.1011 27.7028L60.2306 27.7895L60.1826 27.9753L60.1304 28.1308C60.1043 28.2086 60.0897 28.2662 60.0867 28.3037C60.0867 28.3325 60.0938 28.3685 60.1081 28.4118L60.1163 28.6021C60.0641 28.7576 60.0306 28.9002 60.0159 29.0299C60.0012 29.1595 59.9908 29.2906 59.9847 29.4232C59.9873 29.5587 59.9798 29.6956 59.9621 29.8339C59.9474 29.9636 59.9068 30.0989 59.8401 30.24C59.9007 30.2315 59.9656 30.21 60.0349 30.1756C60.0579 30.1641 60.081 30.1527 60.1041 30.1412C60.1358 30.1326 60.1676 30.124 60.1993 30.1155L61.5201 29.189L61.5464 29.0248L61.9749 28.8225C62.0845 28.7824 62.1898 28.7409 62.2908 28.6979C62.3947 28.6463 62.4885 28.5816 62.5723 28.504L62.6892 28.4135C63.2521 28.0257 63.8607 27.8743 64.5147 27.9594L64.7525 27.9816L64.7476 28.2107C64.7502 28.3462 64.796 28.4818 64.885 28.6174C64.9856 28.7474 65.0948 28.8802 65.2127 29.016L65.3248 29.1546C65.3418 29.2757 65.3416 29.3621 65.3242 29.414C65.3068 29.4658 65.2879 29.5076 65.2677 29.5392L65.2759 29.7295C65.0967 29.9481 64.9321 30.0947 64.782 30.1693C64.6349 30.2353 64.4848 30.2954 64.3319 30.3499C64.2108 30.3957 64.0983 30.4444 63.9944 30.4961C63.8905 30.5477 63.801 30.6138 63.7259 30.6943L63.5786 30.7891C63.3249 30.8289 63.1315 30.9466 62.9985 31.1423L62.8857 31.3063L62.6913 31.241C62.6827 31.2381 62.6538 31.2524 62.6047 31.284C62.5586 31.307 62.4762 31.3803 62.3578 31.504C62.2452 31.5815 62.1658 31.6318 62.1196 31.6547C62.085 31.6719 62.0562 31.6863 62.0331 31.6978C62.0013 31.7352 61.9709 31.7682 61.9421 31.797C61.9218 31.8287 61.8943 31.8675 61.8596 31.9135L61.747 31.9911C61.6461 32.0341 61.5667 32.0844 61.5089 32.1419C61.454 32.1907 61.3905 32.2511 61.3183 32.323C61.2576 32.3892 61.1911 32.4582 61.1189 32.5301C61.0496 32.5933 60.963 32.6508 60.8591 32.7024L60.8371 32.8537L60.703 32.9096C60.6135 32.9468 60.5269 33.0043 60.4432 33.0819C60.3623 33.1509 60.28 33.2242 60.1962 33.3018C60.1096 33.3881 60.0186 33.4729 59.9233 33.5563C59.8279 33.6396 59.7183 33.7086 59.5942 33.763C59.4815 33.8982 59.3847 34.0003 59.3038 34.0693C59.2316 34.1412 59.119 34.2188 58.966 34.302C58.7231 34.6819 58.3273 35.0442 57.7789 35.3888C57.7383 35.4809 57.6762 35.5658 57.5924 35.6434C57.5202 35.7153 57.4451 35.7814 57.3671 35.8418C57.3382 35.8705 57.3036 35.9022 57.2631 35.9367C57.2343 35.9654 57.2126 35.987 57.1981 36.0014L57.1114 36.1309C57.0276 36.2085 56.9453 36.2674 56.8645 36.3075C56.7924 36.3506 56.7217 36.3894 56.6524 36.4238C56.6207 36.4324 56.5875 36.4453 56.5529 36.4625C56.5269 36.4826 56.5024 36.4984 56.4793 36.5099L56.2328 36.5136ZM65.0217 39.0476C64.6241 38.9718 64.2843 38.8384 64.0023 38.6475C63.7203 38.4566 63.4845 38.2284 63.2948 37.9628C63.1139 37.7 62.9747 37.4129 62.8775 37.1014C62.7888 36.7928 62.7362 36.4771 62.7197 36.1542C62.8393 35.5406 63.0394 35.0165 63.32 34.5819C63.6035 34.1387 63.9301 33.7532 64.2997 33.4255C64.6694 33.0977 65.0607 32.8061 65.4734 32.5505C65.8948 32.2979 66.2989 32.0538 66.6857 31.8184C66.7375 31.8646 66.785 31.8806 66.8282 31.8662C66.8802 31.8548 66.9263 31.8319 66.9668 31.7974C67.0158 31.7658 67.0649 31.7342 67.114 31.7026C67.1717 31.6739 67.2294 31.6597 67.287 31.6598C67.3477 31.5936 67.4127 31.5433 67.4819 31.5089C67.5598 31.4774 67.6363 31.4502 67.7112 31.4273C67.7978 31.3987 67.8757 31.3672 67.9449 31.3327C68.0228 31.3012 68.0964 31.2538 68.1658 31.1906C68.258 31.2023 68.3416 31.1967 68.4166 31.1739C68.5002 31.1539 68.5766 31.1267 68.6459 31.0922C68.7238 31.0607 68.8002 31.0335 68.8752 31.0106C68.9502 30.9877 69.0353 30.9779 69.1304 30.981L69.187 30.8125C69.4061 30.7899 69.5762 30.7413 69.6975 30.6667C69.8187 30.592 69.9674 30.4929 70.1435 30.3694C70.2414 30.3927 70.3163 30.413 70.3681 30.4304C70.4286 30.4507 70.5222 30.4726 70.649 30.4959C70.7761 30.3752 70.8858 30.2918 70.9782 30.2459C71.0705 30.2 71.196 30.1556 71.3546 30.1128C71.461 30.2254 71.5847 30.3151 71.7258 30.3817C71.8698 30.4397 71.982 30.5495 72.0623 30.711C72.0361 30.8176 72.0388 30.9099 72.0703 30.9878C72.1047 31.057 72.1435 31.1277 72.1865 31.1999C72.2325 31.2634 72.277 31.3312 72.3201 31.4034C72.3632 31.4756 72.3774 31.5621 72.3627 31.6629C72.4059 31.6774 72.4347 31.6775 72.4492 31.6631C72.4723 31.6516 72.504 31.6575 72.5443 31.6806C72.5383 31.7555 72.5367 31.8175 72.5395 31.8665C72.5423 31.9155 72.5465 31.9602 72.5522 32.0006C72.5665 32.0438 72.575 32.09 72.5778 32.139C72.5892 32.1909 72.5934 32.25 72.5903 32.3163C72.5123 32.4054 72.4357 32.5047 72.3605 32.6141C72.2882 32.7148 72.193 32.7693 72.0748 32.7777C72.0516 32.8468 72.0644 32.8944 72.1134 32.9204C72.1652 32.9379 72.1853 32.9783 72.1736 33.0416C72.1561 33.1223 72.1214 33.1827 72.0694 33.223C72.1749 33.7103 72.2516 34.212 72.2994 34.7281C72.3501 35.2355 72.4325 35.7343 72.5467 36.2246C72.4888 36.3397 72.4525 36.4621 72.4378 36.5918C72.4346 36.7157 72.4357 36.8411 72.4412 36.9679C72.4553 37.0977 72.4651 37.226 72.4706 37.3528C72.4761 37.4796 72.4686 37.6021 72.4481 37.7202C72.4161 37.8729 72.3624 38.0328 72.287 38.1998C72.2146 38.3581 72.1264 38.5064 72.0223 38.6445C71.9182 38.7826 71.7997 38.9062 71.6669 39.0155C71.537 39.116 71.4042 39.182 71.2687 39.2134C71.0724 39.3398 70.8517 39.4243 70.6066 39.467C70.3644 39.501 70.1323 39.5624 69.9101 39.6513C69.7659 39.6797 69.6189 39.688 69.4691 39.6762C69.3221 39.6557 69.1694 39.638 69.0109 39.6232C68.8754 39.6546 68.7182 39.6788 68.5395 39.6956C68.3636 39.7039 68.1849 39.7063 68.0034 39.703C67.8218 39.6997 67.6431 39.6878 67.4673 39.6672C67.2945 39.638 67.1461 39.593 67.0223 39.5322C66.6736 39.54 66.345 39.5162 66.0368 39.4607C65.7285 39.4052 65.3901 39.2675 65.0217 39.0476ZM66.7748 34.3867C66.6217 34.5564 66.4571 34.703 66.281 34.8265C66.1164 34.9443 65.9504 35.0664 65.7829 35.1929C65.6154 35.3193 65.4566 35.4631 65.3063 35.6241C65.1676 35.7794 65.0519 35.9809 64.9591 36.2286C65.0825 36.4335 65.2551 36.5924 65.4768 36.7054C65.71 36.8126 65.9548 36.8996 66.2111 36.9665C66.4704 37.0247 66.7326 37.0743 66.9977 37.1153C67.2627 37.1563 67.4946 37.2101 67.6934 37.2769C67.7195 37.1991 67.7671 37.1718 67.8362 37.1951C68.2107 37.2824 68.5811 37.2962 68.9473 37.2365C69.3163 37.1682 69.6984 37.1043 70.0934 37.0446C70.1714 36.9555 70.2581 36.8836 70.3533 36.8291C70.4486 36.7745 70.5252 36.6753 70.5832 36.5313C70.5661 36.439 70.5576 36.3641 70.5577 36.3064C70.5665 36.2517 70.5883 36.1725 70.6231 36.0688C70.503 35.6823 70.4218 35.28 70.3795 34.862C70.3401 34.4353 70.2676 34.0215 70.1619 33.6206C70.1301 33.658 70.081 33.6896 70.0147 33.7154C69.9483 33.7412 69.895 33.7137 69.8549 33.6329C69.7999 33.7106 69.7407 33.758 69.6773 33.7752C69.6167 33.7837 69.5519 33.7763 69.4828 33.7531C69.4223 33.7328 69.3619 33.6981 69.3014 33.6489C69.2497 33.6027 69.2051 33.5492 69.1678 33.4886C68.7841 33.629 68.4034 33.7607 68.0255 33.8837C67.6563 34.0097 67.2999 34.1833 66.9564 34.4044C66.9045 34.4158 66.8757 34.4157 66.8699 34.4042C66.8642 34.3927 66.8325 34.3868 66.7748 34.3867ZM75.9474 35.5208C75.9679 35.4027 75.9695 35.3263 75.9523 35.2917C76.065 35.1565 76.159 35.0198 76.2342 34.8816C76.321 34.7377 76.3963 34.5995 76.46 34.4671C76.5179 34.3519 76.5729 34.2454 76.6251 34.1475C76.6858 34.0525 76.7494 33.9633 76.8159 33.8799C76.9744 33.8947 77.1027 33.8705 77.2009 33.8073C77.3105 33.7384 77.3986 33.6766 77.465 33.622C77.6234 33.6656 77.7156 33.7206 77.7413 33.7869C77.7758 33.8562 77.8029 33.9614 77.8228 34.1027C77.834 34.2123 77.8597 34.3363 77.8997 34.4747C77.9426 34.6045 78.0317 34.7258 78.1669 34.8385C78.1609 34.9423 78.1607 35.0431 78.1662 35.1411C78.1718 35.2392 78.1802 35.3429 78.1914 35.4525C78.2083 35.6601 78.2178 35.8748 78.2202 36.0968C78.2255 36.3101 78.2034 36.5046 78.154 36.6803C77.9836 36.8442 77.8246 37.0456 77.677 37.2844C77.5381 37.5262 77.415 37.7781 77.3078 38.0402C77.2121 38.2965 77.1366 38.55 77.0812 38.8006C77.0259 39.0512 77.0009 39.2688 77.0062 39.4533L77.0143 39.6867L77.3081 39.7566C77.6453 39.7833 77.9551 39.7912 78.2376 39.7804C78.523 39.7608 78.7969 39.7182 79.0594 39.6526C79.3218 39.5869 79.5814 39.501 79.8382 39.395C80.0979 39.2803 80.3763 39.1382 80.6736 38.9689C80.9622 38.7966 81.2394 38.5868 81.5052 38.3396C81.7738 38.0837 82.0151 37.809 82.2291 37.5155C82.4517 37.2249 82.6484 36.9256 82.8191 36.6176C82.9899 36.3096 83.1318 36.0159 83.2449 35.7366C83.4352 35.714 83.568 35.6192 83.6433 35.4522L83.661 35.2706C83.6496 35.2187 83.6497 35.1755 83.6613 35.1409C83.6845 35.1006 83.7105 35.0661 83.7394 35.0373C83.8752 34.8618 84.0715 34.7643 84.328 34.7447C84.4487 34.9006 84.5536 35.0608 84.6425 35.2253C84.7401 35.3927 84.8248 35.5558 84.8965 35.7145C84.8354 35.9536 84.8018 36.1682 84.7956 36.3584C84.7923 36.54 84.7947 36.7187 84.803 36.8945C84.8141 37.0617 84.8181 37.2217 84.8148 37.3745C84.8202 37.5301 84.7982 37.7102 84.7487 37.9148C84.5752 38.1449 84.4277 38.3694 84.3062 38.5882C84.1961 38.8012 84.0818 39.0272 83.963 39.2662L83.8892 39.4C83.6437 39.6156 83.3953 39.8399 83.144 40.0728C82.9043 40.2999 82.7021 40.5012 82.5374 40.6766C82.4681 40.7111 82.4003 40.7556 82.3339 40.8102C82.2761 40.8677 82.2183 40.9252 82.1605 40.9827C82.1345 41.0028 82.0941 41.0373 82.0392 41.0862C81.993 41.138 81.9525 41.1725 81.9179 41.1897L81.6461 40.9686L81.4333 41.3442L81.2086 41.3264L80.9921 41.4556C80.6773 41.7344 80.3684 41.9528 80.0654 42.1106C79.771 42.2713 79.4551 42.396 79.1177 42.4846C78.7889 42.576 78.4241 42.6458 78.0233 42.6939C77.6341 42.7362 77.1887 42.7741 76.6871 42.8075C76.523 42.7235 76.3762 42.6598 76.2466 42.6162C76.1285 42.567 76.0105 42.5177 75.8924 42.4684C75.7714 42.4278 75.6563 42.3843 75.5468 42.3379C75.4374 42.2916 75.3122 42.2351 75.1711 42.1684C75.1627 42.0791 75.134 42.0069 75.0851 41.9521C75.0363 41.8972 74.9859 41.861 74.9341 41.8436C74.7903 41.6992 74.7013 41.5347 74.6671 41.3501C74.633 41.1656 74.6003 40.9623 74.5691 40.7403C74.5607 40.6221 74.5481 40.5025 74.531 40.3814C74.5227 40.2632 74.4999 40.145 74.4627 40.0267L74.748 40.036L74.5416 39.534C74.5244 39.4994 74.5029 39.4633 74.477 39.4258C74.4598 39.3911 74.4441 39.3522 74.4298 39.3089L74.5125 39.0627C74.7159 38.3426 74.9177 37.6845 75.118 37.0883C75.3298 36.4864 75.5904 35.9826 75.8997 35.5769L75.9474 35.5208ZM90.7091 44.9792C90.7293 44.9476 90.7423 44.9231 90.7481 44.9058C90.7626 44.8914 90.7569 44.8655 90.731 44.828C90.7341 44.7617 90.7601 44.7271 90.8091 44.7244C90.8581 44.7216 90.9071 44.7188 90.9561 44.7161C91.1735 44.2122 91.418 43.7703 91.6898 43.3905C91.9732 43.0049 92.2608 42.6352 92.5528 42.2813C92.8534 41.9304 93.1496 41.578 93.4415 41.2242C93.745 40.8646 94.0298 40.4603 94.2961 40.0113C94.4461 39.9367 94.5818 39.8332 94.7032 39.7009C94.8332 39.5715 94.9589 39.4407 95.0802 39.3084C95.2131 39.1703 95.3518 39.0438 95.4962 38.9289C95.6492 38.8168 95.8281 38.7423 96.0328 38.7053C96.1076 38.74 96.171 38.7805 96.2227 38.8268C96.2861 38.8673 96.3436 38.9106 96.3954 38.9569C96.4471 39.0031 96.5047 39.0465 96.568 39.087C96.6313 39.1275 96.7019 39.1608 96.7796 39.1869C96.7997 39.2417 96.8125 39.3037 96.8181 39.3729C96.8266 39.4335 96.8452 39.4926 96.8739 39.5503L97.1202 39.5898C97.2006 39.7226 97.2594 39.8769 97.2964 40.0528C97.3364 40.2201 97.3475 40.3873 97.3299 40.5544C97.3151 40.7129 97.2614 40.8583 97.1689 40.9907C97.0792 41.1144 96.9436 41.189 96.762 41.2146C96.7532 41.2693 96.7401 41.3082 96.7228 41.3312C96.7054 41.3542 96.6838 41.3758 96.6578 41.3959C96.6433 41.4103 96.6318 41.4304 96.623 41.4564C96.6172 41.4736 96.6258 41.5054 96.6488 41.5515C96.5276 41.5974 96.4078 41.6677 96.2894 41.7625C96.1739 41.8487 96.0685 41.9479 95.9731 42.0601C95.8778 42.1723 95.791 42.2874 95.7129 42.4054C95.6435 42.5263 95.5856 42.6415 95.5392 42.7509C95.8768 42.5758 96.2519 42.4326 96.6643 42.3211C97.0767 42.2097 97.4416 42.0967 97.7589 41.9821C98.0041 41.9106 98.2204 41.8391 98.4079 41.7675C98.607 41.6901 98.8017 41.6257 98.992 41.5743C99.1853 41.5142 99.3799 41.4642 99.576 41.4243C99.7837 41.3787 99.9942 41.3244 100.208 41.2615C100.306 41.2559 100.373 41.269 100.411 41.3008C100.457 41.3355 100.497 41.3731 100.532 41.4135C100.56 41.356 100.559 41.317 100.527 41.2968C100.499 41.2679 100.5 41.2203 100.532 41.1541C100.694 41.1603 100.841 41.152 100.973 41.1292C101.114 41.1094 101.259 41.0953 101.406 41.087C101.46 41.211 101.512 41.3437 101.56 41.4851C101.612 41.6178 101.71 41.7131 101.854 41.7711C101.868 41.9009 101.899 42.0076 101.948 42.0913C102.008 42.1692 102.064 42.2457 102.116 42.3208C102.176 42.3988 102.22 42.4853 102.245 42.5805C102.274 42.667 102.266 42.7895 102.223 42.9479C102.165 43.0055 102.096 43.0687 102.015 43.1377C101.945 43.2009 101.873 43.2872 101.798 43.3966C101.527 43.517 101.259 43.6144 100.993 43.6887C100.739 43.7573 100.478 43.8187 100.21 43.8728C99.9507 43.9299 99.6811 43.9883 99.4013 44.0482C99.1303 44.111 98.8476 44.1939 98.5534 44.297C98.4754 44.3574 98.3874 44.4047 98.2893 44.4391C98.1912 44.4734 98.0888 44.5063 97.9821 44.5378C97.8869 44.5635 97.7903 44.5936 97.6922 44.6279C97.6028 44.6652 97.522 44.7198 97.4497 44.7916C97.4152 44.78 97.3835 44.7742 97.3547 44.7741C97.3287 44.7654 97.2971 44.7596 97.2596 44.7566C97.2018 44.8141 97.1311 44.8529 97.0475 44.8729C96.9725 44.8957 96.9104 44.9374 96.8613 44.9978C96.9036 45.387 97.021 45.7101 97.2136 45.9671C97.4061 46.224 97.6448 46.4436 97.9297 46.6259C98.2146 46.8081 98.5371 46.9645 98.8971 47.0951C99.2571 47.2256 99.6315 47.3562 100.02 47.4868C100.066 47.4926 100.091 47.4769 100.094 47.4394C100.108 47.3962 100.14 47.3876 100.189 47.4137C100.304 47.5004 100.395 47.5885 100.461 47.678C100.527 47.7675 100.587 47.8599 100.642 47.9551C100.696 48.0504 100.745 48.1485 100.788 48.2495C100.843 48.3447 100.904 48.4472 100.973 48.5569C100.82 48.9572 100.587 49.2492 100.275 49.4329C99.975 49.6109 99.6173 49.7167 99.2022 49.7504C98.6953 49.5993 98.2633 49.4398 97.9063 49.2718C97.5493 49.1038 97.214 48.8854 96.9004 48.6166C96.8774 48.5993 96.8602 48.5646 96.8488 48.5127C96.846 48.4637 96.8389 48.4277 96.8274 48.4046C96.7728 48.3382 96.7009 48.2948 96.6116 48.2744C96.5223 48.254 96.4517 48.2207 96.4 48.1745C96.3338 48.1138 96.2303 47.9925 96.0895 47.8106C95.9573 47.6316 95.8352 47.4656 95.7232 47.3125C95.5911 47.1047 95.4618 46.9026 95.3355 46.7063C95.2206 46.5043 95.1275 46.2951 95.0559 46.0788C95.0445 46.0269 95.0129 45.9922 94.961 45.9748C94.9178 45.9603 94.879 45.9328 94.8445 45.8924C94.4782 45.9809 94.1435 46.1329 93.8404 46.3484C93.5488 46.5581 93.2586 46.7779 92.9698 47.0078C92.684 47.2291 92.3895 47.4331 92.0864 47.6197C91.7949 47.8006 91.4661 47.9065 91.1 47.9374C91.0049 47.9054 90.9287 47.8606 90.8711 47.8028C90.8107 47.7537 90.759 47.693 90.7159 47.6209C90.6699 47.5573 90.624 47.4938 90.578 47.4303C90.532 47.3668 90.4731 47.3133 90.4011 47.2699C90.4418 47.149 90.4536 47.0279 90.4365 46.9068C90.4311 46.78 90.4169 46.6647 90.3941 46.5609C90.3828 46.4513 90.3788 46.349 90.3819 46.2539C90.3936 46.1617 90.4485 46.084 90.5467 46.0208C90.4778 45.9111 90.4088 45.8158 90.3398 45.735C90.4206 45.6948 90.4654 45.6474 90.4742 45.5926C90.4916 45.5408 90.496 45.4846 90.4875 45.424C90.479 45.3635 90.4748 45.3044 90.475 45.2467C90.4867 45.1834 90.5257 45.1244 90.5921 45.0697C90.6296 45.0727 90.6484 45.0598 90.6484 45.031C90.6571 45.005 90.6773 44.9878 90.7091 44.9792ZM104.039 50.7404C103.929 50.7805 103.847 50.8538 103.792 50.9603C103.74 51.0582 103.683 51.1546 103.622 51.2496C103.562 51.3446 103.484 51.4193 103.388 51.4739C103.305 51.5227 103.182 51.5152 103.021 51.4514C102.972 51.483 102.955 51.506 102.969 51.5205C102.992 51.5378 103.001 51.5839 102.995 51.6589C102.879 51.601 102.79 51.5806 102.727 51.5977C102.663 51.6149 102.59 51.619 102.506 51.6102C102.328 51.4829 102.196 51.3183 102.11 51.1164C102.035 50.9087 101.978 50.6924 101.938 50.4675C101.907 50.2455 101.886 50.022 101.875 49.7972C101.872 49.5753 101.857 49.3778 101.829 49.2048C101.84 49.1702 101.862 49.1631 101.894 49.1833C101.919 49.192 101.945 49.2007 101.971 49.2094C101.957 49.1085 101.959 49.0033 101.976 48.8938C101.988 48.7728 101.975 48.6676 101.938 48.5781C102.369 48.1266 102.824 47.6593 103.303 47.1762C103.786 46.6844 104.27 46.1884 104.755 45.688C105.252 45.1818 105.745 44.6742 106.233 44.1652C106.733 43.6504 107.215 43.1443 107.681 42.6467C107.893 42.8144 108.092 42.9964 108.276 43.1928C108.471 43.3835 108.638 43.5886 108.776 43.8079C108.914 44.0273 109.013 44.2624 109.073 44.5133C109.144 44.7585 109.158 45.0179 109.114 45.2917C109.079 45.3377 109.052 45.3477 109.032 45.3217C109.012 45.2957 108.987 45.2971 108.958 45.3259C108.984 45.3922 108.993 45.4384 108.984 45.4643C108.987 45.4845 108.98 45.5061 108.962 45.5291C108.948 45.5435 108.935 45.5679 108.923 45.6025C108.912 45.6371 108.917 45.6918 108.94 45.7668C108.9 45.7437 108.867 45.7422 108.841 45.7623C108.818 45.7737 108.787 45.7636 108.75 45.7318C108.752 45.8673 108.734 45.9667 108.693 46.03C108.653 46.0933 108.605 46.1494 108.55 46.1983C108.498 46.2385 108.447 46.2888 108.398 46.3492C108.361 46.4039 108.34 46.4932 108.337 46.6171C108.303 46.6055 108.274 46.6055 108.251 46.6169C108.239 46.6227 108.226 46.6327 108.212 46.6471C108.197 46.6615 108.178 46.6744 108.155 46.6859C108.144 46.6916 108.122 46.6844 108.091 46.6641C108.041 46.8975 107.973 47.1294 107.886 47.3597C107.802 47.5815 107.715 47.8119 107.625 48.0509C107.538 48.2813 107.456 48.5232 107.381 48.7767C107.305 49.0301 107.253 49.3009 107.223 49.5891C107.668 49.4979 108.06 49.3172 108.401 49.0471C108.75 48.7798 109.061 48.4563 109.332 48.0765C109.613 47.6995 109.869 47.2807 110.101 46.8201C110.341 46.3624 110.584 45.896 110.83 45.421C110.957 45.3579 111.07 45.2659 111.168 45.1451C111.275 45.0272 111.37 44.9006 111.454 44.7653C111.547 44.6329 111.635 44.4991 111.719 44.3638C111.814 44.2228 111.917 44.1034 112.027 44.0057C112.176 44.0752 112.29 44.1663 112.368 44.2789C112.457 44.3857 112.533 44.5026 112.596 44.6296C112.662 44.7479 112.734 44.8634 112.811 44.976C112.889 45.0885 113.001 45.1839 113.148 45.2621C113.211 45.4755 113.267 45.6817 113.315 45.8807C113.367 46.0711 113.376 46.2714 113.344 46.4818C113.263 46.5507 113.192 46.6327 113.132 46.7277C113.071 46.8227 113.006 46.9162 112.936 47.0083C112.876 47.1032 112.805 47.1852 112.724 47.2542C112.643 47.3232 112.545 47.372 112.43 47.4005C112.317 47.651 112.196 47.8799 112.069 48.0871C111.942 48.2943 111.82 48.4987 111.705 48.7002C111.589 48.9017 111.474 49.1133 111.362 49.335C111.249 49.5566 111.15 49.8072 111.066 50.0865C110.904 50.311 110.73 50.5412 110.545 50.7771C110.363 51.0044 110.213 51.2231 110.094 51.4332C109.887 51.5077 109.703 51.624 109.544 51.7821C109.385 51.9403 109.222 52.097 109.055 52.2523C109 52.2723 108.971 52.2722 108.968 52.252C108.968 52.2232 108.935 52.1929 108.869 52.161C108.852 52.2417 108.817 52.2877 108.765 52.2991C108.725 52.3048 108.709 52.3667 108.717 52.4849C108.547 52.5047 108.387 52.5519 108.237 52.6265C108.087 52.7011 107.927 52.7627 107.756 52.8113C107.595 52.8628 107.418 52.8754 107.225 52.849C107.043 52.8168 106.827 52.7011 106.577 52.5016C106.258 52.0483 105.998 51.5621 105.798 51.0428C105.597 50.5235 105.49 49.954 105.477 49.3343C105.382 49.3312 105.299 49.3656 105.226 49.4375C105.154 49.5094 105.085 49.587 105.018 49.6705C104.952 49.7539 104.888 49.8287 104.828 49.8948C104.767 49.961 104.702 49.9824 104.633 49.9592C104.589 50.0312 104.53 50.093 104.455 50.1447C104.392 50.1907 104.327 50.241 104.26 50.2956C104.197 50.3416 104.139 50.3991 104.087 50.4681C104.044 50.5401 104.027 50.6308 104.039 50.7404ZM114.802 55.7693C114.404 55.6934 114.065 55.56 113.783 55.3692C113.501 55.1783 113.265 54.95 113.075 54.6844C112.894 54.4217 112.755 54.1346 112.658 53.8231C112.569 53.5145 112.516 53.1987 112.5 52.8759C112.62 52.2622 112.82 51.7381 113.1 51.3036C113.384 50.8603 113.71 50.4749 114.08 50.1471C114.45 49.8194 114.841 49.5278 115.254 49.2722C115.675 49.0195 116.079 48.7755 116.466 48.54C116.518 48.5863 116.565 48.6022 116.608 48.5879C116.66 48.5765 116.707 48.5536 116.747 48.5191C116.796 48.4875 116.845 48.4559 116.894 48.4243C116.952 48.3956 117.01 48.3813 117.067 48.3815C117.128 48.3153 117.193 48.265 117.262 48.2306C117.34 48.1991 117.416 48.1719 117.491 48.149C117.578 48.1203 117.656 48.0888 117.725 48.0544C117.803 48.0229 117.877 47.9755 117.946 47.9122C118.038 47.924 118.122 47.9184 118.197 47.8955C118.28 47.8755 118.357 47.8483 118.426 47.8139C118.504 47.7824 118.58 47.7552 118.655 47.7323C118.73 47.7094 118.815 47.6995 118.911 47.7026L118.967 47.5341C119.186 47.5116 119.356 47.463 119.478 47.3883C119.599 47.3137 119.748 47.2146 119.924 47.091C120.022 47.1143 120.097 47.1347 120.148 47.1521C120.209 47.1724 120.302 47.1942 120.429 47.2176C120.556 47.0968 120.666 47.0135 120.758 46.9676C120.851 46.9217 120.976 46.8773 121.135 46.8344C121.241 46.9471 121.365 47.0367 121.506 47.1034C121.65 47.1613 121.762 47.2711 121.843 47.4327C121.816 47.5393 121.819 47.6315 121.851 47.7094C121.885 47.7787 121.924 47.8494 121.967 47.9215C122.013 47.9851 122.057 48.0529 122.1 48.1251C122.143 48.1972 122.158 48.2837 122.143 48.3846C122.186 48.3991 122.215 48.3991 122.229 48.3848C122.253 48.3733 122.284 48.3791 122.324 48.4023C122.319 48.4772 122.317 48.5392 122.32 48.5882C122.323 48.6372 122.327 48.6819 122.332 48.7222C122.347 48.7655 122.355 48.8116 122.358 48.8606C122.369 48.9125 122.374 48.9716 122.371 49.0379C122.293 49.1271 122.216 49.2264 122.141 49.3357C122.068 49.4364 121.973 49.491 121.855 49.4993C121.832 49.5685 121.845 49.6161 121.894 49.6421C121.945 49.6595 121.966 49.6999 121.954 49.7633C121.936 49.844 121.902 49.9044 121.85 49.9446C121.955 50.432 122.032 50.9337 122.08 51.4497C122.13 51.9571 122.213 52.456 122.327 52.9462C122.269 53.0614 122.233 53.1838 122.218 53.3135C122.215 53.4374 122.216 53.5628 122.221 53.6896C122.236 53.8193 122.245 53.9476 122.251 54.0745C122.256 54.2013 122.249 54.3238 122.228 54.4419C122.196 54.5946 122.143 54.7544 122.067 54.9214C121.995 55.0798 121.907 55.228 121.803 55.3661C121.698 55.5042 121.58 55.6279 121.447 55.7371C121.317 55.8377 121.184 55.9037 121.049 55.9351C120.853 56.0614 120.632 56.146 120.387 56.1886C120.145 56.2227 119.912 56.2841 119.69 56.3729C119.546 56.4014 119.399 56.4097 119.249 56.3978C119.102 56.3773 118.95 56.3597 118.791 56.3449C118.656 56.3763 118.498 56.4004 118.32 56.4173C118.144 56.4255 117.965 56.428 117.784 56.4247C117.602 56.4214 117.423 56.4095 117.248 56.3889C117.075 56.3597 116.926 56.3146 116.803 56.2538C116.454 56.2617 116.125 56.2378 115.817 56.1824C115.509 56.1269 115.17 55.9892 114.802 55.7693ZM116.555 51.1084C116.402 51.2781 116.237 51.4247 116.061 51.5482C115.897 51.666 115.731 51.7881 115.563 51.9145C115.396 52.041 115.237 52.1847 115.087 52.3458C114.948 52.5011 114.832 52.7026 114.739 52.9503C114.863 53.1552 115.035 53.3141 115.257 53.427C115.49 53.5342 115.735 53.6213 115.991 53.6881C116.251 53.7464 116.513 53.796 116.778 53.837C117.043 53.8779 117.275 53.9318 117.474 53.9985C117.5 53.9208 117.547 53.8935 117.616 53.9167C117.991 54.0041 118.361 54.0179 118.727 53.9582C119.097 53.8899 119.479 53.8259 119.874 53.7663C119.952 53.6771 120.038 53.6053 120.134 53.5507C120.229 53.4962 120.305 53.3969 120.363 53.253C120.346 53.1607 120.338 53.0857 120.338 53.0281C120.347 52.9733 120.369 52.8941 120.403 52.7904C120.283 52.4039 120.202 52.0017 120.16 51.5836C120.12 51.157 120.048 50.7432 119.942 50.3423C119.91 50.3797 119.861 50.4113 119.795 50.4371C119.729 50.4629 119.675 50.4354 119.635 50.3546C119.58 50.4323 119.521 50.4797 119.458 50.4968C119.397 50.5053 119.332 50.498 119.263 50.4748C119.203 50.4544 119.142 50.4197 119.082 50.3706C119.03 50.3243 118.985 50.2709 118.948 50.2103C118.564 50.3506 118.184 50.4823 117.806 50.6054C117.436 50.7314 117.08 50.9049 116.737 51.1261C116.685 51.1375 116.656 51.1374 116.65 51.1259C116.644 51.1143 116.613 51.1085 116.555 51.1084ZM124.219 57.8508C124.207 57.7412 124.195 57.636 124.181 57.5351C124.166 57.4342 124.149 57.3419 124.129 57.2583C124.095 57.0161 124.067 56.7998 124.044 56.6096C124.022 56.4193 124.012 56.2045 124.016 55.9653C124.091 55.8271 124.217 55.5954 124.393 55.2701C124.579 54.9477 124.783 54.598 125.005 54.2209C125.231 53.8352 125.463 53.4466 125.7 53.0552C125.946 52.6667 126.171 52.3386 126.377 52.071C126.562 51.8351 126.761 51.5848 126.975 51.3201C127.197 51.0584 127.42 50.8254 127.642 50.6213C127.876 50.4114 128.106 50.2433 128.331 50.117C128.556 49.9907 128.769 49.9422 128.971 49.9715C129 50.0581 129.037 50.1331 129.083 50.1966C129.132 50.2515 129.179 50.2963 129.225 50.331C129.303 50.5877 129.386 50.8127 129.475 51.006C129.566 51.1907 129.684 51.3841 129.828 51.5861C129.689 51.8279 129.514 52.0913 129.303 52.3761C129.103 52.6552 128.894 52.9358 128.674 53.2177C128.463 53.5026 128.255 53.7788 128.049 54.0464C127.847 54.3053 127.679 54.5326 127.546 54.7283C127.437 54.8837 127.318 55.065 127.191 55.2723C127.084 55.4478 126.959 55.6608 126.817 55.9113C126.684 56.1646 126.542 56.4438 126.392 56.749C126.524 56.7551 126.681 56.731 126.863 56.6766C127.053 56.6252 127.232 56.5651 127.4 56.4963C127.599 56.4189 127.796 56.3315 127.993 56.2339C128.258 56.1019 128.487 55.9771 128.681 55.8594C128.874 55.7416 129.056 55.6152 129.226 55.4802C129.408 55.3394 129.595 55.1856 129.785 55.0189C129.987 54.8464 130.224 54.6423 130.496 54.4066C130.735 54.2083 130.985 53.9941 131.245 53.7641C131.514 53.537 131.778 53.3229 132.038 53.1218C132.298 52.9206 132.546 52.7396 132.783 52.5787C133.022 52.4092 133.232 52.2872 133.41 52.2127C133.474 52.3397 133.548 52.4753 133.634 52.6196C133.729 52.7668 133.843 52.8867 133.975 52.9793C134.004 53.0946 134.031 53.1999 134.056 53.2951C134.094 53.3845 134.127 53.4725 134.155 53.559C134.193 53.6773 134.224 53.784 134.25 53.8792C134.284 53.9772 134.307 54.0811 134.318 54.1906C134.286 54.2568 134.239 54.3418 134.175 54.4454C134.12 54.5519 134.056 54.6699 133.984 54.7994C133.914 54.9203 133.839 55.0441 133.758 55.1707C133.686 55.3003 133.615 55.4255 133.545 55.5464C133.328 55.9062 133.165 56.1782 133.055 56.3624C132.945 56.5466 132.863 56.692 132.808 56.7985C132.753 56.905 132.708 56.9957 132.673 57.0705C132.647 57.1483 132.61 57.2563 132.564 57.3945C132.529 57.4982 132.503 57.6048 132.485 57.7143C132.471 57.8151 132.455 57.9203 132.437 58.0298C132.431 58.1335 132.444 58.2388 132.475 58.3455L133.259 58.0749C133.475 58.0034 133.7 57.8771 133.934 57.696C134.179 57.5093 134.426 57.2893 134.675 57.0363C134.935 56.7775 135.198 56.4956 135.464 56.1907C135.732 55.8772 136.004 55.555 136.279 55.2241C136.475 54.9825 136.67 54.7451 136.864 54.5121C137.069 54.2734 137.268 54.0519 137.462 53.8477C137.659 53.6349 137.842 53.4465 138.012 53.2826C138.194 53.113 138.36 52.9764 138.511 52.873C138.695 53.0983 138.844 53.3119 138.959 53.5139C139.082 53.7189 139.174 53.9324 139.234 54.1544C139.306 54.3708 139.337 54.6072 139.327 54.8637C139.33 55.1145 139.296 55.4012 139.226 55.7238C138.914 56.0229 138.612 56.3349 138.32 56.6599C138.028 56.9849 137.735 57.3143 137.44 57.648C137.065 58.0794 136.68 58.508 136.287 58.9337C135.906 59.3536 135.506 59.7432 135.087 60.1025C134.668 60.4619 134.227 60.775 133.762 61.042C133.309 61.3032 132.823 61.4909 132.304 61.605C132.191 61.5384 132.092 61.4906 132.006 61.4616C131.911 61.4297 131.824 61.4151 131.746 61.4178C131.677 61.4234 131.609 61.4391 131.543 61.4649C131.244 61.1817 131.04 60.844 130.931 60.4518C130.826 60.0509 130.736 59.6169 130.662 59.1498C130.656 59.0806 130.645 59.0143 130.628 58.9508C130.622 58.8816 130.612 58.811 130.598 58.7389L130.513 58.2631L130.466 57.9733L130.228 58.0809L129.873 58.2357L129.665 58.339C129.313 58.4996 128.958 58.6544 128.601 58.8034C128.246 58.9439 127.884 59.0626 127.515 59.1598C127.148 59.2483 126.772 59.295 126.386 59.2998C126.008 59.3076 125.624 59.2505 125.232 59.1285C125.174 59.0708 125.12 59.0188 125.068 58.9725C125.025 58.9292 124.982 58.8859 124.938 58.8425C124.772 58.6807 124.638 58.5349 124.537 58.4049C124.437 58.275 124.331 58.0903 124.219 57.8508ZM43.2799 52.9579C43.1851 52.8395 43.1234 52.7083 43.095 52.5641C43.0578 52.417 43.0409 52.2671 43.0441 52.1143C43.0387 51.9587 43.0477 51.803 43.0711 51.6474C43.0888 51.4803 43.1036 51.3218 43.1155 51.172C43.1561 51.051 43.211 50.9733 43.2803 50.9389C43.3525 50.8958 43.4275 50.8585 43.5054 50.827C43.7156 50.888 43.9072 50.9331 44.0801 50.9624C44.253 50.9916 44.4215 51.0194 44.5857 51.0457C44.75 51.072 44.9127 51.1026 45.0741 51.1376C45.2383 51.1639 45.4111 51.2076 45.5926 51.2685C45.8121 51.0442 46.0187 50.8299 46.2123 50.6257C46.4088 50.4129 46.5966 50.2116 46.7758 50.0218C46.9002 49.8232 47.0317 49.6462 47.1704 49.4909C47.3207 49.3298 47.4623 49.1803 47.5952 49.0422C47.731 48.8956 47.8567 48.7503 47.9723 48.6065C48.0908 48.454 48.1907 48.2856 48.2718 48.1013C48.4771 47.8337 48.6607 47.5877 48.8226 47.3633C48.9961 47.1331 49.1639 46.8481 49.3261 46.5084C48.9803 46.45 48.6994 46.4133 48.4833 46.3984C48.27 46.3748 48.113 46.3701 48.012 46.3843C47.8421 46.3176 47.7155 46.2366 47.6321 46.1413C47.5574 46.0489 47.5043 45.9493 47.4729 45.8426C47.4414 45.7359 47.423 45.6191 47.4175 45.4923C47.412 45.3655 47.3993 45.2314 47.3795 45.0901C47.4402 45.024 47.4866 44.9146 47.5186 44.7619C47.5536 44.6005 47.5395 44.4708 47.4763 44.3727C47.5512 44.3786 47.6219 44.3399 47.6884 44.2564C47.7578 44.1643 47.7882 44.088 47.7797 44.0275C47.9411 44.0336 48.1053 44.0599 48.2724 44.1065C48.4424 44.1443 48.6066 44.185 48.765 44.2286C48.935 44.2665 49.0963 44.3015 49.249 44.3335C49.4046 44.357 49.5458 44.3515 49.6727 44.3172C50.1278 44.4509 50.6002 44.5903 51.0898 44.7356C51.5881 44.8837 52.049 45.0145 52.4724 45.1279C52.6105 45.232 52.7789 45.3174 52.9777 45.3841C53.185 45.4538 53.3837 45.5349 53.5737 45.6276C53.7724 45.7232 53.935 45.8403 54.0615 45.9789C54.1966 46.1205 54.2581 46.3094 54.2461 46.5457C54.3699 46.6066 54.4533 46.673 54.4964 46.7452C54.5481 46.8203 54.5695 46.8996 54.5607 46.9831C54.5547 47.0581 54.5315 47.1416 54.4909 47.2337C54.4619 47.3201 54.4329 47.4065 54.4038 47.4929C54.2308 47.5502 54.0246 47.5771 53.7854 47.5737C53.5577 47.5645 53.3113 47.5394 53.0463 47.4984C52.7841 47.4488 52.5119 47.3862 52.2296 47.3106C51.9588 47.2293 51.6924 47.1494 51.4303 47.071C51.2913 47.3416 51.1004 47.6525 50.8574 48.0035C50.6261 48.3489 50.3918 48.6884 50.1547 49.0222C49.9205 49.3474 49.7108 49.6423 49.5257 49.9071C49.3522 50.1661 49.2552 50.3402 49.2349 50.4295C49.0817 50.5992 48.9517 50.7431 48.8447 50.861C48.7465 50.9818 48.6511 51.094 48.5586 51.1976C48.4748 51.304 48.3866 51.409 48.2942 51.5126C48.2132 51.6104 48.1135 51.7211 47.9951 51.8448L48.8764 52.1408C48.8617 52.2416 48.8788 52.3195 48.9277 52.3744C48.9766 52.4293 49.0312 52.4813 49.0916 52.5304C49.1521 52.5795 49.2009 52.6344 49.2383 52.695C49.2871 52.7499 49.297 52.8206 49.268 52.907C49.4177 53.0053 49.4996 53.1049 49.5138 53.2058C49.5279 53.3068 49.5047 53.4047 49.4439 53.4997C49.3947 53.5889 49.3181 53.6738 49.2142 53.7542C49.1189 53.8376 49.0279 53.908 48.9413 53.9654C48.8694 53.922 48.7887 53.919 48.6992 53.9562C48.6127 53.9849 48.5276 54.0236 48.4439 54.0724C48.2049 53.9536 47.9601 53.8666 47.7095 53.8113C47.4589 53.7559 47.227 53.7021 47.0138 53.6497C46.9677 53.6438 46.9417 53.6639 46.9358 53.71C46.9329 53.7475 46.9155 53.7705 46.8838 53.7791C46.645 53.6027 46.3801 53.4753 46.0892 53.3968C45.8069 53.3212 45.5072 53.2686 45.1903 53.2391C44.8848 53.2038 44.5693 53.1699 44.2437 53.1374C43.9151 53.1136 43.5939 53.0538 43.2799 52.9579ZM58.4209 57.3372C58.3979 57.291 58.3807 57.242 58.3693 57.1901C58.3608 57.1295 58.361 57.0575 58.3698 56.9739C58.2982 56.7864 58.2597 56.586 58.2545 56.3727C58.2492 56.1594 58.267 55.949 58.3078 55.7416C58.3516 55.5255 58.4169 55.3167 58.5038 55.1151C58.5908 54.9136 58.6863 54.7293 58.7905 54.5624C58.8454 54.4847 58.8975 54.4013 58.9467 54.312C59.045 54.1624 59.1419 54.017 59.2374 53.876C59.3357 53.7264 59.4455 53.6142 59.5667 53.5396C59.5641 53.4329 59.6032 53.3307 59.6842 53.2329C59.7651 53.1351 59.8431 53.0459 59.9182 52.9654C59.9442 52.9452 59.9645 52.928 59.9789 52.9136C59.9962 52.8906 60.0121 52.8719 60.0266 52.8575C60.2318 52.5899 60.4284 52.3339 60.6164 52.0893C60.8158 51.839 61.0066 51.6002 61.1887 51.3729C61.5211 50.9558 61.842 50.5444 62.1514 50.1387C62.4694 49.7359 62.7802 49.2971 63.084 48.8222C63.1705 48.7936 63.2426 48.7793 63.3002 48.7795C63.3204 48.7766 63.3449 48.7752 63.3737 48.7753C63.4026 48.7754 63.4343 48.7812 63.4688 48.7928C63.6183 48.9488 63.7995 49.1106 64.0124 49.2783C64.2369 49.4402 64.4355 49.5502 64.6083 49.6083L64.7633 49.8767C64.8321 50.044 64.8807 50.2142 64.9091 50.3872C64.9491 50.5544 64.9141 50.7446 64.8041 50.9576C64.7261 51.018 64.6669 51.051 64.6266 51.0567C64.508 51.238 64.3923 51.3962 64.2796 51.5314C64.1698 51.658 64.0614 51.7802 63.9545 51.8982C63.8331 52.0305 63.7161 52.1642 63.6034 52.2994C63.4906 52.4346 63.3749 52.6073 63.2563 52.8174C63.1841 52.8605 63.1322 52.9007 63.1004 52.9381C63.0772 52.9784 63.0497 53.0173 63.0179 53.0547C62.9833 53.1007 62.9428 53.1496 62.8965 53.2014C62.8532 53.2445 62.7984 53.279 62.732 53.3048C62.6075 53.561 62.4816 53.7639 62.3545 53.9135C62.2302 54.0545 62.1059 54.1954 61.9817 54.3363C61.7591 54.5981 61.5452 54.8628 61.34 55.1304C61.1376 55.3893 60.9639 55.706 60.819 56.0803C60.9313 56.0892 61.0307 56.1082 61.1171 56.1372C61.2295 56.1749 61.3317 56.2285 61.4237 56.2979C61.787 56.2469 62.1559 56.265 62.5304 56.3523C62.9135 56.4426 63.288 56.5443 63.6538 56.6576C63.9562 56.7592 64.2414 56.8405 64.5093 56.9017C64.5754 56.9912 64.6199 57.0446 64.6429 57.062C64.6688 57.0707 64.712 57.0852 64.7725 57.1055C64.7984 57.1142 64.8244 57.1229 64.8503 57.1316C64.8762 57.1403 64.9093 57.1562 64.9496 57.1794C65.0299 57.341 65.1176 57.4666 65.2125 57.5561C65.3103 57.6371 65.4167 57.7209 65.5318 57.8076C65.6296 57.8886 65.7217 57.9724 65.8079 58.059C65.9057 58.14 65.9934 58.2367 66.071 58.3493L65.9656 59.0495C66.0028 59.1677 66.0113 59.2427 65.991 59.2744C65.9678 59.3435 65.9302 59.3981 65.8782 59.4384L65.8476 59.6156C65.6718 59.595 65.5507 59.5976 65.4844 59.6234C65.4209 59.6405 65.3488 59.6692 65.268 59.7093C65.1701 59.6861 65.0779 59.6599 64.9915 59.6309C64.8187 59.5728 64.6329 59.5393 64.434 59.5301C64.2067 59.348 63.9376 59.2047 63.6265 59.1003C63.5056 59.0596 63.3788 59.0219 63.2463 58.987C63.1224 58.955 62.9971 58.9273 62.8704 58.904C62.735 58.8777 62.5996 58.8514 62.4641 58.8252C62.3316 58.7903 62.2006 58.7511 62.071 58.7075C61.9615 58.69 61.8837 58.6783 61.8376 58.6724C61.7915 58.6665 61.7439 58.665 61.6949 58.6678C61.3692 58.6641 61.0176 58.6518 60.6401 58.6307C60.2712 58.6126 59.914 58.5455 59.5684 58.4294C59.0586 58.2581 58.6917 57.9907 58.4677 57.627C58.4593 57.5376 58.4508 57.4771 58.4422 57.4453C58.4336 57.4136 58.4265 57.3776 58.4209 57.3372ZM70.3524 61.9365C69.9548 61.8606 69.615 61.7272 69.333 61.5363C69.051 61.3455 68.8152 61.1172 68.6255 60.8516C68.4446 60.5889 68.3054 60.3018 68.2082 59.9903C68.1195 59.6817 68.0669 59.3659 68.0504 59.0431C68.17 58.4294 68.3701 57.9053 68.6507 57.4707C68.9342 57.0275 69.2608 56.642 69.6304 56.3143C70.0001 55.9866 70.3914 55.6949 70.8041 55.4394C71.2255 55.1867 71.6296 54.9426 72.0164 54.7072C72.0682 54.7534 72.1157 54.7694 72.1589 54.7551C72.2109 54.7437 72.257 54.7207 72.2975 54.6862C72.3465 54.6546 72.3956 54.623 72.4447 54.5915C72.5024 54.5628 72.5601 54.5485 72.6177 54.5486C72.6784 54.4825 72.7434 54.4322 72.8126 54.3978C72.8905 54.3662 72.9669 54.339 73.0419 54.3161C73.1285 54.2875 73.2064 54.256 73.2756 54.2216C73.3535 54.19 73.4271 54.1427 73.4965 54.0794C73.5887 54.0911 73.6723 54.0856 73.7472 54.0627C73.8309 54.0427 73.9073 54.0155 73.9766 53.9811C74.0545 53.9496 74.1309 53.9223 74.2059 53.8995C74.2809 53.8766 74.366 53.8667 74.4611 53.8698L74.5177 53.7013C74.7368 53.6788 74.9069 53.6302 75.0282 53.5555C75.1494 53.4808 75.2981 53.3817 75.4742 53.2582C75.5721 53.2815 75.647 53.3018 75.6988 53.3193C75.7593 53.3396 75.8529 53.3614 75.9797 53.3848C76.1068 53.264 76.2165 53.1807 76.3089 53.1348C76.4012 53.0889 76.5267 53.0445 76.6853 53.0016C76.7917 53.1143 76.9154 53.2039 77.0565 53.2705C77.2005 53.3285 77.3127 53.4383 77.393 53.5999C77.3668 53.7065 77.3695 53.7987 77.401 53.8766C77.4354 53.9459 77.4742 54.0166 77.5172 54.0887C77.5632 54.1522 77.6077 54.2201 77.6508 54.2922C77.6938 54.3644 77.7081 54.4509 77.6934 54.5517C77.7366 54.5662 77.7654 54.5663 77.7799 54.5519C77.803 54.5405 77.8347 54.5463 77.875 54.5694C77.869 54.6444 77.8674 54.7063 77.8702 54.7553C77.873 54.8044 77.8772 54.849 77.8829 54.8894C77.8972 54.9327 77.9057 54.9788 77.9085 55.0278C77.9199 55.0797 77.9241 55.1388 77.921 55.2051C77.843 55.2943 77.7664 55.3935 77.6912 55.5029C77.6189 55.6036 77.5237 55.6581 77.4055 55.6665C77.3823 55.7356 77.3951 55.7832 77.4441 55.8093C77.4959 55.8267 77.516 55.8671 77.5043 55.9305C77.4868 56.0111 77.4521 56.0716 77.4001 56.1118C77.5056 56.5992 77.5823 57.1009 77.6301 57.6169C77.6808 58.1243 77.7632 58.6231 77.8774 59.1134C77.8195 59.2285 77.7832 59.351 77.7685 59.4806C77.7653 59.6046 77.7664 59.7299 77.7719 59.8568C77.786 59.9865 77.7958 60.1148 77.8013 60.2416C77.8068 60.3685 77.7993 60.4909 77.7788 60.6091C77.7468 60.7618 77.6931 60.9216 77.6177 61.0886C77.5453 61.247 77.4571 61.3952 77.353 61.5333C77.2489 61.6714 77.1304 61.7951 76.9976 61.9043C76.8677 62.0049 76.7349 62.0709 76.5994 62.1022C76.4031 62.2286 76.1824 62.3131 75.9373 62.3558C75.6951 62.3898 75.463 62.4513 75.2408 62.5401C75.0966 62.5686 74.9496 62.5769 74.7998 62.565C74.6528 62.5445 74.5001 62.5268 74.3416 62.5121C74.2061 62.5435 74.0489 62.5676 73.8702 62.5845C73.6943 62.5927 73.5156 62.5952 73.3341 62.5919C73.1525 62.5886 72.9738 62.5766 72.798 62.556C72.6252 62.5268 72.4768 62.4818 72.353 62.421C72.0043 62.4288 71.6757 62.405 71.3675 62.3495C71.0592 62.2941 70.7208 62.1564 70.3524 61.9365ZM72.1055 57.2755C71.9524 57.4452 71.7878 57.5918 71.6117 57.7154C71.4471 57.8332 71.2811 57.9553 71.1136 58.0817C70.9461 58.2081 70.7873 58.3519 70.637 58.5129C70.4983 58.6683 70.3826 58.8698 70.2898 59.1174C70.4132 59.3224 70.5858 59.4813 70.8075 59.5942C71.0407 59.7014 71.2855 59.7884 71.5418 59.8553C71.8011 59.9136 72.0633 59.9632 72.3284 60.0041C72.5934 60.0451 72.8253 60.099 73.0241 60.1657C73.0502 60.0879 73.0978 60.0607 73.1669 60.0839C73.5414 60.1712 73.9118 60.1851 74.278 60.1254C74.647 60.0571 75.0291 59.9931 75.4241 59.9335C75.5021 59.8443 75.5888 59.7725 75.684 59.7179C75.7793 59.6634 75.8559 59.5641 75.9138 59.4201C75.8968 59.3279 75.8883 59.2529 75.8884 59.1952C75.8972 59.1405 75.919 59.0613 75.9538 58.9576C75.8337 58.5711 75.7525 58.1688 75.7102 57.7508C75.6708 57.3241 75.5983 56.9104 75.4926 56.5095C75.4608 56.5469 75.4117 56.5785 75.3454 56.6043C75.279 56.63 75.2257 56.6025 75.1856 56.5217C75.1306 56.5994 75.0714 56.6469 75.008 56.664C74.9474 56.6725 74.8826 56.6651 74.8135 56.6419C74.753 56.6216 74.6926 56.5869 74.6321 56.5377C74.5804 56.4915 74.5358 56.4381 74.4985 56.3775C74.1148 56.5178 73.7341 56.6495 73.3562 56.7726C72.987 56.8985 72.6306 57.0721 72.2871 57.2932C72.2352 57.3046 72.2064 57.3046 72.2006 57.293C72.1949 57.2815 72.1632 57.2757 72.1055 57.2755ZM80.7082 59.9345C80.7463 59.678 80.8175 59.4231 80.9218 59.1697C81.0262 58.9163 81.119 58.6687 81.2003 58.4267C81.2786 58.1935 81.3441 57.9414 81.3966 57.6706C81.4606 57.394 81.5203 57.1305 81.5757 56.8798C81.6396 56.6321 81.705 56.4089 81.7718 56.2101C81.8501 56.0057 81.934 55.856 82.0236 55.7611C82.1362 55.6547 82.256 55.5844 82.3829 55.5501C82.5127 55.5071 82.6411 55.4541 82.7681 55.391C82.8746 55.446 82.9623 55.5139 83.0313 55.5948C83.1118 55.6699 83.1693 55.7565 83.2036 55.8546C83.2495 55.947 83.2724 56.0364 83.2722 56.1228C83.2806 56.2122 83.2632 56.2929 83.2198 56.3648C83.3922 56.567 83.5055 56.8021 83.5597 57.0703C83.6254 57.3328 83.6478 57.6095 83.6269 57.9006C83.6176 58.1859 83.5766 58.4798 83.5038 58.7823C83.4397 59.0877 83.3684 59.3858 83.2899 59.6767C83.22 59.9706 83.1502 60.25 83.0804 60.515C83.0222 60.7743 82.9914 61.0091 82.988 61.2195C83.5539 60.7942 84.0376 60.4135 84.439 60.0772C84.852 59.7351 85.2577 59.4147 85.6561 59.1158C86.0575 58.8084 86.4905 58.5067 86.9553 58.2109C87.4286 57.918 88.0101 57.6038 88.6998 57.2681C88.8063 57.3232 88.8854 57.3738 88.9372 57.42C88.989 57.4663 89.0408 57.5125 89.0925 57.5587C89.1443 57.605 89.2019 57.6483 89.2652 57.6888C89.3314 57.7207 89.4279 57.7483 89.5547 57.7716C89.563 57.8898 89.5671 57.9778 89.567 58.0354C89.5784 58.0873 89.5855 58.1378 89.5883 58.1868C89.5911 58.2358 89.5938 58.2992 89.5965 58.377C89.5992 58.4548 89.6032 58.5716 89.6086 58.7272C89.623 58.7705 89.6156 58.8209 89.5867 58.8785C89.5693 58.9304 89.549 58.9764 89.5258 59.0167C89.5027 59.057 89.4867 59.0901 89.478 59.1161C89.478 59.1449 89.5082 59.155 89.5688 59.1465C89.4849 59.2818 89.3837 59.3969 89.2653 59.4917C89.1498 59.5779 89.0688 59.7045 89.0223 59.8716C88.6846 60.1043 88.318 60.3369 87.9226 60.5694C87.5271 60.802 87.1259 61.0518 86.7189 61.3189C86.3148 61.5774 85.9135 61.8561 85.5151 62.1549C85.1281 62.448 84.7714 62.7801 84.4449 63.1511C84.393 63.1337 84.3498 63.1336 84.3152 63.1508C84.2805 63.168 84.2444 63.1896 84.2069 63.2154C84.178 63.2442 84.1448 63.2715 84.1073 63.2973C84.0784 63.3261 84.038 63.3318 83.9862 63.3144C83.876 63.585 83.6838 63.8137 83.4096 64.0005C83.1469 64.1814 82.8915 64.3264 82.6433 64.4353C82.6374 64.5103 82.6272 64.5693 82.6127 64.6125C82.5981 64.6557 82.5793 64.6975 82.5562 64.7378C82.533 64.7781 82.5084 64.8227 82.4824 64.8716C82.4678 64.9148 82.4533 64.9724 82.4387 65.0445C82.2913 65.2257 82.1296 65.3637 81.9535 65.4584C81.7861 65.556 81.6174 65.6147 81.4473 65.6345C81.2772 65.6543 81.1173 65.6294 80.9676 65.5599C80.8149 65.499 80.6855 65.3978 80.5792 65.2563C80.5303 65.2015 80.4944 65.1365 80.4715 65.0615C80.4486 64.9865 80.42 64.9144 80.3855 64.8452C80.3627 64.7702 80.3326 64.7024 80.2952 64.6418C80.2694 64.5754 80.2249 64.522 80.1616 64.4815C80.2079 64.4009 80.2383 64.3102 80.253 64.2093C80.2763 64.1114 80.288 64.0192 80.2882 63.9327C80.2884 63.8462 80.28 63.7713 80.2628 63.7078C80.2457 63.6444 80.2198 63.6068 80.1852 63.5952C80.2232 63.3676 80.2541 63.1184 80.2778 62.8475C80.313 62.5709 80.3425 62.2971 80.3661 62.0262C80.3985 61.7583 80.438 61.4975 80.4847 61.244C80.5314 60.9904 80.5939 60.7614 80.6722 60.557C80.7157 60.4562 80.7245 60.3582 80.6988 60.263C80.6846 60.1621 80.6878 60.0526 80.7082 59.9345ZM87.9986 67.3159C87.9527 67.2236 87.9284 67.1241 87.9258 67.0174C87.9318 66.9137 87.8888 66.8127 87.7968 66.7145C87.823 66.5791 87.8465 66.4235 87.867 66.2477C87.8992 66.0662 87.927 65.8833 87.9505 65.6988C87.9855 65.5087 88.0234 65.3243 88.0641 65.1457C88.1165 64.9614 88.1802 64.8001 88.2555 64.6619C88.2989 64.59 88.3495 64.5252 88.4073 64.4677C88.4737 64.4131 88.5343 64.3614 88.5892 64.3125C88.6556 64.2579 88.7091 64.1989 88.7496 64.1356C88.7987 64.0752 88.8263 64.0075 88.8322 63.9326C88.8869 63.9414 88.9259 63.9256 88.949 63.8853C88.9837 63.8393 89.0327 63.8365 89.0961 63.877C89.2204 63.7072 89.3447 63.5519 89.469 63.4109C89.5932 63.27 89.7204 63.1348 89.8504 63.0054C89.9804 62.876 90.1104 62.7466 90.2404 62.6172C90.3819 62.4821 90.5206 62.3268 90.6565 62.1512C90.5561 61.9637 90.4974 61.7805 90.4805 61.6018C90.4752 61.4173 90.4828 61.2372 90.5034 61.0614C90.524 60.8856 90.5532 60.7127 90.591 60.5428C90.6318 60.3642 90.6553 60.1798 90.6615 59.9895C90.8174 59.8688 90.9848 59.7856 91.1636 59.7399C91.3453 59.6856 91.5327 59.6572 91.7258 59.6548C91.9305 59.6466 92.1423 59.6601 92.3613 59.6952C92.5832 59.7216 92.8195 59.7481 93.0702 59.7746C93.5284 59.7843 93.9333 59.8098 94.2849 59.8509C94.6393 59.8835 94.9793 59.9304 95.3049 59.9916C95.6333 60.0443 95.9719 60.1099 96.3204 60.1886C96.6719 60.2585 97.081 60.3287 97.5478 60.3989C97.5477 60.4277 97.5563 60.4451 97.5736 60.4509C97.5995 60.4596 97.6298 60.4697 97.6643 60.4813C97.6699 60.5505 97.7073 60.5967 97.7764 60.62C97.7851 60.594 97.7881 60.571 97.7852 60.5508C97.7939 60.5249 97.8012 60.5033 97.807 60.486C97.8243 60.4918 97.8444 60.5034 97.8674 60.5207C97.8991 60.541 97.9221 60.5583 97.9365 60.5728C97.9595 60.5901 97.9811 60.5974 98.0013 60.5945C98.0244 60.5831 98.0389 60.5543 98.0447 60.5082C98.0875 60.7244 98.1706 60.9206 98.2941 61.0967C98.4206 61.2642 98.5686 61.4245 98.7383 61.5777C98.7209 61.6583 98.702 61.7145 98.6817 61.7461C98.6701 61.7807 98.6542 61.8138 98.634 61.8455C98.6166 61.8685 98.6007 61.9016 98.5862 61.9448C98.5746 61.9794 98.5658 62.0341 98.5598 62.109C98.3432 62.2959 98.1224 62.4236 97.8975 62.4923C97.6811 62.5638 97.462 62.6008 97.24 62.6032C97.0181 62.6055 96.789 62.5863 96.5528 62.5454C96.3251 62.5074 96.0874 62.4708 95.8396 62.4356C95.6034 62.3947 95.357 62.3697 95.1005 62.3604C94.844 62.3512 94.5802 62.3779 94.3091 62.4407C94.2487 62.3916 94.1868 62.3612 94.1234 62.3495C94.0716 62.3321 94.0125 62.3219 93.9462 62.3188C93.88 62.3158 93.805 62.3099 93.7215 62.301C93.6465 62.2951 93.5601 62.2661 93.4623 62.214C93.3728 62.2512 93.2762 62.2668 93.1725 62.2608C93.0774 62.2577 92.9779 62.2532 92.8742 62.2472C92.8855 62.3567 92.8708 62.4576 92.8303 62.5497C92.7983 62.6448 92.7837 62.7312 92.7864 62.809C93.1377 62.9655 93.5395 63.1004 93.9917 63.2139C94.4469 63.3187 94.8891 63.4336 95.3182 63.5585C95.3124 63.6046 95.2979 63.6334 95.2748 63.6449C95.2517 63.6564 95.2329 63.6837 95.2184 63.7269C95.2787 63.8049 95.3304 63.8943 95.3734 63.9953C95.4164 64.0963 95.4594 64.1973 95.5024 64.2983C95.557 64.3935 95.6144 64.4801 95.6748 64.5581C95.738 64.6274 95.8229 64.6751 95.9295 64.7013C95.9437 64.8022 95.9435 64.9031 95.9288 65.004C95.9142 65.1048 95.8678 65.1998 95.7898 65.289C95.5793 65.3433 95.3716 65.4033 95.1668 65.4691C94.9649 65.5263 94.7573 65.5719 94.5439 65.606C94.3392 65.643 94.123 65.6569 93.8953 65.6478C93.6676 65.6386 93.4343 65.5891 93.1952 65.4991C93.152 65.4846 93.1132 65.4716 93.0786 65.46C93.0527 65.4513 93.0239 65.4224 92.9923 65.3733C92.8914 65.3875 92.769 65.3656 92.625 65.3076C92.4926 65.2439 92.3716 65.2177 92.262 65.2289C92.1556 65.1451 92.0203 65.0756 91.8561 65.0205C91.7006 64.9682 91.5696 64.9002 91.4631 64.8164C91.2321 64.9888 91.0055 65.177 90.783 65.3811C90.5635 65.5766 90.3555 65.7952 90.1589 66.0369C90.4958 66.2077 90.7823 66.328 91.0185 66.3977C91.2547 66.4674 91.4808 66.5242 91.6969 66.5679C91.9129 66.6116 92.1333 66.6568 92.358 66.7034C92.5914 66.753 92.8665 66.8358 93.1832 66.9518C93.4341 66.9207 93.7035 66.9343 93.9916 66.9926C94.2913 67.0452 94.5751 67.0732 94.8431 67.0767C94.9208 67.1316 94.9769 67.2081 95.0112 67.3062C95.0485 67.3957 95.08 67.488 95.1057 67.5831C95.143 67.6726 95.1831 67.7534 95.2262 67.8255C95.2693 67.8977 95.3412 67.9411 95.4421 67.9557C95.4708 68.0135 95.4793 68.074 95.4676 68.1374C95.4645 68.2037 95.4586 68.2642 95.4499 68.3189C95.4497 68.3766 95.4568 68.427 95.4711 68.4703C95.4884 68.5049 95.533 68.5295 95.605 68.5441C95.3276 68.8259 95.0548 69.0227 94.7865 69.1345C94.5268 69.2492 94.25 69.3149 93.9559 69.3315C93.6734 69.3423 93.3637 69.32 93.0266 69.2645C92.701 69.2032 92.3322 69.1418 91.9202 69.0803C91.8193 69.0657 91.7373 69.0381 91.6739 68.9976C91.6222 68.9514 91.5617 68.9166 91.4926 68.8934C91.2362 68.8554 90.9322 68.8013 90.5807 68.7313C90.2379 68.6643 89.8994 68.5698 89.5654 68.448C89.2313 68.3261 88.9218 68.1741 88.6369 67.9919C88.352 67.8096 88.1392 67.5843 87.9986 67.3159ZM104.799 73.9256C104.073 73.5665 103.746 73.0095 103.817 72.2545L103.878 72.1163C103.947 72.0242 104.025 71.9206 104.112 71.8055C104.205 71.6732 104.3 71.5466 104.398 71.4257C104.499 71.2963 104.629 71.1957 104.788 71.124C104.84 71.0549 104.927 70.9543 105.048 70.822C105.181 70.6839 105.388 70.4841 105.668 70.2224C105.89 70.0183 106.065 69.8559 106.192 69.7351C106.328 69.6172 106.435 69.5281 106.513 69.4678C106.478 69.2832 106.408 69.0914 106.302 68.8923C106.251 68.5866 106.213 68.2998 106.187 68.0317C106.174 67.7578 106.173 67.5171 106.185 67.3096C106.246 67.0994 106.282 66.8761 106.294 66.6398C106.306 66.5187 106.318 66.3977 106.33 66.2767C106.342 66.1556 106.368 66.0346 106.408 65.9137C106.394 65.8416 106.39 65.7537 106.396 65.6499L106.474 65.5031C106.541 65.4485 106.58 65.3607 106.592 65.2397C106.615 65.1129 106.63 64.9832 106.636 64.8506C106.648 64.7296 106.661 64.6043 106.676 64.4746C106.702 64.3392 106.74 64.2125 106.789 64.0944C106.838 63.9763 106.907 63.8699 106.997 63.7749C107.095 63.6829 107.227 63.6213 107.391 63.5899L107.551 63.5428L107.654 63.6641C107.729 63.7565 107.803 63.8388 107.874 63.911C107.946 63.9832 108.018 64.0555 108.09 64.1277C108.176 64.2143 108.261 64.3053 108.345 64.4006C108.431 64.4873 108.523 64.5855 108.621 64.6953L108.72 64.8295L108.659 64.9677C108.653 64.985 108.65 65.0081 108.65 65.0369C108.65 65.0657 108.656 65.0917 108.667 65.1148L108.797 65.2015L108.749 65.3873L108.696 65.5428C108.67 65.6206 108.656 65.6782 108.653 65.7157C108.653 65.7445 108.66 65.7805 108.674 65.8238L108.682 66.0141C108.63 66.1696 108.597 66.3122 108.582 66.4419C108.567 66.5715 108.557 66.7026 108.551 66.8352C108.553 66.9707 108.546 67.1076 108.528 67.2459C108.513 67.3756 108.473 67.5109 108.406 67.652C108.467 67.6435 108.532 67.622 108.601 67.5876C108.624 67.5761 108.647 67.5647 108.67 67.5532C108.702 67.5446 108.734 67.536 108.765 67.5275L110.086 66.601L110.112 66.4368L110.541 66.2345C110.651 66.1944 110.756 66.1529 110.857 66.1099C110.961 66.0583 111.055 65.9936 111.138 65.916L111.255 65.8255C111.818 65.4377 112.427 65.2863 113.081 65.3714L113.319 65.3936L113.314 65.6227C113.316 65.7582 113.362 65.8938 113.451 66.0294C113.552 66.1594 113.661 66.2922 113.779 66.428L113.891 66.5666C113.908 66.6877 113.908 66.7741 113.89 66.826C113.873 66.8778 113.854 66.9196 113.834 66.9512L113.842 67.1415C113.663 67.3601 113.498 67.5067 113.348 67.5813C113.201 67.6473 113.051 67.7074 112.898 67.7619C112.777 67.8077 112.664 67.8564 112.56 67.9081C112.457 67.9597 112.367 68.0258 112.292 68.1063L112.145 68.2011C111.891 68.2409 111.698 68.3586 111.565 68.5543L111.452 68.7183L111.257 68.653C111.249 68.6501 111.22 68.6644 111.171 68.696C111.125 68.719 111.042 68.7923 110.924 68.916C110.811 68.9935 110.732 69.0438 110.686 69.0667C110.651 69.0839 110.622 69.0983 110.599 69.1098C110.567 69.1472 110.537 69.1802 110.508 69.209C110.488 69.2407 110.46 69.2795 110.426 69.3255L110.313 69.4031C110.212 69.4461 110.133 69.4964 110.075 69.5539C110.02 69.6027 109.957 69.6631 109.884 69.735C109.824 69.8012 109.757 69.8702 109.685 69.9421C109.616 70.0053 109.529 70.0628 109.425 70.1144L109.403 70.2657L109.269 70.3216C109.18 70.3588 109.093 70.4163 109.009 70.4939C108.928 70.5629 108.846 70.6362 108.762 70.7138C108.676 70.8001 108.585 70.8849 108.489 70.9683C108.394 71.0516 108.284 71.1206 108.16 71.175C108.047 71.3102 107.951 71.4123 107.87 71.4813C107.798 71.5532 107.685 71.6308 107.532 71.714C107.289 72.0939 106.893 72.4562 106.345 72.8008C106.304 72.8929 106.242 72.9778 106.158 73.0554C106.086 73.1273 106.011 73.1934 105.933 73.2538C105.904 73.2825 105.87 73.3142 105.829 73.3487C105.8 73.3774 105.779 73.399 105.764 73.4134L105.677 73.5429C105.594 73.6205 105.511 73.6794 105.431 73.7195C105.358 73.7626 105.288 73.8014 105.218 73.8358C105.187 73.8444 105.154 73.8573 105.119 73.8745C105.093 73.8946 105.068 73.9104 105.045 73.9219L104.799 73.9256ZM113.588 76.4596C113.19 76.3838 112.85 76.2504 112.568 76.0595C112.286 75.8686 112.05 75.6404 111.861 75.3748C111.68 75.112 111.541 74.8249 111.443 74.5134C111.355 74.2048 111.302 73.8891 111.286 73.5662C111.405 72.9526 111.605 72.4285 111.886 71.9939C112.169 71.5507 112.496 71.1652 112.866 70.8375C113.235 70.5097 113.627 70.2181 114.039 69.9625C114.461 69.7099 114.865 69.4658 115.252 69.2304C115.303 69.2766 115.351 69.2926 115.394 69.2782C115.446 69.2668 115.492 69.2439 115.533 69.2094C115.582 69.1778 115.631 69.1462 115.68 69.1146C115.738 69.0859 115.795 69.0717 115.853 69.0718C115.914 69.0056 115.979 68.9553 116.048 68.9209C116.126 68.8894 116.202 68.8622 116.277 68.8393C116.364 68.8107 116.442 68.7792 116.511 68.7447C116.589 68.7132 116.662 68.6658 116.732 68.6026C116.824 68.6143 116.908 68.6087 116.983 68.5859C117.066 68.5659 117.143 68.5387 117.212 68.5042C117.29 68.4727 117.366 68.4455 117.441 68.4226C117.516 68.3997 117.601 68.3898 117.696 68.393L117.753 68.2245C117.972 68.2019 118.142 68.1533 118.263 68.0787C118.385 68.004 118.533 67.9049 118.709 67.7814C118.807 67.8047 118.882 67.825 118.934 67.8424C118.995 67.8627 119.088 67.8846 119.215 67.9079C119.342 67.7872 119.452 67.7038 119.544 67.6579C119.637 67.612 119.762 67.5676 119.921 67.5248C120.027 67.6374 120.151 67.7271 120.292 67.7937C120.436 67.8517 120.548 67.9615 120.628 68.123C120.602 68.2296 120.605 68.3219 120.636 68.3998C120.671 68.469 120.709 68.5397 120.753 68.6119C120.799 68.6754 120.843 68.7432 120.886 68.8154C120.929 68.8876 120.943 68.9741 120.929 69.0749C120.972 69.0894 121.001 69.0895 121.015 69.0751C121.038 69.0636 121.07 69.0695 121.11 69.0926C121.104 69.1675 121.103 69.2295 121.106 69.2785C121.108 69.3275 121.113 69.3722 121.118 69.4126C121.132 69.4558 121.141 69.502 121.144 69.551C121.155 69.6029 121.159 69.662 121.156 69.7283C121.078 69.8174 121.002 69.9167 120.927 70.026C120.854 70.1268 120.759 70.1813 120.641 70.1897C120.618 70.2588 120.63 70.3064 120.679 70.3324C120.731 70.3499 120.751 70.3903 120.74 70.4536C120.722 70.5343 120.687 70.5947 120.635 70.635C120.741 71.1223 120.818 71.624 120.865 72.1401C120.916 72.6475 120.999 73.1463 121.113 73.6366C121.055 73.7517 121.018 73.8741 121.004 74.0038C121.001 74.1277 121.002 74.2531 121.007 74.3799C121.021 74.5097 121.031 74.638 121.037 74.7648C121.042 74.8916 121.035 75.0141 121.014 75.1322C120.982 75.2849 120.928 75.4448 120.853 75.6118C120.781 75.7701 120.692 75.9184 120.588 76.0565C120.484 76.1946 120.366 76.3182 120.233 76.4275C120.103 76.528 119.97 76.594 119.835 76.6254C119.638 76.7518 119.418 76.8363 119.173 76.879C118.93 76.913 118.698 76.9744 118.476 77.0633C118.332 77.0917 118.185 77.1 118.035 77.0882C117.888 77.0677 117.735 77.05 117.577 77.0352C117.441 77.0666 117.284 77.0908 117.105 77.1076C116.93 77.1159 116.751 77.1183 116.569 77.115C116.388 77.1117 116.209 77.0998 116.033 77.0792C115.86 77.05 115.712 77.005 115.588 76.9442C115.24 76.952 114.911 76.9282 114.603 76.8727C114.294 76.8172 113.956 76.6795 113.588 76.4596ZM115.341 71.7987C115.188 71.9684 115.023 72.115 114.847 72.2385C114.682 72.3563 114.516 72.4784 114.349 72.6049C114.181 72.7313 114.023 72.8751 113.872 73.0361C113.734 73.1914 113.618 73.3929 113.525 73.6406C113.649 73.8455 113.821 74.0044 114.043 74.1174C114.276 74.2246 114.521 74.3116 114.777 74.3785C115.036 74.4367 115.299 74.4863 115.564 74.5273C115.829 74.5683 116.061 74.6221 116.259 74.6889C116.286 74.6111 116.333 74.5838 116.402 74.6071C116.777 74.6944 117.147 74.7082 117.513 74.6485C117.882 74.5802 118.264 74.5163 118.659 74.4566C118.737 74.3675 118.824 74.2956 118.919 74.2411C119.015 74.1865 119.091 74.0873 119.149 73.9433C119.132 73.851 119.124 73.7761 119.124 73.7184C119.133 73.6637 119.154 73.5845 119.189 73.4808C119.069 73.0943 118.988 72.692 118.946 72.274C118.906 71.8473 118.834 71.4335 118.728 71.0326C118.696 71.07 118.647 71.1016 118.581 71.1274C118.514 71.1532 118.461 71.1257 118.421 71.0449C118.366 71.1226 118.307 71.17 118.243 71.1872C118.183 71.1957 118.118 71.1883 118.049 71.1651C117.988 71.1448 117.928 71.11 117.867 71.0609C117.816 71.0147 117.771 70.9612 117.734 70.9006C117.35 71.041 116.969 71.1727 116.592 71.2957C116.222 71.4217 115.866 71.5953 115.522 71.8164C115.47 71.8278 115.442 71.8277 115.436 71.8162C115.43 71.8047 115.399 71.7988 115.341 71.7987ZM124.513 72.9328C124.534 72.8147 124.536 72.7383 124.518 72.7037C124.631 72.5685 124.725 72.4318 124.8 72.2936C124.887 72.1497 124.962 72.0115 125.026 71.8791C125.084 71.7639 125.139 71.6574 125.191 71.5595C125.252 71.4645 125.315 71.3753 125.382 71.2919C125.54 71.3067 125.669 71.2825 125.767 71.2193C125.877 71.1504 125.965 71.0886 126.031 71.034C126.189 71.0776 126.282 71.1326 126.307 71.1989C126.342 71.2682 126.369 71.3734 126.389 71.5147C126.4 71.6243 126.426 71.7483 126.466 71.8867C126.509 72.0165 126.598 72.1378 126.733 72.2505C126.727 72.3543 126.727 72.4551 126.732 72.5531C126.738 72.6512 126.746 72.7549 126.757 72.8645C126.774 73.0721 126.784 73.2868 126.786 73.5088C126.792 73.7221 126.769 73.9166 126.72 74.0923C126.55 74.2562 126.391 74.4576 126.243 74.6964C126.104 74.9382 125.981 75.1901 125.874 75.4522C125.778 75.7085 125.703 75.962 125.647 76.2126C125.592 76.4632 125.567 76.6808 125.572 76.8653L125.58 77.0987L125.874 77.1686C126.211 77.1953 126.521 77.2032 126.804 77.1924C127.089 77.1728 127.363 77.1302 127.625 77.0646C127.888 76.9989 128.147 76.913 128.404 76.807C128.664 76.6923 128.942 76.5502 129.24 76.3809C129.528 76.2086 129.805 75.9988 130.071 75.7516C130.34 75.4957 130.581 75.221 130.795 74.9275C131.018 74.6369 131.214 74.3376 131.385 74.0296C131.556 73.7216 131.698 73.4279 131.811 73.1486C132.001 73.126 132.134 73.0312 132.209 72.8642L132.227 72.6826C132.216 72.6307 132.216 72.5875 132.227 72.5529C132.25 72.5126 132.277 72.4781 132.305 72.4493C132.441 72.2738 132.637 72.1763 132.894 72.1567C133.015 72.3126 133.12 72.4728 133.209 72.6373C133.306 72.8047 133.391 72.9678 133.463 73.1265C133.401 73.3656 133.368 73.5802 133.362 73.7704C133.358 73.952 133.361 74.1307 133.369 74.3065C133.38 74.4737 133.384 74.6337 133.381 74.7865C133.386 74.9421 133.364 75.1222 133.315 75.3268C133.141 75.5569 132.994 75.7814 132.872 76.0002C132.762 76.2132 132.648 76.4392 132.529 76.6782L132.455 76.812C132.21 77.0276 131.961 77.2519 131.71 77.4848C131.47 77.7119 131.268 77.9132 131.103 78.0886C131.034 78.1231 130.966 78.1676 130.9 78.2222C130.842 78.2797 130.784 78.3372 130.727 78.3947C130.701 78.4148 130.66 78.4493 130.605 78.4982C130.559 78.55 130.519 78.5845 130.484 78.6017L130.212 78.3806L129.999 78.7562L129.775 78.7384L129.558 78.8676C129.243 79.1464 128.934 79.3648 128.631 79.5226C128.337 79.6833 128.021 79.808 127.684 79.8966C127.355 79.988 126.99 80.0578 126.589 80.1059C126.2 80.1482 125.755 80.1861 125.253 80.2195C125.089 80.1355 124.942 80.0718 124.813 80.0282C124.695 79.979 124.576 79.9297 124.458 79.8804C124.337 79.8398 124.222 79.7963 124.113 79.7499C124.003 79.7036 123.878 79.6471 123.737 79.5804C123.729 79.4911 123.7 79.4189 123.651 79.3641C123.602 79.3092 123.552 79.273 123.5 79.2556C123.356 79.1112 123.267 78.9467 123.233 78.7621C123.199 78.5776 123.166 78.3743 123.135 78.1523C123.127 78.0341 123.114 77.9145 123.097 77.7934C123.089 77.6752 123.066 77.557 123.029 77.4387L123.314 77.448L123.108 76.946C123.09 76.9114 123.069 76.8753 123.043 76.8378C123.026 76.8031 123.01 76.7642 122.996 76.7209L123.078 76.4747C123.282 75.7546 123.484 75.0965 123.684 74.5003C123.896 73.8984 124.156 73.3946 124.466 72.9889L124.513 72.9328ZM132.745 80.6882C132.783 80.7488 132.852 80.8297 132.952 80.9308C133.065 81.0262 133.18 81.1273 133.298 81.2343C133.418 81.3325 133.532 81.4236 133.639 81.5074C133.745 81.5913 133.823 81.6462 133.872 81.6723C133.909 81.877 133.908 82.0499 133.87 82.1911C133.844 82.3265 133.819 82.472 133.796 82.6276C133.738 82.6563 133.683 82.7195 133.631 82.8174C133.591 82.9096 133.563 82.9772 133.549 83.0204C133.517 83.0866 133.486 83.1197 133.458 83.1196C133.426 83.1282 133.391 83.1598 133.354 83.2145C133.339 83.2289 133.335 83.2563 133.34 83.2966C133.346 83.337 133.342 83.3644 133.327 83.3788C133.304 83.4191 133.275 83.4334 133.241 83.4218C133.212 83.4217 133.182 83.4404 133.15 83.4778C133.083 83.5612 133.038 83.6087 133.015 83.6201C132.998 83.6432 132.985 83.6532 132.976 83.6503C132.973 83.659 132.962 83.6647 132.942 83.6675C132.927 83.6819 132.884 83.725 132.812 83.7969C132.708 83.9062 132.592 84.0068 132.465 84.0988C132.335 84.1994 132.237 84.3058 132.17 84.418C132.015 84.4811 131.82 84.5599 131.586 84.6545C131.358 84.7606 131.156 84.8178 130.981 84.826C130.914 84.7653 130.812 84.6685 130.674 84.5356C130.528 84.3998 130.397 84.2597 130.282 84.1153C130.158 83.968 130.076 83.8252 130.036 83.6867C129.996 83.5483 130.04 83.4475 130.167 83.3844C130.377 83.2725 130.582 83.1202 130.782 82.9275C130.97 82.7406 131.15 82.5321 131.324 82.3019C131.5 82.0631 131.669 81.817 131.831 81.5638C131.987 81.299 132.139 81.0471 132.287 80.8082C132.31 80.8544 132.34 80.879 132.378 80.8819C132.418 80.8763 132.46 80.8663 132.503 80.852C132.549 80.829 132.592 80.8003 132.633 80.7658C132.673 80.7313 132.711 80.7054 132.745 80.6882ZM66.2401 74.6295C65.9266 74.3607 65.6938 74.0518 65.5419 73.7027C65.3986 73.3565 65.3144 72.9772 65.2894 72.565C65.4542 72.3608 65.6577 72.2128 65.9001 72.1211C66.1453 72.0208 66.4034 71.9537 66.6744 71.9197C66.9541 71.8886 67.2394 71.8835 67.5305 71.9044C67.8216 71.9252 68.1011 71.9518 68.3691 71.9842C68.4151 72.0189 68.441 72.0276 68.4468 72.0103C68.4526 71.993 68.4713 72.0089 68.5029 72.058C68.8459 72.0674 69.2349 72.0971 69.67 72.1471C70.108 72.1885 70.5517 72.2991 71.0009 72.4788C71.073 72.4646 71.1522 72.472 71.2386 72.501C71.3279 72.5214 71.4201 72.5475 71.5151 72.5794C71.6102 72.6114 71.7009 72.6418 71.7873 72.6709C71.8766 72.6912 71.9559 72.6986 72.025 72.693C72.0566 72.7709 72.1213 72.8359 72.2191 72.888C72.3199 72.9315 72.4134 73.011 72.4996 73.1265C72.5313 73.1467 72.5356 73.1338 72.5127 73.0876C72.4926 73.0328 72.5071 73.004 72.5561 73.0012C72.6684 73.039 72.7591 73.0982 72.8281 73.1791C72.8971 73.26 72.9545 73.3466 73.0004 73.4389C73.0579 73.5255 73.1081 73.6049 73.1512 73.6771C73.2029 73.7521 73.2676 73.8027 73.3454 73.8288C73.3912 73.95 73.4515 74.0712 73.5261 74.1924C73.6123 74.3079 73.6884 74.4248 73.7545 74.5431C73.8291 74.6644 73.8793 74.787 73.9049 74.911C73.9392 75.0379 73.9346 75.1661 73.8911 75.2957C73.865 75.3447 73.8721 75.3807 73.9124 75.4039C73.9527 75.427 73.9743 75.4631 73.977 75.5121C73.8783 75.8347 73.7336 76.0938 73.5429 76.2893C73.3608 76.4878 73.1544 76.6588 72.9234 76.8024C72.6954 76.9373 72.4574 77.0593 72.2092 77.1682C71.9697 77.2801 71.7389 77.4092 71.5166 77.5557C71.5767 77.7201 71.6527 77.8803 71.7446 78.0361C71.848 78.1863 71.9514 78.3364 72.0549 78.4865C72.1583 78.6366 72.2501 78.7925 72.3305 78.9541C72.4223 79.1099 72.4868 79.2758 72.5239 79.4517C72.5324 79.5123 72.5769 79.5657 72.6575 79.612C72.6486 79.7244 72.6469 79.844 72.6524 79.9708C72.6694 80.0919 72.6821 80.2116 72.6905 80.3298C72.7017 80.4393 72.6986 80.5344 72.6811 80.6151C72.6637 80.6958 72.6203 80.7533 72.551 80.7877C72.5999 80.8426 72.6156 80.9104 72.5981 80.991C72.5836 81.0631 72.5647 81.1192 72.5415 81.1595C72.2731 81.329 72.0883 81.4496 71.9873 81.5214C71.8863 81.5932 71.8112 81.6449 71.7621 81.6765C71.713 81.7081 71.6654 81.7354 71.6193 81.7583C71.5731 81.7813 71.4721 81.8243 71.3163 81.8873C70.7655 82.01 70.2018 82.0995 69.6252 82.1558C69.0602 82.2064 68.4968 82.1806 67.9349 82.0784C67.8714 82.1244 67.7907 82.1501 67.6927 82.1556C67.6004 82.1727 67.4981 82.1768 67.3857 82.1679C67.2733 82.159 67.1537 82.1429 67.0269 82.1195C66.9088 82.0991 66.7993 82.0815 66.6985 82.0669C66.6611 82.0351 66.6453 81.9961 66.6512 81.95C66.6628 81.9155 66.6499 81.8823 66.6125 81.8505C66.569 81.9513 66.5041 81.9872 66.4177 81.9581C66.337 81.9407 66.2435 81.89 66.137 81.8062C66.0306 81.7223 65.9256 81.6198 65.8221 81.4985C65.7186 81.3772 65.631 81.266 65.5592 81.165C65.4898 81.2282 65.4061 81.2914 65.308 81.3546C65.2185 81.4207 65.1334 81.4594 65.0526 81.4707C64.9375 81.4128 64.8511 81.3694 64.7935 81.3404C64.7446 81.3144 64.6855 81.3186 64.6162 81.353C64.5587 81.2952 64.5199 81.2389 64.4999 81.1841C64.4769 81.1379 64.4554 81.0875 64.4354 81.0326C64.4124 80.9865 64.3837 80.9432 64.3492 80.9027C64.3176 80.8537 64.263 80.8017 64.1853 80.7467C64.2171 80.7093 64.2259 80.6402 64.2117 80.5393C64.2004 80.4297 64.1588 80.3532 64.0869 80.3098C64.1533 80.2552 64.165 80.163 64.1221 80.0332C64.0821 79.8948 64.0637 79.7492 64.0669 79.5964C64.0959 79.5388 64.1205 79.4798 64.1408 79.4193C64.1727 79.3531 64.2016 79.2955 64.2277 79.2466C64.2653 79.1919 64.3043 79.1473 64.3447 79.1128C64.3851 79.0783 64.4385 79.0626 64.5048 79.0656C64.5339 78.9504 64.5356 78.8308 64.5099 78.7068C64.608 78.6725 64.6845 78.6164 64.7395 78.5387C64.7973 78.4524 64.8509 78.3646 64.9001 78.2754C64.9579 78.189 65.0186 78.1085 65.0822 78.0337C65.1487 77.9502 65.231 77.8914 65.329 77.857C65.3205 77.8253 65.3104 77.7979 65.299 77.7748C65.2875 77.7517 65.289 77.7186 65.3035 77.6753C65.5057 77.5029 65.6574 77.3519 65.7585 77.2224C65.8626 77.0843 65.9508 76.9505 66.0232 76.821C66.1071 76.6857 66.1939 76.5418 66.2836 76.3892C66.3733 76.2367 66.5121 76.0525 66.6999 75.8368C66.7435 75.6784 66.8073 75.5459 66.8911 75.4395C66.9749 75.333 67.0573 75.2309 67.1382 75.1331C67.2307 75.0295 67.3117 74.9173 67.3811 74.7964C67.4506 74.6755 67.497 74.5229 67.5205 74.3385C67.3678 74.3064 67.2424 74.322 67.1443 74.3852C67.0548 74.4512 66.9767 74.5548 66.9101 74.6959C66.8091 74.7389 66.6982 74.7401 66.5772 74.6995C66.4591 74.6502 66.3468 74.6269 66.2401 74.6295ZM71.1024 79.0463C70.835 78.7546 70.5689 78.545 70.304 78.4176C70.0478 78.2931 69.7871 78.2103 69.5221 78.1693C69.2685 78.1226 69.0178 78.0961 68.77 78.0898C68.5221 78.0834 68.28 78.0598 68.0438 78.0189C67.8328 78.275 67.6073 78.5598 67.3674 78.8734C67.1274 79.187 66.8947 79.4934 66.6692 79.7927C66.9947 79.854 67.3016 79.8849 67.5898 79.8856C67.8781 79.8863 68.1605 79.8754 68.4373 79.853C68.717 79.8219 68.9908 79.7937 69.2589 79.7684C69.53 79.7345 69.8067 79.712 70.0892 79.7012C70.15 79.6062 70.2337 79.543 70.3404 79.5115C70.4471 79.4801 70.5524 79.4529 70.6562 79.4301C70.7629 79.3986 70.8581 79.3585 70.9418 79.3097C71.0255 79.2609 71.0791 79.1731 71.1024 79.0463ZM71.5578 74.6851C71.0279 74.4878 70.4849 74.3583 69.9288 74.2965C69.3726 74.2347 68.8812 74.2523 68.4544 74.3493C68.5778 74.5542 68.7114 74.7433 68.8551 74.9166C69.0075 75.0928 69.0993 75.2918 69.1305 75.5139C69.6003 75.489 70.0329 75.4035 70.4281 75.2575C70.8262 75.1027 71.2028 74.9119 71.5578 74.6851ZM74.2371 83.0415C74.191 83.0357 74.1623 82.9924 74.151 82.9116C74.1425 82.8223 74.1283 82.7358 74.1083 82.6521L74.2509 82.7C74.2543 82.4896 74.295 82.311 74.3732 82.1642C74.4629 82.0116 74.554 81.8692 74.6466 81.7368C74.742 81.5958 74.8259 81.4605 74.8983 81.331C74.9822 81.1957 75.02 81.0402 75.0118 80.8643C75.0463 80.9048 75.0794 80.9063 75.1112 80.8689C75.1545 80.8257 75.1921 80.7711 75.224 80.7049C75.2674 80.6329 75.2978 80.5566 75.3153 80.4759C75.3443 80.3895 75.3632 80.3189 75.372 80.2642C75.5743 80.0341 75.7536 79.7866 75.9098 79.5218C76.0747 79.2599 76.2295 78.9994 76.3742 78.7404C76.5219 78.4726 76.6694 78.2193 76.817 77.9805C76.9761 77.7358 77.1467 77.5143 77.3287 77.3158C77.4555 77.3392 77.5749 77.3985 77.6871 77.4939C77.8109 77.5836 77.8827 77.6702 77.9027 77.7538C78.2402 77.6364 78.562 77.4657 78.868 77.2416C79.1741 77.0175 79.4772 76.802 79.7774 76.5952C80.0892 76.3826 80.4153 76.2133 80.7557 76.0873C81.0961 75.9612 81.4723 75.9434 81.8843 76.0337C82.0423 76.2502 82.2219 76.4884 82.423 76.7483C82.6271 76.9995 82.7691 77.278 82.8491 77.5837C82.9037 77.6501 82.9526 77.7194 82.9956 77.7916C83.0502 77.858 83.1048 77.9244 83.1595 77.9908L83.0942 78.1852C83.1774 78.3382 83.2318 78.5055 83.2573 78.6871C83.2943 78.863 83.3141 79.0475 83.3165 79.2407C83.3305 79.428 83.3387 79.6183 83.3411 79.8114C83.3436 80.0045 83.359 80.1876 83.3874 80.3606C83.3527 80.4066 83.3281 80.4513 83.3136 80.4945C83.3107 80.5319 83.3062 80.5737 83.3004 80.6198C83.306 80.6602 83.3045 80.7077 83.2957 80.7625C83.2898 80.8086 83.2753 80.8662 83.2521 80.9353C83.0637 81.3816 82.7877 81.7024 82.4241 81.8975C82.072 82.0869 81.6754 82.2085 81.2343 82.2622C80.8047 82.3102 80.3565 82.3279 79.8896 82.3153C79.4256 82.2941 78.9961 82.2989 78.6011 82.3296C78.5895 82.3642 78.601 82.3873 78.6356 82.3989C78.6788 82.4134 78.683 82.4437 78.6483 82.4897C78.8553 82.7323 79.0119 82.9243 79.1183 83.0658C79.2332 83.2102 79.3396 83.3373 79.4373 83.447C79.5466 83.551 79.6674 83.6493 79.7998 83.7419C79.9408 83.8373 80.1351 83.9603 80.3826 84.1107C80.6301 84.2612 80.8201 84.3827 80.9525 84.4752C81.0964 84.562 81.2244 84.6387 81.3367 84.7052C81.4519 84.7631 81.5757 84.824 81.7081 84.8877C81.8405 84.9514 82.019 85.0354 82.2436 85.1397C82.3067 85.2666 82.3468 85.4051 82.3637 85.555C82.3807 85.7049 82.3803 85.849 82.3627 85.9873C82.3451 86.1256 82.3073 86.2524 82.2494 86.3675C82.2031 86.477 82.138 86.5561 82.0543 86.6049C82.0513 86.6423 82.0671 86.6669 82.1017 86.6785C82.1478 86.6844 82.191 86.6989 82.2313 86.722C82.1563 86.7449 82.0871 86.7793 82.0235 86.8253C81.96 86.8713 81.8965 86.9172 81.833 86.9632C81.7695 87.0092 81.6988 87.0479 81.6209 87.0795C81.5516 87.1139 81.4723 87.1209 81.383 87.1005C81.0314 87.117 80.6325 86.9878 80.1863 86.713C79.7402 86.4381 79.1892 86.0319 78.5333 85.4942C78.2082 85.2312 77.9479 85.0043 77.7523 84.8137C77.5568 84.623 77.39 84.4468 77.252 84.285C77.117 84.1147 76.9963 83.9443 76.89 83.774C76.7867 83.5951 76.669 83.3873 76.537 83.1506C76.5081 83.1506 76.4851 83.162 76.4677 83.1851C76.459 83.211 76.4402 83.2239 76.4114 83.2238C76.2521 83.5549 76.0887 83.8125 75.9211 83.9966C75.7621 84.1836 75.5585 84.3604 75.3102 84.527C75.1807 84.4546 75.0813 84.4356 75.0121 84.4701C74.9514 84.5074 74.8793 84.5361 74.7957 84.556C74.7035 84.5443 74.6401 84.5182 74.6056 84.4778C74.5682 84.446 74.5366 84.4113 74.5108 84.3738C74.4849 84.3363 74.4547 84.2973 74.4202 84.2569C74.3857 84.2164 74.3195 84.1846 74.2216 84.1613C74.2218 84.0748 74.2205 83.9927 74.2178 83.9148C74.218 83.8284 74.1605 83.7706 74.0453 83.7415C74.0973 83.6724 74.1277 83.6105 74.1365 83.5558C74.1482 83.4924 74.1526 83.4362 74.1499 83.3872C74.15 83.3296 74.1501 83.2719 74.1503 83.2143C74.1591 83.1595 74.188 83.102 74.2371 83.0415ZM80.5554 78.5728C80.3879 78.6992 80.2119 78.8083 80.0272 78.9001C79.8454 78.9833 79.6607 79.0751 79.4731 79.1756C79.2971 79.2703 79.1282 79.3866 78.9665 79.5246C78.8077 79.6539 78.6675 79.828 78.5459 80.0467C78.9233 80.1254 79.3369 80.1538 79.7865 80.1318C80.2391 80.1011 80.6672 80.0718 81.0708 80.0439C81.135 79.7097 81.1083 79.4171 80.9907 79.1661C80.876 78.9064 80.7309 78.7087 80.5554 78.5728ZM86.5127 88.463C86.1151 88.3872 85.7753 88.2538 85.4933 88.0629C85.2112 87.872 84.9754 87.6438 84.7858 87.3782C84.6048 87.1155 84.4657 86.8284 84.3684 86.5169C84.2798 86.2082 84.2272 85.8925 84.2107 85.5697C84.3302 84.956 84.5303 84.4319 84.8109 83.9973C85.0944 83.5541 85.421 83.1686 85.7907 82.8409C86.1604 82.5132 86.5516 82.2215 86.9644 81.966C87.3858 81.7133 87.7899 81.4692 88.1766 81.2338C88.2284 81.28 88.2759 81.296 88.3192 81.2817C88.3711 81.2703 88.4173 81.2473 88.4577 81.2128C88.5068 81.1812 88.5559 81.1496 88.6049 81.118C88.6626 81.0894 88.7203 81.0751 88.778 81.0752C88.8387 81.0091 88.9036 80.9588 88.9729 80.9243C89.0508 80.8928 89.1272 80.8656 89.2022 80.8427C89.2887 80.8141 89.3666 80.7826 89.4359 80.7482C89.5138 80.7166 89.5874 80.6692 89.6567 80.606C89.7489 80.6177 89.8325 80.6122 89.9075 80.5893C89.9911 80.5693 90.0676 80.5421 90.1368 80.5077C90.2147 80.4761 90.2912 80.4489 90.3662 80.4261C90.4412 80.4032 90.5262 80.3933 90.6213 80.3964L90.6779 80.2279C90.897 80.2053 91.0672 80.1567 91.1884 80.0821C91.3097 80.0074 91.4583 79.9083 91.6344 79.7848C91.7324 79.8081 91.8073 79.8284 91.8591 79.8459C91.9196 79.8662 92.0132 79.888 92.14 79.9114C92.2671 79.7906 92.3768 79.7073 92.4691 79.6614C92.5615 79.6155 92.687 79.5711 92.8456 79.5282C92.952 79.6409 93.0757 79.7305 93.2168 79.7971C93.3608 79.8551 93.4729 79.9649 93.5532 80.1265C93.5271 80.2331 93.5297 80.3253 93.5613 80.4032C93.5957 80.4724 93.6344 80.5432 93.6775 80.6153C93.7235 80.6788 93.768 80.7467 93.811 80.8188C93.8541 80.891 93.8683 80.9775 93.8537 81.0783C93.8969 81.0928 93.9257 81.0929 93.9401 81.0785C93.9632 81.0671 93.9949 81.0729 94.0352 81.096C94.0293 81.171 94.0277 81.2329 94.0305 81.2819C94.0332 81.3309 94.0375 81.3756 94.0431 81.416C94.0574 81.4593 94.066 81.5054 94.0687 81.5544C94.0802 81.6063 94.0843 81.6654 94.0813 81.7317C94.0033 81.8209 93.9267 81.9201 93.8515 82.0295C93.7792 82.1302 93.6839 82.1847 93.5657 82.1931C93.5425 82.2622 93.5554 82.3098 93.6043 82.3359C93.6562 82.3533 93.6763 82.3937 93.6646 82.4571C93.6471 82.5377 93.6124 82.5982 93.5604 82.6384C93.6659 83.1258 93.7426 83.6275 93.7904 84.1435C93.8411 84.6509 93.9235 85.1497 94.0377 85.64C93.9798 85.7551 93.9434 85.8776 93.9287 86.0072C93.9256 86.1312 93.9267 86.2565 93.9322 86.3834C93.9463 86.5131 93.9561 86.6414 93.9616 86.7682C93.967 86.8951 93.9595 87.0175 93.9391 87.1357C93.907 87.2883 93.8533 87.4482 93.778 87.6152C93.7056 87.7735 93.6173 87.9218 93.5132 88.0599C93.4092 88.198 93.2907 88.3217 93.1579 88.4309C93.0279 88.5315 92.8952 88.5974 92.7596 88.6288C92.5634 88.7552 92.3427 88.8397 92.0976 88.8824C91.8554 88.9164 91.6232 88.9778 91.4011 89.0667C91.2569 89.0952 91.1099 89.1035 90.96 89.0916C90.8131 89.0711 90.6604 89.0534 90.5019 89.0387C90.3663 89.07 90.2092 89.0942 90.0304 89.1111C89.8546 89.1193 89.6759 89.1218 89.4943 89.1185C89.3127 89.1152 89.1341 89.1032 88.9583 89.0826C88.7854 89.0534 88.6371 89.0084 88.5133 88.9476C88.1645 88.9554 87.836 88.9316 87.5277 88.8761C87.2194 88.8206 86.8811 88.683 86.5127 88.463ZM88.2658 83.8021C88.1127 83.9718 87.948 84.1184 87.7719 84.242C87.6074 84.3598 87.4413 84.4819 87.2739 84.6083C87.1064 84.7347 86.9475 84.8785 86.7973 85.0395C86.6586 85.1949 86.5428 85.3964 86.45 85.644C86.5735 85.8489 86.7461 86.0079 86.9677 86.1208C87.2009 86.228 87.4457 86.315 87.7021 86.3819C87.9614 86.4402 88.2236 86.4898 88.4886 86.5307C88.7537 86.5717 88.9856 86.6255 89.1843 86.6923C89.2105 86.6145 89.2581 86.5873 89.3272 86.6105C89.7017 86.6978 90.072 86.7117 90.4382 86.652C90.8073 86.5837 91.1894 86.5197 91.5844 86.4601C91.6624 86.3709 91.749 86.299 91.8443 86.2445C91.9395 86.19 92.0161 86.0907 92.0741 85.9467C92.057 85.8544 92.0486 85.7795 92.0487 85.7218C92.0575 85.6671 92.0793 85.5879 92.1141 85.4842C91.9939 85.0977 91.9127 84.6954 91.8705 84.2774C91.8311 83.8507 91.7586 83.437 91.6528 83.0361C91.621 83.0735 91.572 83.1051 91.5056 83.1308C91.4393 83.1566 91.386 83.1291 91.3458 83.0483C91.2909 83.126 91.2317 83.1734 91.1683 83.1906C91.1077 83.1991 91.0429 83.1917 90.9738 83.1685C90.9133 83.1482 90.8528 83.1135 90.7924 83.0643C90.7406 83.0181 90.6961 82.9647 90.6588 82.9041C90.2751 83.0444 89.8943 83.1761 89.5164 83.2992C89.1472 83.4251 88.7909 83.5987 88.4474 83.8198C88.3954 83.8312 88.3666 83.8312 88.3609 83.8196C88.3551 83.8081 88.3235 83.8023 88.2658 83.8021ZM97.0197 90.2185C97.0138 90.2934 97.005 90.3626 96.9933 90.426C96.9816 90.4893 96.9728 90.5585 96.9669 90.6334C96.9033 90.7082 96.8441 90.7845 96.7891 90.8622C96.7371 90.9312 96.685 91.0003 96.633 91.0693C96.5867 91.1211 96.5564 91.1542 96.542 91.1685C96.5275 91.1829 96.5188 91.1944 96.5159 91.2031C96.513 91.2117 96.5087 91.2247 96.5029 91.242C96.5086 91.2535 96.5013 91.2895 96.481 91.35L96.3769 91.4881C96.3134 91.5341 96.2456 91.5642 96.1735 91.5784C96.1014 91.5927 96.0308 91.6026 95.9616 91.6082C95.9385 91.6197 95.9082 91.6239 95.8708 91.621C95.8304 91.6266 95.7987 91.6352 95.7756 91.6467L95.6845 91.7891L95.5073 91.7585C95.3488 91.7437 95.2177 91.7189 95.114 91.684L94.9585 91.6318C94.8868 91.5019 94.8293 91.4009 94.7863 91.3288C94.7432 91.2566 94.6944 91.1873 94.6398 91.1209C94.594 90.9709 94.5755 90.8686 94.5843 90.8138C94.5959 90.7504 94.6018 90.6899 94.602 90.6323C94.6224 90.5141 94.6255 90.4334 94.6112 90.3902L94.4907 90.1478L94.6854 90.0834L94.6256 89.7893C94.7554 89.7463 94.852 89.7163 94.9154 89.6991C94.9789 89.682 95.0337 89.6619 95.0799 89.639C95.1289 89.6074 95.1852 89.5686 95.2487 89.5226C95.3123 89.4767 95.4148 89.4005 95.5562 89.2942L95.7295 89.1649L95.8675 89.3122C95.8933 89.3498 95.9581 89.4003 96.0617 89.464C96.1768 89.5219 96.2747 89.574 96.3553 89.6203C96.4877 89.7129 96.6143 89.7939 96.7352 89.8633C96.859 89.9241 96.9482 90.0022 97.0027 90.0974L97.0197 90.2185ZM101.38 91.683C101.374 91.7579 101.365 91.8271 101.353 91.8905C101.341 91.9538 101.333 92.023 101.327 92.0979C101.263 92.1727 101.204 92.249 101.149 92.3267C101.097 92.3957 101.045 92.4648 100.993 92.5338C100.947 92.5856 100.916 92.6187 100.902 92.6331C100.887 92.6474 100.879 92.6589 100.876 92.6676C100.873 92.6762 100.869 92.6892 100.863 92.7065C100.868 92.718 100.861 92.754 100.841 92.8145L100.737 92.9526C100.673 92.9986 100.605 93.0287 100.533 93.0429C100.461 93.0572 100.391 93.0671 100.321 93.0727C100.298 93.0842 100.268 93.0884 100.231 93.0855C100.19 93.0911 100.159 93.0997 100.135 93.1112L100.044 93.2536L99.8671 93.223C99.7086 93.2082 99.5775 93.1834 99.4739 93.1486L99.3183 93.0963C99.2466 92.9664 99.1892 92.8654 99.1461 92.7933C99.103 92.7211 99.0542 92.6518 98.9996 92.5854C98.9538 92.4354 98.9353 92.3331 98.9441 92.2783C98.9558 92.2149 98.9617 92.1544 98.9618 92.0968C98.9823 91.9786 98.9853 91.8979 98.971 91.8547L98.8505 91.6123L99.0452 91.5479L98.9854 91.2538C99.1152 91.2108 99.2118 91.1808 99.2753 91.1636C99.3387 91.1465 99.3935 91.1264 99.4397 91.1035C99.4888 91.0719 99.5451 91.0331 99.6086 90.9871C99.6721 90.9412 99.7746 90.865 99.9161 90.7587L100.089 90.6294L100.227 90.7767C100.253 90.8143 100.318 90.8649 100.422 90.9285C100.537 90.9864 100.635 91.0385 100.715 91.0848C100.848 91.1774 100.974 91.2584 101.095 91.3278C101.219 91.3886 101.308 91.4667 101.363 91.5619L101.38 91.683Z" fill="white"/>
<path d="M43.3889 25.0847L43.7177 27.563C44.7545 27.4254 45.5961 26.657 45.8271 25.6369L43.3889 25.0847ZM29.1973 68.5649L31.5337 69.4545C31.9607 68.3331 31.5307 67.0664 30.5092 66.4368L29.1973 68.5649ZM83.759 99.2382L85.408 97.3592C84.7203 96.7556 83.7578 96.576 82.8987 96.8909L83.759 99.2382ZM106.82 109.229L107.602 106.855C107.465 106.81 107.324 106.776 107.181 106.756L106.82 109.229ZM123.207 118.38L121.869 120.492L123.207 118.38ZM145.201 125.399L147.699 125.307L147.699 125.307L145.201 125.399ZM146.287 95.4348L144.144 94.1464C144.01 94.3702 143.911 94.6136 143.852 94.8679L146.287 95.4348ZM145.782 75.6044L144.483 73.4683C143.912 73.8159 143.503 74.3784 143.349 75.0297C143.195 75.6811 143.309 76.3669 143.665 76.9338L145.782 75.6044ZM116.53 30.6094L114.042 30.8549C114.171 32.1591 115.285 33.1426 116.595 33.1085L116.53 30.6094ZM45.8271 25.6369C47.0511 20.2321 51.275 15.4174 57.7332 12.1073C64.1712 8.80756 72.6274 7.12824 81.7799 7.93153L82.217 2.95068C72.2319 2.07431 62.8177 3.8828 55.4526 7.65775C48.1075 11.4224 42.5955 17.2693 40.9506 24.5325L45.8271 25.6369ZM18.3819 47.0746C19.2139 37.5944 29.1787 29.4919 43.7177 27.563L43.0601 22.6064C27.5466 24.6646 14.5368 33.6972 13.401 46.6375L18.3819 47.0746ZM30.5092 66.4368C22.2266 61.3312 17.7596 54.1653 18.3819 47.0746L13.401 46.6375C12.5535 56.2944 18.6723 65.0139 27.8855 70.6931L30.5092 66.4368ZM30.5848 73.5706C30.7096 72.1485 31.0313 70.774 31.5337 69.4545L26.861 67.6753C26.1987 69.4147 25.7701 71.2402 25.6039 73.1335L30.5848 73.5706ZM62.8627 99.3187C53.1484 98.4661 44.7007 94.9974 38.8859 90.208C33.0604 85.4098 30.0661 79.4796 30.5848 73.5706L25.6039 73.1335C24.8995 81.1589 29.028 88.5662 35.7071 94.0674C42.3968 99.5774 51.8355 103.37 62.4255 104.3L62.8627 99.3187ZM82.8987 96.8909C77.1208 99.0085 70.2108 99.9636 62.8627 99.3187L62.4255 104.3C70.4568 105.004 78.1077 103.972 84.6193 101.586L82.8987 96.8909ZM107.181 106.756C98.2869 105.46 90.6558 101.965 85.408 97.3592L82.11 101.117C88.1815 106.446 96.7472 110.289 106.46 111.703L107.181 106.756ZM124.544 116.268C121.453 114.31 118.32 112.326 115.451 110.666C112.614 109.023 109.88 107.605 107.602 106.855L106.038 111.604C107.792 112.182 110.149 113.374 112.946 114.993C115.712 116.594 118.757 118.521 121.869 120.492L124.544 116.268ZM142.703 125.491C142.725 126.096 142.605 126.181 142.684 126.058C142.818 125.851 143.013 125.803 142.972 125.811C142.852 125.833 142.503 125.849 141.83 125.694C141.183 125.544 140.38 125.271 139.421 124.863C135.502 123.197 130.14 119.811 124.544 116.268L121.869 120.492C127.316 123.941 133.081 127.601 137.464 129.464C138.58 129.939 139.676 130.328 140.706 130.566C141.71 130.798 142.816 130.925 143.882 130.728C145.028 130.516 146.143 129.917 146.883 128.772C147.569 127.711 147.742 126.471 147.699 125.307L142.703 125.491ZM143.852 94.8679C142.763 99.5459 142.023 107.044 142.703 125.491L147.699 125.307C147.023 106.935 147.792 99.9964 148.722 96.0017L143.852 94.8679ZM146.394 87.3668C146.184 89.7649 145.412 92.0387 144.144 94.1464L148.429 96.7233C150.061 94.01 151.093 91.0101 151.375 87.804L146.394 87.3668ZM143.665 76.9338C145.746 80.2478 146.708 83.7933 146.394 87.3668L151.375 87.804C151.797 82.9974 150.476 78.3785 147.899 74.2751L143.665 76.9338ZM154.691 59.0383C154.195 64.6847 150.542 69.7846 144.483 73.4683L147.081 77.7406C154.081 73.4848 158.999 67.138 159.671 59.4754L154.691 59.0383ZM122.413 33.2902C132.127 34.1428 140.575 37.6115 146.389 42.4009C152.215 47.1991 155.209 53.1293 154.691 59.0383L159.671 59.4754C160.376 51.45 156.247 44.0427 149.568 38.5415C142.878 33.0315 133.44 29.2388 122.85 28.3094L122.413 33.2902ZM116.595 33.1085C118.495 33.0591 120.439 33.117 122.413 33.2902L122.85 28.3094C120.688 28.1196 118.555 28.0559 116.465 28.1102L116.595 33.1085ZM81.7799 7.93153C90.7188 8.71608 98.5933 11.7172 104.328 15.9308C110.081 20.1586 113.51 25.4614 114.042 30.8549L119.018 30.3638C118.307 23.1593 113.816 16.6983 107.288 11.9016C100.741 7.09087 91.9717 3.80683 82.217 2.95068L81.7799 7.93153Z" fill="white"/>
</svg>
