<svg width="297" height="87" viewBox="0 0 297 87" fill="none" xmlns="http://www.w3.org/2000/svg">
<path d="M12.8379 45.5905C12.3138 45.5056 11.8514 45.3224 11.4508 45.0411C11.0617 44.7571 10.7153 44.3973 10.4118 43.9616C10.4558 43.6271 10.5801 43.3284 10.7846 43.0655C10.9866 42.7911 11.2249 42.5445 11.4995 42.3257C11.7857 42.1043 12.0954 41.9076 12.4288 41.7355C12.7622 41.5635 13.0868 41.4054 13.4025 41.2614C13.4763 41.2686 13.5106 41.2608 13.5054 41.238C13.5002 41.2151 13.5313 41.2201 13.5989 41.2527C13.9816 41.0334 14.4284 40.8054 14.9395 40.5689C15.4479 40.3209 16.0088 40.1451 16.6222 40.0415C16.6917 39.9775 16.7837 39.9326 16.8979 39.9065C17.0096 39.8691 17.1283 39.8361 17.2539 39.8074C17.3796 39.7788 17.4996 39.7515 17.6139 39.7255C17.7255 39.688 17.8175 39.6431 17.8896 39.5906C17.9764 39.6549 18.0909 39.6829 18.2333 39.6746C18.373 39.6548 18.5288 39.6794 18.7008 39.7484C18.7491 39.7494 18.7452 39.7323 18.6891 39.697C18.6304 39.6502 18.627 39.6089 18.6789 39.5731C18.8274 39.5393 18.9666 39.5436 19.0965 39.5862C19.2264 39.6287 19.3474 39.6853 19.4597 39.7558C19.5807 39.8124 19.689 39.8659 19.7846 39.9162C19.8917 39.9639 19.9966 39.9761 20.0994 39.9527C20.2309 40.055 20.3782 40.1476 20.5413 40.2307C20.7133 40.2997 20.8751 40.377 21.0268 40.4626C21.1899 40.5457 21.3271 40.6466 21.4383 40.7655C21.561 40.8818 21.6418 41.0257 21.6808 41.1971C21.685 41.2682 21.717 41.303 21.7767 41.3014C21.8364 41.2999 21.8842 41.325 21.9201 41.377C22.0278 41.7971 22.0425 42.1784 21.9642 42.5207C21.8974 42.8604 21.7853 43.1864 21.628 43.4987C21.4682 43.7995 21.2886 44.0928 21.0893 44.3785C20.9014 44.6617 20.7345 44.9581 20.5887 45.2678C20.7648 45.4079 20.9555 45.5328 21.1607 45.6423C21.3748 45.7378 21.5888 45.8332 21.8028 45.9287C22.0169 46.0242 22.2221 46.1337 22.4185 46.2572C22.6237 46.3668 22.8056 46.5056 22.9641 46.6739C23.014 46.7346 23.0986 46.7634 23.2181 46.7602C23.2836 46.8895 23.3618 47.022 23.4528 47.1575C23.5526 47.279 23.6467 47.4018 23.735 47.5259C23.8208 47.6386 23.8811 47.745 23.9159 47.8453C23.9508 47.9455 23.9417 48.0377 23.8888 48.1219C23.9791 48.1494 24.0418 48.2132 24.0766 48.3135C24.1089 48.4023 24.1258 48.4765 24.1273 48.5363C23.9462 48.902 23.8243 49.1582 23.7615 49.3047C23.6987 49.4512 23.651 49.5582 23.6183 49.6257C23.5856 49.6933 23.5516 49.7551 23.5163 49.8112C23.481 49.8673 23.399 49.9821 23.2702 50.1557C22.7479 50.6592 22.1892 51.135 21.5941 51.583C21.0079 52.017 20.3723 52.366 19.6872 52.6302C19.6483 52.7232 19.5769 52.8056 19.4731 52.8773C19.3833 52.9578 19.2737 53.0309 19.1444 53.0964C19.0151 53.1619 18.873 53.2243 18.7183 53.2835C18.5749 53.3402 18.443 53.3943 18.3226 53.4458C18.2602 53.4359 18.2168 53.4037 18.1924 53.3492C18.182 53.3035 18.1456 53.2757 18.0833 53.2659C18.1031 53.4056 18.0558 53.4885 17.9416 53.5145C17.8414 53.5493 17.7047 53.5564 17.5318 53.5357C17.3588 53.515 17.1749 53.4728 16.9801 53.4089C16.7853 53.3451 16.6146 53.2818 16.4681 53.2191C16.4344 53.3349 16.3848 53.4604 16.3195 53.5954C16.2655 53.7279 16.198 53.8274 16.117 53.8939C15.9518 53.9075 15.828 53.9177 15.7454 53.9245C15.6742 53.9287 15.6122 53.9729 15.5592 54.057C15.4574 54.0321 15.3771 53.9963 15.3184 53.9496C15.2623 53.9143 15.2049 53.8733 15.1462 53.8266C15.0901 53.7913 15.0295 53.763 14.9646 53.7417C14.8971 53.709 14.8023 53.6886 14.6802 53.6803C14.69 53.618 14.6534 53.5362 14.5702 53.4349C14.4845 53.3222 14.3876 53.2662 14.2795 53.2667C14.3158 53.1623 14.267 53.0533 14.1329 52.9396C13.9963 52.8144 13.8785 52.667 13.7798 52.4972C13.773 52.4146 13.7605 52.3333 13.7423 52.2533C13.7329 52.1593 13.7261 52.0767 13.7219 52.0056C13.7265 51.9204 13.7395 51.8453 13.7608 51.7804C13.782 51.7154 13.8301 51.6624 13.9048 51.6214C13.8596 51.4754 13.7814 51.343 13.6702 51.2241C13.7548 51.1207 13.8012 51.008 13.8095 50.8859C13.8151 50.7524 13.8151 50.6202 13.8093 50.4893C13.815 50.3558 13.8276 50.2267 13.8473 50.1021C13.8644 49.966 13.9152 49.8462 13.9999 49.7428C13.9692 49.7138 13.9399 49.6904 13.9118 49.6727C13.8837 49.6551 13.8632 49.6177 13.8502 49.5606C13.9565 49.2359 14.0219 48.9686 14.0462 48.7588C14.0679 48.5375 14.0751 48.3315 14.0677 48.1409C14.0692 47.9362 14.0681 47.7202 14.0643 47.4927C14.0606 47.2651 14.0896 46.9701 14.1512 46.6075C14.093 46.4044 14.0742 46.2164 14.0949 46.0434C14.1156 45.8705 14.1376 45.7032 14.1609 45.5417C14.193 45.3661 14.2067 45.1887 14.202 45.0095C14.1972 44.8303 14.146 44.6316 14.0482 44.4135C13.8592 44.4806 13.732 44.5817 13.6666 44.7168C13.6126 44.8492 13.5963 45.0152 13.6177 45.2147C13.5357 45.3295 13.4147 45.4051 13.2547 45.4415C13.0922 45.4665 12.9532 45.5162 12.8379 45.5905ZM21.1325 47.1811C20.6437 47.04 20.2113 46.9882 19.8352 47.0258C19.4706 47.0608 19.1291 47.1445 18.8108 47.2771C18.5012 47.3957 18.2083 47.5345 17.9321 47.6936C17.6558 47.8526 17.3743 47.9888 17.0877 48.1022C17.0276 48.5245 16.9709 48.9881 16.9176 49.493C16.8643 49.9979 16.8142 50.4901 16.7671 50.9696C17.1654 50.8188 17.523 50.6472 17.8398 50.4549C18.1565 50.2625 18.4593 50.0614 18.748 49.8514C19.0341 49.63 19.3158 49.4156 19.5931 49.2083C19.8677 48.9895 20.1565 48.7795 20.4592 48.5784C20.4622 48.4334 20.5118 48.308 20.6078 48.202C20.7039 48.096 20.8012 47.9957 20.8999 47.9011C20.9959 47.7951 21.0735 47.6873 21.1327 47.5777C21.1919 47.468 21.1918 47.3358 21.1325 47.1811ZM18.7111 42.0897C17.9975 42.2282 17.3148 42.4497 16.6631 42.7544C16.0113 43.0591 15.4837 43.4076 15.0803 43.7999C15.3531 43.9421 15.6263 44.0601 15.9001 44.154C16.1853 44.2453 16.4194 44.4024 16.6023 44.6251C17.1013 44.2831 17.5188 43.8996 17.8547 43.4746C18.188 43.0381 18.4734 42.5765 18.7111 42.0897ZM27.2488 49.466C27.1943 49.4904 27.1338 49.4621 27.0672 49.3811C26.9981 49.2887 26.9246 49.2033 26.8466 49.1249L27.0352 49.082C26.8979 48.8488 26.823 48.6255 26.8105 48.412C26.8068 48.1845 26.8113 47.9671 26.8242 47.7599C26.8345 47.5412 26.836 47.3365 26.8286 47.1459C26.8301 46.9413 26.7674 46.7452 26.6406 46.5577C26.7056 46.579 26.7429 46.5585 26.7528 46.4961C26.7715 46.4198 26.7761 46.3346 26.7667 46.2406C26.7661 46.1325 26.7484 46.0284 26.7136 45.9282C26.6876 45.8139 26.661 45.7238 26.634 45.6578C26.7019 45.2698 26.7329 44.8781 26.727 44.4829C26.7325 44.085 26.7279 43.6954 26.7132 43.3142C26.6959 42.9215 26.6882 42.5446 26.6902 42.1836C26.7009 41.8086 26.7397 41.4512 26.8066 41.1115C26.9613 41.0522 27.1322 41.0373 27.3192 41.0669C27.5151 41.0824 27.6519 41.1293 27.7299 41.2077C28.0217 40.8528 28.2604 40.4499 28.4462 39.999C28.6319 39.548 28.8203 39.1085 29.0113 38.6804C29.211 38.2383 29.4555 37.8341 29.7447 37.4678C30.0338 37.1015 30.4347 36.8299 30.9473 36.6531C31.2658 36.7849 31.6224 36.926 32.0173 37.0765C32.4095 37.2155 32.7519 37.426 33.0444 37.7079C33.1489 37.7442 33.2489 37.7875 33.3445 37.8379C33.4489 37.8742 33.5533 37.9105 33.6577 37.9468L33.7163 38.2039C33.9101 38.316 34.0818 38.4632 34.2315 38.6455C34.39 38.8137 34.5352 39.003 34.6672 39.2133C34.8081 39.4095 34.9445 39.6128 35.0766 39.8232C35.2086 40.0335 35.3481 40.224 35.4952 40.3949C35.488 40.4686 35.4908 40.5341 35.5038 40.5912C35.5257 40.6343 35.5488 40.6831 35.5733 40.7376C35.6065 40.7781 35.6367 40.8314 35.6637 40.8973C35.6881 40.9519 35.7108 41.0248 35.7316 41.1162C35.8238 41.7322 35.7357 42.2691 35.4674 42.7268C35.2078 43.1705 34.854 43.5696 34.4059 43.924C33.9666 44.2644 33.4866 44.5841 32.9657 44.883C32.4423 45.1705 31.9741 45.4634 31.5613 45.7617C31.5717 45.8074 31.5998 45.825 31.6455 45.8146C31.7026 45.8016 31.7275 45.832 31.7203 45.9058C32.1099 46.0334 32.4105 46.1392 32.6219 46.2233C32.8448 46.3047 33.0466 46.3729 33.2274 46.4279C33.417 46.4689 33.6154 46.4958 33.8227 46.5087C34.0414 46.519 34.3369 46.5238 34.7093 46.5231C35.0818 46.5224 35.3716 46.5285 35.5789 46.5414C35.7949 46.5403 35.9869 46.5387 36.1546 46.5365C36.3198 46.5229 36.4964 46.5068 36.6844 46.488C36.8725 46.4692 37.1246 46.4418 37.4409 46.4058C37.5953 46.5029 37.7319 46.628 37.8509 46.7812C37.9699 46.9344 38.0661 47.0928 38.1394 47.2564C38.2127 47.4199 38.2562 47.5843 38.2697 47.7495C38.2921 47.9006 38.2738 48.031 38.2146 48.1406C38.2364 48.1837 38.2702 48.2001 38.3159 48.1897C38.3704 48.1653 38.4276 48.1522 38.4873 48.1507C38.4203 48.226 38.3674 48.3102 38.3285 48.4032C38.2895 48.4962 38.2506 48.5892 38.2117 48.6821C38.1728 48.7751 38.1211 48.865 38.0568 48.9518C38.0038 49.036 37.9215 49.0968 37.8099 49.1342C37.435 49.3879 36.9106 49.5133 36.237 49.5104C35.5633 49.5076 34.6864 49.4309 33.6065 49.2802C33.0735 49.2092 32.6359 49.1346 32.2935 49.0563C31.9512 48.9781 31.6502 48.8964 31.3904 48.8113C31.1281 48.7148 30.8816 48.6087 30.6509 48.493C30.4176 48.3658 30.1493 48.2166 29.8458 48.0453C29.8142 48.0645 29.7965 48.0926 29.7929 48.1295C29.8007 48.1637 29.7888 48.1905 29.7571 48.2097C29.804 48.6798 29.7972 49.072 29.7366 49.3862C29.6874 49.6979 29.5823 50.0283 29.4214 50.3774C29.2308 50.3848 29.109 50.4305 29.0561 50.5147C29.0146 50.5963 28.9546 50.676 28.8762 50.754C28.7671 50.8029 28.6801 50.8167 28.6152 50.7954C28.5529 50.7856 28.495 50.7687 28.4414 50.7448C28.3879 50.721 28.3287 50.6984 28.2638 50.6771C28.1988 50.6558 28.1048 50.6652 27.9817 50.7053C27.924 50.6103 27.8676 50.5209 27.8125 50.4373C27.7549 50.3423 27.653 50.3174 27.5071 50.3627C27.518 50.252 27.5099 50.1637 27.4828 50.0978C27.4532 50.0204 27.4204 49.9557 27.3846 49.9038C27.3461 49.8405 27.3076 49.7771 27.2692 49.7138C27.2421 49.6478 27.2354 49.5652 27.2488 49.466ZM31.1897 40.3297C31.0906 40.5806 30.9704 40.8183 30.8292 41.0428C30.6854 41.2558 30.5442 41.4802 30.4057 41.7161C30.2759 41.938 30.1685 42.1788 30.0834 42.4385C29.9957 42.6868 29.9585 42.9718 29.9716 43.2933C30.4385 43.1269 30.9113 42.881 31.3901 42.5556C31.8662 42.2188 32.3164 41.9 32.7407 41.599C32.5873 41.1893 32.362 40.886 32.0648 40.6893C31.765 40.4811 31.4733 40.3613 31.1897 40.3297ZM44.3521 47.1937C43.8649 47.3767 43.4027 47.458 42.9653 47.4374C42.5279 47.4168 42.1163 47.3243 41.7303 47.1598C41.3557 46.9927 41.0107 46.7708 40.6953 46.494C40.3913 46.2147 40.1221 45.9034 39.8877 45.5602C39.6079 44.8066 39.4765 44.0974 39.4933 43.4326C39.5076 42.7563 39.6078 42.1145 39.794 41.5072C39.9802 40.8999 40.2142 40.3178 40.496 39.7608C40.7893 39.2013 41.0693 38.6628 41.336 38.1453C41.4238 38.1614 41.4867 38.1471 41.5246 38.1024C41.5739 38.0551 41.6092 37.999 41.6305 37.934C41.6632 37.8665 41.6959 37.799 41.7285 37.7314C41.7727 37.6613 41.8264 37.607 41.8898 37.5685C41.912 37.4553 41.9497 37.3566 42.0026 37.2724C42.067 37.1856 42.1326 37.1046 42.1996 37.0292C42.2754 36.9398 42.3398 36.8531 42.3927 36.7689C42.4571 36.6821 42.5061 36.5808 42.5399 36.465C42.6489 36.4161 42.7369 36.354 42.8039 36.2787C42.8823 36.2007 42.948 36.1196 43.0009 36.0355C43.0653 35.9487 43.131 35.8676 43.1979 35.7923C43.2649 35.717 43.3516 35.6491 43.4581 35.5888L43.4073 35.366C43.6327 35.1945 43.7869 35.0272 43.8699 34.8641C43.953 34.7009 44.0498 34.4926 44.1603 34.2391C44.2834 34.199 44.3792 34.1712 44.4478 34.1556C44.5277 34.1374 44.6451 34.0986 44.7999 34.0393C44.8585 33.8217 44.9231 33.6567 44.9937 33.5445C45.0643 33.4323 45.1722 33.2995 45.3176 33.1462C45.5098 33.1986 45.7057 33.2141 45.9051 33.1927C46.102 33.1599 46.2986 33.2053 46.495 33.3288C46.5376 33.4633 46.6023 33.5628 46.6891 33.6271C46.7733 33.6801 46.8632 33.7317 46.9588 33.7821C47.0517 33.821 47.146 33.8656 47.2416 33.916C47.3372 33.9663 47.4108 34.0517 47.4622 34.1722C47.5194 34.1592 47.551 34.14 47.5573 34.1145C47.5749 34.0864 47.6136 34.0716 47.6733 34.07C47.717 34.1563 47.7568 34.2253 47.7926 34.2772C47.8285 34.3292 47.8631 34.3754 47.8963 34.4159C47.941 34.4538 47.9813 34.4987 48.0171 34.5506C48.0644 34.5999 48.1086 34.662 48.1497 34.7368C48.1238 34.8869 48.1062 35.0472 48.0969 35.2175C48.085 35.3765 48.017 35.5001 47.8929 35.5885C47.9137 35.6799 47.9597 35.7235 48.0309 35.7193C48.0995 35.7037 48.1486 35.7346 48.1782 35.812C48.213 35.9122 48.2154 36.0018 48.1853 36.0808C48.6276 36.545 49.0477 37.0442 49.4458 37.5785C49.8413 38.1014 50.2659 38.5936 50.7196 39.0552C50.7331 39.2204 50.7753 39.379 50.846 39.5312C50.9255 39.6693 51.0108 39.8062 51.1017 39.9417C51.2041 40.0746 51.3008 40.2089 51.3917 40.3444C51.4827 40.4799 51.5565 40.6194 51.6132 40.7627C51.6803 40.9517 51.7284 41.1631 51.7576 41.3968C51.7842 41.6192 51.7866 41.8409 51.7649 42.0622C51.7432 42.2835 51.696 42.4986 51.6234 42.7074C51.5482 42.9048 51.4467 43.0662 51.3189 43.1914C51.1882 43.4615 51.0026 43.7021 50.7622 43.9131C50.5192 44.1127 50.3055 44.3356 50.1212 44.5819C49.9821 44.7097 49.8263 44.8173 49.6539 44.9046C49.4789 44.9806 49.2995 45.0635 49.1156 45.1534C48.9879 45.2787 48.8316 45.4104 48.6467 45.5486C48.4593 45.6755 48.2648 45.7979 48.0633 45.9159C47.8618 46.0339 47.6578 46.1404 47.4511 46.2356C47.2418 46.3193 47.0488 46.3692 46.8722 46.3854C46.4947 46.6276 46.1182 46.8215 45.7427 46.9671C45.3673 47.1127 44.9037 47.1883 44.3521 47.1937ZM43.1542 40.9042C43.0998 41.1931 43.0173 41.4642 42.9068 41.7178C42.8051 41.9573 42.7046 42.2025 42.6055 42.4534C42.5064 42.7043 42.4284 42.9685 42.3714 43.2459C42.3232 43.5092 42.3311 43.8079 42.3951 44.1419C42.6679 44.2841 42.9637 44.3429 43.2826 44.3184C43.6104 44.2798 43.9373 44.2113 44.2635 44.113C44.587 44.0033 44.908 43.8821 45.2263 43.7495C45.5447 43.6169 45.8353 43.5207 46.0981 43.4609C46.0747 43.358 46.1086 43.2962 46.2001 43.2754C46.6695 43.1204 47.0852 42.8875 47.4472 42.5768C47.8065 42.2546 48.1829 41.9285 48.5765 41.5985C48.6024 41.4483 48.6493 41.3114 48.7173 41.1878C48.7853 41.0641 48.8029 40.9039 48.7701 40.707C48.6896 40.6172 48.63 40.5406 48.5916 40.4773C48.5645 40.4113 48.5354 40.3098 48.5042 40.1727C48.1134 39.829 47.7549 39.4419 47.4285 39.0114C47.0995 38.5695 46.7427 38.164 46.3582 37.7949C46.3484 37.8572 46.3157 37.9248 46.2601 37.9975C46.2046 38.0702 46.1277 38.0757 46.0295 38.014C46.0212 38.136 45.988 38.2277 45.9299 38.289C45.8691 38.3389 45.7931 38.3743 45.7016 38.3951C45.6217 38.4133 45.5321 38.4157 45.4328 38.4022C45.3451 38.3862 45.2604 38.3574 45.1788 38.3159C44.8518 38.7269 44.5221 39.1264 44.1898 39.5146C43.869 39.9001 43.5941 40.3293 43.3653 40.8021C43.3159 40.8494 43.2843 40.8686 43.2702 40.8598C43.2562 40.851 43.2175 40.8658 43.1542 40.9042ZM54.5938 42.1031C54.6754 42.1446 54.8053 42.1871 54.9834 42.2307C55.1704 42.2602 55.3645 42.2942 55.5655 42.3325C55.7639 42.3594 55.9496 42.3833 56.1226 42.404C56.2956 42.4247 56.4177 42.4329 56.4888 42.4287C56.6665 42.6286 56.7819 42.8187 56.835 42.9989C56.8969 43.1651 56.9671 43.3414 57.0456 43.5279C57.0015 43.598 56.9836 43.7042 56.992 43.8465C57.0092 43.9748 57.0243 44.0675 57.0373 44.1247C57.0467 44.2187 57.0355 44.2753 57.0039 44.2945C56.9748 44.3252 56.9579 44.3831 56.9533 44.4683C56.9471 44.4938 56.9606 44.5267 56.9938 44.5672C57.0271 44.6077 57.0406 44.6407 57.0344 44.6662C57.036 44.7259 57.0139 44.761 56.9682 44.7714C56.9365 44.7906 56.9158 44.8314 56.9059 44.8937C56.8889 45.0298 56.8715 45.1119 56.8538 45.14C56.8502 45.1768 56.8427 45.1966 56.8313 45.1992C56.8339 45.2106 56.8251 45.2246 56.8048 45.2413C56.7986 45.2667 56.7799 45.3431 56.7488 45.4704C56.7078 45.66 56.6485 45.8478 56.5706 46.0338C56.4954 46.2312 56.4588 46.4138 56.461 46.5815C56.3323 46.7551 56.1713 46.972 55.9782 47.2323C55.7991 47.5015 55.6159 47.6994 55.4284 47.8263C55.3152 47.804 55.1383 47.7661 54.8978 47.7127C54.6458 47.6619 54.4084 47.5958 54.1855 47.5144C53.9512 47.4355 53.7658 47.3335 53.6291 47.2084C53.4924 47.0833 53.4726 46.9436 53.5697 46.7893C53.7259 46.5253 53.8489 46.2209 53.9386 45.8759C54.0195 45.545 54.0781 45.1952 54.1143 44.8264C54.1479 44.4461 54.1687 44.0628 54.1769 43.6763C54.171 43.2811 54.169 42.9029 54.1709 42.5419C54.227 42.5772 54.2767 42.5839 54.3198 42.5621C54.3603 42.5289 54.3995 42.4899 54.4374 42.4452C54.4727 42.3891 54.5009 42.3286 54.5222 42.2636C54.5435 42.1987 54.5673 42.1452 54.5938 42.1031ZM68.2798 36.5887C68.2808 36.5404 68.2998 36.5181 68.3366 36.5217C68.3823 36.5113 68.421 36.4964 68.4527 36.4772C68.3405 36.4066 68.256 36.2997 68.1994 36.1563C68.1401 36.0016 68.053 35.8832 67.9382 35.8011C67.948 35.7388 67.9522 35.6778 67.9506 35.618C67.9604 35.5557 68.0066 35.5211 68.0892 35.5144C67.9977 35.2708 67.9501 35.0352 67.9463 34.8077C67.9426 34.5802 67.9643 34.359 68.0115 34.1439C68.0701 33.9262 68.1414 33.7117 68.2255 33.5002C68.3184 33.2748 68.4055 33.0506 68.487 32.8277C68.5846 32.7815 68.6501 32.7786 68.6833 32.8191C68.714 32.8481 68.7514 32.8276 68.7955 32.7575C68.9497 32.5901 69.0442 32.4244 69.0789 32.2603C69.111 32.0847 69.1063 31.9055 69.0646 31.7227C69.0998 31.4022 69.1477 31.0848 69.2084 30.7705C69.2778 30.4422 69.3696 30.1328 69.4838 29.8424C69.5979 29.552 69.7313 29.2933 69.8839 29.0662C70.0339 28.8277 70.2115 28.6311 70.4166 28.4762C70.5453 28.3027 70.7167 28.1314 70.9306 27.9625C71.156 27.791 71.3992 27.6455 71.6605 27.5259C71.9305 27.3923 72.2141 27.2917 72.5112 27.224C72.8056 27.1449 73.0864 27.111 73.3534 27.1224C73.4157 27.1322 73.4474 27.113 73.4484 27.0647C73.4468 27.0049 73.4689 26.9699 73.5146 26.9594C74.1015 26.8979 74.636 26.8964 75.118 26.9549C75.6115 27.0107 76.0507 27.1451 76.4357 27.3579C76.7309 27.6512 77.0211 27.9757 77.3064 28.3314C77.5892 28.6757 77.8314 29.0532 78.0331 29.464C78.2436 29.8607 78.3952 30.2889 78.4879 30.7486C78.5805 31.2082 78.5875 31.6874 78.5087 32.1861C78.2233 32.7799 77.8301 33.2961 77.329 33.7347C76.8254 34.1619 76.2656 34.5538 75.6497 34.9104C75.0426 35.253 74.3992 35.5677 73.7194 35.8548C73.051 36.1392 72.4024 36.4311 71.7735 36.7306C71.8552 37.0365 71.9306 37.3678 71.9999 37.7246C72.0665 38.07 72.1059 38.4276 72.118 38.7975C72.1389 39.1533 72.1243 39.5112 72.074 39.8711C72.0352 40.2285 71.9455 40.5735 71.8049 40.9059C71.5738 40.9466 71.339 41.0241 71.1007 41.1384C70.8737 41.2502 70.6696 41.3568 70.4884 41.4581C70.384 41.4218 70.2796 41.3855 70.1751 41.3492C70.0847 41.3217 69.9754 41.3166 69.8471 41.3338C69.8502 41.1888 69.7834 41.0538 69.6467 40.9287C69.5215 40.801 69.3918 40.6803 69.2578 40.5666C69.1325 40.4388 69.0372 40.3103 68.9716 40.181C68.915 40.0377 68.9536 39.8907 69.0876 39.74C68.9779 39.6808 68.9036 39.5655 68.8646 39.3941C68.9207 39.4294 68.983 39.4393 69.0516 39.4237C68.9819 39.2232 68.9488 38.9723 68.9523 38.671C68.9672 38.3672 68.9663 38.0729 68.9496 37.7883C68.9417 37.4896 68.8945 37.2299 68.8082 37.0092C68.7193 36.7771 68.5432 36.6369 68.2798 36.5887ZM71.8227 31.5633C71.8056 31.6994 71.7916 31.8228 71.7808 31.9334C71.7788 32.03 71.7697 32.1222 71.7536 32.21C71.7376 32.2978 71.7158 32.3869 71.6883 32.4773C71.6722 32.5651 71.6531 32.6656 71.6308 32.7788C71.6692 32.8422 71.7267 32.8832 71.803 32.9019C71.8794 32.9205 71.9368 32.9616 71.9753 33.0249C72.117 32.9085 72.264 32.8149 72.4161 32.7442C72.5657 32.6621 72.7179 32.5914 72.8726 32.5321C73.0274 32.4728 73.1808 32.4078 73.333 32.3371C73.4852 32.2664 73.6378 32.1716 73.791 32.0525C73.9442 31.9335 74.107 31.8304 74.2794 31.743C74.4606 31.6416 74.6362 31.5416 74.806 31.4428C74.9758 31.3441 75.1386 31.2409 75.2944 31.1333C75.4475 31.0143 75.5727 30.8776 75.6697 30.7233C75.4759 30.6112 75.2061 30.5344 74.8601 30.493C74.5141 30.4516 74.15 30.4624 73.7678 30.5254C73.3943 30.5744 73.0282 30.6818 72.6693 30.8477C72.3219 31.0109 72.0397 31.2495 71.8227 31.5633ZM82.423 37.7848C82.3669 37.7495 82.3152 37.7072 82.2679 37.6579C82.218 37.5972 82.17 37.518 82.1237 37.4203C81.9195 37.2625 81.7431 37.0683 81.5944 36.8378C81.4458 36.6072 81.3244 36.3644 81.2302 36.1094C81.1335 35.843 81.0654 35.5701 81.0258 35.2906C80.9862 35.0112 80.9676 34.745 80.9701 34.492C80.9784 34.37 80.9796 34.2435 80.9738 34.1126C80.9815 33.8825 80.9905 33.6581 81.0008 33.4394C81.0085 33.2093 81.0539 33.0127 81.1369 32.8496C81.0626 32.7343 81.0371 32.5959 81.0604 32.4343C81.0837 32.2728 81.1096 32.1226 81.1381 31.9839C81.1531 31.9445 81.1638 31.912 81.17 31.8865C81.1736 31.8496 81.1785 31.8185 81.1848 31.793C81.2308 31.3619 81.275 30.9492 81.3175 30.5549C81.3687 30.1466 81.4181 29.7568 81.4658 29.3854C81.5512 28.7049 81.6278 28.0384 81.6955 27.386C81.7747 26.731 81.822 26.0412 81.8372 25.3166C81.913 25.2272 81.9826 25.1633 82.046 25.1248C82.0662 25.1082 82.0922 25.0902 82.1238 25.071C82.1555 25.0518 82.1942 25.037 82.2399 25.0265C82.5085 25.0976 82.8158 25.1538 83.1617 25.1952C83.5165 25.2226 83.8081 25.2103 84.0367 25.1582L84.3866 25.349C84.5741 25.4865 84.7415 25.6407 84.8885 25.8116C85.0444 25.9684 85.1334 26.2005 85.1553 26.508C85.1102 26.6264 85.0673 26.7023 85.0268 26.7356C85.0181 27.014 84.9972 27.2651 84.9641 27.489C84.9283 27.7015 84.8913 27.9082 84.8529 28.1092C84.8083 28.3357 84.7695 28.5609 84.7363 28.7848C84.7032 29.0087 84.6919 29.2757 84.7024 29.5858C84.652 29.6814 84.622 29.7603 84.6121 29.8227C84.6137 29.8824 84.6096 29.9434 84.5997 30.0058C84.5925 30.0795 84.5808 30.1603 84.5648 30.2481C84.5461 30.3245 84.509 30.399 84.4534 30.4718C84.4884 30.8364 84.4862 31.1434 84.4468 31.3927C84.4049 31.6306 84.3629 31.8685 84.3209 32.1064C84.252 32.5428 84.1946 32.9765 84.1485 33.4077C84.0999 33.8274 84.1214 34.2912 84.213 34.7992C84.3423 34.7337 84.4641 34.6879 84.5784 34.6619C84.7269 34.6281 84.8749 34.6184 85.0224 34.6329C85.387 34.3335 85.804 34.1064 86.2734 33.9514C86.7544 33.7938 87.2335 33.6546 87.7108 33.5339C88.1107 33.4429 88.4781 33.3412 88.8131 33.2288C88.9456 33.2828 89.0303 33.3116 89.0672 33.3152C89.1014 33.3074 89.1586 33.2944 89.2386 33.2762C89.2728 33.2684 89.3071 33.2605 89.3414 33.2527C89.3757 33.2449 89.4227 33.2402 89.4824 33.2387C89.6788 33.3622 89.8591 33.4413 90.0232 33.4761C90.1848 33.4994 90.3578 33.5201 90.5422 33.5382C90.7037 33.5615 90.8608 33.5918 91.0136 33.6291C91.1751 33.6524 91.3362 33.6999 91.4967 33.7715L91.85 34.6105C91.97 34.7153 92.0296 34.7919 92.0285 34.8402C92.0493 34.9317 92.0447 35.0168 92.0146 35.0958L92.0996 35.3108C91.8929 35.406 91.7618 35.4899 91.7063 35.5626C91.6481 35.624 91.5882 35.7037 91.5264 35.8019C91.4033 35.842 91.2846 35.875 91.1704 35.901C90.9419 35.9531 90.7154 36.0407 90.4911 36.1639C90.1197 36.1163 89.7283 36.1393 89.317 36.2329C89.157 36.2694 88.9926 36.3128 88.8238 36.3633C88.6665 36.4111 88.5104 36.4647 88.3556 36.524C88.1894 36.5859 88.0232 36.6477 87.8571 36.7096C87.6883 36.7601 87.5182 36.8048 87.3468 36.8439C87.2149 36.8979 87.1217 36.9372 87.0671 36.9616C87.0126 36.9861 86.9594 37.0162 86.9074 37.0521C86.5476 37.2662 86.1534 37.4882 85.725 37.718C85.308 37.9451 84.871 38.1108 84.4139 38.2148C83.7398 38.3684 83.158 38.3206 82.6686 38.0715C82.5995 37.979 82.5496 37.9183 82.5189 37.8892C82.4883 37.8601 82.4563 37.8253 82.423 37.7848ZM95.279 34.9113C95.1667 34.8407 95.0735 34.7478 94.9991 34.6325C94.9362 34.5146 94.8214 34.4326 94.6546 34.3864C94.5928 34.2202 94.5143 34.0338 94.4191 33.8271C94.3328 33.6064 94.2408 33.387 94.143 33.1689C94.0541 32.9367 93.9722 32.709 93.8973 32.4857C93.8312 32.2483 93.7932 32.0286 93.7833 31.8266C93.7827 31.7185 93.7948 31.6136 93.8197 31.5118C93.8561 31.4074 93.888 31.31 93.9154 31.2196C93.9518 31.1151 93.9709 31.0146 93.973 30.918C93.9864 30.8188 93.9713 30.7261 93.9277 30.6399C93.9936 30.6128 94.0258 30.5695 94.0242 30.5097C94.0315 30.436 94.0834 30.4001 94.18 30.4021C94.2027 30.1325 94.2351 29.8788 94.2771 29.6409C94.319 29.403 94.368 29.1695 94.424 28.9404C94.48 28.7113 94.536 28.4822 94.592 28.2531C94.6568 28.01 94.705 27.7466 94.7366 27.463C94.5007 27.3244 94.3137 27.1627 94.1754 26.9778C94.046 26.7789 93.9337 26.5762 93.8386 26.3695C93.7434 26.1628 93.6597 25.9535 93.5874 25.7416C93.5125 25.5183 93.4148 25.3002 93.2942 25.0872C93.3845 24.8503 93.5124 24.6469 93.678 24.477C93.841 24.2957 94.0277 24.139 94.238 24.007C94.4572 23.8609 94.6986 23.7338 94.9625 23.6256C95.2237 23.5061 95.5007 23.3769 95.7936 23.2381C96.3031 22.9418 96.7645 22.6985 97.1778 22.5082C97.5886 22.3065 97.9932 22.1302 98.3915 21.9794C98.7872 21.8172 99.2027 21.6625 99.6379 21.5153C100.071 21.3567 100.567 21.1596 101.126 20.9241C101.145 20.9557 101.166 20.969 101.189 20.9638C101.223 20.956 101.263 20.9469 101.309 20.9365C101.361 21.0086 101.433 21.0343 101.525 21.0135C101.517 20.9792 101.505 20.952 101.488 20.9317C101.48 20.8974 101.474 20.8689 101.469 20.846C101.491 20.8408 101.521 20.84 101.558 20.8436C101.607 20.8446 101.643 20.8483 101.669 20.8545C101.706 20.8581 101.734 20.8516 101.755 20.835C101.772 20.8069 101.769 20.7656 101.744 20.7111C101.936 20.9198 102.159 21.0795 102.412 21.19C102.663 21.2891 102.933 21.3658 103.222 21.4203C103.257 21.5205 103.274 21.5948 103.273 21.6431C103.283 21.6888 103.288 21.7358 103.287 21.7841C103.283 21.821 103.288 21.868 103.301 21.9251C103.311 21.9708 103.338 22.0368 103.382 22.123C103.269 22.4731 103.113 22.7612 102.912 22.9872C102.722 23.2107 102.506 23.398 102.264 23.5493C102.023 23.7005 101.758 23.8328 101.472 23.9462C101.196 24.0569 100.911 24.176 100.615 24.3034C100.329 24.4168 100.042 24.5543 99.7538 24.7159C99.4661 24.8776 99.1946 25.0837 98.9391 25.3341C98.8399 25.3207 98.7516 25.3288 98.6742 25.3584C98.6057 25.374 98.534 25.4024 98.4592 25.4434C98.3844 25.4845 98.2982 25.5282 98.2006 25.5744C98.1144 25.6181 98.0001 25.6441 97.8578 25.6525C97.7846 25.7533 97.6891 25.8351 97.5712 25.898C97.4647 25.9583 97.3526 26.0199 97.2347 26.0828C97.3204 26.1955 97.3719 26.316 97.3891 26.4443C97.4177 26.57 97.4596 26.6746 97.5147 26.7582C98.005 26.6947 98.5363 26.5737 99.1087 26.3953C99.6784 26.2054 100.241 26.0353 100.795 25.885C100.82 25.9395 100.823 25.9808 100.805 26.0089C100.788 26.0369 100.785 26.0795 100.798 26.1366C100.917 26.1818 101.034 26.2454 101.148 26.3274C101.263 26.4094 101.378 26.4914 101.493 26.5734C101.617 26.6414 101.738 26.698 101.856 26.7431C101.972 26.7768 102.097 26.7724 102.232 26.7297C102.315 26.831 102.382 26.9418 102.434 27.0623C102.485 27.1828 102.498 27.3181 102.472 27.4682C102.277 27.6688 102.089 27.8738 101.909 28.0832C101.726 28.2812 101.528 28.4704 101.317 28.6507C101.117 28.8284 100.889 28.9885 100.633 29.1309C100.377 29.2734 100.088 29.3753 99.7652 29.4367C99.7081 29.4497 99.6567 29.4614 99.611 29.4718C99.5767 29.4797 99.5258 29.4672 99.4582 29.4345C99.357 29.5177 99.2079 29.5756 99.0111 29.6085C98.8231 29.6272 98.6727 29.6795 98.56 29.7653C98.3871 29.7446 98.192 29.7589 97.9749 29.8084C97.7692 29.8552 97.5799 29.8683 97.4069 29.8476C97.2689 30.1915 97.1462 30.5499 97.0389 30.9229C96.9289 31.2845 96.847 31.6637 96.7932 32.0606C97.2772 32.0224 97.6722 31.9625 97.9781 31.8809C98.2841 31.7992 98.5702 31.71 98.8366 31.6132C99.1031 31.5165 99.3752 31.4185 99.653 31.3192C99.9423 31.2172 100.3 31.1238 100.725 31.039C100.979 30.8368 101.284 30.6713 101.64 30.5423C102.004 30.3993 102.334 30.2399 102.63 30.0643C102.752 30.0725 102.865 30.119 102.969 30.2036C103.069 30.2768 103.166 30.357 103.258 30.4442C103.359 30.5174 103.457 30.5792 103.552 30.6295C103.648 30.6799 103.756 30.6793 103.876 30.6278C103.947 30.6719 103.996 30.7327 104.026 30.8101C104.067 30.8848 104.101 30.9552 104.128 31.0212C104.167 31.0845 104.208 31.1351 104.253 31.173C104.295 31.1995 104.361 31.1966 104.449 31.1644C104.334 31.6595 104.166 32.0582 103.947 32.3606C103.738 32.6604 103.479 32.9179 103.167 33.133C102.864 33.3342 102.509 33.5172 102.102 33.682C101.704 33.8328 101.258 34.0125 100.765 34.221C100.644 34.2724 100.536 34.2972 100.439 34.2951C100.351 34.2791 100.262 34.2814 100.17 34.3023C99.8632 34.4322 99.4934 34.5765 99.0608 34.7352C98.6396 34.8912 98.2049 35.0142 97.7567 35.1042C97.3085 35.1943 96.867 35.2347 96.4322 35.2256C95.9975 35.2164 95.613 35.1117 95.279 34.9113ZM106.394 31.2804L106.578 31.0583L106.513 30.6945C106.64 29.9324 106.779 29.1976 106.93 28.4901C107.093 27.78 107.263 27.0501 107.441 26.3005C107.495 26.06 107.548 25.8195 107.602 25.579C107.666 25.3358 107.724 25.0883 107.775 24.8364C107.753 24.7933 107.737 24.7489 107.727 24.7032C107.714 24.646 107.711 24.5806 107.718 24.5068C107.826 24.2419 107.905 24.0076 107.954 23.8039C108.016 23.5977 108.07 23.387 108.117 23.172C108.168 22.92 108.224 22.6668 108.287 22.4123C108.36 22.1551 108.464 21.8972 108.597 21.6384L108.678 21.4397L108.871 21.4139C108.911 21.3807 108.953 21.3531 108.996 21.3313C109.048 21.2954 109.114 21.2684 109.194 21.2502L109.514 21.2313C109.852 20.9741 110.127 20.653 110.34 20.268C110.562 19.869 110.769 19.4071 110.962 18.8824L111.101 18.5442L111.415 18.6531C111.48 18.6744 111.579 18.6879 111.712 18.6935C111.846 18.6992 111.986 18.7092 112.134 18.7237C112.387 18.7262 112.637 18.7414 112.883 18.7694C113.128 18.7859 113.327 18.8427 113.481 18.9397L113.602 19.0745C113.653 19.195 113.697 19.3053 113.731 19.4056C113.778 19.5032 113.824 19.6008 113.87 19.6985C113.971 19.928 114.065 20.1588 114.154 20.391C114.24 20.6117 114.322 20.8636 114.398 21.1466C114.508 21.3622 114.612 21.5847 114.713 21.8142C114.822 22.0297 114.925 22.2466 115.023 22.4647C115.156 22.783 115.291 23.0887 115.43 23.3815C115.566 23.663 115.723 23.9279 115.9 24.1761C116.014 24.15 116.084 24.1401 116.109 24.1464C116.233 24.058 116.385 23.9873 116.566 23.9342L116.784 23.8664L116.9 24.0564C116.931 24.0855 116.967 24.1133 117.009 24.1397C117.051 24.1662 117.099 24.1914 117.152 24.2153C117.338 24.1851 117.478 24.1951 117.574 24.2455C117.678 24.2818 117.766 24.322 117.836 24.3661C117.864 24.3838 117.899 24.4058 117.941 24.4323C117.98 24.4473 118.013 24.458 118.038 24.4642L118.374 24.5139L118.277 24.8786C118.206 25.1472 118.065 25.4256 117.854 25.714C117.655 25.9998 117.412 26.2534 117.126 26.4748C117.167 26.5496 117.195 26.6212 117.211 26.6898C117.238 26.7557 117.273 26.8318 117.317 26.918C117.415 27.1361 117.504 27.3683 117.584 27.6145C117.673 27.8466 117.73 28.098 117.756 28.3686C117.709 28.6917 117.633 28.9914 117.528 29.2678C117.431 29.5302 117.297 29.7832 117.124 30.0269C116.96 30.2565 116.761 30.4641 116.526 30.6496C116.29 30.8238 116.03 30.949 115.747 31.0255C115.579 31.0277 115.45 31.015 115.359 30.9875C115.28 30.9574 115.207 30.926 115.14 30.8933C115.033 30.8456 114.948 30.8168 114.886 30.807L114.639 30.7549L114.649 30.4822C114.663 30.3829 114.639 30.3043 114.578 30.2461C114.528 30.1854 114.427 30.1122 114.275 30.0265C114.222 30.0027 114.174 29.9775 114.132 29.951C114.087 29.9131 114.037 29.8765 113.981 29.8412L113.548 29.5251L114.079 29.242C114.4 29.0725 114.603 28.9062 114.686 28.7431C114.766 28.5685 114.754 28.301 114.647 27.9406C114.349 27.9485 114.113 27.9962 113.941 28.0835C113.766 28.1594 113.592 28.241 113.42 28.3284C113.173 28.4568 112.93 28.5782 112.691 28.6925C112.45 28.7955 112.181 28.8808 111.884 28.9484C111.69 28.9927 111.481 29.0224 111.256 29.0375L111.063 29.0633L110.969 28.8865C110.964 28.8637 110.941 28.8447 110.902 28.8297C110.871 28.8006 110.842 28.7772 110.814 28.7596C110.741 28.704 110.652 28.6282 110.546 28.5322C110.44 28.4361 110.39 28.2972 110.397 28.1154C110.288 28.0079 110.212 27.8869 110.17 27.7524C110.145 27.8542 110.126 27.9548 110.112 28.054C110.108 28.1392 110.103 28.2244 110.098 28.3095L110.08 28.548L109.865 28.633C109.848 28.661 109.833 28.7005 109.82 28.7514C109.819 28.7997 109.827 28.834 109.844 28.8543L109.955 29.0272L109.819 29.2205C109.804 29.26 109.782 29.295 109.753 29.3257C109.724 29.3563 109.7 29.3857 109.683 29.4138C109.688 29.5447 109.681 29.6724 109.662 29.7971C109.654 29.9192 109.64 30.0425 109.62 30.1672C109.604 30.363 109.588 30.5532 109.569 30.7376C109.563 30.9194 109.579 31.096 109.618 31.2674L109.6 31.5058C109.564 31.6102 109.505 31.6957 109.424 31.7622C109.355 31.8261 109.284 31.8843 109.212 31.9368C109.108 32.0085 109.038 32.0724 109.003 32.1286L109.002 32.3631L108.753 32.4559C108.612 32.524 108.509 32.5716 108.443 32.5986C108.388 32.6231 108.321 32.6444 108.241 32.6626L108.014 32.6962C107.846 32.5903 107.708 32.5135 107.601 32.4658C107.503 32.404 107.39 32.3575 107.263 32.3264L107.129 32.2127C107.063 32.1317 107.016 32.0583 106.989 31.9923C106.959 31.9149 106.924 31.8388 106.883 31.7641C106.826 31.6207 106.768 31.5257 106.71 31.479L106.394 31.2804ZM110.847 25.5791C110.739 25.8441 110.639 26.1192 110.548 26.4044C110.625 26.3747 110.698 26.3521 110.767 26.3365C110.847 26.3183 110.925 26.2943 111.003 26.2647C111.397 26.1508 111.762 26.0376 112.097 25.9253C112.432 25.813 112.791 25.6713 113.172 25.5002C112.985 25.0983 112.784 24.6932 112.571 24.285C112.367 23.8628 112.151 23.4432 111.924 23.0262L111.877 23.2171C111.662 23.5907 111.463 23.9845 111.281 24.3985C111.099 24.8126 110.958 25.1991 110.86 25.5581L110.847 25.5791ZM119.408 21.8987C119.404 21.7195 119.395 21.5772 119.383 21.4717C119.369 21.3549 119.301 21.244 119.181 21.1391C119.185 20.9459 119.187 20.7953 119.187 20.6872C119.197 20.5766 119.171 20.4325 119.106 20.2549C119.141 19.9344 119.238 19.6478 119.397 19.3953C119.567 19.1402 119.763 18.9155 119.983 18.7211C120.2 18.5153 120.436 18.3355 120.689 18.1817C120.94 18.0164 121.178 17.8721 121.402 17.7489C121.392 17.7032 121.363 17.6856 121.318 17.696C121.272 17.7064 121.254 17.6804 121.264 17.6181C121.855 17.3633 122.434 17.0571 123.002 16.6995C123.581 16.3393 124.176 15.9994 124.789 15.6797C125.401 15.3599 126.046 15.1049 126.724 14.9145C127.399 14.7127 128.138 14.6344 128.942 14.6798C129.019 14.8065 129.112 14.9236 129.22 15.0311C129.329 15.1385 129.437 15.246 129.546 15.3535C129.663 15.4469 129.769 15.543 129.864 15.6416C129.959 15.7403 130.026 15.8512 130.066 15.9742C130.232 16.0687 130.371 16.1811 130.485 16.3114C130.608 16.4277 130.668 16.6124 130.666 16.8653C130.561 16.9853 130.45 17.1067 130.334 17.2293C130.217 17.3519 130.094 17.4702 129.964 17.584C129.421 17.5754 128.896 17.6468 128.39 17.7981C127.884 17.9495 127.43 18.0949 127.029 18.2343C126.872 18.1258 126.709 18.0968 126.541 18.1472C126.369 18.1862 126.193 18.2564 126.012 18.3578C125.839 18.4451 125.668 18.5382 125.498 18.637C125.326 18.7243 125.157 18.7747 124.992 18.7883C124.892 18.9312 124.745 19.0489 124.549 19.1415C124.352 19.2226 124.141 19.3006 123.918 19.3755C123.919 19.4352 123.94 19.4726 123.979 19.4876C124.019 19.5027 124.035 19.5471 124.028 19.6209C124.131 19.7055 124.257 19.755 124.404 19.7695C124.549 19.7726 124.694 19.7756 124.839 19.7787C124.995 19.7791 125.138 19.8006 125.268 19.8432C125.395 19.8743 125.492 19.9545 125.557 20.0838C125.766 20.0484 125.956 20.0652 126.128 20.1342C126.297 20.1918 126.449 20.2774 126.583 20.3911C126.717 20.5048 126.825 20.6364 126.907 20.786C126.987 20.9241 127.035 21.0573 127.052 21.1856C127.124 21.2895 127.18 21.3248 127.221 21.2915C127.272 21.2556 127.342 21.2699 127.429 21.3343C127.513 21.4953 127.658 21.6547 127.862 21.8125C128.075 21.9563 128.252 22.1263 128.393 22.3226C128.494 22.6602 128.581 22.9648 128.655 23.2364C128.74 23.5054 128.756 23.7843 128.701 24.0732C128.622 24.6202 128.444 25.1352 128.17 25.6184C127.895 26.1016 127.559 26.5508 127.161 26.966C126.771 27.3672 126.345 27.7405 125.883 28.0862C125.419 28.4203 124.952 28.719 124.483 28.982C124.435 28.981 124.377 28.994 124.311 29.021C124.257 29.0455 124.238 29.0138 124.254 28.926C124.172 29.0408 124.065 29.1253 123.933 29.1793C123.812 29.2308 123.671 29.2691 123.508 29.2941C123.36 29.3279 123.204 29.3573 123.042 29.3823C122.89 29.4047 122.743 29.4442 122.6 29.5009C122.488 29.4303 122.381 29.3584 122.28 29.2852C122.191 29.2094 122.109 29.1139 122.035 28.9986C121.975 29.0002 121.939 28.9724 121.926 28.9153C121.921 28.8441 121.891 28.8151 121.834 28.8281C121.823 28.7824 121.821 28.7468 121.827 28.7213C121.834 28.6959 121.84 28.6704 121.846 28.645C121.884 28.6003 121.896 28.5735 121.882 28.5647C121.877 28.5419 121.856 28.5286 121.819 28.525C121.791 28.5074 121.757 28.491 121.717 28.476C121.689 28.4583 121.677 28.431 121.681 28.3942C121.715 28.2783 121.704 28.1544 121.65 28.0225C121.605 27.8766 121.56 27.7307 121.514 27.5847C121.469 27.4388 121.449 27.2991 121.455 27.1656C121.458 27.0206 121.529 26.8843 121.668 26.7564C122.147 26.6954 122.582 26.5724 122.973 26.3873C123.374 26.1996 123.74 25.9842 124.069 25.741C124.41 25.4951 124.725 25.2431 125.015 24.9848C125.313 24.7125 125.604 24.4599 125.888 24.2271C125.896 24.105 125.925 23.9962 125.976 23.9006C126.038 23.8024 126.101 23.7099 126.165 23.6231C126.227 23.5249 126.283 23.428 126.333 23.3325C126.381 23.2254 126.408 23.1052 126.413 22.9717C126.414 22.9234 126.406 22.8891 126.39 22.8688C126.373 22.8486 126.352 22.8354 126.327 22.8291C126.299 22.8115 126.271 22.7938 126.243 22.7762C126.215 22.7585 126.195 22.7269 126.185 22.6812C126.148 22.6775 126.111 22.6739 126.074 22.6703C126.049 22.6641 126.025 22.6636 126.002 22.6688C125.671 22.5879 125.328 22.5337 124.973 22.5064C124.618 22.479 124.312 22.4285 124.055 22.3548C123.939 22.4775 123.807 22.5315 123.66 22.5171C123.512 22.5026 123.336 22.4946 123.131 22.4931C122.646 22.5796 122.179 22.6379 121.729 22.6683C121.291 22.696 120.852 22.6697 120.413 22.5894C120.375 22.526 120.333 22.4754 120.288 22.4375C120.241 22.3882 120.157 22.3892 120.037 22.4407C119.931 22.3447 119.821 22.2613 119.709 22.1907C119.606 22.1061 119.506 22.0088 119.408 21.8987ZM133.64 26.1755C133.528 26.1049 133.435 26.012 133.36 25.8967C133.297 25.7788 133.183 25.6968 133.016 25.6506C132.954 25.4844 132.876 25.298 132.78 25.0913C132.694 24.8706 132.602 24.6512 132.504 24.4331C132.415 24.2009 132.333 23.9732 132.259 23.7499C132.192 23.5125 132.154 23.2928 132.145 23.0908C132.144 22.9827 132.156 22.8778 132.181 22.776C132.217 22.6715 132.249 22.5741 132.277 22.4838C132.313 22.3793 132.332 22.2788 132.334 22.1822C132.348 22.083 132.333 21.9903 132.289 21.9041C132.355 21.877 132.387 21.8336 132.385 21.7739C132.393 21.7002 132.445 21.6643 132.541 21.6663C132.564 21.3967 132.596 21.143 132.638 20.9051C132.68 20.6672 132.729 20.4336 132.785 20.2046C132.841 19.9755 132.897 19.7464 132.953 19.5173C133.018 19.2742 133.066 19.0108 133.098 18.7272C132.862 18.5886 132.675 18.4269 132.537 18.242C132.407 18.0431 132.295 17.8403 132.2 17.6337C132.105 17.427 132.021 17.2177 131.949 17.0058C131.874 16.7825 131.776 16.5643 131.655 16.3514C131.746 16.1145 131.874 15.9111 132.039 15.7412C132.202 15.5599 132.389 15.4032 132.599 15.2711C132.818 15.1251 133.06 14.998 133.324 14.8898C133.585 14.7703 133.862 14.6411 134.155 14.5022C134.664 14.206 135.126 13.9627 135.539 13.7724C135.95 13.5707 136.354 13.3944 136.753 13.2436C137.149 13.0814 137.564 12.9267 137.999 12.7795C138.432 12.6209 138.928 12.4238 139.487 12.1883C139.506 12.2199 139.527 12.2332 139.55 12.228C139.584 12.2202 139.624 12.2111 139.67 12.2006C139.723 12.2728 139.795 12.2985 139.886 12.2777C139.878 12.2434 139.866 12.2161 139.849 12.1959C139.842 12.1616 139.835 12.133 139.83 12.1102C139.853 12.105 139.883 12.1042 139.919 12.1078C139.968 12.1088 140.005 12.1125 140.03 12.1187C140.067 12.1223 140.096 12.1158 140.116 12.0992C140.133 12.0711 140.13 12.0298 140.106 11.9753C140.297 12.184 140.52 12.3436 140.774 12.4542C141.024 12.5533 141.294 12.63 141.583 12.6844C141.618 12.7847 141.635 12.8589 141.634 12.9073C141.644 12.953 141.649 13 141.648 13.0483C141.644 13.0852 141.649 13.1322 141.662 13.1893C141.672 13.235 141.7 13.301 141.743 13.3872C141.631 13.7373 141.474 14.0254 141.273 14.2514C141.083 14.4749 140.868 14.6622 140.626 14.8135C140.384 14.9647 140.119 15.097 139.833 15.2104C139.558 15.3211 139.272 15.4402 138.977 15.5676C138.69 15.6809 138.403 15.8185 138.115 15.9801C137.827 16.1418 137.556 16.3479 137.3 16.5983C137.201 16.5849 137.113 16.593 137.035 16.6226C136.967 16.6382 136.895 16.6665 136.82 16.7076C136.746 16.7487 136.659 16.7924 136.562 16.8386C136.476 16.8823 136.361 16.9083 136.219 16.9167C136.146 17.0175 136.05 17.0993 135.932 17.1622C135.826 17.2225 135.714 17.2841 135.596 17.347C135.682 17.4597 135.733 17.5802 135.75 17.7085C135.779 17.8342 135.821 17.9388 135.876 18.0224C136.366 17.9588 136.898 17.8379 137.47 17.6594C138.04 17.4696 138.602 17.2995 139.157 17.1492C139.181 17.2037 139.184 17.245 139.167 17.273C139.149 17.3011 139.147 17.3437 139.16 17.4008C139.278 17.446 139.395 17.5095 139.51 17.5916C139.624 17.6736 139.739 17.7556 139.854 17.8376C139.978 17.9056 140.099 17.9622 140.217 18.0073C140.333 18.041 140.458 18.0366 140.593 17.9939C140.676 18.0952 140.743 18.206 140.795 18.3265C140.846 18.447 140.859 18.5823 140.833 18.7324C140.638 18.933 140.451 19.138 140.27 19.3474C140.087 19.5454 139.89 19.7345 139.678 19.9149C139.478 20.0926 139.25 20.2527 138.994 20.3951C138.738 20.5375 138.449 20.6395 138.126 20.7009C138.069 20.7139 138.018 20.7256 137.972 20.736C137.938 20.7438 137.887 20.7314 137.819 20.6987C137.718 20.7819 137.569 20.8398 137.372 20.8726C137.184 20.8914 137.034 20.9437 136.921 21.0294C136.748 21.0087 136.553 21.0231 136.336 21.0725C136.131 21.1194 135.941 21.1325 135.768 21.1117C135.63 21.4557 135.507 21.8141 135.4 22.1871C135.29 22.5487 135.208 22.9279 135.154 23.3248C135.639 23.2866 136.034 23.2267 136.339 23.1451C136.645 23.0634 136.931 22.9742 137.198 22.8774C137.464 22.7807 137.736 22.6827 138.014 22.5834C138.304 22.4814 138.661 22.388 139.086 22.3032C139.341 22.101 139.646 21.9354 140.001 21.8065C140.365 21.6635 140.695 21.5041 140.992 21.3284C141.114 21.3367 141.226 21.3831 141.33 21.4678C141.431 21.541 141.527 21.6212 141.619 21.7084C141.72 21.7816 141.818 21.8434 141.914 21.8937C142.009 21.944 142.117 21.9435 142.238 21.892C142.308 21.9361 142.358 21.9969 142.387 22.0743C142.428 22.149 142.463 22.2194 142.49 22.2854C142.528 22.3487 142.57 22.3993 142.614 22.4372C142.656 22.4637 142.722 22.4608 142.811 22.4286C142.695 22.9236 142.527 23.3224 142.308 23.6248C142.1 23.9246 141.84 24.1821 141.528 24.3972C141.225 24.5984 140.871 24.7814 140.463 24.9462C140.065 25.097 139.619 25.2767 139.126 25.4852C139.005 25.5366 138.897 25.5614 138.8 25.5593C138.712 25.5433 138.623 25.5456 138.531 25.5664C138.224 25.6964 137.855 25.8407 137.422 25.9993C137.001 26.1554 136.566 26.2784 136.118 26.3684C135.67 26.4585 135.228 26.4989 134.793 26.4898C134.359 26.4806 133.974 26.3758 133.64 26.1755ZM147.61 21.4619C147.653 21.5482 147.69 21.6299 147.719 21.7073C147.749 21.7847 147.786 21.8665 147.829 21.9527C147.81 22.0774 147.796 22.2007 147.788 22.3228C147.777 22.4335 147.766 22.5441 147.755 22.6547C147.739 22.7425 147.728 22.7992 147.722 22.8246C147.715 22.8501 147.713 22.8685 147.716 22.8799C147.719 22.8914 147.723 22.9085 147.728 22.9313C147.742 22.9402 147.758 22.9846 147.776 23.0646L147.754 23.2858C147.716 23.3788 147.661 23.4573 147.592 23.5212C147.522 23.5851 147.451 23.6433 147.379 23.6958C147.361 23.7239 147.331 23.7488 147.288 23.7707C147.247 23.8039 147.218 23.8346 147.201 23.8626L147.196 24.08L146.981 24.165C146.797 24.255 146.637 24.3156 146.5 24.3468L146.294 24.3936C146.128 24.2992 145.998 24.2268 145.902 24.1764C145.806 24.1261 145.706 24.0827 145.602 24.0464C145.451 23.9125 145.362 23.8125 145.335 23.7466C145.306 23.6692 145.272 23.5988 145.233 23.5355C145.177 23.3921 145.126 23.3015 145.081 23.2636L144.787 23.0783L144.957 22.8772L144.694 22.5945C144.808 22.4604 144.894 22.3628 144.952 22.3014C145.01 22.2401 145.057 22.1814 145.092 22.1253C145.125 22.0578 145.161 21.9775 145.2 21.8845C145.239 21.7915 145.3 21.6393 145.384 21.4278L145.488 21.1699L145.738 21.2391C145.791 21.263 145.896 21.2752 146.053 21.2756C146.218 21.262 146.36 21.2537 146.48 21.2505C146.687 21.2634 146.88 21.2675 147.059 21.2627C147.236 21.2465 147.386 21.2725 147.51 21.3404L147.61 21.4619ZM153.375 20.149C153.419 20.2352 153.456 20.317 153.485 20.3943C153.515 20.4717 153.551 20.5535 153.595 20.6397C153.575 20.7644 153.561 20.8878 153.553 21.0098C153.542 21.1205 153.531 21.2311 153.521 21.3418C153.505 21.4295 153.493 21.4862 153.487 21.5116C153.481 21.5371 153.479 21.5555 153.482 21.5669C153.484 21.5784 153.488 21.5955 153.493 21.6184C153.508 21.6272 153.524 21.6716 153.542 21.7516L153.52 21.9729C153.481 22.0658 153.427 22.1443 153.357 22.2082C153.288 22.2721 153.217 22.3303 153.145 22.3828C153.127 22.4109 153.097 22.4358 153.054 22.4577C153.013 22.4909 152.984 22.5216 152.966 22.5497L152.962 22.767L152.747 22.8521C152.563 22.942 152.403 23.0026 152.265 23.0338L152.06 23.0806C151.894 22.9862 151.763 22.9138 151.668 22.8634C151.572 22.8131 151.472 22.7698 151.368 22.7334C151.217 22.5995 151.128 22.4995 151.101 22.4336C151.071 22.3562 151.037 22.2858 150.999 22.2225C150.942 22.0791 150.892 21.9885 150.847 21.9506L150.552 21.7653L150.723 21.5642L150.46 21.2815C150.574 21.1475 150.66 21.0498 150.718 20.9885C150.776 20.9271 150.823 20.8684 150.858 20.8123C150.891 20.7448 150.927 20.6645 150.966 20.5715C151.004 20.4785 151.066 20.3263 151.15 20.1149L151.253 19.8569L151.504 19.9262C151.557 19.95 151.662 19.9622 151.818 19.9626C151.984 19.9491 152.126 19.9407 152.245 19.9375C152.453 19.9504 152.646 19.9545 152.825 19.9497C153.002 19.9336 153.152 19.9595 153.275 20.0275L153.375 20.149Z" fill="white"/>
<path d="M168.869 20.869C168.046 20.9688 167.299 20.383 167.199 19.5606C167.099 18.7382 167.685 17.9906 168.507 17.8909L168.869 20.869ZM286.917 85.633C286.642 86.4146 285.786 86.8258 285.005 86.5514L272.267 82.0794C271.485 81.805 271.074 80.9489 271.348 80.1672C271.623 79.3856 272.479 78.9744 273.261 79.2488L284.583 83.2239L288.558 71.9014C288.833 71.1197 289.689 70.7085 290.47 70.983C291.252 71.2574 291.663 72.1135 291.389 72.8952L286.917 85.633ZM168.507 17.8909C209.331 12.9384 238.953 29.6241 258.314 47.4918C267.988 56.4198 275.113 65.6514 279.82 72.6506C282.174 76.1517 283.927 79.0984 285.093 81.1753C285.677 82.2139 286.114 83.0353 286.406 83.6002C286.553 83.8827 286.663 84.1011 286.737 84.2505C286.775 84.3251 286.803 84.3826 286.822 84.4221C286.832 84.4419 286.839 84.4572 286.845 84.468C286.847 84.4734 286.849 84.4777 286.851 84.4808C286.852 84.4823 286.852 84.4838 286.853 84.4846C286.853 84.4858 286.854 84.4866 285.502 85.1361C284.149 85.7855 284.15 85.7858 284.15 85.7858C284.149 85.7855 284.149 85.7852 284.149 85.7845C284.148 85.783 284.147 85.7804 284.145 85.7766C284.142 85.7691 284.136 85.7571 284.128 85.7406C284.111 85.7076 284.086 85.6569 284.053 85.589C283.985 85.4531 283.882 85.2486 283.743 84.9803C283.465 84.4436 283.044 83.652 282.478 82.6444C281.346 80.6291 279.635 77.7517 277.33 74.3248C272.719 67.4681 265.741 58.4287 256.279 49.6964C237.368 32.2434 208.583 16.051 168.869 20.869L168.507 17.8909Z" fill="white"/>
</svg>
