<svg width="322" height="89" viewBox="0 0 322 89" fill="none" xmlns="http://www.w3.org/2000/svg">
<path d="M151.48 34.2539C151.469 34.3125 151.457 34.3652 151.445 34.4121C151.434 34.4473 151.422 34.4824 151.41 34.5176C151.398 34.5527 151.393 34.5996 151.393 34.6582C151.393 34.7051 151.393 34.7695 151.393 34.8516C151.041 35.4727 150.596 35.9941 150.057 36.416C149.529 36.8379 148.943 37.2129 148.299 37.541C147.666 37.8574 147.004 38.1504 146.312 38.4199C145.621 38.6777 144.947 38.959 144.291 39.2637C144.01 39.1934 143.793 39.0762 143.641 38.9121C143.5 38.748 143.389 38.5605 143.307 38.3496C143.236 38.127 143.184 37.8867 143.148 37.6289C143.125 37.3594 143.102 37.084 143.078 36.8027C143.113 36.6738 143.16 36.5684 143.219 36.4863C143.289 36.3926 143.324 36.2637 143.324 36.0996C143.418 35.7949 143.512 35.4961 143.605 35.2031C143.699 34.9102 143.758 34.6113 143.781 34.3066C143.816 34.2129 143.881 34.1484 143.975 34.1133C144.033 33.5508 144.033 32.9824 143.975 32.4082C143.928 31.8223 143.834 31.2773 143.693 30.7734C143.705 30.6562 143.717 30.5742 143.729 30.5273C143.752 30.4688 143.752 30.4277 143.729 30.4043C143.717 30.3105 143.746 30.2637 143.816 30.2637C143.898 30.2637 143.98 30.2637 144.062 30.2637C144.062 30.0879 144.027 29.9121 143.957 29.7363C143.898 29.5605 143.84 29.3613 143.781 29.1387C143.863 28.9629 143.916 28.793 143.939 28.6289C143.963 28.4531 144.016 28.3008 144.098 28.1719C144.73 28.3711 145.334 28.6113 145.908 28.8926C146.494 29.1738 147.068 29.3789 147.631 29.5078C148.053 29.8125 148.486 30.1172 148.932 30.4219C149.377 30.7148 149.781 31.043 150.145 31.4062C150.508 31.7578 150.812 32.1621 151.059 32.6191C151.305 33.0762 151.445 33.6211 151.48 34.2539ZM147.314 35.2207C147.561 35.127 147.801 35.0273 148.035 34.9219C148.281 34.8164 148.504 34.6992 148.703 34.5703C148.914 34.4297 149.102 34.2715 149.266 34.0957C149.43 33.9199 149.564 33.709 149.67 33.4629C149.6 33.3223 149.506 33.1992 149.389 33.0938C149.271 32.9766 149.154 32.8711 149.037 32.7773C148.92 32.6719 148.803 32.5664 148.686 32.4609C148.58 32.3555 148.492 32.2266 148.422 32.0742C148.27 32.0508 148.135 32.0098 148.018 31.9512C147.9 31.8809 147.783 31.8164 147.666 31.7578C147.561 31.6875 147.443 31.623 147.314 31.5645C147.197 31.5059 147.057 31.4707 146.893 31.459C146.635 31.3301 146.4 31.2363 146.189 31.1777C145.99 31.1191 145.838 31.043 145.732 30.9492C145.65 30.9492 145.586 30.9668 145.539 31.002C145.656 31.4473 145.744 31.8691 145.803 32.2676C145.861 32.6543 145.891 33.0469 145.891 33.4453C145.902 33.832 145.885 34.2305 145.838 34.6406C145.791 35.0508 145.727 35.4961 145.645 35.9766C145.762 35.9648 145.867 35.9414 145.961 35.9062C146.066 35.8594 146.166 35.8125 146.26 35.7656C146.365 35.7188 146.471 35.6777 146.576 35.6426C146.693 35.5957 146.828 35.5664 146.98 35.5547C147.016 35.4844 147.062 35.4258 147.121 35.3789C147.191 35.332 147.256 35.2793 147.314 35.2207ZM156.392 37.1719C156.263 37.6406 156.146 37.998 156.04 38.2441C155.946 38.4785 155.8 38.7246 155.601 38.9824C155.448 38.959 155.343 38.9766 155.284 39.0352C155.226 39.0938 155.161 39.1465 155.091 39.1934C154.986 39.2168 154.909 39.2168 154.862 39.1934C154.816 39.1699 154.775 39.1406 154.739 39.1055C154.704 39.082 154.657 39.0527 154.599 39.0176C154.552 38.9941 154.476 38.9824 154.37 38.9824C154.347 38.8887 154.318 38.8008 154.282 38.7188C154.259 38.6367 154.183 38.6074 154.054 38.6309C154.077 38.5371 154.083 38.4609 154.071 38.4023C154.06 38.332 154.042 38.2734 154.019 38.2266C154.007 38.168 153.995 38.1152 153.984 38.0684C153.972 38.0098 153.978 37.9395 154.001 37.8574C153.943 37.8574 153.896 37.8164 153.861 37.7344C153.825 37.6523 153.784 37.5703 153.737 37.4883C153.773 37.2773 153.808 37.0781 153.843 36.8906C153.878 36.7031 153.919 36.5273 153.966 36.3633C154.025 36.1992 154.071 36.0352 154.107 35.8711C154.142 35.707 154.124 35.5371 154.054 35.3613C154.101 35.3965 154.136 35.3906 154.159 35.3438C154.183 35.2852 154.2 35.2148 154.212 35.1328C154.224 35.0391 154.23 34.9512 154.23 34.8691C154.23 34.7754 154.224 34.6992 154.212 34.6406C154.329 34.3359 154.423 34.0254 154.493 33.709C154.575 33.3809 154.646 33.0586 154.704 32.7422C154.775 32.4258 154.845 32.1152 154.915 31.8105C154.986 31.5059 155.079 31.2246 155.196 30.9668C155.325 30.9434 155.466 30.9609 155.618 31.0195C155.782 31.0664 155.882 31.1309 155.917 31.2129C156.222 30.9785 156.491 30.6973 156.726 30.3691C156.96 30.0293 157.2 29.7012 157.446 29.3848C157.693 29.0684 157.962 28.7871 158.255 28.541C158.56 28.2949 158.941 28.1484 159.398 28.1016C159.632 28.2773 159.89 28.459 160.171 28.6465C160.464 28.8223 160.704 29.0566 160.892 29.3496C160.986 29.3965 161.062 29.4492 161.12 29.5078C161.191 29.5547 161.273 29.6074 161.366 29.666V29.877C161.507 30.0059 161.618 30.1582 161.7 30.334C161.794 30.498 161.876 30.6797 161.946 30.8789C162.017 31.0664 162.087 31.2598 162.157 31.459C162.228 31.6465 162.31 31.8281 162.404 32.0039C162.38 32.0625 162.368 32.1152 162.368 32.1621C162.368 32.1973 162.374 32.2383 162.386 32.2852C162.409 32.332 162.427 32.3789 162.439 32.4258C162.45 32.4727 162.45 32.5371 162.439 32.6191C162.404 33.1348 162.234 33.5508 161.929 33.8672C161.636 34.1836 161.279 34.4473 160.857 34.6582C160.435 34.8574 159.984 35.0273 159.503 35.168C159.023 35.3086 158.589 35.4609 158.202 35.625C158.202 35.6719 158.22 35.6953 158.255 35.6953C158.302 35.6953 158.32 35.7246 158.308 35.7832C158.589 35.959 158.812 36.0996 158.976 36.2051C159.14 36.3105 159.292 36.3984 159.433 36.4688C159.585 36.5391 159.743 36.6035 159.907 36.6621C160.083 36.709 160.323 36.7676 160.628 36.8379C160.933 36.9082 161.167 36.9668 161.331 37.0137C161.507 37.0488 161.665 37.084 161.806 37.1191C161.946 37.1426 162.087 37.166 162.228 37.1895C162.38 37.2012 162.591 37.2188 162.861 37.2422C162.966 37.3477 163.054 37.4766 163.124 37.6289C163.206 37.7695 163.259 37.916 163.282 38.0684C163.306 38.209 163.312 38.3496 163.3 38.4902C163.288 38.6191 163.247 38.7246 163.177 38.8066C163.189 38.8418 163.212 38.8594 163.247 38.8594C163.294 38.8477 163.341 38.8477 163.388 38.8594C163.318 38.9062 163.259 38.9648 163.212 39.0352C163.165 39.1055 163.118 39.1758 163.071 39.2461C163.025 39.3164 162.972 39.375 162.913 39.4219C162.855 39.4805 162.773 39.5156 162.667 39.5273C162.304 39.668 161.847 39.6738 161.296 39.5449C160.745 39.4277 160.048 39.2051 159.204 38.877C158.782 38.7129 158.437 38.5723 158.167 38.4551C157.909 38.3262 157.681 38.2031 157.482 38.0859C157.294 37.957 157.118 37.8223 156.954 37.6816C156.802 37.541 156.614 37.3711 156.392 37.1719ZM158.905 31.1426C158.777 31.3301 158.63 31.5 158.466 31.6523C158.314 31.8047 158.161 31.9629 158.009 32.127C157.868 32.2793 157.739 32.4551 157.622 32.6543C157.505 32.8418 157.423 33.0645 157.376 33.3223C157.786 33.2754 158.214 33.1641 158.659 32.9883C159.105 32.8008 159.527 32.625 159.925 32.4609C159.878 32.0977 159.749 31.8047 159.538 31.582C159.339 31.3594 159.128 31.2129 158.905 31.1426ZM174.399 37.5234C174.329 37.7227 174.223 37.9277 174.082 38.1387C173.954 38.3379 173.795 38.5195 173.608 38.6836C173.432 38.8359 173.233 38.9648 173.01 39.0703C172.788 39.1758 172.553 39.2344 172.307 39.2461C172.155 39.2109 172.049 39.1699 171.991 39.123C171.944 39.0879 171.891 39.0527 171.832 39.0176C171.797 38.9941 171.762 38.9766 171.727 38.9648C171.704 38.9414 171.68 38.9238 171.657 38.9121L171.446 38.8242L171.516 38.5957C171.539 38.502 171.534 38.4316 171.498 38.3848C171.463 38.3262 171.393 38.25 171.288 38.1562C171.252 38.1211 171.217 38.0859 171.182 38.0508C171.147 38.0156 171.118 37.9805 171.094 37.9453L170.795 37.6113L171.27 37.4883C171.563 37.4062 171.756 37.3008 171.85 37.1719C171.955 37.043 171.996 36.8262 171.973 36.5215C171.739 36.4746 171.539 36.4688 171.375 36.5039C171.223 36.5391 171.065 36.5801 170.901 36.627C170.69 36.6855 170.473 36.7383 170.25 36.7852C170.039 36.8203 169.805 36.8379 169.547 36.8379C169.454 36.8379 169.366 36.8379 169.284 36.8379C169.202 36.8262 169.114 36.8145 169.02 36.8027L168.844 36.7676C168.821 36.6387 168.797 36.5684 168.774 36.5566C168.75 36.5332 168.727 36.5098 168.704 36.4863C168.645 36.4277 168.58 36.3516 168.51 36.2578C168.452 36.1523 168.44 36.0234 168.475 35.8711C168.416 35.7656 168.381 35.6602 168.37 35.5547C168.299 35.6953 168.246 35.8418 168.211 35.9941L168.141 36.1699L167.965 36.2051C167.942 36.2168 167.924 36.2461 167.913 36.293C167.901 36.3281 167.895 36.3574 167.895 36.3809L167.807 36.6797C167.784 36.7031 167.76 36.7266 167.737 36.75C167.713 36.7617 167.69 36.7793 167.666 36.8027C167.643 36.9082 167.614 37.0137 167.579 37.1191C167.543 37.2246 167.508 37.3242 167.473 37.418C167.414 37.5703 167.362 37.7227 167.315 37.875C167.28 38.0156 167.268 38.1562 167.28 38.2969L167.209 38.4902C167.151 38.5605 167.086 38.6191 167.016 38.666C166.946 38.7012 166.875 38.7363 166.805 38.7715C166.782 38.7949 166.746 38.8184 166.7 38.8418C166.664 38.8535 166.635 38.8652 166.612 38.877L166.559 39.0703L166.348 39.1055C166.219 39.1289 166.125 39.1465 166.067 39.1582C166.02 39.1699 165.961 39.1758 165.891 39.1758L165.715 39.1582C165.586 39.0527 165.487 38.9707 165.416 38.9121C165.346 38.8418 165.264 38.7773 165.17 38.7188C165.065 38.5781 165.006 38.4727 164.995 38.4023C164.983 38.332 164.971 38.2676 164.959 38.209C164.936 38.1387 164.924 38.0801 164.924 38.0332C164.913 37.9863 164.895 37.9512 164.871 37.9277L164.643 37.7168L164.836 37.5586L164.854 37.2598C165.088 36.6621 165.334 36.0879 165.592 35.5371C165.862 34.9863 166.137 34.4238 166.418 33.8496C166.512 33.6621 166.6 33.4746 166.682 33.2871C166.776 33.0996 166.87 32.9121 166.963 32.7246C166.952 32.6895 166.946 32.6484 166.946 32.6016C166.946 32.5547 166.957 32.502 166.981 32.4434C167.11 32.2441 167.215 32.0684 167.297 31.916C167.379 31.752 167.461 31.5879 167.543 31.4238C167.637 31.2246 167.731 31.0312 167.825 30.8438C167.93 30.6562 168.059 30.4629 168.211 30.2637L168.493 30.1406C168.528 30.1289 168.569 30.1172 168.616 30.1055C168.663 30.082 168.715 30.0703 168.774 30.0703L169.038 30.1055C169.366 29.9531 169.653 29.7422 169.899 29.4727C170.145 29.1914 170.397 28.8574 170.655 28.4707L170.83 28.2246L171.059 28.3652C171.118 28.4004 171.2 28.4355 171.305 28.4707C171.411 28.4941 171.522 28.5234 171.639 28.5586C171.85 28.6055 172.049 28.6582 172.237 28.7168C172.424 28.7754 172.577 28.8633 172.694 28.9805C172.764 29.168 172.805 29.3086 172.817 29.4023C172.829 29.4961 172.846 29.5898 172.87 29.6836C172.905 29.8828 172.934 30.082 172.957 30.2812C172.993 30.4805 173.016 30.7031 173.028 30.9492C173.086 31.1484 173.133 31.3477 173.168 31.5469C173.215 31.7344 173.256 31.9277 173.291 32.127C173.35 32.4082 173.409 32.6836 173.467 32.9531C173.526 33.2109 173.602 33.457 173.696 33.6914C173.789 33.6914 173.848 33.6973 173.871 33.709C173.93 33.6855 173.989 33.668 174.047 33.6562C174.118 33.6445 174.194 33.6328 174.276 33.6211L174.469 33.6035L174.539 33.7793C174.551 33.8379 174.61 33.8965 174.715 33.9551C174.868 33.9668 174.979 34.002 175.049 34.0605C175.12 34.1074 175.184 34.1602 175.243 34.2188C175.289 34.2656 175.336 34.3008 175.383 34.3242L175.647 34.4297L175.506 34.6934C175.389 34.9043 175.219 35.1094 174.996 35.3086C174.786 35.4961 174.545 35.6543 174.276 35.7832C174.288 35.8535 174.293 35.9238 174.293 35.9941C174.305 36.0527 174.323 36.1172 174.346 36.1875C174.381 36.3867 174.411 36.5918 174.434 36.8027C174.457 37.0137 174.457 37.2305 174.434 37.4531L174.399 37.5234ZM169.319 34.4824C169.67 34.459 169.987 34.4355 170.268 34.4121C170.561 34.377 170.883 34.3242 171.235 34.2539C171.153 33.9023 171.065 33.5391 170.971 33.1641C170.877 32.7773 170.778 32.3965 170.672 32.0215L170.567 32.1973C170.332 32.4434 170.104 32.7188 169.881 33.0234C169.67 33.3281 169.489 33.6152 169.336 33.8848C169.266 33.9902 169.196 34.0957 169.125 34.2012C169.055 34.3066 168.991 34.4121 168.932 34.5176C169.002 34.5059 169.067 34.5 169.125 34.5C169.196 34.5 169.26 34.4941 169.319 34.4824ZM189.822 35.8359C189.541 36.3398 189.171 36.7324 188.714 37.0137C188.257 37.2832 187.754 37.5117 187.203 37.6992C186.652 37.875 186.072 38.0332 185.463 38.1738C184.865 38.3145 184.285 38.4961 183.722 38.7188C183.558 38.7188 183.412 38.7246 183.283 38.7363C183.166 38.748 183.048 38.7656 182.931 38.7891C182.826 38.8008 182.72 38.8184 182.615 38.8418C182.509 38.8535 182.392 38.8652 182.263 38.877C182.216 38.8652 182.187 38.877 182.175 38.9121C182.164 38.9355 182.146 38.959 182.123 38.9824C181.923 39.0176 181.742 39.0352 181.578 39.0352C181.425 39.0352 181.296 39.0352 181.191 39.0352C181.05 39.0352 180.904 39.0527 180.752 39.0879C180.611 39.1348 180.482 39.1523 180.365 39.1406C179.486 39.0938 178.795 38.7832 178.291 38.209C177.798 37.623 177.523 36.8145 177.464 35.7832C177.476 35.7246 177.464 35.6895 177.429 35.6777C177.406 35.666 177.382 35.6484 177.359 35.625C177.359 35.5078 177.371 35.4082 177.394 35.3262C177.429 35.2441 177.435 35.1387 177.412 35.0098C177.716 34.3652 178.062 33.7676 178.449 33.2168C178.836 32.6543 179.298 32.1621 179.838 31.7402C179.92 31.6699 179.99 31.5996 180.048 31.5293C180.107 31.459 180.16 31.3887 180.207 31.3184C180.265 31.248 180.33 31.1895 180.4 31.1426C180.47 31.084 180.558 31.043 180.664 31.0195C180.91 30.7383 181.203 30.4805 181.543 30.2461C181.882 30.0117 182.24 29.7891 182.615 29.5781C182.99 29.3555 183.359 29.1387 183.722 28.9277C184.097 28.7051 184.437 28.459 184.742 28.1895C184.871 28.248 184.964 28.2656 185.023 28.2422C185.082 28.2188 185.146 28.2188 185.216 28.2422C185.298 28.418 185.41 28.541 185.55 28.6113C185.703 28.6816 185.849 28.7578 185.99 28.8398C186.142 28.9102 186.283 28.998 186.412 29.1035C186.541 29.209 186.64 29.3496 186.711 29.5254C186.64 29.5254 186.605 29.5547 186.605 29.6133C186.617 29.6602 186.634 29.7129 186.658 29.7715C186.681 29.8184 186.687 29.8711 186.675 29.9297C186.675 29.9766 186.634 30 186.552 30C186.564 30.0586 186.599 30.0938 186.658 30.1055C186.728 30.1055 186.763 30.1348 186.763 30.1934C186.763 30.252 186.746 30.2988 186.711 30.334C186.687 30.3691 186.687 30.4277 186.711 30.5098C186.476 30.6621 186.213 30.8086 185.92 30.9492C185.638 31.0898 185.339 31.2422 185.023 31.4062C184.718 31.5586 184.396 31.7285 184.056 31.916C183.728 32.0918 183.406 32.2969 183.089 32.5312C182.773 32.7656 182.451 33.0293 182.123 33.3223C181.795 33.6035 181.478 33.9023 181.173 34.2188C180.869 34.5352 180.582 34.8633 180.312 35.2031C180.043 35.5312 179.814 35.8594 179.627 36.1875C179.65 36.2461 179.673 36.293 179.697 36.3281C179.732 36.3516 179.761 36.3926 179.785 36.4512C180.16 36.4746 180.505 36.4746 180.822 36.4512C181.15 36.416 181.478 36.4336 181.806 36.5039C181.841 36.4805 181.865 36.4453 181.877 36.3984C181.888 36.3516 181.918 36.3164 181.964 36.293C182.632 36.2227 183.254 36.1172 183.828 35.9766C184.402 35.8242 184.988 35.666 185.586 35.502C185.492 35.4668 185.404 35.4375 185.322 35.4141C185.252 35.3789 185.181 35.3496 185.111 35.3262C185.052 35.2676 185.052 35.2207 185.111 35.1855C185.181 35.1387 185.24 35.0918 185.287 35.0449C185.123 34.9512 184.988 34.834 184.882 34.6934C184.789 34.5527 184.73 34.3652 184.707 34.1309C184.777 34.0723 184.812 34.002 184.812 33.9199C184.812 33.8379 184.777 33.7734 184.707 33.7266C184.66 33.7148 184.63 33.7148 184.619 33.7266C184.607 33.7383 184.595 33.7559 184.584 33.7793C184.584 33.8027 184.578 33.8262 184.566 33.8496C184.554 33.8613 184.525 33.8555 184.478 33.832C184.49 33.7266 184.513 33.6387 184.548 33.5684C184.595 33.498 184.63 33.416 184.654 33.3223L185.867 32.5137C185.996 32.6074 186.154 32.7129 186.341 32.8301C186.529 32.9355 186.722 33.0469 186.921 33.1641C187.132 33.2695 187.343 33.3809 187.554 33.498C187.777 33.6035 187.982 33.709 188.17 33.8145C188.334 33.8848 188.48 33.9785 188.609 34.0957C188.738 34.2129 188.861 34.3359 188.978 34.4648C189.095 34.582 189.213 34.6992 189.33 34.8164C189.459 34.9336 189.605 35.0332 189.769 35.1152C189.746 35.2676 189.752 35.3906 189.787 35.4844C189.822 35.5781 189.834 35.6953 189.822 35.8359ZM208.662 37.5234C208.592 37.7227 208.486 37.9277 208.346 38.1387C208.217 38.3379 208.059 38.5195 207.871 38.6836C207.695 38.8359 207.496 38.9648 207.273 39.0703C207.051 39.1758 206.816 39.2344 206.57 39.2461C206.418 39.2109 206.312 39.1699 206.254 39.123C206.207 39.0879 206.154 39.0527 206.096 39.0176C206.061 38.9941 206.025 38.9766 205.99 38.9648C205.967 38.9414 205.943 38.9238 205.92 38.9121L205.709 38.8242L205.779 38.5957C205.803 38.502 205.797 38.4316 205.762 38.3848C205.727 38.3262 205.656 38.25 205.551 38.1562C205.516 38.1211 205.48 38.0859 205.445 38.0508C205.41 38.0156 205.381 37.9805 205.357 37.9453L205.059 37.6113L205.533 37.4883C205.826 37.4062 206.02 37.3008 206.113 37.1719C206.219 37.043 206.26 36.8262 206.236 36.5215C206.002 36.4746 205.803 36.4688 205.639 36.5039C205.486 36.5391 205.328 36.5801 205.164 36.627C204.953 36.6855 204.736 36.7383 204.514 36.7852C204.303 36.8203 204.068 36.8379 203.811 36.8379C203.717 36.8379 203.629 36.8379 203.547 36.8379C203.465 36.8262 203.377 36.8145 203.283 36.8027L203.107 36.7676C203.084 36.6387 203.061 36.5684 203.037 36.5566C203.014 36.5332 202.99 36.5098 202.967 36.4863C202.908 36.4277 202.844 36.3516 202.773 36.2578C202.715 36.1523 202.703 36.0234 202.738 35.8711C202.68 35.7656 202.645 35.6602 202.633 35.5547C202.562 35.6953 202.51 35.8418 202.475 35.9941L202.404 36.1699L202.229 36.2051C202.205 36.2168 202.188 36.2461 202.176 36.293C202.164 36.3281 202.158 36.3574 202.158 36.3809L202.07 36.6797C202.047 36.7031 202.023 36.7266 202 36.75C201.977 36.7617 201.953 36.7793 201.93 36.8027C201.906 36.9082 201.877 37.0137 201.842 37.1191C201.807 37.2246 201.771 37.3242 201.736 37.418C201.678 37.5703 201.625 37.7227 201.578 37.875C201.543 38.0156 201.531 38.1562 201.543 38.2969L201.473 38.4902C201.414 38.5605 201.35 38.6191 201.279 38.666C201.209 38.7012 201.139 38.7363 201.068 38.7715C201.045 38.7949 201.01 38.8184 200.963 38.8418C200.928 38.8535 200.898 38.8652 200.875 38.877L200.822 39.0703L200.611 39.1055C200.482 39.1289 200.389 39.1465 200.33 39.1582C200.283 39.1699 200.225 39.1758 200.154 39.1758L199.979 39.1582C199.85 39.0527 199.75 38.9707 199.68 38.9121C199.609 38.8418 199.527 38.7773 199.434 38.7188C199.328 38.5781 199.27 38.4727 199.258 38.4023C199.246 38.332 199.234 38.2676 199.223 38.209C199.199 38.1387 199.188 38.0801 199.188 38.0332C199.176 37.9863 199.158 37.9512 199.135 37.9277L198.906 37.7168L199.1 37.5586L199.117 37.2598C199.352 36.6621 199.598 36.0879 199.855 35.5371C200.125 34.9863 200.4 34.4238 200.682 33.8496C200.775 33.6621 200.863 33.4746 200.945 33.2871C201.039 33.0996 201.133 32.9121 201.227 32.7246C201.215 32.6895 201.209 32.6484 201.209 32.6016C201.209 32.5547 201.221 32.502 201.244 32.4434C201.373 32.2441 201.479 32.0684 201.561 31.916C201.643 31.752 201.725 31.5879 201.807 31.4238C201.9 31.2246 201.994 31.0312 202.088 30.8438C202.193 30.6562 202.322 30.4629 202.475 30.2637L202.756 30.1406C202.791 30.1289 202.832 30.1172 202.879 30.1055C202.926 30.082 202.979 30.0703 203.037 30.0703L203.301 30.1055C203.629 29.9531 203.916 29.7422 204.162 29.4727C204.408 29.1914 204.66 28.8574 204.918 28.4707L205.094 28.2246L205.322 28.3652C205.381 28.4004 205.463 28.4355 205.568 28.4707C205.674 28.4941 205.785 28.5234 205.902 28.5586C206.113 28.6055 206.312 28.6582 206.5 28.7168C206.688 28.7754 206.84 28.8633 206.957 28.9805C207.027 29.168 207.068 29.3086 207.08 29.4023C207.092 29.4961 207.109 29.5898 207.133 29.6836C207.168 29.8828 207.197 30.082 207.221 30.2812C207.256 30.4805 207.279 30.7031 207.291 30.9492C207.35 31.1484 207.396 31.3477 207.432 31.5469C207.479 31.7344 207.52 31.9277 207.555 32.127C207.613 32.4082 207.672 32.6836 207.73 32.9531C207.789 33.2109 207.865 33.457 207.959 33.6914C208.053 33.6914 208.111 33.6973 208.135 33.709C208.193 33.6855 208.252 33.668 208.311 33.6562C208.381 33.6445 208.457 33.6328 208.539 33.6211L208.732 33.6035L208.803 33.7793C208.814 33.8379 208.873 33.8965 208.979 33.9551C209.131 33.9668 209.242 34.002 209.312 34.0605C209.383 34.1074 209.447 34.1602 209.506 34.2188C209.553 34.2656 209.6 34.3008 209.646 34.3242L209.91 34.4297L209.77 34.6934C209.652 34.9043 209.482 35.1094 209.26 35.3086C209.049 35.4961 208.809 35.6543 208.539 35.7832C208.551 35.8535 208.557 35.9238 208.557 35.9941C208.568 36.0527 208.586 36.1172 208.609 36.1875C208.645 36.3867 208.674 36.5918 208.697 36.8027C208.721 37.0137 208.721 37.2305 208.697 37.4531L208.662 37.5234ZM203.582 34.4824C203.934 34.459 204.25 34.4355 204.531 34.4121C204.824 34.377 205.146 34.3242 205.498 34.2539C205.416 33.9023 205.328 33.5391 205.234 33.1641C205.141 32.7773 205.041 32.3965 204.936 32.0215L204.83 32.1973C204.596 32.4434 204.367 32.7188 204.145 33.0234C203.934 33.3281 203.752 33.6152 203.6 33.8848C203.529 33.9902 203.459 34.0957 203.389 34.2012C203.318 34.3066 203.254 34.4121 203.195 34.5176C203.266 34.5059 203.33 34.5 203.389 34.5C203.459 34.5 203.523 34.4941 203.582 34.4824ZM222.545 38.4023C222.475 38.8008 222.276 39.0762 221.948 39.2285C221.795 39.2402 221.678 39.2344 221.596 39.2109C221.526 39.1875 221.45 39.1582 221.368 39.123C221.262 39.0762 221.168 39.0469 221.086 39.0352L220.893 38.8945C220.87 38.8359 220.84 38.7773 220.805 38.7188C220.77 38.6602 220.729 38.6016 220.682 38.543C220.588 38.4258 220.495 38.2793 220.401 38.1035C220.33 37.7637 220.319 37.4824 220.366 37.2598C220.412 37.0254 220.471 36.7969 220.541 36.5742C220.565 36.5039 220.588 36.4336 220.612 36.3633C220.635 36.2812 220.659 36.2051 220.682 36.1348C220.377 35.9707 220.149 35.7363 219.996 35.4316C219.844 35.127 219.756 34.834 219.733 34.5527C219.768 34.3301 219.832 34.1543 219.926 34.0254C220.02 33.8848 220.125 33.7734 220.243 33.6914C220.371 33.6094 220.5 33.5449 220.629 33.498C220.77 33.4512 220.905 33.4102 221.034 33.375L221.262 33.4629C221.368 33.5684 221.473 33.6504 221.579 33.709C221.661 33.6738 221.713 33.6211 221.737 33.5508C221.772 33.4688 221.801 33.3809 221.825 33.2871C221.86 33.1816 221.895 33.0762 221.93 32.9707C221.977 32.8652 222.03 32.7598 222.088 32.6543C222.077 32.502 222.1 32.3613 222.159 32.2324C222.077 32.1738 221.989 32.1387 221.895 32.127C221.871 32.127 221.813 32.1152 221.719 32.0918C221.579 31.9863 221.479 31.8984 221.42 31.8281C221.373 31.7461 221.327 31.6699 221.28 31.5996C221.209 31.4473 221.121 31.3242 221.016 31.2305L220.84 31.1074L220.928 30.9316C220.952 30.9082 220.963 30.8789 220.963 30.8438C220.963 30.8086 220.94 30.7559 220.893 30.6855C220.87 30.5566 220.87 30.4688 220.893 30.4219L220.928 30.2461C221.022 30.1172 221.069 30.0469 221.069 30.0352L221.227 29.877C221.461 29.8184 221.69 29.7539 221.912 29.6836C222.147 29.6016 222.381 29.5195 222.616 29.4375C222.838 29.3672 223.061 29.2969 223.284 29.2266C223.518 29.1445 223.752 29.0742 223.987 29.0156C224.069 28.957 224.157 28.9219 224.25 28.9102C224.344 28.8867 224.432 28.8691 224.514 28.8574C224.584 28.8457 224.649 28.8398 224.707 28.8398C224.766 28.8281 224.807 28.8047 224.83 28.7695C224.971 28.7227 225.135 28.6699 225.323 28.6113C225.616 28.5293 226.002 28.4414 226.483 28.3477C226.963 28.2422 227.502 28.1602 228.1 28.1016L228.399 28.084C228.457 28.0957 228.516 28.1016 228.575 28.1016C228.633 28.0898 228.692 28.084 228.75 28.084C229.278 28.084 229.612 28.2422 229.752 28.5586C229.858 28.6172 229.952 28.6816 230.034 28.752C230.116 28.8223 230.192 28.8926 230.262 28.9629C230.297 29.0098 230.332 29.0508 230.368 29.0859C230.414 29.1211 230.45 29.1445 230.473 29.1562C230.672 29.4609 230.737 29.7305 230.666 29.9648C230.561 30.1172 230.426 30.2051 230.262 30.2285L230.069 30.334C229.94 30.3223 229.84 30.3164 229.77 30.3164C229.711 30.3164 229.647 30.3164 229.577 30.3164C229.284 30.3164 228.944 30.334 228.557 30.3691C228.17 30.4043 227.772 30.457 227.362 30.5273C226.963 30.5859 226.577 30.6621 226.202 30.7559C225.827 30.8496 225.498 30.9492 225.217 31.0547L224.901 31.2129C224.819 31.3418 224.772 31.4473 224.76 31.5293C224.748 31.5996 224.737 31.6699 224.725 31.7402C224.713 31.7871 224.702 31.834 224.69 31.8809C224.69 31.9277 224.684 31.9805 224.672 32.0391C224.473 32.2852 224.373 32.5781 224.373 32.918C224.291 33.0586 224.239 33.1641 224.215 33.2344C224.192 33.293 224.192 33.3691 224.215 33.4629C224.438 33.5566 224.649 33.5918 224.848 33.5684C225.047 33.5449 225.246 33.5156 225.446 33.4805C225.715 33.4336 225.991 33.3926 226.272 33.3574C226.565 33.3223 226.864 33.3047 227.168 33.3047H227.731L227.59 33.4453L227.678 33.6914C227.748 33.7266 227.795 33.75 227.819 33.7617C227.854 33.7734 227.889 33.791 227.924 33.8145L228.012 33.9727C228.059 33.9961 228.1 34.0371 228.135 34.0957C228.182 34.1543 228.211 34.2422 228.223 34.3594L227.502 35.3789L227.256 35.4492C227.057 35.4375 226.881 35.4609 226.729 35.5195C226.647 35.543 226.565 35.5664 226.483 35.5898C226.401 35.6016 226.313 35.6074 226.219 35.6074C225.985 35.6543 225.786 35.6895 225.621 35.7129C225.469 35.7363 225.311 35.7598 225.147 35.7832C224.936 35.8066 224.731 35.8418 224.532 35.8887C224.332 35.9238 224.145 35.9766 223.969 36.0469C223.852 36.0469 223.77 36.0469 223.723 36.0469C223.629 36.0469 223.53 36.0645 223.424 36.0996C223.33 36.123 223.243 36.1465 223.161 36.1699C223.102 36.2168 223.061 36.2695 223.037 36.3281C223.014 36.375 222.991 36.4277 222.967 36.4863C222.92 36.6504 222.856 36.7852 222.774 36.8906V37.1543C222.68 37.2715 222.621 37.3652 222.598 37.4355C222.586 37.4941 222.569 37.5527 222.545 37.6113C222.522 37.6465 222.504 37.6816 222.493 37.7168C222.481 37.7402 222.475 37.7695 222.475 37.8047C222.569 37.9805 222.592 38.1797 222.545 38.4023ZM239.884 29.1035C239.896 29.1855 239.896 29.25 239.884 29.2969C239.884 29.332 239.879 29.3672 239.867 29.4023C239.867 29.4375 239.867 29.4785 239.867 29.5254C239.867 29.5605 239.879 29.6191 239.902 29.7012C239.656 30.0996 239.369 30.375 239.041 30.5273C238.724 30.668 238.379 30.7734 238.004 30.8438C237.629 30.9023 237.242 30.9668 236.843 31.0371C236.457 31.1074 236.07 31.2598 235.683 31.4941C235.531 31.4355 235.39 31.4355 235.261 31.4941C235.144 31.5527 234.968 31.5703 234.734 31.5469C234.664 31.6172 234.576 31.6699 234.47 31.7051C234.365 31.7285 234.259 31.7578 234.154 31.793C234.201 31.8984 234.218 32.0098 234.207 32.127C234.207 32.2324 234.224 32.3203 234.259 32.3906C234.67 32.4258 235.121 32.4199 235.613 32.373C236.117 32.3262 236.609 32.2969 237.089 32.2852C237.101 32.3438 237.095 32.3848 237.072 32.4082C237.048 32.4199 237.043 32.4492 237.054 32.4961C237.136 32.5547 237.218 32.6309 237.3 32.7246C237.382 32.8066 237.464 32.8887 237.546 32.9707C237.629 33.0527 237.711 33.123 237.793 33.1816C237.886 33.2285 237.992 33.2461 238.109 33.2344C238.156 33.3281 238.185 33.4336 238.197 33.5508C238.22 33.6562 238.209 33.7676 238.162 33.8848C237.974 34.0137 237.787 34.1484 237.599 34.2891C237.412 34.418 237.213 34.5352 237.002 34.6406C236.802 34.7461 236.586 34.834 236.351 34.9043C236.129 34.9629 235.877 34.9863 235.595 34.9746C235.537 34.9746 235.49 34.9746 235.455 34.9746C235.431 34.9746 235.396 34.957 235.349 34.9219C235.255 34.9805 235.121 34.998 234.945 34.9746C234.781 34.9512 234.652 34.9688 234.558 35.0273C234.429 34.9688 234.271 34.9453 234.084 34.957C233.908 34.957 233.75 34.9336 233.609 34.8867C233.421 35.1328 233.252 35.3965 233.099 35.6777C232.947 35.959 232.812 36.2578 232.695 36.5742C233.093 36.6328 233.421 36.6562 233.679 36.6445C233.949 36.6328 234.201 36.6152 234.435 36.5918C234.67 36.5566 234.91 36.5273 235.156 36.5039C235.402 36.4688 235.713 36.457 236.088 36.4688C236.322 36.3398 236.597 36.2578 236.914 36.2227C237.242 36.1758 237.541 36.1055 237.81 36.0117C237.904 36.0469 237.986 36.1113 238.056 36.2051C238.127 36.2871 238.191 36.3691 238.25 36.4512C238.32 36.5215 238.39 36.5859 238.461 36.6445C238.531 36.7031 238.619 36.7266 238.724 36.7148C238.771 36.7617 238.8 36.8203 238.812 36.8906C238.836 36.9492 238.853 37.0078 238.865 37.0664C238.877 37.125 238.894 37.1777 238.918 37.2246C238.953 37.2598 239.005 37.2715 239.076 37.2598C238.9 37.6465 238.695 37.9453 238.461 38.1562C238.238 38.3555 237.98 38.5078 237.687 38.6133C237.394 38.7188 237.066 38.8008 236.703 38.8594C236.351 38.918 235.959 38.9883 235.525 39.0703C235.42 39.0938 235.332 39.0879 235.261 39.0527C235.191 39.0293 235.109 39.0176 235.015 39.0176C234.746 39.0762 234.423 39.1289 234.048 39.1758C233.673 39.2227 233.293 39.2402 232.906 39.2285C232.519 39.2168 232.15 39.1641 231.798 39.0703C231.447 38.9883 231.16 38.8359 230.937 38.6133C230.843 38.5312 230.779 38.4375 230.744 38.332C230.72 38.2148 230.644 38.127 230.515 38.0684C230.504 37.916 230.48 37.7461 230.445 37.5586C230.41 37.3711 230.375 37.1777 230.339 36.9785C230.304 36.7676 230.275 36.5625 230.252 36.3633C230.24 36.1641 230.252 35.9824 230.287 35.8184C230.322 35.6426 230.392 35.4844 230.498 35.3438C230.615 35.2031 230.656 35.0508 230.621 34.8867C230.679 34.875 230.714 34.8457 230.726 34.7988C230.738 34.7402 230.785 34.7168 230.867 34.7285C230.937 34.5176 231.013 34.3184 231.095 34.1309C231.177 33.9434 231.259 33.7617 231.341 33.5859C231.435 33.4102 231.523 33.2344 231.605 33.0586C231.699 32.8711 231.787 32.666 231.869 32.4434C231.705 32.291 231.582 32.127 231.5 31.9512C231.429 31.7637 231.377 31.582 231.341 31.4062C231.306 31.2188 231.277 31.0312 231.254 30.8438C231.23 30.6445 231.189 30.4453 231.13 30.2461C231.248 30.0703 231.388 29.9297 231.552 29.8242C231.728 29.707 231.916 29.6133 232.115 29.543C232.314 29.4727 232.531 29.4141 232.765 29.3672C233 29.3203 233.246 29.2676 233.504 29.209C233.972 29.0566 234.388 28.9395 234.752 28.8574C235.127 28.7754 235.49 28.7109 235.841 28.6641C236.205 28.6055 236.58 28.5527 236.966 28.5059C237.353 28.459 237.793 28.3887 238.285 28.2949C238.39 28.4004 238.49 28.4531 238.584 28.4531C238.63 28.3477 238.683 28.3184 238.742 28.3652C238.812 28.4004 238.841 28.3652 238.83 28.2598C238.947 28.459 239.093 28.6289 239.269 28.7695C239.457 28.8984 239.662 29.0098 239.884 29.1035ZM251.159 39.2285C250.749 39.041 250.421 38.7656 250.175 38.4023C249.94 38.0391 249.706 37.6348 249.471 37.1895C249.436 37.1191 249.401 37.0488 249.366 36.9785C249.331 36.9082 249.296 36.8438 249.261 36.7852L249.014 36.3281L248.874 36.0469L248.663 36.2402L248.346 36.5215L248.171 36.6973C247.866 36.9785 247.555 37.2598 247.239 37.541C246.934 37.8105 246.606 38.0566 246.255 38.2793C245.915 38.4902 245.552 38.666 245.165 38.8066C244.79 38.9355 244.38 39.0059 243.934 39.0176L243.548 38.8242C243.325 38.707 243.137 38.6016 242.985 38.5078C242.833 38.4141 242.657 38.2676 242.458 38.0684C242.399 37.9629 242.346 37.8633 242.3 37.7695C242.264 37.6758 242.223 37.582 242.177 37.4883C242.048 37.2539 241.942 37.043 241.86 36.8555C241.778 36.668 241.696 36.457 241.614 36.2227C241.649 36.0586 241.702 35.7832 241.772 35.3965C241.843 34.998 241.925 34.5645 242.018 34.0957C242.124 33.627 242.229 33.1582 242.335 32.6895C242.452 32.209 242.569 31.793 242.686 31.4414C242.792 31.1367 242.909 30.8145 243.038 30.4746C243.179 30.1348 243.325 29.8242 243.477 29.543C243.641 29.25 243.817 29.0039 244.005 28.8047C244.192 28.5938 244.391 28.4707 244.602 28.4355C244.661 28.5176 244.725 28.5762 244.796 28.6113C244.866 28.6465 244.93 28.6758 244.989 28.6992C245.153 28.9336 245.311 29.1328 245.464 29.2969C245.628 29.4609 245.815 29.625 246.026 29.7891C245.968 30.082 245.88 30.4102 245.762 30.7734C245.657 31.125 245.54 31.4824 245.411 31.8457C245.294 32.1973 245.177 32.543 245.059 32.8828C244.942 33.2227 244.848 33.5156 244.778 33.7617C244.708 33.9609 244.649 34.1836 244.602 34.4297C244.497 34.8633 244.397 35.4551 244.304 36.2051C244.444 36.1699 244.596 36.0938 244.761 35.9766C244.925 35.8594 245.083 35.7363 245.235 35.6074C245.411 35.4668 245.587 35.3086 245.762 35.1328C245.985 34.9102 246.173 34.7051 246.325 34.5176C246.477 34.3301 246.618 34.1367 246.747 33.9375C246.887 33.7383 247.028 33.5215 247.169 33.2871C247.309 33.041 247.479 32.7539 247.679 32.4258C247.854 32.1445 248.036 31.8457 248.223 31.5293C248.423 31.2012 248.616 30.8906 248.804 30.5977C249.003 30.293 249.196 30.0176 249.384 29.7715C249.571 29.5254 249.741 29.332 249.893 29.1914C249.987 29.3086 250.104 29.4199 250.245 29.5254C250.397 29.6309 250.555 29.7129 250.72 29.7715C250.79 29.877 250.854 29.9766 250.913 30.0703C250.983 30.1523 251.048 30.2285 251.106 30.2988C251.177 30.4043 251.241 30.5039 251.3 30.5977C251.37 30.6914 251.434 30.7852 251.493 30.8789C251.481 30.9609 251.464 31.0664 251.44 31.1953C251.417 31.3242 251.387 31.4648 251.352 31.6172C251.329 31.7695 251.3 31.9277 251.264 32.0918C251.229 32.2441 251.194 32.3906 251.159 32.5312C251.065 32.9766 250.995 33.3105 250.948 33.5332C250.901 33.7559 250.866 33.9316 250.843 34.0605C250.831 34.1895 250.819 34.3008 250.807 34.3945C250.807 34.4766 250.807 34.5938 250.807 34.7461C250.796 34.8633 250.802 34.9805 250.825 35.0977C250.837 35.2031 250.86 35.3145 250.895 35.4316C250.93 35.5488 250.977 35.6543 251.036 35.748L251.739 35.2031C251.938 35.0508 252.126 34.8457 252.302 34.5879C252.489 34.3184 252.665 34.0137 252.829 33.6738C253.005 33.3223 253.175 32.9414 253.339 32.5312C253.503 32.1211 253.667 31.7051 253.831 31.2832C254.077 30.6621 254.323 30.0586 254.569 29.4727C254.827 28.8867 255.073 28.4355 255.307 28.1191C255.565 28.2832 255.788 28.4531 255.975 28.6289C256.175 28.793 256.345 28.9746 256.485 29.1738C256.626 29.373 256.737 29.6016 256.819 29.8594C256.913 30.1172 256.977 30.4219 257.012 30.7734C256.802 31.1836 256.596 31.6055 256.397 32.0391C256.21 32.4727 256.028 32.9062 255.852 33.3398C255.618 33.9023 255.372 34.4648 255.114 35.0273C254.868 35.5898 254.593 36.1289 254.288 36.6445C253.983 37.1484 253.643 37.6172 253.268 38.0508C252.893 38.4727 252.46 38.8301 251.968 39.123C251.839 39.0879 251.727 39.0703 251.634 39.0703C251.446 39.0703 251.288 39.123 251.159 39.2285ZM269.208 37.1719C269.079 37.6406 268.962 37.998 268.857 38.2441C268.763 38.4785 268.616 38.7246 268.417 38.9824C268.265 38.959 268.159 38.9766 268.101 39.0352C268.042 39.0938 267.978 39.1465 267.907 39.1934C267.802 39.2168 267.726 39.2168 267.679 39.1934C267.632 39.1699 267.591 39.1406 267.556 39.1055C267.521 39.082 267.474 39.0527 267.415 39.0176C267.368 38.9941 267.292 38.9824 267.187 38.9824C267.163 38.8887 267.134 38.8008 267.099 38.7188C267.075 38.6367 266.999 38.6074 266.87 38.6309C266.894 38.5371 266.9 38.4609 266.888 38.4023C266.876 38.332 266.859 38.2734 266.835 38.2266C266.823 38.168 266.812 38.1152 266.8 38.0684C266.788 38.0098 266.794 37.9395 266.818 37.8574C266.759 37.8574 266.712 37.8164 266.677 37.7344C266.642 37.6523 266.601 37.5703 266.554 37.4883C266.589 37.2773 266.624 37.0781 266.659 36.8906C266.695 36.7031 266.736 36.5273 266.782 36.3633C266.841 36.1992 266.888 36.0352 266.923 35.8711C266.958 35.707 266.941 35.5371 266.87 35.3613C266.917 35.3965 266.952 35.3906 266.976 35.3438C266.999 35.2852 267.017 35.2148 267.029 35.1328C267.04 35.0391 267.046 34.9512 267.046 34.8691C267.046 34.7754 267.04 34.6992 267.029 34.6406C267.146 34.3359 267.239 34.0254 267.31 33.709C267.392 33.3809 267.462 33.0586 267.521 32.7422C267.591 32.4258 267.661 32.1152 267.732 31.8105C267.802 31.5059 267.896 31.2246 268.013 30.9668C268.142 30.9434 268.282 30.9609 268.435 31.0195C268.599 31.0664 268.698 31.1309 268.734 31.2129C269.038 30.9785 269.308 30.6973 269.542 30.3691C269.777 30.0293 270.017 29.7012 270.263 29.3848C270.509 29.0684 270.779 28.7871 271.071 28.541C271.376 28.2949 271.757 28.1484 272.214 28.1016C272.448 28.2773 272.706 28.459 272.988 28.6465C273.28 28.8223 273.521 29.0566 273.708 29.3496C273.802 29.3965 273.878 29.4492 273.937 29.5078C274.007 29.5547 274.089 29.6074 274.183 29.666V29.877C274.323 30.0059 274.435 30.1582 274.517 30.334C274.611 30.498 274.693 30.6797 274.763 30.8789C274.833 31.0664 274.904 31.2598 274.974 31.459C275.044 31.6465 275.126 31.8281 275.22 32.0039C275.196 32.0625 275.185 32.1152 275.185 32.1621C275.185 32.1973 275.191 32.2383 275.202 32.2852C275.226 32.332 275.243 32.3789 275.255 32.4258C275.267 32.4727 275.267 32.5371 275.255 32.6191C275.22 33.1348 275.05 33.5508 274.745 33.8672C274.452 34.1836 274.095 34.4473 273.673 34.6582C273.251 34.8574 272.8 35.0273 272.32 35.168C271.839 35.3086 271.405 35.4609 271.019 35.625C271.019 35.6719 271.036 35.6953 271.071 35.6953C271.118 35.6953 271.136 35.7246 271.124 35.7832C271.405 35.959 271.628 36.0996 271.792 36.2051C271.956 36.3105 272.109 36.3984 272.249 36.4688C272.402 36.5391 272.56 36.6035 272.724 36.6621C272.9 36.709 273.14 36.7676 273.445 36.8379C273.749 36.9082 273.984 36.9668 274.148 37.0137C274.323 37.0488 274.482 37.084 274.622 37.1191C274.763 37.1426 274.904 37.166 275.044 37.1895C275.196 37.2012 275.407 37.2188 275.677 37.2422C275.782 37.3477 275.87 37.4766 275.941 37.6289C276.023 37.7695 276.075 37.916 276.099 38.0684C276.122 38.209 276.128 38.3496 276.116 38.4902C276.105 38.6191 276.064 38.7246 275.993 38.8066C276.005 38.8418 276.029 38.8594 276.064 38.8594C276.111 38.8477 276.157 38.8477 276.204 38.8594C276.134 38.9062 276.075 38.9648 276.029 39.0352C275.982 39.1055 275.935 39.1758 275.888 39.2461C275.841 39.3164 275.788 39.375 275.73 39.4219C275.671 39.4805 275.589 39.5156 275.484 39.5273C275.12 39.668 274.663 39.6738 274.113 39.5449C273.562 39.4277 272.864 39.2051 272.021 38.877C271.599 38.7129 271.253 38.5723 270.984 38.4551C270.726 38.3262 270.497 38.2031 270.298 38.0859C270.111 37.957 269.935 37.8223 269.771 37.6816C269.618 37.541 269.431 37.3711 269.208 37.1719ZM271.722 31.1426C271.593 31.3301 271.446 31.5 271.282 31.6523C271.13 31.8047 270.978 31.9629 270.825 32.127C270.685 32.2793 270.556 32.4551 270.439 32.6543C270.321 32.8418 270.239 33.0645 270.193 33.3223C270.603 33.2754 271.03 33.1641 271.476 32.9883C271.921 32.8008 272.343 32.625 272.741 32.4609C272.695 32.0977 272.566 31.8047 272.355 31.582C272.155 31.3594 271.945 31.2129 271.722 31.1426ZM287.725 29.1035C287.737 29.1855 287.737 29.25 287.725 29.2969C287.725 29.332 287.719 29.3672 287.707 29.4023C287.707 29.4375 287.707 29.4785 287.707 29.5254C287.707 29.5605 287.719 29.6191 287.743 29.7012C287.496 30.0996 287.209 30.375 286.881 30.5273C286.565 30.668 286.219 30.7734 285.844 30.8438C285.469 30.9023 285.082 30.9668 284.684 31.0371C284.297 31.1074 283.911 31.2598 283.524 31.4941C283.371 31.4355 283.231 31.4355 283.102 31.4941C282.985 31.5527 282.809 31.5703 282.575 31.5469C282.504 31.6172 282.416 31.6699 282.311 31.7051C282.205 31.7285 282.1 31.7578 281.995 31.793C282.041 31.8984 282.059 32.0098 282.047 32.127C282.047 32.2324 282.065 32.3203 282.1 32.3906C282.51 32.4258 282.961 32.4199 283.454 32.373C283.957 32.3262 284.45 32.2969 284.93 32.2852C284.942 32.3438 284.936 32.3848 284.913 32.4082C284.889 32.4199 284.883 32.4492 284.895 32.4961C284.977 32.5547 285.059 32.6309 285.141 32.7246C285.223 32.8066 285.305 32.8887 285.387 32.9707C285.469 33.0527 285.551 33.123 285.633 33.1816C285.727 33.2285 285.832 33.2461 285.95 33.2344C285.996 33.3281 286.026 33.4336 286.038 33.5508C286.061 33.6562 286.049 33.7676 286.002 33.8848C285.815 34.0137 285.627 34.1484 285.44 34.2891C285.252 34.418 285.053 34.5352 284.842 34.6406C284.643 34.7461 284.426 34.834 284.192 34.9043C283.969 34.9629 283.717 34.9863 283.436 34.9746C283.377 34.9746 283.33 34.9746 283.295 34.9746C283.272 34.9746 283.237 34.957 283.19 34.9219C283.096 34.9805 282.961 34.998 282.786 34.9746C282.621 34.9512 282.493 34.9688 282.399 35.0273C282.27 34.9688 282.112 34.9453 281.924 34.957C281.748 34.957 281.59 34.9336 281.45 34.8867C281.262 35.1328 281.092 35.3965 280.94 35.6777C280.788 35.959 280.653 36.2578 280.536 36.5742C280.934 36.6328 281.262 36.6562 281.52 36.6445C281.789 36.6328 282.041 36.6152 282.276 36.5918C282.51 36.5566 282.75 36.5273 282.996 36.5039C283.243 36.4688 283.553 36.457 283.928 36.4688C284.163 36.3398 284.438 36.2578 284.754 36.2227C285.082 36.1758 285.381 36.1055 285.651 36.0117C285.745 36.0469 285.827 36.1113 285.897 36.2051C285.967 36.2871 286.032 36.3691 286.09 36.4512C286.161 36.5215 286.231 36.5859 286.301 36.6445C286.371 36.7031 286.459 36.7266 286.565 36.7148C286.612 36.7617 286.641 36.8203 286.653 36.8906C286.676 36.9492 286.694 37.0078 286.705 37.0664C286.717 37.125 286.735 37.1777 286.758 37.2246C286.793 37.2598 286.846 37.2715 286.916 37.2598C286.741 37.6465 286.536 37.9453 286.301 38.1562C286.079 38.3555 285.821 38.5078 285.528 38.6133C285.235 38.7188 284.907 38.8008 284.543 38.8594C284.192 38.918 283.799 38.9883 283.366 39.0703C283.26 39.0938 283.172 39.0879 283.102 39.0527C283.032 39.0293 282.95 39.0176 282.856 39.0176C282.586 39.0762 282.264 39.1289 281.889 39.1758C281.514 39.2227 281.133 39.2402 280.746 39.2285C280.36 39.2168 279.991 39.1641 279.639 39.0703C279.288 38.9883 279 38.8359 278.778 38.6133C278.684 38.5312 278.62 38.4375 278.584 38.332C278.561 38.2148 278.485 38.127 278.356 38.0684C278.344 37.916 278.321 37.7461 278.286 37.5586C278.25 37.3711 278.215 37.1777 278.18 36.9785C278.145 36.7676 278.116 36.5625 278.092 36.3633C278.08 36.1641 278.092 35.9824 278.127 35.8184C278.163 35.6426 278.233 35.4844 278.338 35.3438C278.455 35.2031 278.496 35.0508 278.461 34.8867C278.52 34.875 278.555 34.8457 278.567 34.7988C278.579 34.7402 278.625 34.7168 278.707 34.7285C278.778 34.5176 278.854 34.3184 278.936 34.1309C279.018 33.9434 279.1 33.7617 279.182 33.5859C279.276 33.4102 279.364 33.2344 279.446 33.0586C279.539 32.8711 279.627 32.666 279.709 32.4434C279.545 32.291 279.422 32.127 279.34 31.9512C279.27 31.7637 279.217 31.582 279.182 31.4062C279.147 31.2188 279.118 31.0312 279.094 30.8438C279.071 30.6445 279.03 30.4453 278.971 30.2461C279.088 30.0703 279.229 29.9297 279.393 29.8242C279.569 29.707 279.756 29.6133 279.955 29.543C280.155 29.4727 280.371 29.4141 280.606 29.3672C280.84 29.3203 281.086 29.2676 281.344 29.209C281.813 29.0566 282.229 28.9395 282.592 28.8574C282.967 28.7754 283.33 28.7109 283.682 28.6641C284.045 28.6055 284.42 28.5527 284.807 28.5059C285.194 28.459 285.633 28.3887 286.125 28.2949C286.231 28.4004 286.33 28.4531 286.424 28.4531C286.471 28.3477 286.524 28.3184 286.582 28.3652C286.653 28.4004 286.682 28.3652 286.67 28.2598C286.788 28.459 286.934 28.6289 287.11 28.7695C287.297 28.8984 287.502 29.0098 287.725 29.1035ZM295.73 28.1016C296.222 28.1602 296.662 28.2598 297.048 28.4004C297.435 28.541 297.763 28.7285 298.033 28.9629C298.22 29.2559 298.396 29.5723 298.56 29.9121C298.736 30.252 298.865 30.6094 298.947 30.9844C299.041 31.3477 299.082 31.7227 299.07 32.1094C299.07 32.4961 298.988 32.8887 298.824 33.2871C298.484 33.709 298.068 34.0547 297.576 34.3242C297.095 34.582 296.574 34.793 296.011 34.957C295.449 35.1211 294.863 35.2617 294.254 35.3789C293.656 35.4961 293.07 35.6133 292.496 35.7305C292.507 36 292.507 36.2871 292.496 36.5918C292.496 36.8848 292.466 37.1836 292.408 37.4883C292.361 37.7812 292.285 38.0684 292.179 38.3496C292.074 38.6309 291.933 38.8887 291.757 39.123C291.558 39.123 291.353 39.1465 291.142 39.1934C290.931 39.252 290.744 39.2988 290.58 39.334C290.498 39.2871 290.421 39.2402 290.351 39.1934C290.293 39.1582 290.205 39.1348 290.087 39.123C290.111 39.0059 290.082 38.8887 290 38.7715C289.918 38.6426 289.836 38.5137 289.754 38.3848C289.671 38.2559 289.613 38.1328 289.578 38.0156C289.554 37.8984 289.613 37.7871 289.754 37.6816C289.671 37.5996 289.63 37.4941 289.63 37.3652C289.712 37.2246 289.783 37.0312 289.841 36.7852C289.912 36.5391 289.964 36.2988 290 36.0645C290.046 35.8184 290.058 35.5957 290.035 35.3965C290.011 35.1973 289.894 35.0508 289.683 34.957C289.695 34.9336 289.718 34.9219 289.754 34.9219C289.789 34.9219 289.824 34.916 289.859 34.9043C289.765 34.834 289.707 34.7344 289.683 34.6055C289.671 34.4766 289.63 34.3652 289.56 34.2715C289.584 34.2129 289.601 34.1602 289.613 34.1133C289.625 34.0664 289.666 34.0488 289.736 34.0605C289.701 33.8496 289.701 33.6504 289.736 33.4629C289.783 33.2754 289.847 33.0996 289.929 32.9355C290.011 32.7598 290.111 32.5898 290.228 32.4258C290.345 32.2617 290.457 32.0977 290.562 31.9336C290.644 31.9219 290.691 31.9336 290.703 31.9688C290.726 32.0039 290.767 31.998 290.826 31.9512C290.978 31.834 291.084 31.7109 291.142 31.582C291.201 31.4531 291.23 31.3066 291.23 31.1426C291.312 30.8965 291.412 30.6504 291.529 30.4043C291.646 30.1465 291.775 29.9121 291.916 29.7012C292.056 29.4902 292.209 29.3027 292.373 29.1387C292.548 28.9746 292.73 28.8516 292.918 28.7695C293.058 28.6523 293.234 28.5469 293.445 28.4531C293.656 28.3477 293.884 28.2715 294.13 28.2246C294.377 28.166 294.623 28.1367 294.869 28.1367C295.127 28.125 295.361 28.1484 295.572 28.207C295.63 28.2305 295.66 28.2188 295.66 28.1719C295.671 28.125 295.695 28.1016 295.73 28.1016ZM295.009 32.3027C295.302 32.1738 295.613 32.0742 295.941 32.0039C296.281 31.9219 296.562 31.7754 296.785 31.5645C296.644 31.4355 296.439 31.3242 296.17 31.2305C295.9 31.125 295.607 31.0605 295.291 31.0371C294.974 31.0137 294.652 31.043 294.324 31.125C294.007 31.1953 293.732 31.3359 293.498 31.5469C293.427 31.7578 293.369 31.9277 293.322 32.0566C293.275 32.1738 293.211 32.3203 293.129 32.4961C293.152 32.5547 293.187 32.6016 293.234 32.6367C293.293 32.6602 293.334 32.7012 293.357 32.7598C293.627 32.6191 293.896 32.543 294.166 32.5312C294.447 32.5078 294.728 32.4316 295.009 32.3027ZM300.624 31.0898C300.706 30.8438 300.835 30.6328 301.011 30.457C301.198 30.2812 301.397 30.1348 301.608 30.0176C301.831 29.8887 302.059 29.7832 302.294 29.7012C302.528 29.6191 302.751 29.5488 302.962 29.4902C303.43 29.291 303.929 29.1035 304.456 28.9277C304.995 28.7402 305.54 28.5762 306.091 28.4355C306.653 28.2949 307.227 28.207 307.813 28.1719C308.399 28.125 309.014 28.1953 309.659 28.3828C309.694 28.5 309.747 28.6113 309.817 28.7168C309.887 28.8223 309.958 28.9277 310.028 29.0332C310.11 29.1387 310.18 29.2441 310.239 29.3496C310.298 29.4434 310.333 29.543 310.345 29.6484C310.462 29.7539 310.555 29.8711 310.626 30C310.696 30.1172 310.708 30.2754 310.661 30.4746C310.544 30.5684 310.427 30.6562 310.309 30.7383C310.204 30.8086 310.087 30.873 309.958 30.9316C309.524 30.8262 309.085 30.791 308.639 30.8262C308.194 30.8613 307.796 30.8906 307.444 30.9141C307.339 30.8086 307.21 30.7559 307.057 30.7559C306.917 30.7559 306.764 30.7793 306.6 30.8262C306.448 30.873 306.29 30.9199 306.126 30.9668C305.973 31.0137 305.827 31.0254 305.686 31.002C305.569 31.0957 305.423 31.1602 305.247 31.1953C305.083 31.2188 304.901 31.2422 304.702 31.2656C304.69 31.3242 304.702 31.3652 304.737 31.3887C304.772 31.4004 304.778 31.4355 304.755 31.4941C304.825 31.5762 304.913 31.6348 305.018 31.6699C305.136 31.7051 305.253 31.7402 305.37 31.7754C305.499 31.8105 305.61 31.8574 305.704 31.916C305.798 31.9629 305.862 32.0449 305.897 32.1621C306.073 32.1621 306.225 32.2031 306.354 32.2852C306.483 32.3672 306.589 32.4668 306.671 32.584C306.753 32.7012 306.811 32.8301 306.846 32.9707C306.893 33.0996 306.917 33.2168 306.917 33.3223C306.952 33.416 306.993 33.457 307.04 33.4453C307.087 33.4336 307.139 33.457 307.198 33.5156C307.233 33.668 307.321 33.8262 307.462 33.9902C307.602 34.1426 307.714 34.3125 307.796 34.5C307.819 34.793 307.837 35.0566 307.848 35.291C307.86 35.5137 307.819 35.7422 307.725 35.9766C307.55 36.4102 307.304 36.7969 306.987 37.1367C306.682 37.4766 306.331 37.7812 305.932 38.0508C305.546 38.3086 305.13 38.5312 304.684 38.7188C304.239 38.9062 303.805 39.0645 303.384 39.1934C303.337 39.1816 303.29 39.1816 303.243 39.1934C303.196 39.2051 303.184 39.1758 303.208 39.1055C303.114 39.1875 303.009 39.2402 302.891 39.2637C302.786 39.2871 302.669 39.293 302.54 39.2812C302.411 39.2812 302.276 39.2754 302.136 39.2637C302.007 39.252 301.884 39.2578 301.766 39.2812C301.684 39.1992 301.608 39.1172 301.538 39.0352C301.479 38.9648 301.432 38.8711 301.397 38.7539C301.339 38.7539 301.309 38.7246 301.309 38.666C301.321 38.6074 301.304 38.5781 301.257 38.5781C301.327 38.4609 301.356 38.3965 301.345 38.3848C301.345 38.3613 301.327 38.3438 301.292 38.332C301.268 38.3203 301.245 38.3086 301.221 38.2969C301.198 38.2734 301.192 38.2441 301.204 38.209C301.251 38.1152 301.268 38.0098 301.257 37.8926C301.245 37.7637 301.233 37.6348 301.221 37.5059C301.21 37.377 301.216 37.2539 301.239 37.1367C301.274 37.0195 301.362 36.9258 301.503 36.8555C301.901 36.9023 302.276 36.8906 302.628 36.8203C302.991 36.7383 303.331 36.627 303.647 36.4863C303.964 36.3457 304.262 36.1934 304.544 36.0293C304.837 35.8652 305.124 35.7188 305.405 35.5898C305.44 35.4844 305.487 35.3965 305.546 35.3262C305.616 35.2559 305.686 35.1914 305.757 35.1328C305.827 35.0742 305.891 35.0098 305.95 34.9395C306.009 34.8691 306.05 34.7812 306.073 34.6758C306.085 34.5938 306.061 34.5469 306.003 34.5352C305.956 34.5117 305.932 34.4648 305.932 34.3945L305.739 34.3418C305.516 34.2129 305.264 34.1074 304.983 34.0254C304.702 33.9316 304.462 33.832 304.262 33.7266C304.134 33.7969 304.011 33.8145 303.893 33.7793C303.788 33.7441 303.647 33.709 303.471 33.6738C303.073 33.6504 302.686 33.6094 302.311 33.5508C301.948 33.4922 301.596 33.3867 301.257 33.2344C301.233 33.1758 301.204 33.123 301.169 33.0762C301.134 33.0293 301.069 33.0176 300.975 33.041C300.905 32.9473 300.835 32.8594 300.764 32.7773C300.694 32.6836 300.63 32.584 300.571 32.4785C300.595 32.3379 300.612 32.2207 300.624 32.127C300.636 32.0215 300.6 31.9219 300.518 31.8281C300.565 31.6758 300.6 31.5527 300.624 31.459C300.647 31.3652 300.647 31.2422 300.624 31.0898ZM315.344 26.9062C315.344 27.0117 315.326 27.1406 315.291 27.293C315.268 27.4453 315.244 27.5977 315.221 27.75C315.197 27.9023 315.191 28.043 315.203 28.1719C315.215 28.2891 315.268 28.3652 315.361 28.4004C315.15 29.0215 315.004 29.543 314.922 29.9648C314.852 30.3867 314.787 30.791 314.729 31.1777C314.682 31.5527 314.617 31.9512 314.535 32.373C314.453 32.7949 314.307 33.3105 314.096 33.9199C313.967 34.2949 313.809 34.5586 313.621 34.7109C313.434 34.8516 313.234 34.9219 313.023 34.9219C312.812 34.9219 312.596 34.8633 312.373 34.7461C312.15 34.6289 311.945 34.5 311.758 34.3594C311.723 34.1367 311.717 33.8672 311.74 33.5508C311.775 33.2227 311.816 32.8828 311.863 32.5312C311.91 32.1797 311.957 31.8457 312.004 31.5293C312.051 31.2012 312.086 30.9258 312.109 30.7031C312.227 30.5742 312.309 30.4688 312.355 30.3867C312.402 30.3047 312.432 30.2168 312.443 30.123C312.467 30.0293 312.484 29.9121 312.496 29.7715C312.508 29.6309 312.537 29.4316 312.584 29.1738C312.607 29.0449 312.596 28.9336 312.549 28.8398C312.514 28.7344 312.508 28.6348 312.531 28.541C312.555 28.4941 312.59 28.459 312.637 28.4355C312.695 28.4121 312.73 28.3711 312.742 28.3125C312.789 28.1602 312.801 28.043 312.777 27.9609C312.754 27.8672 312.771 27.7559 312.83 27.627C312.889 27.5332 312.959 27.3867 313.041 27.1875C313.135 26.9766 313.17 26.7598 313.146 26.5371C313.252 26.4551 313.352 26.3613 313.445 26.2559C313.539 26.1504 313.633 26.0566 313.727 25.9746C313.832 25.8809 313.943 25.8047 314.061 25.7461C314.189 25.6875 314.342 25.6582 314.518 25.6582C314.611 25.7871 314.682 25.9102 314.729 26.0273C314.775 26.1445 314.816 26.2559 314.852 26.3613C314.898 26.4668 314.957 26.5664 315.027 26.6602C315.098 26.7539 315.203 26.8359 315.344 26.9062ZM313.604 36.9082C313.627 37.002 313.645 37.0898 313.656 37.1719C313.668 37.2539 313.68 37.3418 313.691 37.4355C313.621 37.6816 313.545 37.9043 313.463 38.1035C313.428 38.1855 313.404 38.2383 313.393 38.2617C313.381 38.2852 313.375 38.3027 313.375 38.3145C313.375 38.3262 313.381 38.3438 313.393 38.3672C313.404 38.3789 313.41 38.4258 313.41 38.5078L313.322 38.7188C313.264 38.8008 313.193 38.8652 313.111 38.9121C313.041 38.959 312.965 39 312.883 39.0352C312.848 39.0586 312.807 39.0762 312.76 39.0879C312.725 39.1113 312.695 39.1348 312.672 39.1582L312.619 39.3691L312.373 39.4043C312.186 39.4512 312.016 39.4746 311.863 39.4746H311.67C311.529 39.3457 311.418 39.2461 311.336 39.1758C311.254 39.1055 311.16 39.041 311.055 38.9824C310.926 38.7598 310.85 38.5664 310.826 38.4023C310.803 38.25 310.773 38.1504 310.738 38.1035L310.492 37.8574L310.703 37.6992L310.492 37.3652C310.633 37.2598 310.738 37.1836 310.809 37.1367C310.879 37.0898 310.938 37.043 310.984 36.9961C311.043 36.9375 311.102 36.8672 311.16 36.7852C311.219 36.7031 311.312 36.5684 311.441 36.3809L311.6 36.1523L311.811 36.2754C311.869 36.3105 311.975 36.3457 312.127 36.3809C312.291 36.4043 312.432 36.4277 312.549 36.4512C312.736 36.5098 312.918 36.5566 313.094 36.5918C313.281 36.6152 313.428 36.6738 313.533 36.7676L313.604 36.9082Z" fill="white"/>
<path d="M133.314 19.7259C134.136 19.8286 134.886 19.2455 134.989 18.4235C135.091 17.6015 134.508 16.8518 133.686 16.749L133.314 19.7259ZM10.5858 87.2413C10.8637 88.0217 11.7217 88.429 12.5021 88.151L25.2194 83.621C25.9998 83.343 26.4071 82.485 26.1291 81.7046C25.8511 80.9242 24.9931 80.5169 24.2127 80.7949L12.9085 84.8216L8.88179 73.5174C8.60379 72.737 7.74581 72.3297 6.96542 72.6077C6.18503 72.8857 5.77774 73.7437 6.05573 74.524L10.5858 87.2413ZM133.686 16.749C91.1287 11.4294 60.3311 28.8028 40.2293 47.4505C30.1851 56.7682 22.7988 66.4122 17.9228 73.7261C15.4838 77.3846 13.6699 80.4645 12.4632 82.6351C11.8598 83.7205 11.408 84.579 11.1055 85.1693C10.9543 85.4644 10.8404 85.6925 10.7635 85.8485C10.7251 85.9265 10.6959 85.9864 10.6759 86.0277C10.666 86.0483 10.6583 86.0642 10.6529 86.0754C10.6502 86.081 10.6481 86.0855 10.6466 86.0887C10.6458 86.0903 10.6451 86.0918 10.6447 86.0926C10.6441 86.0938 10.6437 86.0947 11.9988 86.738C13.3539 87.3812 13.3537 87.3815 13.3537 87.3815C13.3539 87.3811 13.354 87.3808 13.3544 87.3801C13.3552 87.3785 13.3565 87.3757 13.3584 87.3717C13.3622 87.3638 13.3683 87.3512 13.3767 87.3338C13.3934 87.2992 13.4193 87.246 13.4544 87.1748C13.5246 87.0325 13.6315 86.8183 13.7754 86.5374C14.0633 85.9755 14.4992 85.147 15.0853 84.0928C16.2575 81.9841 18.0297 78.974 20.4189 75.3903C25.1994 68.2197 32.4384 58.7699 42.2696 49.6499C61.9184 31.4224 91.8716 14.5456 133.314 19.7259L133.686 16.749Z" fill="white"/>
</svg>
