<svg width="154" height="92" viewBox="0 0 154 92" fill="none" xmlns="http://www.w3.org/2000/svg">
<path d="M21.8969 44.8049C21.6938 44.8532 21.4361 44.8911 21.1238 44.9186C20.8242 44.944 20.5561 45.0365 20.3194 45.1964C19.635 45.2882 18.9277 45.3245 18.1976 45.3053C17.4676 45.2861 16.7897 45.2248 16.164 45.1215C16.0113 45.0026 15.8608 44.8964 15.7126 44.8031C15.5621 44.697 15.3734 44.6371 15.1464 44.6234C14.7963 44.4329 14.4951 44.181 14.2428 43.8678C13.9883 43.5418 13.7689 43.1899 13.5847 42.8121C13.4005 42.4343 13.2537 42.0434 13.1443 41.6395C13.0326 41.2227 12.9499 40.8208 12.8963 40.4337C12.989 39.823 13.1731 39.2825 13.4485 38.812C13.7346 38.3266 14.0283 37.8464 14.3294 37.3715C14.4829 37.2657 14.5915 37.1677 14.6552 37.0774C14.7295 36.972 14.806 36.8795 14.8847 36.7999C14.9741 36.7051 15.0581 36.6179 15.1368 36.5383C15.2262 36.4436 15.3005 36.3382 15.3597 36.2223C15.6181 36.1116 15.8335 35.9818 16.006 35.8331C16.1892 35.6693 16.3659 35.5067 16.5362 35.3451C16.7042 35.1707 16.8809 35.008 17.0663 34.8571C17.2516 34.7061 17.4735 34.5753 17.7318 34.4646C17.8145 34.3314 17.9209 34.2205 18.051 34.132C18.1788 34.0306 18.3077 33.9357 18.4378 33.8471C18.5785 33.7435 18.7063 33.6422 18.8213 33.543C18.9491 33.4416 19.0405 33.3201 19.0953 33.1785C19.1772 33.2701 19.2736 33.2931 19.3847 33.2475C19.4935 33.189 19.5959 33.1317 19.6919 33.0755C19.7538 33.0515 19.8074 33.0555 19.8525 33.0873C19.9105 33.117 19.9621 33.1477 20.0072 33.1795C20.0523 33.2114 20.0888 33.2315 20.1167 33.2399C20.1552 33.2332 20.1818 33.1956 20.1963 33.127C20.2605 33.116 20.2853 33.1447 20.2707 33.2133C20.2561 33.2819 20.2446 33.3301 20.2362 33.358C20.3367 33.3274 20.4245 33.3387 20.4997 33.3917C20.5856 33.4298 20.7066 33.4419 20.8628 33.4281C20.9252 33.4834 20.9469 33.5325 20.9279 33.5754C20.9067 33.6055 20.9027 33.6591 20.916 33.7361C21.3209 33.785 21.5968 33.929 21.7438 34.1678C21.8886 34.3939 21.9393 34.6494 21.896 34.9343C21.8528 35.2193 21.7356 35.4972 21.5446 35.7681C21.3535 36.0389 21.1299 36.2361 20.8738 36.3597C20.2867 36.6329 19.7351 36.9198 19.2188 37.2204C18.7132 37.506 18.3204 37.8712 18.0405 38.3159C17.7481 38.459 17.4933 38.6285 17.2761 38.8246C17.0695 39.0057 16.8738 39.2113 16.6889 39.4414C16.5147 39.6565 16.3491 39.8833 16.1921 40.1219C16.0457 40.3454 15.8865 40.5711 15.7145 40.799C15.7583 40.9764 15.7506 41.1231 15.6914 41.2391C15.6428 41.34 15.5952 41.4473 15.5488 41.561C15.6077 41.749 15.6826 41.9145 15.7733 42.0574C15.8619 42.1874 15.9568 42.3164 16.0582 42.4442C16.9493 42.5545 17.8752 42.5597 18.8358 42.4598C19.8092 42.3577 20.7781 42.2299 21.7426 42.0765C21.8546 42.1893 21.9783 42.2934 22.1137 42.3889C22.2598 42.4694 22.3952 42.5649 22.52 42.6755C22.6426 42.7733 22.7493 42.8936 22.8401 43.0364C22.9286 43.1665 22.9725 43.3439 22.9717 43.5687C22.8253 43.7922 22.6575 44.0062 22.4682 44.2107C22.2766 44.4023 22.0862 44.6004 21.8969 44.8049ZM36.201 36.3476C36.2148 36.5037 36.2531 36.6491 36.316 36.7836C36.3788 36.9181 36.4481 37.0514 36.5238 37.1837C36.6102 37.3009 36.6912 37.4257 36.7669 37.5579C36.8426 37.6902 36.9055 37.8247 36.9555 37.9614C37.0122 38.1366 37.0466 38.3355 37.0586 38.558C37.0684 38.7678 37.059 38.9808 37.0303 39.1972C36.9994 39.4007 36.947 39.5948 36.8732 39.7793C36.7972 39.951 36.6952 40.0875 36.5674 40.1889C36.4277 40.4509 36.2406 40.6682 36.0061 40.8409C35.7717 41.0135 35.5609 41.2085 35.3738 41.4258C35.2482 41.54 35.0989 41.6319 34.9259 41.7014C34.7658 41.7687 34.5992 41.8371 34.4263 41.9067C34.2984 42.008 34.146 42.1203 33.9691 42.2433C33.7899 42.3536 33.6044 42.4649 33.4124 42.5774C33.2182 42.677 33.0217 42.7638 32.8231 42.8378C32.6222 42.8989 32.4437 42.9363 32.2875 42.9501C31.927 43.1578 31.564 43.313 31.1986 43.4158C30.8482 43.5291 30.4203 43.5766 29.915 43.5582C29.4642 43.7022 29.031 43.7572 28.6156 43.7233C28.2129 43.6872 27.8388 43.5866 27.4931 43.4217C27.1581 43.2418 26.8485 43.0178 26.5644 42.7497C26.2908 42.4666 26.0536 42.1641 25.8526 41.842C25.6236 41.1284 25.535 40.4632 25.587 39.8464C25.6368 39.2167 25.7596 38.6273 25.9554 38.0782C26.1619 37.5139 26.4145 36.988 26.7135 36.5003C27.0102 35.9997 27.2963 35.5143 27.5718 35.0438C27.6532 35.0562 27.7109 35.0462 27.745 35.0139C27.7897 34.9665 27.8268 34.9139 27.8564 34.8559C27.8838 34.7851 27.9124 34.7207 27.942 34.6627C27.9844 34.6025 28.0366 34.5605 28.0986 34.5366C28.1551 34.3286 28.259 34.1653 28.4103 34.0466C28.5722 33.913 28.689 33.7474 28.7606 33.5501C28.8716 33.5045 28.9612 33.4493 29.0293 33.3847C29.0974 33.3201 29.158 33.2502 29.2111 33.1749C29.277 33.0975 29.344 33.0264 29.4121 32.9618C29.478 32.8843 29.5601 32.8239 29.6583 32.7805L29.6217 32.5688C29.8349 32.4263 29.9818 32.282 30.0623 32.1359C30.1533 31.9748 30.2593 31.7848 30.38 31.5657C30.4932 31.5329 30.5819 31.511 30.6461 31.4999C30.7231 31.4866 30.8299 31.4549 30.9666 31.4049C31.0382 31.2075 31.1048 31.0573 31.1662 30.9542C31.2405 30.8488 31.3522 30.7304 31.5013 30.599C31.6685 30.6493 31.8442 30.6718 32.0283 30.6665C32.2252 30.6589 32.4064 30.7134 32.5719 30.8302C32.6069 30.9563 32.6631 31.0523 32.7406 31.1182C32.8158 31.1713 32.8975 31.2232 32.9855 31.2741C33.0714 31.3121 33.1519 31.3576 33.2272 31.4107C33.3152 31.4616 33.3821 31.5425 33.4277 31.6535C33.4812 31.6575 33.5122 31.6456 33.5206 31.6177C33.5418 31.5876 33.5792 31.5745 33.6328 31.5785C33.7023 31.7515 33.7683 31.8656 33.8307 31.9209C33.8909 31.9633 33.961 32.0635 34.0412 32.2215C33.9992 32.3608 33.9711 32.5044 33.957 32.6522C33.9535 32.785 33.8932 32.8945 33.776 32.9808C33.7786 33.0729 33.8132 33.1197 33.8795 33.1215C33.9437 33.1104 33.9877 33.1358 34.0116 33.1978C34.0444 33.311 34.0396 33.3977 33.9971 33.4579C34.3915 33.9051 34.7594 34.3899 35.1007 34.9124C35.4398 35.422 35.8066 35.9004 36.201 36.3476ZM34.1111 38.5916C34.1381 38.4416 34.1823 38.315 34.2437 38.2119C34.318 38.1066 34.3461 37.963 34.3279 37.7812C34.246 37.6896 34.1942 37.6193 34.1725 37.5702C34.1486 37.5082 34.1255 37.4131 34.1034 37.2848C33.7524 36.9358 33.4354 36.5545 33.1525 36.1409C32.8674 35.7145 32.5622 35.3246 32.2369 34.9711C32.2201 35.0269 32.1841 35.086 32.1288 35.1484C32.0735 35.2108 32.0007 35.2102 31.9104 35.1465C31.9025 35.2536 31.8709 35.3383 31.8156 35.4007C31.7581 35.4503 31.6908 35.4817 31.6139 35.495C31.5347 35.4955 31.4479 35.4907 31.3537 35.4805C31.27 35.4553 31.1917 35.4226 31.1187 35.3824C30.7976 35.7418 30.4754 36.0947 30.1521 36.4413C29.8288 36.7879 29.5517 37.1727 29.3209 37.5958C29.274 37.6303 29.2441 37.6487 29.2313 37.6509C29.2162 37.6403 29.1789 37.6534 29.1191 37.6901C29.0586 37.9516 28.9691 38.1983 28.8506 38.4302C28.7427 38.6471 28.6359 38.8703 28.5303 39.1C28.4246 39.3297 28.3404 39.5689 28.2777 39.8176C28.2149 40.0662 28.2037 40.3457 28.2441 40.6558C28.4933 40.7978 28.7687 40.8625 29.0705 40.85C29.3722 40.8375 29.6749 40.7918 29.9784 40.7129C30.2947 40.6319 30.596 40.5402 30.8822 40.4378C31.1791 40.3205 31.4558 40.2396 31.7124 40.1953C32.2292 39.9739 32.6622 39.7273 33.0117 39.4555C33.3589 39.1708 33.7254 38.8829 34.1111 38.5916ZM45.3878 40.4884C45.0485 40.666 44.6771 40.8491 44.2736 41.0377C43.8702 41.2263 43.4567 41.3572 43.0333 41.4304C42.3918 41.5412 41.8573 41.4684 41.4298 41.2119C41.3412 41.0819 41.2668 40.9956 41.2067 40.9532C41.1593 40.9085 41.1119 40.8638 41.0646 40.8192C41.0278 40.7594 40.9942 40.6794 40.9636 40.5789C40.7786 40.4259 40.6212 40.2417 40.4915 40.0262C40.3596 39.798 40.2533 39.5653 40.1727 39.3281C40.1027 39.076 40.0519 38.8205 40.0204 38.5616C40.0018 38.3006 40.0045 38.049 40.0288 37.807C40.0456 37.7512 40.0496 37.6977 40.0407 37.6464C40.0446 37.5928 40.0475 37.5329 40.0492 37.4665C40.0651 37.2523 40.0821 37.0446 40.1001 36.8433C40.131 36.6397 40.1856 36.4585 40.2639 36.2996C40.1926 36.193 40.1704 36.0647 40.1974 35.9147C40.2243 35.7647 40.2599 35.6264 40.3041 35.4999C40.3995 34.9813 40.4761 34.5452 40.5339 34.1916C40.6024 33.823 40.6719 33.4609 40.7426 33.1051C40.8609 32.49 40.9676 31.8836 41.0625 31.2858C41.1574 30.688 41.2253 30.0486 41.2662 29.3676C41.3578 29.2857 41.427 29.2275 41.4739 29.193C41.5465 29.154 41.6073 29.1237 41.6564 29.102C41.9073 29.1776 42.1967 29.2465 42.5246 29.3088C42.8503 29.3582 43.1157 29.3652 43.321 29.3297C43.4348 29.3761 43.5078 29.4164 43.5401 29.4504C43.5702 29.4717 43.6003 29.4929 43.6304 29.5141C43.8003 29.6565 43.9522 29.8087 44.0858 29.9706C44.2173 30.1196 44.2882 30.3386 44.2985 30.6276C44.2414 30.7563 44.1937 30.8241 44.1552 30.8307C44.1354 31.0984 44.1025 31.3287 44.0565 31.5217C44.0234 31.7124 43.9839 31.9042 43.9379 32.0971C43.8814 32.3051 43.8312 32.512 43.7875 32.7177C43.7438 32.9235 43.7206 33.1719 43.7181 33.4631C43.6778 33.5361 43.6493 33.6005 43.6325 33.6563C43.6286 33.7098 43.6193 33.7709 43.6047 33.8394C43.5901 33.908 43.5703 33.9841 43.5451 34.0678C43.5305 34.1364 43.4956 34.2019 43.4403 34.2643C43.4594 34.6045 43.4418 34.8851 43.3875 35.1059C43.346 35.3245 43.298 35.5442 43.2437 35.765C43.154 36.1637 43.0772 36.5601 43.0131 36.9544C42.962 37.3464 42.9645 37.7821 43.0209 38.2612C43.0806 38.2245 43.1362 38.2017 43.1875 38.1928C43.2516 38.1817 43.3094 38.1717 43.3607 38.1629C43.4762 38.1429 43.6142 38.1389 43.7748 38.1508C44.1243 37.879 44.5202 37.685 44.9626 37.569C45.4179 37.4507 45.869 37.3463 46.3158 37.2559C46.4954 37.2248 46.6751 37.1938 46.8547 37.1628C47.0343 37.1317 47.1989 37.0901 47.3485 37.0378C47.475 37.082 47.5522 37.1083 47.5801 37.1167C47.6186 37.1101 47.6699 37.1012 47.7341 37.0901C47.8239 37.0746 47.902 37.0677 47.9684 37.0694C48.1467 37.184 48.312 37.2611 48.4642 37.3009C48.6165 37.3407 48.774 37.3729 48.9368 37.3976C49.0868 37.4246 49.2315 37.459 49.3709 37.501C49.5209 37.5279 49.6689 37.5817 49.815 37.6621L50.0927 38.4664C50.2025 38.5664 50.2543 38.6367 50.2481 38.6774C50.2658 38.7801 50.2535 38.8615 50.211 38.9217L50.2861 39.1267C50.1003 39.1985 49.9733 39.2667 49.9052 39.3313C49.8499 39.3937 49.7957 39.4625 49.7426 39.5378C49.6422 39.5683 49.5663 39.588 49.515 39.5969C49.4765 39.6036 49.438 39.6102 49.3995 39.6169C49.2199 39.6479 49.0073 39.7177 48.7618 39.8262C48.3954 39.7705 48.0262 39.7749 47.6541 39.8392C47.513 39.8636 47.3665 39.8955 47.2148 39.9349C47.063 39.9743 46.9113 40.0138 46.7595 40.0532C46.61 40.1055 46.4529 40.1524 46.2883 40.1941C46.1366 40.2335 45.9773 40.2676 45.8105 40.2965L45.3878 40.4884ZM57.867 38.3322C57.5276 38.5098 57.1563 38.6929 56.7528 38.8815C56.3493 39.0702 55.9359 39.201 55.5125 39.2742C54.871 39.3851 54.3364 39.3122 53.9089 39.0558C53.8204 38.9257 53.746 38.8395 53.6858 38.797C53.6385 38.7523 53.5911 38.7077 53.5437 38.663C53.507 38.6033 53.4733 38.5232 53.4428 38.4228C53.2578 38.2697 53.1004 38.0855 52.9707 37.8701C52.8387 37.6418 52.7325 37.4091 52.6519 37.172C52.5819 36.9198 52.5311 36.6643 52.4996 36.4054C52.4809 36.1444 52.4837 35.8929 52.508 35.6508C52.5247 35.5951 52.5287 35.5415 52.5198 35.4902C52.5238 35.4367 52.5267 35.3767 52.5284 35.3103C52.5443 35.0962 52.5612 34.8884 52.5793 34.6871C52.6102 34.4836 52.6648 34.3023 52.743 34.1435C52.6718 34.0369 52.6496 33.9086 52.6765 33.7586C52.7035 33.6085 52.739 33.4703 52.7832 33.3437C52.8786 32.8251 52.9552 32.389 53.0131 32.0355C53.0815 31.6669 53.1511 31.3047 53.2217 30.9489C53.3401 30.3339 53.4467 29.7274 53.5417 29.1296C53.6366 28.5318 53.7045 27.8924 53.7454 27.2114C53.837 27.1296 53.9062 27.0713 53.9531 27.0368C54.0256 26.9979 54.0864 26.9675 54.1356 26.9458C54.3865 27.0214 54.6759 27.0903 55.0037 27.1526C55.3294 27.202 55.5949 27.209 55.8002 27.1735C55.9139 27.22 55.9869 27.2602 56.0193 27.2943C56.0493 27.3155 56.0794 27.3367 56.1095 27.3579C56.2795 27.5004 56.4313 27.6525 56.565 27.8144C56.6965 27.9635 56.7673 28.1825 56.7776 28.4714C56.7206 28.6002 56.6728 28.6679 56.6343 28.6745C56.6145 28.9422 56.5816 29.1725 56.5357 29.3655C56.5026 29.5562 56.463 29.748 56.4171 29.9409C56.3605 30.1489 56.3104 30.3558 56.2667 30.5616C56.2229 30.7673 56.1998 31.0158 56.1972 31.3069C56.157 31.3799 56.1285 31.4443 56.1117 31.5001C56.1077 31.5536 56.0984 31.6147 56.0839 31.6833C56.0693 31.7519 56.0494 31.828 56.0242 31.9116C56.0096 31.9802 55.9747 32.0457 55.9194 32.1081C55.9386 32.4484 55.921 32.7289 55.8666 32.9497C55.8251 33.1683 55.7772 33.388 55.7228 33.6088C55.6332 34.0075 55.5563 34.404 55.4923 34.7982C55.4411 35.1903 55.4437 35.6259 55.5001 36.105C55.5598 36.0683 55.6153 36.0455 55.6666 36.0366C55.7308 36.0255 55.7885 36.0156 55.8398 36.0067C55.9553 35.9867 56.0934 35.9827 56.254 35.9946C56.6034 35.7228 56.9994 35.5289 57.4418 35.4128C57.8971 35.2945 58.3481 35.1901 58.795 35.0997C58.9746 35.0687 59.1542 35.0376 59.3339 35.0066C59.5135 34.9755 59.6781 34.9339 59.8276 34.8816C59.9542 34.9258 60.0314 34.9521 60.0593 34.9605C60.0978 34.9539 60.1491 34.945 60.2132 34.9339C60.3031 34.9184 60.3812 34.9115 60.4475 34.9133C60.6259 35.0278 60.7912 35.105 60.9434 35.1447C61.0956 35.1845 61.2531 35.2167 61.416 35.2415C61.566 35.2684 61.7107 35.3028 61.8501 35.3448C62.0001 35.3718 62.1481 35.4255 62.2941 35.506L62.5719 36.3103C62.6816 36.4102 62.7334 36.4805 62.7272 36.5213C62.745 36.6239 62.7326 36.7053 62.6902 36.7655L62.7652 36.9706C62.5794 37.0423 62.4525 37.1105 62.3843 37.1751C62.3291 37.2375 62.2749 37.3064 62.2218 37.3816C62.1214 37.4122 62.0455 37.4319 61.9942 37.4407C61.9557 37.4474 61.9172 37.454 61.8787 37.4607C61.6991 37.4917 61.4865 37.5615 61.241 37.67C60.8746 37.6144 60.5053 37.6187 60.1333 37.683C59.9921 37.7074 59.8457 37.7393 59.6939 37.7787C59.5422 37.8182 59.3904 37.8576 59.2387 37.897C59.0891 37.9493 58.9321 37.9962 58.7675 38.0379C58.6157 38.0773 58.4565 38.1115 58.2897 38.1403L57.867 38.3322ZM74.1689 24.5746C74.1972 24.6622 74.2094 24.7327 74.2054 24.7863C74.2121 24.8248 74.2123 24.8644 74.2061 24.9051C74.2128 24.9436 74.2205 24.9885 74.2294 25.0398C74.2361 25.0783 74.26 25.1402 74.3012 25.2256C74.1071 25.7084 73.8448 26.0642 73.5144 26.2931C73.1946 26.5069 72.836 26.6878 72.4387 26.8357C72.0392 26.9708 71.628 27.1146 71.2051 27.2669C70.795 27.4171 70.4004 27.657 70.0213 27.9868C69.8434 27.9515 69.6894 27.9781 69.5594 28.0666C69.4422 28.1529 69.253 28.2054 68.992 28.2241C68.9283 28.3144 68.842 28.3888 68.7332 28.4472C68.6222 28.4928 68.5122 28.5448 68.4034 28.6033C68.4747 28.7099 68.515 28.8285 68.5243 28.959C68.5443 29.0745 68.5802 29.1674 68.632 29.2377C69.0877 29.1986 69.5806 29.1068 70.1106 28.9624C70.6534 28.8158 71.1868 28.6906 71.7106 28.5868C71.7345 28.6488 71.7359 28.6948 71.7147 28.7249C71.6912 28.7422 71.6903 28.7753 71.712 28.8244C71.8129 28.8731 71.9172 28.941 72.0247 29.0281C72.13 29.1024 72.2354 29.1767 72.3407 29.251C72.446 29.3253 72.5492 29.3867 72.6501 29.4354C72.7616 29.469 72.8804 29.4683 73.0065 29.4333C73.0755 29.527 73.1275 29.637 73.1625 29.7631C73.2082 29.8741 73.2164 29.9982 73.1872 30.1354C73.0063 30.312 72.8265 30.495 72.6478 30.6845C72.4669 30.8611 72.271 31.0271 72.06 31.1824C71.8618 31.3356 71.6411 31.4729 71.3978 31.5942C71.1651 31.7005 70.8936 31.7738 70.5835 31.8142C70.5193 31.8252 70.468 31.8341 70.4295 31.8408C70.4039 31.8452 70.362 31.8326 70.3041 31.803C70.2125 31.8849 70.0683 31.9296 69.8714 31.9372C69.6873 31.9426 69.5495 31.9862 69.4579 32.0681C69.3057 32.0283 69.1281 32.0326 68.925 32.0809C68.7325 32.1141 68.5549 32.1184 68.3921 32.0937C68.2333 32.3986 68.0971 32.7194 67.9836 33.0562C67.87 33.393 67.7789 33.7456 67.7105 34.1142C68.1578 34.103 68.5215 34.0666 68.8016 34.005C69.0945 33.9412 69.367 33.8743 69.6192 33.8043C69.8691 33.7214 70.1266 33.6439 70.3916 33.5717C70.6544 33.4866 70.9922 33.4151 71.405 33.357C71.6373 33.1715 71.9233 33.0296 72.263 32.9312C72.6134 32.8178 72.9273 32.6843 73.2047 32.5307C73.314 32.5514 73.416 32.6065 73.5107 32.6958C73.6032 32.7723 73.6893 32.85 73.769 32.9287C73.8593 32.9924 73.9484 33.0496 74.0365 33.1005C74.1246 33.1513 74.2252 33.1604 74.3385 33.1276C74.3987 33.1701 74.4419 33.2287 74.468 33.3034C74.5047 33.3632 74.5351 33.424 74.559 33.4859C74.5829 33.5479 74.6121 33.6023 74.6466 33.6492C74.6918 33.681 74.7517 33.6838 74.8265 33.6577C74.7072 34.1144 74.5392 34.4804 74.3225 34.7557C74.1164 35.0159 73.8629 35.2315 73.5621 35.4024C73.2613 35.5733 72.9176 35.7252 72.5309 35.858C72.1571 35.9887 71.7405 36.1399 71.2813 36.3118C71.1703 36.3574 71.0729 36.3676 70.9893 36.3424C70.9079 36.3301 70.8158 36.3328 70.7132 36.3505C70.4292 36.4656 70.0863 36.5843 69.6846 36.7066C69.2829 36.8289 68.8692 36.9202 68.4436 36.9805C68.0179 37.0408 67.6038 37.0529 67.2011 37.0168C66.8007 36.9935 66.4575 36.881 66.1716 36.6793C66.0535 36.6072 65.9652 36.5168 65.9067 36.408C65.8589 36.2841 65.7589 36.2023 65.6066 36.1625C65.565 35.9979 65.5072 35.8163 65.4332 35.6177C65.3593 35.419 65.2842 35.214 65.208 35.0025C65.1296 34.7782 65.0587 34.5592 64.9954 34.3455C64.9449 34.1296 64.9233 33.9285 64.9308 33.7422C64.936 33.5431 64.9831 33.3566 65.072 33.1827C65.1737 33.0065 65.1897 32.832 65.1202 32.659C65.1822 32.6351 65.2151 32.5964 65.2191 32.5428C65.2208 32.4764 65.2677 32.4419 65.3597 32.4392C65.3968 32.195 65.4425 31.9624 65.4969 31.7416C65.5512 31.5208 65.6067 31.3064 65.6632 31.0985C65.7326 30.8883 65.7956 30.6792 65.8522 30.4712C65.9193 30.2482 65.9768 30.007 66.0245 29.7477C65.816 29.6119 65.6503 29.4556 65.5272 29.2786C65.4147 29.0866 65.3226 28.8977 65.2509 28.7119C65.1769 28.5133 65.1094 28.3135 65.0482 28.1127C64.9849 27.899 64.9023 27.6886 64.8005 27.4816C64.8955 27.267 65.0229 27.0864 65.1826 26.9399C65.3528 26.7783 65.5404 26.6402 65.7452 26.5255C65.95 26.4109 66.1763 26.3057 66.4241 26.21C66.6718 26.1144 66.9313 26.0101 67.2025 25.8972C67.6869 25.6417 68.1202 25.4347 68.5024 25.2761C68.8975 25.1154 69.2831 24.9761 69.6591 24.8583C70.0458 24.7254 70.4464 24.5967 70.8609 24.4722C71.2755 24.3477 71.7433 24.1876 72.2645 23.9919C72.3999 24.0874 72.519 24.1263 72.6216 24.1085C72.653 23.9842 72.7052 23.9421 72.7782 23.9824C72.8618 24.0076 72.8873 23.9635 72.8545 23.8503C73.0205 24.0462 73.213 24.2046 73.4321 24.3253C73.6617 24.4309 73.9073 24.514 74.1689 24.5746ZM85.3705 33.8378C85.1674 33.8861 84.9097 33.924 84.5973 33.9516C84.2978 33.9769 84.0297 34.0695 83.793 34.2293C83.1086 34.3211 82.4013 34.3574 81.6712 34.3382C80.9411 34.319 80.2633 34.2577 79.6376 34.1544C79.4849 34.0355 79.3344 33.9293 79.1861 33.836C79.0357 33.7299 78.8469 33.67 78.6199 33.6564C78.2699 33.4658 77.9687 33.2139 77.7164 32.9007C77.4618 32.5747 77.2425 32.2228 77.0583 31.845C76.8741 31.4672 76.7273 31.0764 76.6178 30.6724C76.5062 30.2557 76.4235 29.8537 76.3698 29.4666C76.4625 28.8559 76.6466 28.3154 76.9221 27.845C77.2082 27.3595 77.5018 26.8793 77.803 26.4044C77.9565 26.2986 78.0651 26.2006 78.1288 26.1103C78.2031 26.0049 78.2796 25.9124 78.3583 25.8328C78.4476 25.7381 78.5317 25.6509 78.6104 25.5712C78.6998 25.4765 78.7741 25.3711 78.8333 25.2552C79.0917 25.1445 79.3071 25.0148 79.4796 24.866C79.6627 24.7022 79.8394 24.5396 80.0097 24.378C80.1778 24.2036 80.3545 24.041 80.5399 23.89C80.7252 23.7391 80.947 23.6082 81.2054 23.4975C81.2881 23.3643 81.3945 23.2534 81.5245 23.1649C81.6524 23.0635 81.7813 22.9686 81.9114 22.88C82.052 22.7764 82.1799 22.6751 82.2949 22.5759C82.4227 22.4746 82.514 22.3531 82.5688 22.2115C82.6507 22.303 82.7472 22.326 82.8582 22.2804C82.9671 22.2219 83.0695 22.1646 83.1655 22.1084C83.2274 22.0845 83.2809 22.0884 83.3261 22.1203C83.3841 22.1499 83.4356 22.1806 83.4808 22.2125C83.5259 22.2443 83.5624 22.2644 83.5903 22.2728C83.6288 22.2662 83.6553 22.2285 83.6699 22.16C83.7341 22.1489 83.7588 22.1776 83.7443 22.2462C83.7297 22.3148 83.7182 22.363 83.7098 22.3909C83.8102 22.3603 83.8981 22.3716 83.9733 22.4247C84.0592 22.4627 84.1802 22.4748 84.3364 22.461C84.3988 22.5163 84.4205 22.5654 84.4015 22.6084C84.3802 22.6384 84.3763 22.692 84.3896 22.769C84.7944 22.8179 85.0704 22.9619 85.2174 23.2007C85.3621 23.4268 85.4129 23.6823 85.3696 23.9673C85.3264 24.2522 85.2092 24.5301 85.0182 24.801C84.8271 25.0719 84.6035 25.269 84.3474 25.3926C83.7603 25.6658 83.2087 25.9527 82.6924 26.2533C82.1868 26.5389 81.794 26.9041 81.5141 27.3489C81.2217 27.4919 80.9669 27.6614 80.7497 27.8575C80.5431 28.0386 80.3474 28.2442 80.1625 28.4743C79.9883 28.6894 79.8226 28.9162 79.6657 29.1548C79.5193 29.3783 79.3601 29.604 79.188 29.8319C79.2319 30.0093 79.2242 30.156 79.165 30.272C79.1163 30.3729 79.0688 30.4802 79.0224 30.5939C79.0813 30.7819 79.1561 30.9474 79.2469 31.0903C79.3354 31.2203 79.4304 31.3493 79.5318 31.4771C80.4229 31.5874 81.3488 31.5926 82.3093 31.4927C83.2827 31.3906 84.2517 31.2628 85.2162 31.1094C85.3282 31.2222 85.4519 31.3263 85.5873 31.4219C85.7334 31.5023 85.8688 31.5979 85.9936 31.7084C86.1162 31.8062 86.2229 31.9265 86.3136 32.0694C86.4022 32.1994 86.446 32.3768 86.4452 32.6016C86.2989 32.8251 86.131 33.0391 85.9417 33.2436C85.7502 33.4352 85.5598 33.6333 85.3705 33.8378ZM98.8032 21.9435C98.4825 21.9989 98.1405 22.0844 97.7772 22.2C97.4118 22.3028 97.0539 22.4109 96.7035 22.5243C96.4535 22.6071 96.2089 22.6824 95.9695 22.7502C95.743 22.8158 95.5346 22.8716 95.3444 22.9177C95.3033 23.2155 95.2567 23.4812 95.2046 23.7149C95.1525 23.9485 95.0928 24.1768 95.0257 24.3999C94.9607 24.6357 94.9033 24.8769 94.8534 25.1234C94.8141 25.3548 94.7781 25.6054 94.7454 25.8754C94.6526 26.1028 94.5768 26.3141 94.518 26.5093C94.4699 26.6894 94.439 26.8929 94.4253 27.1199C94.3046 27.339 94.2246 27.5642 94.1853 27.7956C94.1438 28.0142 94.1171 28.2038 94.1052 28.3645L94.0681 28.6087C94.0044 28.699 93.9706 28.7709 93.9667 28.8245C93.9605 28.8652 93.935 28.9092 93.8904 28.9566C93.9019 29.0999 93.8814 29.2488 93.8288 29.4033C93.8142 29.4718 93.8061 29.5393 93.8043 29.6057C93.8004 29.6592 93.8006 29.6988 93.805 29.7245C93.8272 29.8528 93.8095 29.9417 93.752 29.9913C93.7759 30.0533 93.7881 30.1238 93.7886 30.203C93.7869 30.2694 93.7851 30.3358 93.7834 30.4021C93.7715 30.5628 93.7797 30.6869 93.8081 30.7745C93.8554 30.8191 93.8953 30.8585 93.9276 30.8926C93.9727 30.9244 94.0072 30.9713 94.0312 31.0332C94.117 31.0712 94.1803 31.0933 94.221 31.0995C94.279 31.1291 94.3637 31.1608 94.4752 31.1943L94.6817 31.3569C94.8101 31.7179 94.8034 32.023 94.6615 32.2721C94.5111 32.5492 94.205 32.7276 93.7431 32.8074L93.5121 32.8473C93.4369 32.7942 93.3895 32.7496 93.3701 32.7133C93.2608 32.6925 93.1718 32.6749 93.1032 32.6603C93.0346 32.6457 92.968 32.6044 92.9034 32.5362C92.7233 32.4881 92.5775 32.4472 92.466 32.4136L92.2761 32.3473C92.2518 32.2062 92.2385 32.1292 92.2362 32.1164C92.1265 32.0164 92.0337 31.9003 91.958 31.768C91.8951 31.6335 91.8387 31.4979 91.7886 31.3612C91.743 31.2502 91.6921 31.1467 91.6359 31.0507C91.5925 30.9525 91.5385 30.8693 91.4738 30.8012C91.3196 30.0614 91.2815 29.4205 91.3597 28.8785C91.4378 28.3364 91.5256 27.8125 91.6233 27.3068C91.6816 27.0324 91.7399 26.7581 91.7982 26.4837C91.8543 26.1965 91.8964 25.9051 91.9246 25.6096L92.0646 25.3872C92.1189 25.1664 92.1607 24.9874 92.1898 24.8502C92.2296 24.698 92.2694 24.5458 92.3091 24.3935C92.3321 24.2971 92.3498 24.2081 92.3621 24.1267C92.3851 24.0302 92.4039 23.9477 92.4185 23.8791C92.3415 23.8924 92.272 23.911 92.2101 23.935C92.1459 23.946 92.0829 23.9635 92.0209 23.9875C91.9462 24.0136 91.8778 24.0386 91.8159 24.0625C91.7517 24.0736 91.6876 24.0847 91.6234 24.0958C91.5336 24.1113 91.4684 24.116 91.4276 24.1098C91.2976 24.1983 91.1492 24.257 90.9824 24.2858L90.7899 24.3191C90.7514 24.3257 90.7129 24.3324 90.6744 24.339C90.6466 24.3306 90.6198 24.3287 90.5941 24.3331C90.4658 24.3553 90.3665 24.3922 90.2962 24.444C90.1422 24.4706 89.9946 24.4961 89.8535 24.5205L89.661 24.5538C89.6354 24.5582 89.6044 24.5702 89.5681 24.5896C89.5296 24.5963 89.4976 24.6018 89.4719 24.6063C89.3821 24.6218 89.2847 24.632 89.1799 24.6369C89.0728 24.629 88.956 24.6029 88.8294 24.5587C88.64 24.38 88.5185 24.2887 88.465 24.2847L88.2518 24.0837C88.2257 24.0089 88.1943 23.9417 88.1575 23.882C88.1186 23.8094 88.0785 23.7305 88.0373 23.6451C87.9638 23.5256 87.8892 23.3998 87.8135 23.2675C87.7484 23.1202 87.6981 22.9439 87.6627 22.7386C87.6578 22.6337 87.6701 22.5523 87.6997 22.4943C87.7294 22.4364 87.7537 22.3859 87.7727 22.343L87.7805 22.0443L88.0341 22.0203L88.573 21.9272C88.9835 21.8563 89.3983 21.7714 89.8173 21.6726C90.2341 21.5609 90.6637 21.4471 91.1061 21.331C91.3583 21.261 91.6104 21.191 91.8626 21.121C92.1276 21.0488 92.3991 20.9754 92.6769 20.901C92.7083 20.7767 92.7408 20.6587 92.7743 20.5472L92.9502 20.4177C93.1789 20.365 93.3448 20.3694 93.448 20.4308C93.5617 20.4773 93.6562 20.527 93.7314 20.5801C94.0093 20.5056 94.2871 20.4312 94.5649 20.3568C94.8534 20.2673 95.1407 20.1714 95.427 20.0691C95.8521 19.9296 96.2784 19.7964 96.7058 19.6697C97.146 19.5408 97.5714 19.4409 97.982 19.37C98.1616 19.3389 98.3359 19.3154 98.5049 19.2994C98.674 19.2834 98.8312 19.2761 98.9768 19.2773L99.1926 19.3788C99.2444 19.4491 99.3079 19.5109 99.3831 19.5639C99.4712 19.6148 99.5592 19.6656 99.6473 19.7165C99.8257 19.831 100.008 19.9712 100.196 20.1371C100.383 20.3029 100.489 20.5752 100.515 20.954C100.439 21.1257 100.378 21.2288 100.331 21.2633L100.198 21.5242L100.002 21.5382C99.9247 21.5515 99.8564 21.5765 99.7967 21.6133C99.7347 21.6372 99.6739 21.6675 99.6142 21.7043C99.5673 21.7388 99.5204 21.7733 99.4735 21.8079C99.4244 21.8296 99.3689 21.8524 99.3069 21.8763C99.1915 21.8962 99.0952 21.9129 99.0183 21.9262C98.9519 21.9244 98.8802 21.9302 98.8032 21.9435ZM104.72 29.0675C104.85 29.4413 104.877 29.7473 104.799 29.9854C104.734 30.2212 104.608 30.4082 104.42 30.5463C104.248 30.6951 104.034 30.798 103.78 30.8552C103.526 30.9124 103.28 30.9416 103.042 30.9431C102.883 30.7856 102.728 30.581 102.579 30.3293C102.43 30.0776 102.286 29.8184 102.147 29.5516C102.007 29.272 101.873 28.9977 101.748 28.7288C101.635 28.4576 101.534 28.2173 101.445 28.0081C101.482 27.843 101.491 27.6632 101.47 27.4685C101.461 27.2588 101.438 27.0513 101.402 26.846C101.38 26.6385 101.351 26.4321 101.315 26.2268C101.29 26.0064 101.274 25.7978 101.267 25.6009C101.263 25.0465 101.303 24.5111 101.385 23.9947C101.481 23.4761 101.534 22.9449 101.546 22.4011C101.552 22.2812 101.52 22.1744 101.451 22.0806C101.395 21.9846 101.372 21.8895 101.382 21.7952C101.386 21.7417 101.419 21.703 101.481 21.679C101.541 21.6423 101.571 21.5907 101.573 21.5244C101.587 21.3766 101.574 21.26 101.532 21.1746C101.504 21.087 101.511 20.9735 101.553 20.8341C101.599 20.7204 101.651 20.5595 101.707 20.3516C101.775 20.1285 101.776 19.9102 101.713 19.6965C101.815 19.5996 101.909 19.4909 101.994 19.3705C102.079 19.2501 102.166 19.1426 102.255 19.0479C102.355 18.9381 102.464 18.8401 102.581 18.7537C102.711 18.6652 102.872 18.6043 103.065 18.571C103.19 18.6816 103.278 18.8117 103.33 18.9612C103.395 19.1085 103.454 19.2569 103.506 19.4065C103.571 19.5538 103.648 19.6925 103.737 19.8225C103.823 19.9398 103.95 20.0236 104.117 20.0739C104.135 20.1766 104.157 20.3049 104.184 20.4589C104.21 20.6128 104.243 20.7657 104.283 20.9174C104.32 21.0564 104.369 21.1867 104.43 21.3083C104.501 21.4149 104.591 21.4786 104.7 21.4994C104.576 22.1551 104.463 22.8023 104.362 23.4408C104.274 24.0771 104.219 24.7143 104.197 25.3523C104.173 25.9775 104.195 26.6014 104.262 27.2239C104.343 27.8442 104.496 28.4588 104.72 29.0675ZM118.994 22.0425C119.008 22.1986 119.046 22.344 119.109 22.4785C119.172 22.613 119.241 22.7463 119.317 22.8786C119.403 22.9958 119.484 23.1206 119.56 23.2528C119.635 23.3851 119.698 23.5196 119.748 23.6563C119.805 23.8315 119.839 24.0304 119.851 24.2529C119.861 24.4627 119.852 24.6757 119.823 24.8921C119.792 25.0956 119.74 25.2897 119.666 25.4742C119.59 25.6459 119.488 25.7824 119.36 25.8838C119.22 26.1458 119.033 26.3631 118.799 26.5358C118.564 26.7084 118.354 26.9034 118.167 27.1207C118.041 27.2349 117.892 27.3268 117.719 27.3963C117.559 27.4636 117.392 27.532 117.219 27.6016C117.091 27.7029 116.939 27.8152 116.762 27.9382C116.583 28.0485 116.397 28.1598 116.205 28.2723C116.011 28.3719 115.815 28.4587 115.616 28.5327C115.415 28.5938 115.236 28.6312 115.08 28.645C114.72 28.8527 114.357 29.0079 113.991 29.1107C113.641 29.224 113.213 29.2715 112.708 29.2531C112.257 29.3971 111.824 29.4521 111.408 29.4182C111.006 29.3821 110.632 29.2815 110.286 29.1166C109.951 28.9367 109.641 28.7127 109.357 28.4446C109.084 28.1615 108.846 27.859 108.645 27.5369C108.416 26.8233 108.328 26.1581 108.38 25.5413C108.43 24.9116 108.552 24.3222 108.748 23.7731C108.955 23.2089 109.207 22.6829 109.506 22.1952C109.803 21.6947 110.089 21.2092 110.365 20.7387C110.446 20.7511 110.504 20.7411 110.538 20.7088C110.582 20.6614 110.62 20.6088 110.649 20.5508C110.677 20.48 110.705 20.4156 110.735 20.3576C110.777 20.2974 110.829 20.2554 110.891 20.2315C110.948 20.0235 111.052 19.8602 111.203 19.7415C111.365 19.6079 111.482 19.4423 111.553 19.245C111.664 19.1994 111.754 19.1442 111.822 19.0796C111.89 19.015 111.951 18.9451 112.004 18.8698C112.07 18.7924 112.137 18.7213 112.205 18.6567C112.271 18.5793 112.353 18.5188 112.451 18.4754L112.415 18.2637C112.628 18.1212 112.775 17.9769 112.855 17.8308C112.946 17.6697 113.052 17.4797 113.173 17.2606C113.286 17.2278 113.375 17.2059 113.439 17.1948C113.516 17.1815 113.623 17.1498 113.759 17.0998C113.831 16.9024 113.898 16.7522 113.959 16.6491C114.033 16.5437 114.145 16.4253 114.294 16.2939C114.461 16.3442 114.637 16.3667 114.821 16.3614C115.018 16.3538 115.199 16.4084 115.365 16.5251C115.4 16.6512 115.456 16.7472 115.533 16.8131C115.609 16.8662 115.69 16.9181 115.778 16.969C115.864 17.007 115.945 17.0525 116.02 17.1056C116.108 17.1565 116.175 17.2374 116.22 17.3484C116.274 17.3524 116.305 17.3405 116.313 17.3126C116.335 17.2825 116.372 17.2694 116.426 17.2734C116.495 17.4464 116.561 17.5605 116.623 17.6158C116.684 17.6582 116.754 17.7584 116.834 17.9164C116.792 18.0557 116.764 18.1993 116.75 18.3471C116.746 18.4799 116.686 18.5894 116.569 18.6757C116.571 18.7678 116.606 18.8146 116.672 18.8164C116.736 18.8053 116.781 18.8307 116.804 18.8927C116.837 19.0059 116.832 19.0926 116.79 19.1528C117.184 19.6 117.552 20.0848 117.894 20.6073C118.233 21.1169 118.599 21.5953 118.994 22.0425ZM116.904 24.2865C116.931 24.1365 116.975 24.0099 117.037 23.9068C117.111 23.8015 117.139 23.6579 117.121 23.4761C117.039 23.3845 116.987 23.3142 116.965 23.2651C116.941 23.2031 116.918 23.108 116.896 22.9797C116.545 22.6307 116.228 22.2494 115.945 21.8358C115.66 21.4094 115.355 21.0195 115.03 20.666C115.013 20.7218 114.977 20.7809 114.922 20.8433C114.866 20.9057 114.793 20.9051 114.703 20.8414C114.695 20.9485 114.664 21.0332 114.608 21.0956C114.551 21.1452 114.484 21.1766 114.407 21.1899C114.327 21.1904 114.241 21.1856 114.146 21.1754C114.063 21.1502 113.985 21.1175 113.911 21.0773C113.59 21.4367 113.268 21.7896 112.945 22.1362C112.622 22.4828 112.344 22.8676 112.114 23.2907C112.067 23.3252 112.037 23.3436 112.024 23.3458C112.009 23.3352 111.972 23.3483 111.912 23.385C111.851 23.6465 111.762 23.8932 111.643 24.1251C111.536 24.342 111.429 24.5652 111.323 24.7949C111.217 25.0246 111.133 25.2638 111.07 25.5125C111.008 25.7611 110.997 26.0406 111.037 26.3507C111.286 26.4927 111.562 26.5574 111.863 26.5449C112.165 26.5324 112.468 26.4867 112.771 26.4078C113.088 26.3268 113.389 26.2351 113.675 26.1327C113.972 26.0154 114.249 25.9345 114.505 25.8902C115.022 25.6688 115.455 25.4222 115.804 25.1504C116.152 24.8657 116.518 24.5778 116.904 24.2865ZM126.476 23.0884C126.365 23.134 126.294 23.219 126.263 23.3434C126.229 23.4549 126.197 23.5728 126.165 23.6972C126.147 23.8193 126.121 23.9361 126.087 24.0476C126.064 24.1441 126.008 24.2001 125.918 24.2156C125.923 24.3205 125.9 24.4169 125.849 24.505C125.811 24.5908 125.774 24.6831 125.738 24.7818C125.7 24.8676 125.677 24.9641 125.669 25.0712C125.659 25.1654 125.691 25.2723 125.764 25.3917C125.675 25.4864 125.63 25.6066 125.629 25.7522C125.627 25.8977 125.618 26.038 125.602 26.173C125.599 26.3057 125.566 26.4236 125.505 26.5267C125.443 26.6299 125.309 26.6927 125.101 26.7154C125.072 26.7733 125.071 26.8065 125.099 26.8149C125.126 26.8233 125.153 26.8649 125.18 26.9397C125.034 26.9384 124.926 26.9637 124.856 27.0155C124.8 27.0779 124.723 27.1243 124.622 27.1549C124.365 27.1201 124.137 27.0208 123.936 26.8572C123.749 26.6913 123.572 26.504 123.403 26.2952C123.246 26.0714 123.095 25.8464 122.95 25.6204C122.818 25.3921 122.691 25.1959 122.571 25.0318C122.585 24.884 122.568 24.7482 122.52 24.6243C122.47 24.4876 122.405 24.3799 122.325 24.3012C122.724 22.8581 123.164 21.3153 123.647 19.6727C124.129 18.0301 124.577 16.4134 124.989 14.8226C125.304 14.8871 125.616 14.9719 125.925 15.0771C126.244 15.1673 126.536 15.2886 126.8 15.4412C127.077 15.5915 127.321 15.7806 127.532 16.0084C127.741 16.2233 127.898 16.4804 128.003 16.7794C127.99 16.8608 127.964 16.8985 127.923 16.8923C127.893 16.8711 127.868 16.8819 127.849 16.9248C127.912 16.9801 127.945 17.0206 127.95 17.0463C127.967 17.0697 127.971 17.0954 127.963 17.1232C127.967 17.1489 127.974 17.1874 127.983 17.2387C127.99 17.2772 128.019 17.3316 128.071 17.402C128.017 17.398 127.98 17.4111 127.958 17.4412C127.95 17.469 127.912 17.4757 127.843 17.4611C127.919 17.5934 127.951 17.7066 127.941 17.8009C127.944 17.8929 127.933 17.9807 127.908 18.0644C127.88 18.1352 127.861 18.2177 127.851 18.312C127.839 18.3934 127.863 18.4949 127.924 18.6166C127.885 18.6232 127.855 18.6416 127.834 18.6717C127.823 18.6867 127.814 18.7082 127.806 18.7361C127.795 18.7511 127.779 18.7737 127.758 18.8038C127.747 18.8188 127.722 18.8233 127.681 18.8171C127.768 19.0927 127.83 19.3728 127.866 19.6573C127.902 19.9418 127.939 20.2327 127.977 20.53C128.026 20.8123 128.084 21.1127 128.152 21.4312C128.218 21.737 128.319 22.05 128.453 22.3703C128.869 22.021 129.174 21.6114 129.371 21.1414C129.58 20.6692 129.722 20.1557 129.798 19.6008C129.887 19.0437 129.924 18.4559 129.91 17.8373C129.895 17.2188 129.885 16.5863 129.879 15.9398C129.975 15.8044 130.04 15.6478 130.076 15.4699C130.111 15.292 130.139 15.1088 130.159 14.9203C130.177 14.719 130.196 14.5241 130.217 14.3356C130.235 14.1342 130.269 13.9499 130.319 13.7827C130.516 13.7751 130.688 13.8115 130.834 13.892C130.99 13.9574 131.136 14.0379 131.272 14.1334C131.405 14.2161 131.545 14.2977 131.691 14.3782C131.834 14.4458 132.005 14.4758 132.202 14.4683C132.393 14.6598 132.571 14.8471 132.735 15.0302C132.899 15.2133 133.02 15.4171 133.098 15.6414C133.052 15.7551 133.02 15.8794 133.004 16.0144C133.001 16.1471 132.991 16.281 132.974 16.4159C132.958 16.5509 132.928 16.6817 132.884 16.8082C132.837 16.9219 132.763 17.0273 132.661 17.1242C132.68 17.4645 132.682 17.7813 132.666 18.0746C132.662 18.3529 132.65 18.6324 132.633 18.9129C132.628 19.1912 132.632 19.4812 132.644 19.783C132.655 20.0719 132.696 20.3885 132.769 20.7327C132.717 21.0455 132.662 21.3787 132.605 21.7323C132.547 22.0858 132.509 22.4029 132.491 22.6834C132.315 22.8857 132.189 23.1123 132.113 23.3632C132.038 23.6141 131.956 23.8661 131.867 24.1192C131.825 24.1794 131.795 24.1978 131.778 24.1743C131.761 24.1509 131.712 24.1394 131.633 24.1399C131.655 24.189 131.661 24.2275 131.653 24.2554C131.645 24.2832 131.63 24.3122 131.609 24.3423C131.598 24.3574 131.59 24.3852 131.583 24.4259C131.59 24.4644 131.612 24.5135 131.648 24.5733C131.482 24.6813 131.341 24.8181 131.224 24.9836C131.107 25.1491 130.975 25.304 130.828 25.4483C130.694 25.5904 130.515 25.7006 130.291 25.779C130.08 25.8552 129.783 25.8602 129.402 25.7939C128.809 25.4999 128.264 25.1382 127.767 24.7087C127.283 24.277 126.853 23.737 126.476 23.0884ZM135.043 16.2964C135.086 16.0114 135.187 15.7561 135.346 15.5304C135.518 15.3024 135.709 15.1044 135.918 14.9362C136.137 14.7529 136.367 14.5942 136.608 14.46C136.85 14.3259 137.08 14.2068 137.3 14.1027C137.775 13.7959 138.285 13.4964 138.829 13.2042C139.384 12.8969 139.95 12.6142 140.526 12.356C141.115 12.0957 141.728 11.8908 142.362 11.7415C142.995 11.5793 143.682 11.5399 144.423 11.6233C144.484 11.7449 144.563 11.8568 144.66 11.959C144.756 12.0612 144.853 12.1633 144.95 12.2655C145.06 12.3655 145.157 12.4677 145.241 12.572C145.323 12.6636 145.38 12.766 145.413 12.8793C145.561 12.9726 145.686 13.0832 145.788 13.211C145.887 13.326 145.93 13.497 145.916 13.724C145.805 13.8488 145.694 13.9672 145.581 14.0792C145.479 14.1761 145.363 14.2689 145.232 14.3574C144.738 14.324 144.25 14.3686 143.769 14.4913C143.288 14.6141 142.857 14.7215 142.477 14.8137C142.342 14.7182 142.19 14.6848 142.024 14.7136C141.87 14.7402 141.707 14.7947 141.537 14.8771C141.379 14.9572 141.214 15.0385 141.044 15.1208C140.886 15.201 140.727 15.2415 140.569 15.2425C140.458 15.3673 140.31 15.4655 140.124 15.5373C139.949 15.594 139.755 15.654 139.541 15.7174C139.539 15.7837 139.56 15.8264 139.603 15.8454C139.644 15.8516 139.657 15.889 139.642 15.9576C139.735 16.0341 139.842 16.0816 139.964 16.1002C140.099 16.1165 140.234 16.1328 140.369 16.1491C140.517 16.1632 140.647 16.1935 140.761 16.2399C140.873 16.2735 140.959 16.3511 141.019 16.4728C141.212 16.4395 141.386 16.4556 141.543 16.5211C141.7 16.5865 141.834 16.6756 141.946 16.7884C142.058 16.9012 142.147 17.0312 142.212 17.1785C142.287 17.3108 142.335 17.4347 142.355 17.5502C142.411 17.6462 142.464 17.6833 142.513 17.6616C142.562 17.6399 142.624 17.6556 142.7 17.7087C142.767 17.8688 142.893 18.0254 143.078 18.1784C143.261 18.3186 143.415 18.4836 143.54 18.6734C143.621 18.9897 143.69 19.2751 143.748 19.5295C143.803 19.771 143.801 20.029 143.743 20.3033C143.632 20.8113 143.436 21.2813 143.154 21.7133C142.884 22.143 142.557 22.5431 142.172 22.9136C141.797 23.269 141.384 23.5915 140.932 23.881C140.48 24.1706 140.035 24.4258 139.597 24.6467C139.544 24.6428 139.493 24.6517 139.443 24.6734C139.394 24.6951 139.376 24.6652 139.388 24.5838C139.301 24.6913 139.196 24.769 139.072 24.8168C138.961 24.8625 138.834 24.891 138.69 24.9026C138.549 24.927 138.4 24.9461 138.244 24.9598C138.101 24.9714 137.967 25.0011 137.843 25.0489C137.738 24.9746 137.639 24.8992 137.547 24.8227C137.469 24.7568 137.4 24.663 137.339 24.5414C137.275 24.5524 137.238 24.5259 137.227 24.4618C137.228 24.3954 137.204 24.3666 137.152 24.3755C137.207 24.2339 137.227 24.1578 137.212 24.1472C137.207 24.1215 137.185 24.1056 137.144 24.0994C137.116 24.091 137.088 24.0826 137.061 24.0742C137.03 24.053 137.018 24.022 137.025 23.9813C137.058 23.8698 137.058 23.751 137.023 23.6249C136.985 23.486 136.948 23.3471 136.911 23.2081C136.874 23.0692 136.857 22.9334 136.86 22.8007C136.877 22.6657 136.955 22.5464 137.096 22.4428C137.541 22.4188 137.949 22.335 138.321 22.1915C138.703 22.033 139.054 21.8468 139.374 21.633C139.694 21.4191 139.992 21.1958 140.269 20.963C140.559 20.7279 140.845 20.5132 141.129 20.3189C141.148 20.1968 141.182 20.0917 141.233 20.0036C141.297 19.9133 141.362 19.8294 141.427 19.752C141.493 19.6745 141.552 19.5918 141.603 19.5037C141.653 19.4156 141.682 19.3116 141.687 19.1917C141.685 19.0997 141.65 19.0528 141.584 19.0511C141.528 19.0343 141.494 18.9874 141.48 18.9104L141.259 18.8892C140.99 18.7902 140.695 18.7224 140.371 18.6858C140.045 18.6364 139.764 18.5727 139.526 18.4949C139.398 18.5963 139.266 18.6388 139.131 18.6225C139.009 18.604 138.849 18.5921 138.649 18.5869C138.209 18.6366 137.778 18.6648 137.356 18.6716C136.947 18.6762 136.542 18.6272 136.141 18.5247C136.105 18.465 136.063 18.4128 136.015 18.3681C135.968 18.3234 135.895 18.3228 135.797 18.3662C135.702 18.2769 135.608 18.1939 135.516 18.1174C135.421 18.0281 135.332 17.9312 135.248 17.8268C135.247 17.6684 135.244 17.5368 135.239 17.4319C135.232 17.3142 135.174 17.2118 135.067 17.1247C135.089 16.949 135.105 16.8076 135.113 16.7006C135.121 16.5935 135.097 16.4588 135.043 16.2964Z" fill="white"/>
<path d="M56.5586 51.0608C57.35 50.816 58.19 51.2591 58.4349 52.0505C58.6797 52.8419 58.2367 53.6819 57.4453 53.9268L56.5586 51.0608ZM33.6874 90.9388C33.1882 91.6 32.2476 91.7313 31.5864 91.2322L20.8121 83.0981C20.1509 82.5989 20.0196 81.6583 20.5187 80.9971C21.0179 80.336 21.9585 80.2046 22.6197 80.7038L32.1969 87.9341L39.4272 78.3569C39.9263 77.6957 40.8669 77.5644 41.5281 78.0635C42.1893 78.5626 42.3206 79.5033 41.8215 80.1644L33.6874 90.9388ZM57.4453 53.9268C50.7871 55.9868 44.3867 61.3155 39.901 68.0472C35.4153 74.7787 32.9813 82.7054 33.9758 89.8276L31.0046 90.2424C29.881 82.1953 32.6375 73.5373 37.4045 66.3836C42.1714 59.23 49.0859 53.3728 56.5586 51.0608L57.4453 53.9268Z" fill="white"/>
</svg>
