<svg width="156" height="49" viewBox="0 0 156 49" fill="none" xmlns="http://www.w3.org/2000/svg">
<g filter="url(#filter0_d_800_164)">
<path fill-rule="evenodd" clip-rule="evenodd" d="M7.95213 1.87636L13.0334 1.19823L13.0377 1.17148L13.1269 1.18576L18.064 1.97621L137.542 21.1052L145.442 22.3699L146.922 22.607L153.597 25.1948L146.863 26.1421L150.883 28.8112L146.724 30.1708L152.905 32.6795L147.158 33.7849L149.776 35.7231L144.63 36.9246L151.758 39.585L145.321 42.0989L148.382 45.1208L143.207 45.8114L141.726 45.5744L141.721 45.6071L9.3173 24.4086L9.32559 24.3568L2.73641 21.8024L9.47085 20.8551L5.45084 18.186L9.6095 16.8264L3.42838 14.3177L9.1754 13.2123L6.55748 11.2741L11.609 10.0948L11.6177 10.0404L4.57552 7.41217L11.0129 4.89825L7.95213 1.87636Z" fill="#FEC65A"/>
<path d="M34.0524 19.2139C34.1511 19.2297 34.2284 19.2786 34.2841 19.3604L34.8687 20.2257C34.4503 20.6124 33.964 20.8789 33.4099 21.0251C32.8598 21.172 32.2293 21.1885 31.5183 21.0747C30.8745 20.9716 30.3133 20.7704 29.8346 20.4709C29.3566 20.1676 28.9691 19.7916 28.6723 19.343C28.3755 18.8944 28.1733 18.3861 28.0658 17.8179C27.9582 17.2498 27.9554 16.6478 28.0572 16.0119C28.1255 15.5853 28.2357 15.1877 28.3879 14.8192C28.5447 14.4473 28.7378 14.1136 28.9674 13.8182C29.197 13.5228 29.4571 13.2646 29.7477 13.0438C30.0422 12.8236 30.362 12.6479 30.707 12.5168C31.0527 12.3818 31.4188 12.2966 31.8053 12.2613C32.1963 12.2226 32.6031 12.2371 33.0257 12.3047C33.3417 12.3553 33.6355 12.4307 33.9071 12.5309C34.1826 12.6317 34.4349 12.7511 34.664 12.8891C34.893 13.027 35.0989 13.1835 35.2815 13.3586C35.4687 13.5304 35.632 13.7125 35.7713 13.9049L35.042 14.6267C34.9982 14.6724 34.9455 14.7105 34.8839 14.7411C34.8223 14.7718 34.7441 14.7795 34.6493 14.7643C34.5545 14.7492 34.4631 14.7001 34.3751 14.6172C34.2911 14.5348 34.1846 14.4408 34.0557 14.3351C33.9307 14.23 33.767 14.1268 33.5645 14.0256C33.3659 13.9249 33.1047 13.8486 32.7808 13.7968C32.4214 13.7392 32.0811 13.7516 31.7601 13.8339C31.439 13.9162 31.15 14.0643 30.8929 14.2784C30.6404 14.4891 30.4261 14.7647 30.2501 15.1052C30.0741 15.4456 29.9494 15.8449 29.876 16.3031C29.802 16.7652 29.7991 17.1881 29.8674 17.5717C29.9402 17.952 30.0672 18.2842 30.2486 18.5685C30.4339 18.8533 30.6642 19.0847 30.9395 19.2624C31.2195 19.4369 31.5293 19.5513 31.869 19.6057C32.0704 19.6379 32.2537 19.6571 32.4188 19.6633C32.5878 19.6701 32.7453 19.6609 32.8911 19.6356C33.0409 19.611 33.183 19.571 33.3174 19.5155C33.4558 19.4607 33.5974 19.3862 33.7421 19.2919C33.7913 19.2633 33.8414 19.2409 33.8926 19.2248C33.9438 19.2087 33.9971 19.2051 34.0524 19.2139ZM45.6656 18.8311C45.565 19.4591 45.3651 20.0246 45.0658 20.5276C44.7705 21.0312 44.398 21.4476 43.9483 21.7766C43.5026 22.1063 42.9912 22.3404 42.414 22.4789C41.8375 22.6134 41.2194 22.6279 40.5598 22.5223C39.9002 22.4167 39.3176 22.21 38.8119 21.9022C38.3068 21.5904 37.8921 21.208 37.5676 20.755C37.2431 20.302 37.0172 19.7899 36.89 19.2186C36.7666 18.6479 36.7552 18.0486 36.8558 17.4206C36.9563 16.7926 37.154 16.2287 37.4487 15.729C37.7479 15.226 38.1224 14.81 38.5721 14.4809C39.0218 14.1519 39.5349 13.9201 40.1114 13.7855C40.6885 13.647 41.3069 13.6306 41.9665 13.7362C42.6261 13.8418 43.2085 14.0505 43.7135 14.3623C44.2192 14.6701 44.632 15.0521 44.9519 15.5085C45.2764 15.9614 45.5003 16.4733 45.6236 17.044C45.7515 17.6113 45.7655 18.207 45.6656 18.8311ZM43.8468 18.5399C43.9188 18.0896 43.9241 17.6772 43.8625 17.3028C43.8016 16.9244 43.6785 16.5928 43.4932 16.3079C43.3124 16.0197 43.0726 15.7848 42.7735 15.6033C42.479 15.4184 42.1304 15.2937 41.7275 15.2292C41.3246 15.1647 40.9525 15.174 40.611 15.257C40.2703 15.3362 39.9671 15.4841 39.7015 15.7008C39.4404 15.9142 39.2219 16.1912 39.0459 16.5316C38.8705 16.8681 38.7467 17.2615 38.6746 17.7118C38.6019 18.166 38.596 18.5823 38.657 18.9607C38.7185 19.3351 38.84 19.6645 39.0213 19.9487C39.2066 20.2336 39.4485 20.4688 39.7469 20.6543C40.046 20.8359 40.3969 20.9589 40.7998 21.0234C41.2027 21.0879 41.5725 21.0803 41.9094 21.0005C42.2508 20.9175 42.552 20.7692 42.8131 20.5558C43.078 20.343 43.2982 20.0684 43.4736 19.7319C43.6497 19.3914 43.774 18.9941 43.8468 18.5399ZM58.3155 16.451L56.9392 25.0475L55.3692 24.7961L56.2143 19.5174C56.232 19.4068 56.253 19.2886 56.2771 19.1628C56.3053 19.0377 56.3377 18.9112 56.3743 18.7834L53.1692 23.0524C52.9938 23.2876 52.7659 23.3828 52.4854 23.3379L52.2366 23.2981C52.0984 23.2759 51.981 23.2247 51.8844 23.1445C51.7886 23.0602 51.7191 22.9499 51.6762 22.8134L49.955 17.7374C49.9447 17.8776 49.9331 18.0134 49.9201 18.145C49.9078 18.2727 49.8927 18.3918 49.875 18.5024L49.0299 23.7812L47.4599 23.5298L48.8362 14.9333L50.187 15.1496C50.2621 15.1616 50.3289 15.1743 50.3875 15.1877C50.4461 15.2012 50.4956 15.2212 50.5359 15.2479C50.5807 15.2713 50.6178 15.3056 50.647 15.3508C50.6808 15.3927 50.7101 15.45 50.7349 15.5229L52.4061 20.4936C52.459 20.6438 52.5054 20.7971 52.5451 20.9534C52.5889 21.1102 52.6281 21.2704 52.6626 21.434C52.7472 21.2855 52.8331 21.1412 52.9203 21.0013C53.0115 20.8619 53.1056 20.7291 53.2028 20.6029L56.3217 16.4174C56.368 16.3559 56.4138 16.3106 56.459 16.2813C56.5048 16.2482 56.5507 16.2272 56.5967 16.2183C56.6472 16.2062 56.7005 16.2025 56.7564 16.2074C56.8163 16.213 56.8857 16.2221 56.9647 16.2347L58.3155 16.451ZM61.7045 25.8104L59.9153 25.524L61.2917 16.9275L63.0809 17.2139L61.7045 25.8104ZM73.4279 18.8705L72.0516 27.4671L71.1333 27.32C70.995 27.2979 70.882 27.2575 70.7942 27.1989C70.7069 27.1363 70.6268 27.0425 70.5536 26.9173L67.1429 20.7809C67.1326 20.9211 67.1187 21.0586 67.1011 21.1935C67.0875 21.3291 67.0715 21.4541 67.0532 21.5687L66.2574 26.5394L64.6874 26.288L66.0637 17.6915L66.9998 17.8414C67.0748 17.8534 67.1374 17.8674 67.1875 17.8836C67.2421 17.8964 67.2893 17.9181 67.3289 17.9488C67.3692 17.9755 67.4063 18.0097 67.4401 18.0516C67.4739 18.0935 67.5097 18.1478 67.5476 18.2147L70.9843 24.3795C70.9925 24.2269 71.0037 24.0808 71.018 23.9413C71.0328 23.7979 71.0504 23.6629 71.0706 23.5365L71.8579 18.6192L73.4279 18.8705ZM79.9205 24.2364L82.8709 24.7088L82.3028 28.2576C81.8131 28.5074 81.3074 28.6674 80.7858 28.7378C80.2686 28.8049 79.7336 28.7942 79.1807 28.7057C78.4737 28.5925 77.8512 28.3814 77.3133 28.0725C76.776 27.7596 76.3352 27.3751 75.991 26.919C75.6468 26.4628 75.4071 25.9484 75.2719 25.3759C75.1367 24.8033 75.12 24.1991 75.2219 23.5632C75.3249 22.9194 75.5241 22.3456 75.8195 21.842C76.1188 21.339 76.4949 20.9252 76.9479 20.6008C77.4009 20.2763 77.9212 20.0497 78.509 19.921C79.1007 19.793 79.7401 19.7839 80.4274 19.894C80.7829 19.9509 81.1099 20.0336 81.4085 20.1422C81.7077 20.2468 81.9794 20.3713 82.2237 20.5158C82.4685 20.6562 82.6885 20.813 82.8836 20.986C83.0787 21.159 83.2519 21.3427 83.4031 21.5371L82.7605 22.2484C82.6613 22.3622 82.5463 22.4227 82.4154 22.4302C82.2846 22.4376 82.1514 22.3838 82.0159 22.269C81.8876 22.1593 81.7597 22.0598 81.6322 21.9706C81.5093 21.878 81.375 21.7937 81.2292 21.7176C81.0833 21.6416 80.9218 21.5753 80.7445 21.5185C80.5673 21.4618 80.3602 21.4145 80.1232 21.3765C79.7243 21.3126 79.3518 21.3239 79.0058 21.4103C78.6598 21.4967 78.352 21.6479 78.0825 21.864C77.8168 22.0808 77.5944 22.3571 77.415 22.6929C77.2357 23.0288 77.1109 23.4159 77.0407 23.8544C76.9648 24.3283 76.964 24.7637 77.0382 25.1604C77.113 25.5532 77.2524 25.8975 77.4561 26.1935C77.6599 26.4894 77.9209 26.7317 78.2391 26.9204C78.5612 27.1097 78.9316 27.2378 79.3502 27.3049C79.6346 27.3504 79.8918 27.3632 80.1219 27.3433C80.3565 27.3201 80.5883 27.2762 80.8174 27.2116L81.0489 25.7661L80.0773 25.6105C79.9627 25.5922 79.8766 25.548 79.819 25.478C79.7659 25.4047 79.7469 25.3206 79.7621 25.2258L79.9205 24.2364ZM94.5738 23.9453C94.5039 24.0273 94.4359 24.0853 94.3697 24.1193C94.3081 24.1499 94.2319 24.1579 94.141 24.1434C94.0541 24.1295 93.9641 24.0847 93.8709 24.009C93.7822 23.93 93.6765 23.8442 93.5536 23.7516C93.4307 23.659 93.2871 23.5692 93.1228 23.4821C92.9591 23.3911 92.7607 23.3269 92.5277 23.2896C92.1169 23.2239 91.794 23.2673 91.5589 23.4201C91.3244 23.5689 91.1835 23.7914 91.136 24.0876C91.1057 24.2772 91.1357 24.4441 91.226 24.5882C91.321 24.7289 91.452 24.8593 91.6192 24.9792C91.7903 25.0998 91.9866 25.2143 92.2083 25.3227C92.4299 25.4311 92.6562 25.5483 92.8872 25.6744C93.1188 25.7966 93.342 25.9336 93.5566 26.0854C93.7713 26.2373 93.9556 26.4147 94.1095 26.6175C94.2673 26.821 94.3813 27.058 94.4514 27.3285C94.5261 27.5957 94.5347 27.909 94.4771 28.2684C94.4145 28.6594 94.2866 29.0157 94.0933 29.3372C93.9046 29.6554 93.6614 29.9223 93.3636 30.1379C93.0664 30.3496 92.7165 30.4981 92.3139 30.5835C91.9153 30.6696 91.477 30.6744 90.9991 30.5979C90.7266 30.5542 90.4585 30.483 90.1948 30.384C89.9351 30.2857 89.6867 30.167 89.4498 30.0278C89.2167 29.8892 89.0007 29.7331 88.8016 29.5594C88.6026 29.3858 88.4337 29.2007 88.295 29.0043L88.9511 28.2465C89.0046 28.1903 89.0701 28.1481 89.1476 28.12C89.2256 28.0879 89.3041 28.0782 89.3831 28.0909C89.4898 28.1079 89.596 28.1655 89.7018 28.2634C89.8077 28.3614 89.93 28.4701 90.0689 28.5896C90.2078 28.709 90.3716 28.8244 90.5604 28.9356C90.7531 29.0475 90.9917 29.1262 91.2761 29.1717C91.6908 29.2381 92.0259 29.1945 92.2814 29.041C92.5408 28.8881 92.7006 28.624 92.7606 28.2488C92.7954 28.0316 92.7663 27.8466 92.6732 27.694C92.5841 27.542 92.456 27.4061 92.2889 27.2861C92.1217 27.1662 91.9267 27.056 91.7038 26.9555C91.4815 26.851 91.2543 26.7397 91.022 26.6215C90.7898 26.5033 90.566 26.3702 90.3507 26.2223C90.1354 26.0744 89.9514 25.8951 89.7988 25.6843C89.6462 25.4735 89.5341 25.2247 89.4626 24.9378C89.395 24.6515 89.3931 24.3089 89.457 23.91C89.5082 23.59 89.6211 23.2901 89.7955 23.0102C89.97 22.7302 90.1983 22.4933 90.4805 22.2995C90.7627 22.1057 91.0929 21.9661 91.4711 21.8809C91.8533 21.7962 92.2755 21.7909 92.7376 21.8649C93.255 21.9477 93.7199 22.1052 94.1324 22.3373C94.5495 22.5661 94.8873 22.8471 95.1459 23.1802L94.5738 23.9453ZM105.51 28.4125C105.41 29.0405 105.21 29.606 104.911 30.109C104.615 30.6127 104.243 31.029 103.793 31.3581C103.347 31.6877 102.836 31.9218 102.259 32.0603C101.682 32.1949 101.064 32.2093 100.405 32.1037C99.7451 31.9981 99.1624 31.7914 98.6568 31.4836C98.1517 31.1718 97.7369 30.7895 97.4125 30.3365C97.088 29.8835 96.8621 29.3713 96.7348 28.8C96.6115 28.2293 96.6001 27.63 96.7007 27.002C96.8012 26.374 96.9988 25.8102 97.2935 25.3105C97.5928 24.8075 97.9673 24.3914 98.417 24.0624C98.8666 23.7333 99.3797 23.5015 99.9563 23.367C100.533 23.2285 101.152 23.212 101.811 23.3176C102.471 23.4232 103.053 23.6319 103.558 23.9437C104.064 24.2515 104.477 24.6336 104.797 25.0899C105.121 25.5429 105.345 26.0547 105.468 26.6254C105.596 27.1927 105.61 27.7884 105.51 28.4125ZM103.692 28.1213C103.764 27.671 103.769 27.2587 103.707 26.8842C103.646 26.5058 103.523 26.1742 103.338 25.8893C103.157 25.6011 102.917 25.3663 102.618 25.1847C102.324 24.9998 101.975 24.8751 101.572 24.8106C101.169 24.7461 100.797 24.7554 100.456 24.8385C100.115 24.9176 99.8119 25.0655 99.5463 25.2823C99.2853 25.4957 99.0668 25.7726 98.8907 26.1131C98.7153 26.4496 98.5916 26.8429 98.5195 27.2932C98.4468 27.7474 98.4409 28.1637 98.5018 28.5421C98.5634 28.9166 98.6849 29.2459 98.8662 29.5302C99.0515 29.815 99.2934 30.0502 99.5918 30.2357C99.8908 30.4173 100.242 30.5403 100.645 30.6048C101.048 30.6693 101.417 30.6617 101.754 30.582C102.096 30.4989 102.397 30.3506 102.658 30.1372C102.923 29.9244 103.143 29.6498 103.318 29.3133C103.495 28.9728 103.619 28.5755 103.692 28.1213ZM116.3 30.1399C116.199 30.7679 115.999 31.3334 115.7 31.8364C115.405 32.3401 115.032 32.7564 114.582 33.0855C114.137 33.4151 113.625 33.6492 113.048 33.7877C112.472 33.9223 111.853 33.9367 111.194 33.8311C110.534 33.7255 109.952 33.5188 109.446 33.211C108.941 32.8992 108.526 32.5169 108.202 32.0639C107.877 31.6109 107.651 31.0987 107.524 30.5274C107.401 29.9567 107.389 29.3574 107.49 28.7294C107.59 28.1014 107.788 27.5376 108.083 27.0379C108.382 26.5348 108.756 26.1188 109.206 25.7898C109.656 25.4607 110.169 25.2289 110.745 25.0944C111.323 24.9559 111.941 24.9394 112.601 25.045C113.26 25.1506 113.842 25.3593 114.348 25.6711C114.853 25.9789 115.266 26.361 115.586 26.8173C115.91 27.2703 116.134 27.7821 116.258 28.3528C116.386 28.9201 116.4 29.5158 116.3 30.1399ZM114.481 29.8487C114.553 29.3984 114.558 28.9861 114.497 28.6116C114.436 28.2332 114.312 27.9016 114.127 27.6167C113.946 27.3285 113.707 27.0937 113.408 26.9121C113.113 26.7272 112.764 26.6025 112.362 26.538C111.959 26.4735 111.587 26.4828 111.245 26.5659C110.904 26.645 110.601 26.7929 110.335 27.0097C110.074 27.2231 109.856 27.5 109.68 27.8405C109.504 28.177 109.381 28.5703 109.309 29.0206C109.236 29.4748 109.23 29.8911 109.291 30.2695C109.353 30.644 109.474 30.9733 109.655 31.2576C109.841 31.5424 110.083 31.7776 110.381 31.9631C110.68 32.1447 111.031 32.2677 111.434 32.3322C111.837 32.3967 112.207 32.3891 112.543 32.3094C112.885 32.2263 113.186 32.078 113.447 31.8646C113.712 31.6518 113.932 31.3772 114.108 31.0407C114.284 30.7002 114.408 30.3029 114.481 29.8487ZM126.834 27.4212L125.458 36.0177L124.54 35.8707C124.402 35.8485 124.289 35.8082 124.201 35.7495C124.114 35.687 124.033 35.5931 123.96 35.468L120.549 29.3316C120.539 29.4717 120.525 29.6092 120.508 29.7442C120.494 29.8797 120.478 30.0048 120.46 30.1193L119.664 35.09L118.094 34.8386L119.47 26.2421L120.406 26.392C120.481 26.404 120.544 26.4181 120.594 26.4342C120.649 26.447 120.696 26.4687 120.735 26.4994C120.776 26.5261 120.813 26.5604 120.847 26.6022C120.88 26.6441 120.916 26.6985 120.954 26.7653L124.391 32.9301C124.399 32.7775 124.41 32.6314 124.425 32.4919C124.439 32.3485 124.457 32.2136 124.477 32.0872L125.264 27.1698L126.834 27.4212Z" fill="black"/>
</g>
<defs>
<filter id="filter0_d_800_164" x="0.736328" y="0.171509" width="154.861" height="48.64" filterUnits="userSpaceOnUse" color-interpolation-filters="sRGB">
<feFlood flood-opacity="0" result="BackgroundImageFix"/>
<feColorMatrix in="SourceAlpha" type="matrix" values="0 0 0 0 0 0 0 0 0 0 0 0 0 0 0 0 0 0 127 0" result="hardAlpha"/>
<feOffset dy="1"/>
<feGaussianBlur stdDeviation="1"/>
<feComposite in2="hardAlpha" operator="out"/>
<feColorMatrix type="matrix" values="0 0 0 0 0 0 0 0 0 0 0 0 0 0 0 0 0 0 0.25 0"/>
<feBlend mode="normal" in2="BackgroundImageFix" result="effect1_dropShadow_800_164"/>
<feBlend mode="normal" in="SourceGraphic" in2="effect1_dropShadow_800_164" result="shape"/>
</filter>
</defs>
</svg>
