<svg width="202" height="168" viewBox="0 0 202 168" fill="none" xmlns="http://www.w3.org/2000/svg">
<path d="M58.3786 56.4581C57.3741 56.1856 56.8227 55.5644 56.7243 54.5943L56.7667 54.4049C56.8313 54.2715 56.904 54.1214 56.9848 53.9546C57.0686 53.7646 57.1574 53.5812 57.2514 53.4043C57.3468 53.2159 57.4857 53.0567 57.668 52.9267C57.7165 52.8267 57.8008 52.6781 57.921 52.481C58.0543 52.2739 58.2651 51.9704 58.5534 51.5706C58.7832 51.2578 58.9632 51.0094 59.0935 50.8255C59.2354 50.6431 59.348 50.5041 59.4314 50.4086C59.3424 50.1843 59.2061 49.9597 59.0227 49.735C58.8821 49.3622 58.7625 49.0098 58.6638 48.6779C58.5783 48.3359 58.5173 48.0325 58.4809 47.7678C58.5055 47.4874 58.4961 47.1966 58.4525 46.8955C58.4373 46.7399 58.4221 46.5843 58.4069 46.4287C58.3917 46.2731 58.3946 46.114 58.4158 45.9513C58.3799 45.8639 58.3528 45.754 58.3346 45.6216L58.3967 45.417C58.4669 45.3316 58.4944 45.2111 58.4791 45.0555C58.4771 44.8897 58.4634 44.7225 58.438 44.5538C58.4228 44.3982 58.4084 44.2368 58.3947 44.0695C58.3941 43.8922 58.4102 43.7229 58.443 43.5618C58.4758 43.4006 58.5369 43.249 58.6262 43.107C58.7272 42.9665 58.8775 42.856 59.077 42.7756L59.2672 42.6763L59.4279 42.8036C59.5452 42.9015 59.6581 42.9871 59.7668 43.0604C59.8754 43.1336 59.9841 43.2068 60.0927 43.28C60.2231 43.3679 60.3527 43.4616 60.4816 43.561C60.612 43.6489 60.7525 43.7499 60.9031 43.864L61.0615 44.0087L61.0191 44.1982C61.0161 44.2214 61.0181 44.2512 61.0252 44.2876C61.0323 44.324 61.046 44.3553 61.0662 44.3816L61.2511 44.4588L61.2368 44.7051L61.2096 44.9143C61.196 45.0189 61.192 45.0952 61.1976 45.1432C61.2047 45.1795 61.2226 45.2232 61.2514 45.2743L61.3091 45.5122C61.2819 45.7214 61.2751 45.9096 61.2888 46.0768C61.3025 46.244 61.3221 46.412 61.3474 46.5808C61.3843 46.751 61.4089 46.9255 61.4211 47.1044C61.4348 47.2716 61.4172 47.4525 61.3682 47.647C61.4425 47.6212 61.519 47.578 61.5978 47.5174C61.6241 47.4971 61.6503 47.4769 61.6766 47.4567C61.7145 47.438 61.7524 47.4193 61.7902 47.4006L63.2258 45.9033L63.2182 45.6896L63.7084 45.328C63.8367 45.2501 63.9592 45.1715 64.0759 45.0921C64.194 45.0011 64.2963 44.8963 64.3827 44.7775L64.5077 44.6342C65.1213 44.005 65.8512 43.6627 66.6975 43.6073L67.0029 43.5762L67.0538 43.8664C67.0907 44.0366 67.1822 44.1963 67.3283 44.3453C67.4875 44.4841 67.6583 44.6245 67.8407 44.7664L68.0166 44.9134C68.0682 45.0619 68.0894 45.171 68.0804 45.2408C68.0713 45.3105 68.0579 45.3678 68.0403 45.4128L68.0979 45.6508C67.9263 45.9711 67.7551 46.197 67.5844 46.3285C67.4152 46.4483 67.2409 46.5615 67.0616 46.6682C66.9201 46.7561 66.7903 46.8456 66.6721 46.9366C66.5539 47.0276 66.4575 47.1332 66.3827 47.2535L66.2206 47.4096C65.9104 47.5229 65.6958 47.7195 65.5767 47.9995L65.4752 48.2344L65.2137 48.2004C65.2021 48.1989 65.1693 48.2242 65.1152 48.2762C65.0627 48.3167 64.9771 48.4296 64.8584 48.6151C64.7357 48.7409 64.6481 48.8241 64.5956 48.8645C64.5562 48.8948 64.5233 48.9201 64.4971 48.9403C64.4663 48.9954 64.4362 49.0447 64.4069 49.0881C64.3893 49.1331 64.3643 49.189 64.332 49.2557L64.2092 49.3815C64.0926 49.4609 64.0049 49.544 63.9464 49.6309C63.8893 49.7062 63.8241 49.7982 63.7509 49.9068C63.6908 50.0054 63.6242 50.109 63.551 50.2176C63.4793 50.3147 63.3843 50.4087 63.2661 50.4997L63.276 50.6959L63.1207 50.7998C63.0172 50.8691 62.9222 50.9631 62.8359 51.0818C62.751 51.189 62.6654 51.3019 62.5791 51.4207C62.4912 51.5511 62.3975 51.6807 62.298 51.8096C62.1986 51.9384 62.0773 52.0527 61.9344 52.1522C61.8258 52.3508 61.7291 52.5037 61.6443 52.6108C61.5711 52.7195 61.4484 52.8453 61.2761 52.9884C61.0641 53.528 60.6551 54.0834 60.049 54.6546C60.0208 54.7809 59.9635 54.9034 59.8771 55.0222C59.8039 55.1308 59.7256 55.2329 59.6423 55.3284C59.613 55.3719 59.5771 55.4204 59.5347 55.474C59.5054 55.5174 59.4835 55.55 59.4688 55.5718L59.3916 55.7567C59.3052 55.8755 59.2161 55.9702 59.1242 56.041C59.0439 56.1133 58.9643 56.1797 58.8855 56.2404C58.8476 56.2591 58.809 56.2836 58.7696 56.3139C58.7418 56.3458 58.7148 56.3718 58.6885 56.392L58.3786 56.4581ZM70.0954 57.4681C69.575 57.4713 69.1132 57.3876 68.71 57.217C68.3067 57.0463 67.9525 56.8171 67.6472 56.5292C67.3536 56.2428 67.1067 55.9153 66.9065 55.5465C66.7179 55.1793 66.573 54.7941 66.4718 54.391C66.47 53.5872 66.592 52.8762 66.8379 52.2583C67.0852 51.6287 67.4013 51.0612 67.7861 50.5558C68.1709 50.0504 68.5918 49.5852 69.0489 49.1602C69.5176 48.7366 69.9666 48.3282 70.3959 47.935C70.4727 47.9804 70.5367 47.9888 70.5877 47.9599C70.6503 47.9326 70.7028 47.8922 70.7453 47.8386C70.7993 47.7866 70.8534 47.7345 70.9074 47.6825C70.9731 47.6319 71.0423 47.5996 71.115 47.5854C71.1751 47.4868 71.2445 47.4072 71.3233 47.3466C71.4137 47.2874 71.5034 47.2341 71.5923 47.1866C71.6943 47.129 71.7848 47.0698 71.8636 47.0092C71.954 46.95 72.035 46.8719 72.1067 46.7749C72.226 46.7668 72.33 46.7389 72.4189 46.6914C72.5195 46.6454 72.6091 46.5921 72.6879 46.5314C72.7783 46.4723 72.868 46.4189 72.9569 46.3714C73.0458 46.3239 73.1506 46.2903 73.2714 46.2705L73.3009 46.0439C73.5716 45.961 73.7742 45.8573 73.9085 45.733C74.0429 45.6086 74.2058 45.4467 74.3972 45.247C74.5265 45.252 74.626 45.2591 74.6958 45.2681C74.7771 45.2787 74.9007 45.283 75.0664 45.2809C75.1967 45.0969 75.3143 44.9645 75.4194 44.8837C75.5244 44.8028 75.6717 44.7156 75.8611 44.622C76.0233 44.7377 76.2017 44.82 76.3962 44.8689C76.5923 44.9062 76.7611 45.0168 76.9026 45.2007C76.8961 45.3416 76.9224 45.4573 76.9815 45.5477C77.0422 45.6265 77.1087 45.7061 77.1809 45.7864C77.2547 45.8551 77.3278 45.9296 77.4 46.0099C77.4723 46.0902 77.5118 46.1958 77.5184 46.3266C77.5765 46.3342 77.6128 46.3271 77.6275 46.3053C77.6538 46.2851 77.6952 46.2846 77.7518 46.3038C77.7629 46.3998 77.7763 46.4783 77.792 46.5395C77.8077 46.6006 77.8242 46.6559 77.8413 46.7054C77.8702 46.7564 77.8924 46.8125 77.9081 46.8736C77.9354 46.9363 77.9554 47.0098 77.968 47.0941C77.8918 47.226 77.8199 47.3703 77.7522 47.527C77.6861 47.672 77.5795 47.7645 77.4325 47.8044C77.4204 47.8974 77.4485 47.9542 77.5167 47.9749C77.5864 47.984 77.6218 48.03 77.6228 48.1128C77.6208 48.2189 77.5921 48.3038 77.5365 48.3675C77.7909 48.956 78.0124 49.5698 78.201 50.2088C78.3912 50.8362 78.6193 51.445 78.8853 52.035C78.8409 52.1947 78.8255 52.3581 78.8392 52.5253C78.866 52.6824 78.8987 52.8403 78.9371 52.9989C78.9872 53.1591 79.0315 53.3185 79.0699 53.4771C79.1084 53.6357 79.1294 53.7921 79.133 53.9462C79.1306 54.1468 79.1026 54.3618 79.0491 54.5911C78.9972 54.8089 78.9227 55.0179 78.8258 55.218C78.7288 55.4181 78.6102 55.6035 78.4698 55.7743C78.3309 55.9335 78.1799 56.0498 78.0167 56.1231C77.8005 56.3313 77.5432 56.4929 77.2446 56.6077C76.9476 56.7108 76.67 56.8461 76.4119 57.0134C76.2371 57.0852 76.0537 57.1323 75.8618 57.1546C75.6713 57.1652 75.4743 57.181 75.2707 57.2017C75.1075 57.2751 74.9153 57.3446 74.694 57.4104C74.4743 57.4645 74.2494 57.5121 74.0196 57.5531C73.7897 57.5941 73.5614 57.6235 73.3345 57.6412C73.1092 57.6474 72.9109 57.6275 72.7396 57.5816C72.3016 57.6782 71.8812 57.7299 71.4786 57.7366C71.0759 57.7433 70.6149 57.6538 70.0954 57.4681ZM71.1473 51.1526C70.9964 51.4047 70.8252 51.6306 70.6338 51.8303C70.4555 52.0198 70.2764 52.2151 70.0967 52.4163C69.9169 52.6174 69.7522 52.8382 69.6028 53.0788C69.4664 53.3092 69.3705 53.5922 69.3151 53.9277C69.5218 54.1555 69.779 54.313 70.0867 54.4003C70.4076 54.4775 70.738 54.5264 71.0781 54.547C71.4196 54.556 71.7627 54.5533 72.1072 54.539C72.4518 54.5248 72.7577 54.535 73.025 54.5698C73.0386 54.4652 73.0919 54.4189 73.1848 54.431C73.679 54.448 74.1496 54.3734 74.5966 54.207C75.0452 54.029 75.5112 53.8532 75.9947 53.6798C76.0709 53.5479 76.1623 53.4357 76.2689 53.3432C76.3755 53.2507 76.4474 53.1064 76.4847 52.9104C76.4402 52.7982 76.4109 52.7058 76.3967 52.633C76.3942 52.5618 76.402 52.4565 76.4201 52.317C76.1724 51.8594 75.9699 51.3721 75.8125 50.8553C75.6567 50.3269 75.4623 49.823 75.2292 49.3436C75.1984 49.3987 75.1444 49.4508 75.0671 49.4998C74.9898 49.5489 74.9158 49.5274 74.845 49.4355C74.795 49.5472 74.7322 49.6217 74.6564 49.6591C74.5821 49.6849 74.4985 49.6918 74.4056 49.6797C74.3242 49.6691 74.2393 49.6403 74.1509 49.5934C74.0741 49.5479 74.0046 49.4916 73.9424 49.4244C73.4934 49.6969 73.0458 49.9578 72.5998 50.207C72.1654 50.4578 71.759 50.7653 71.3808 51.1297C71.3181 51.157 71.2817 51.1641 71.2716 51.151C71.2615 51.1379 71.2201 51.1384 71.1473 51.1526ZM82.9999 50.3012C82.9963 50.1471 82.9794 50.0504 82.949 50.011C83.0576 49.8124 83.1422 49.6166 83.2027 49.4236C83.2764 49.2205 83.337 49.0274 83.3844 48.8445C83.4288 48.6849 83.4717 48.5368 83.5131 48.4004C83.5661 48.2655 83.6241 48.1371 83.6872 48.0153C83.8908 47.9945 84.0467 47.9321 84.1548 47.828C84.276 47.7138 84.3717 47.6139 84.4419 47.5285C84.6526 47.5441 84.7824 47.5906 84.8315 47.6678C84.8921 47.7466 84.9525 47.8727 85.0127 48.0459C85.0542 48.1813 85.1174 48.3314 85.2023 48.496C85.2888 48.6491 85.4313 48.7799 85.6299 48.8884C85.6481 49.0208 85.6729 49.1481 85.7043 49.2704C85.7357 49.3926 85.7721 49.5214 85.8136 49.6568C85.8864 49.9145 85.9519 50.183 86.0101 50.4624C86.0699 50.7301 86.0904 50.9809 86.0718 51.2149C85.8976 51.464 85.7471 51.7576 85.6204 52.0957C85.5054 52.4352 85.4128 52.7836 85.3427 53.1408C85.2857 53.4879 85.2535 53.8265 85.246 54.1564C85.2386 54.4863 85.2611 54.7669 85.3138 54.9983L85.3821 55.2908L85.7701 55.3058C86.2021 55.2557 86.5949 55.1886 86.9485 55.1046C87.3036 55.009 87.6386 54.8871 87.9533 54.739C88.268 54.5908 88.5741 54.4179 88.8716 54.2203C89.1706 54.011 89.4865 53.7626 89.8194 53.475C90.1406 53.1859 90.4381 52.8523 90.7118 52.4743C90.987 52.0847 91.223 51.6781 91.4199 51.2547C91.6284 50.8327 91.8021 50.4062 91.9409 49.9752C92.0797 49.5442 92.1856 49.1385 92.2587 48.758C92.4931 48.6822 92.6371 48.5295 92.6906 48.3001L92.6677 48.0667C92.6404 48.0041 92.6298 47.9495 92.6359 47.903C92.655 47.8464 92.6793 47.7964 92.7086 47.753C92.8363 47.4978 93.0595 47.3259 93.3783 47.2374C93.5693 47.404 93.7414 47.5801 93.8946 47.7654C94.0594 47.9523 94.2067 48.1369 94.3366 48.3193C94.319 48.636 94.33 48.9152 94.3695 49.1567C94.4105 49.3865 94.4581 49.6113 94.5122 49.8311C94.5679 50.0392 94.6126 50.24 94.6466 50.4335C94.6921 50.6285 94.7091 50.8612 94.6976 51.1315C94.536 51.465 94.4058 51.7849 94.3069 52.0911C94.2211 52.3872 94.133 52.7007 94.0427 53.0316L93.9829 53.2189C93.7269 53.5519 93.4693 53.8966 93.2103 54.2528C92.9643 54.599 92.7593 54.9032 92.5952 55.1655C92.5164 55.2262 92.4419 55.2992 92.3717 55.3846C92.3132 55.4715 92.2546 55.5584 92.196 55.6454C92.1682 55.6772 92.1258 55.7308 92.0687 55.8061C92.0233 55.8829 91.9809 55.9364 91.9415 55.9668L91.5435 55.7555L91.3687 56.2822L91.0807 56.3157L90.8398 56.5325C90.512 56.9626 90.1767 57.3149 89.8337 57.5893C89.5024 57.8653 89.1349 58.1011 88.7313 58.2968C88.3393 58.494 87.8966 58.6727 87.403 58.833C86.9226 58.9833 86.3702 59.1419 85.7458 59.3088C85.5179 59.2437 85.3168 59.1998 85.1425 59.1771C84.9813 59.1444 84.8201 59.1116 84.6589 59.0788C84.4962 59.0576 84.3401 59.0314 84.1905 59.0001C84.041 58.9689 83.8689 58.9288 83.6744 58.8798C83.6415 58.7692 83.5874 58.6853 83.5121 58.6283C83.4368 58.5712 83.3643 58.5382 83.2946 58.5291C83.0773 58.3826 82.9242 58.1973 82.8352 57.973C82.7462 57.7487 82.6544 57.5004 82.5598 57.2281C82.5198 57.0811 82.474 56.9333 82.4225 56.7848C82.3825 56.6378 82.3243 56.4944 82.248 56.3544L82.6102 56.2952L82.225 55.7133C82.1947 55.6739 82.1586 55.6338 82.1166 55.5928C82.0863 55.5534 82.0567 55.5082 82.0279 55.4572L82.071 55.126C82.1485 54.1671 82.2393 53.2867 82.3436 52.4848C82.4611 51.6729 82.6644 50.9726 82.9537 50.3839L82.9999 50.3012ZM103.974 58.56C103.991 58.515 104.002 58.4809 104.005 58.4576C104.019 58.4359 104.006 58.4046 103.964 58.3637C103.951 58.2793 103.975 58.2293 104.036 58.2136C104.097 58.1979 104.159 58.1822 104.22 58.1666C104.368 57.4769 104.567 56.8586 104.815 56.3119C105.077 55.755 105.348 55.2171 105.628 54.6981C105.92 54.1807 106.206 53.6625 106.486 53.1435C106.779 52.6144 107.038 52.0336 107.262 51.4009C107.433 51.2695 107.578 51.1053 107.699 50.9082C107.83 50.7126 107.956 50.5163 108.077 50.3192C108.21 50.112 108.353 49.9179 108.507 49.737C108.672 49.5576 108.879 49.4191 109.128 49.3215C109.231 49.3467 109.321 49.3821 109.398 49.4275C109.488 49.4628 109.571 49.5032 109.648 49.5487C109.725 49.5941 109.808 49.6345 109.898 49.6698C109.988 49.7052 110.085 49.7296 110.19 49.7432C110.229 49.8074 110.261 49.8824 110.285 49.9683C110.311 50.0426 110.349 50.1125 110.399 50.1782L110.72 50.1667C110.854 50.3142 110.967 50.4943 111.057 50.7069C111.149 50.908 111.205 51.1161 111.224 51.3313C111.245 51.5349 111.214 51.7317 111.13 51.9217C111.048 52.1001 110.895 52.228 110.672 52.3054C110.675 52.3766 110.668 52.4289 110.652 52.4622C110.636 52.4956 110.614 52.5282 110.586 52.56C110.571 52.5818 110.562 52.61 110.557 52.6449C110.554 52.6682 110.573 52.706 110.613 52.7586C110.472 52.8465 110.338 52.9651 110.212 53.1141C110.088 53.2516 109.98 53.403 109.888 53.5682C109.795 53.7334 109.714 53.9002 109.645 54.0685C109.588 54.2382 109.543 54.3979 109.512 54.5475C109.894 54.2427 110.332 53.9687 110.824 53.7255C111.317 53.4823 111.749 53.249 112.121 53.0256C112.412 52.8744 112.667 52.7303 112.886 52.5933C113.118 52.4462 113.347 52.3165 113.575 52.2043C113.804 52.0804 114.037 51.9689 114.274 51.8698C114.525 51.7606 114.777 51.6398 115.03 51.5073C115.153 51.4759 115.241 51.4757 115.296 51.5065C115.363 51.5388 115.423 51.5761 115.477 51.6186C115.499 51.5387 115.488 51.49 115.443 51.4723C115.399 51.443 115.389 51.3827 115.413 51.2912C115.618 51.2588 115.801 51.2117 115.963 51.15C116.136 51.0899 116.315 51.0362 116.498 50.9892C116.598 51.1321 116.696 51.2867 116.792 51.4529C116.89 51.6075 117.037 51.7034 117.233 51.7407C117.284 51.9009 117.35 52.0276 117.432 52.1211C117.528 52.2044 117.617 52.287 117.701 52.3688C117.797 52.4521 117.873 52.5506 117.929 52.6643C117.986 52.7663 118.007 52.9227 117.992 53.1334C117.933 53.2203 117.861 53.3173 117.777 53.4245C117.705 53.5215 117.635 53.6483 117.568 53.805C117.255 54.0244 116.941 54.2139 116.625 54.3737C116.322 54.5233 116.008 54.6657 115.683 54.8007C115.37 54.9372 115.044 55.078 114.706 55.2232C114.38 55.3698 114.044 55.5447 113.699 55.7479C113.615 55.8435 113.516 55.9251 113.401 55.9928C113.286 56.0606 113.165 56.1276 113.038 56.1938C112.924 56.2499 112.81 56.3118 112.695 56.3796C112.591 56.4488 112.503 56.5378 112.43 56.6464C112.383 56.6404 112.342 56.6409 112.305 56.648C112.271 56.6435 112.229 56.644 112.181 56.6496C112.123 56.7365 112.043 56.8029 111.942 56.849C111.854 56.8965 111.786 56.9645 111.739 57.0529C111.889 57.5333 112.117 57.9116 112.424 58.1879C112.731 58.4642 113.087 58.6818 113.491 58.8408C113.896 58.9998 114.342 59.1168 114.828 59.192C115.315 59.2671 115.82 59.3386 116.343 59.4066C116.402 59.4026 116.429 59.3766 116.424 59.3286C116.431 59.2705 116.469 59.2518 116.537 59.2724C116.704 59.3532 116.84 59.4418 116.946 59.5383C117.052 59.6348 117.151 59.7363 117.243 59.8429C117.336 59.9494 117.422 60.061 117.501 60.1777C117.593 60.2843 117.697 60.3982 117.811 60.5194C117.717 61.0626 117.496 61.4888 117.148 61.7981C116.814 62.0973 116.389 62.3198 115.874 62.4655C115.197 62.4011 114.612 62.3073 114.12 62.1842C113.628 62.0611 113.151 61.869 112.688 61.608C112.655 61.5918 112.625 61.5524 112.597 61.4898C112.582 61.4287 112.564 61.385 112.543 61.3587C112.458 61.2885 112.357 61.2516 112.239 61.2482C112.121 61.2447 112.024 61.2202 111.947 61.1747C111.848 61.1147 111.688 60.9874 111.465 60.793C111.254 60.6 111.058 60.421 110.879 60.2559C110.661 60.0266 110.447 59.8038 110.239 59.5877C110.044 59.3614 109.874 59.1207 109.73 58.8656C109.703 58.803 109.654 58.7671 109.585 58.758C109.527 58.7505 109.471 58.7255 109.417 58.6831C108.977 58.8858 108.593 59.1608 108.264 59.508C107.948 59.8451 107.637 60.1946 107.33 60.5565C107.024 60.9067 106.704 61.2372 106.368 61.5481C106.045 61.8488 105.657 62.0642 105.203 62.1942C105.075 62.1775 104.967 62.1399 104.88 62.0814C104.792 62.0344 104.712 61.9708 104.639 61.8905C104.566 61.8218 104.492 61.7531 104.418 61.6844C104.344 61.6157 104.257 61.563 104.155 61.5261C104.176 61.3634 104.161 61.2078 104.109 61.0593C104.071 60.9007 104.024 60.7587 103.97 60.6334C103.928 60.498 103.898 60.37 103.878 60.2492C103.87 60.13 103.92 60.0183 104.028 59.9142C103.914 59.793 103.803 59.69 103.696 59.6051C103.788 59.5344 103.832 59.4634 103.83 59.3921C103.839 59.3224 103.831 59.2504 103.805 59.1762C103.779 59.1019 103.759 59.0284 103.745 58.9556C103.744 58.8728 103.778 58.7886 103.849 58.7032C103.897 58.6977 103.917 58.6767 103.91 58.6403C103.914 58.6055 103.936 58.5787 103.974 58.56ZM122.221 62.5111C122.093 62.589 122.007 62.7019 121.964 62.85C121.923 62.9864 121.876 63.1221 121.823 63.257C121.77 63.3919 121.69 63.5056 121.583 63.5981C121.49 63.6805 121.333 63.7015 121.114 63.6612C121.06 63.7132 121.044 63.7466 121.066 63.7612C121.099 63.7774 121.121 63.8335 121.132 63.9295C120.973 63.885 120.855 63.8816 120.779 63.919C120.704 63.9564 120.612 63.9799 120.504 63.9895C120.248 63.8734 120.04 63.6987 119.881 63.4653C119.736 63.2219 119.61 62.9632 119.503 62.6894C119.409 62.4171 119.327 62.1406 119.257 61.8597C119.199 61.5803 119.13 61.335 119.051 61.1239C119.057 61.0774 119.083 61.063 119.128 61.0807C119.163 61.0852 119.197 61.0897 119.232 61.0943C119.189 60.9705 119.165 60.8374 119.16 60.6949C119.145 60.5393 119.103 60.4097 119.033 60.3062C119.464 59.6295 119.922 58.9268 120.407 58.1981C120.893 57.4578 121.38 56.7116 121.868 55.9597C122.369 55.1976 122.864 54.4348 123.353 53.6712C123.856 52.8975 124.338 52.139 124.801 51.3956C125.112 51.5542 125.407 51.7344 125.688 51.9364C125.982 52.1283 126.244 52.3455 126.472 52.5879C126.7 52.8303 126.884 53.1023 127.022 53.4039C127.173 53.6954 127.255 54.0192 127.268 54.3754C127.235 54.4421 127.203 54.4615 127.171 54.4338C127.14 54.406 127.109 54.4138 127.08 54.4573C127.129 54.5346 127.151 54.5906 127.146 54.6255C127.155 54.6503 127.151 54.6793 127.135 54.7127C127.12 54.7344 127.11 54.7685 127.104 54.815C127.098 54.8615 127.119 54.9292 127.166 55.0181C127.11 54.9989 127.068 55.0052 127.04 55.0371C127.014 55.0573 126.973 55.052 126.918 55.0212C126.955 55.1914 126.955 55.3215 126.92 55.4115C126.885 55.5014 126.839 55.584 126.782 55.6593C126.726 55.723 126.675 55.7991 126.628 55.8875C126.594 55.9658 126.59 56.0836 126.617 56.2407C126.571 56.2346 126.534 56.2417 126.508 56.2619C126.495 56.272 126.481 56.288 126.467 56.3097C126.452 56.3314 126.431 56.3524 126.405 56.3726C126.392 56.3827 126.363 56.3789 126.318 56.3613C126.314 56.668 126.285 56.9774 126.233 57.2897C126.182 57.5903 126.129 57.9025 126.075 58.2264C126.023 58.5387 125.981 58.8641 125.948 59.2026C125.916 59.5411 125.917 59.8958 125.952 60.2666C126.489 60.0411 126.939 59.7155 127.302 59.29C127.676 58.866 127.988 58.3806 128.236 57.8338C128.496 57.2886 128.715 56.6967 128.892 56.058C129.082 55.4208 129.272 54.772 129.465 54.1116C129.609 54.0004 129.728 53.8564 129.822 53.6795C129.928 53.5042 130.016 53.3207 130.089 53.1292C130.172 52.9392 130.25 52.7485 130.323 52.557C130.408 52.3554 130.508 52.1793 130.622 52.0287C130.828 52.0791 130.994 52.1657 131.12 52.2884C131.259 52.401 131.384 52.5296 131.495 52.674C131.608 52.8069 131.727 52.9347 131.853 53.0574C131.979 53.1801 132.144 53.2725 132.349 53.3346C132.481 53.5882 132.603 53.8344 132.713 54.0733C132.826 54.3007 132.888 54.551 132.899 54.8243C132.815 54.9314 132.746 55.0525 132.693 55.1874C132.64 55.3223 132.581 55.4565 132.516 55.5899C132.463 55.7248 132.394 55.8458 132.309 55.9529C132.225 56.0601 132.113 56.146 131.975 56.2107C131.894 56.5548 131.8 56.8734 131.691 57.1665C131.582 57.4596 131.479 57.7476 131.383 58.0305C131.287 58.3135 131.196 58.6088 131.109 58.9166C131.021 59.2243 130.959 59.5648 130.922 59.9382C130.774 60.2616 130.612 60.5951 130.438 60.9387C130.265 61.2707 130.129 61.584 130.032 61.8786C129.788 62.0242 129.586 62.2165 129.425 62.4555C129.264 62.6946 129.097 62.9328 128.924 63.1704C128.86 63.2093 128.824 63.2164 128.815 63.1916C128.808 63.1552 128.759 63.1252 128.667 63.1015C128.665 63.2076 128.633 63.2743 128.571 63.3016C128.521 63.3188 128.516 63.4009 128.556 63.5479C128.347 63.6152 128.156 63.7145 127.986 63.8459C127.815 63.9774 127.628 64.0949 127.426 64.1985C127.235 64.3037 127.014 64.3636 126.764 64.3784C126.527 64.383 126.226 64.2907 125.861 64.1013C125.346 63.6089 124.897 63.0601 124.515 62.455C124.133 61.8499 123.856 61.1581 123.686 60.3796C123.565 60.3993 123.468 60.4635 123.395 60.5721C123.322 60.6808 123.254 60.796 123.19 60.9178C123.127 61.0396 123.066 61.1497 123.006 61.2483C122.946 61.3468 122.869 61.3901 122.776 61.378C122.739 61.4795 122.68 61.5723 122.598 61.6562C122.529 61.7299 122.46 61.8095 122.39 61.8949C122.321 61.9687 122.263 62.0557 122.214 62.1557C122.177 62.2573 122.18 62.3757 122.221 62.5111ZM137.049 66.1771C136.529 66.1803 136.067 66.0966 135.664 65.9259C135.26 65.7553 134.906 65.5261 134.601 65.2382C134.307 64.9518 134.06 64.6243 133.86 64.2555C133.671 63.8883 133.527 63.5031 133.425 63.1C133.424 62.2961 133.546 61.5852 133.791 60.9672C134.039 60.3376 134.355 59.7702 134.74 59.2648C135.124 58.7594 135.545 58.2942 136.002 57.8691C136.471 57.4456 136.92 57.0372 137.349 56.644C137.426 56.6894 137.49 56.6977 137.541 56.6689C137.604 56.6416 137.656 56.6012 137.699 56.5476C137.753 56.4956 137.807 56.4435 137.861 56.3914C137.927 56.3409 137.996 56.3085 138.069 56.2944C138.129 56.1958 138.198 56.1162 138.277 56.0556C138.367 55.9964 138.457 55.9431 138.546 55.8956C138.648 55.8379 138.738 55.7788 138.817 55.7181C138.908 55.659 138.989 55.5809 139.06 55.4839C139.18 55.4758 139.284 55.4479 139.372 55.4004C139.473 55.3544 139.563 55.3011 139.641 55.2404C139.732 55.1813 139.822 55.1279 139.91 55.0804C139.999 55.0329 140.104 54.9992 140.225 54.9795L140.254 54.7529C140.525 54.6699 140.728 54.5663 140.862 54.442C140.996 54.3176 141.159 54.1556 141.351 53.956C141.48 53.961 141.58 53.9681 141.649 53.9771C141.731 53.9877 141.854 53.992 142.02 53.9899C142.15 53.8059 142.268 53.6735 142.373 53.5926C142.478 53.5118 142.625 53.4246 142.815 53.331C142.977 53.4467 143.155 53.529 143.35 53.5779C143.546 53.6152 143.715 53.7258 143.856 53.9096C143.85 54.0506 143.876 54.1663 143.935 54.2567C143.996 54.3355 144.062 54.4151 144.134 54.4954C144.208 54.5641 144.281 54.6385 144.354 54.7189C144.426 54.7992 144.465 54.9047 144.472 55.0356C144.53 55.0432 144.566 55.0361 144.581 55.0143C144.607 54.9941 144.649 54.9936 144.705 55.0128C144.716 55.1088 144.73 55.1873 144.746 55.2485C144.761 55.3096 144.778 55.3649 144.795 55.4144C144.824 55.4654 144.846 55.5215 144.862 55.5826C144.889 55.6453 144.909 55.7188 144.922 55.8031C144.845 55.935 144.773 56.0793 144.706 56.2359C144.64 56.381 144.533 56.4735 144.386 56.5134C144.374 56.6064 144.402 56.6632 144.47 56.6839C144.54 56.693 144.575 56.7389 144.576 56.8218C144.574 56.9279 144.546 57.0128 144.49 57.0765C144.744 57.665 144.966 58.2787 145.155 58.9178C145.345 59.5452 145.573 60.154 145.839 60.744C145.794 60.9036 145.779 61.0671 145.793 61.2343C145.82 61.3914 145.852 61.5493 145.891 61.7079C145.941 61.8681 145.985 62.0275 146.023 62.1861C146.062 62.3447 146.083 62.5011 146.087 62.6552C146.084 62.8557 146.056 63.0707 146.003 63.3001C145.951 63.5179 145.876 63.7268 145.779 63.9269C145.682 64.1271 145.564 64.3125 145.423 64.4833C145.284 64.6425 145.133 64.7588 144.97 64.8321C144.754 65.0403 144.497 65.2018 144.198 65.3166C143.901 65.4198 143.624 65.5551 143.365 65.7224C143.191 65.7942 143.007 65.8412 142.815 65.8635C142.625 65.8742 142.428 65.8899 142.224 65.9107C142.061 65.984 141.869 66.0536 141.648 66.1193C141.428 66.1735 141.203 66.2211 140.973 66.2621C140.743 66.3031 140.515 66.3324 140.288 66.3502C140.063 66.3564 139.864 66.3365 139.693 66.2906C139.255 66.3872 138.835 66.4389 138.432 66.4456C138.029 66.4523 137.568 66.3628 137.049 66.1771ZM138.101 59.8615C137.95 60.1137 137.779 60.3396 137.587 60.5392C137.409 60.7288 137.23 60.9241 137.05 61.1252C136.87 61.3264 136.706 61.5472 136.556 61.7878C136.42 62.0182 136.324 62.3012 136.269 62.6367C136.475 62.8645 136.733 63.022 137.04 63.1093C137.361 63.1865 137.692 63.2354 138.032 63.256C138.373 63.2649 138.716 63.2623 139.061 63.248C139.405 63.2338 139.711 63.244 139.979 63.2788C139.992 63.1742 140.045 63.1279 140.138 63.14C140.633 63.157 141.103 63.0823 141.55 62.916C141.999 62.738 142.465 62.5622 142.948 62.3888C143.024 62.2569 143.116 62.1447 143.222 62.0522C143.329 61.9597 143.401 61.8154 143.438 61.6194C143.394 61.5072 143.364 61.4148 143.35 61.342C143.348 61.2708 143.356 61.1655 143.374 61.026C143.126 60.5684 142.923 60.0811 142.766 59.5643C142.61 59.0359 142.416 58.532 142.183 58.0526C142.152 58.1077 142.098 58.1598 142.021 58.2088C141.943 58.2578 141.869 58.2364 141.799 58.1445C141.749 58.2561 141.686 58.3307 141.61 58.3681C141.536 58.3939 141.452 58.4007 141.359 58.3887C141.278 58.3781 141.193 58.3493 141.104 58.3023C141.028 58.2569 140.958 58.2006 140.896 58.1334C140.447 58.4059 139.999 58.6668 139.553 58.916C139.119 59.1667 138.713 59.4743 138.334 59.8387C138.272 59.866 138.235 59.8731 138.225 59.86C138.215 59.8468 138.174 59.8474 138.101 59.8615ZM149.445 66.46C149.404 66.3247 149.362 66.1951 149.319 66.0713C149.276 65.9475 149.231 65.8354 149.185 65.7349C149.082 65.4378 148.992 65.1721 148.917 64.9377C148.841 64.7033 148.775 64.4348 148.72 64.1322C148.781 63.9392 148.882 63.6155 149.024 63.1613C149.177 62.7085 149.347 62.2166 149.535 61.6856C149.723 61.1429 149.919 60.5952 150.121 60.0424C150.334 59.4911 150.537 59.0211 150.729 58.6325C150.904 58.2889 151.093 57.9236 151.297 57.5365C151.513 57.1509 151.736 56.8017 151.965 56.4889C152.208 56.166 152.456 55.8969 152.709 55.6815C152.961 55.4662 153.218 55.352 153.48 55.3387C153.538 55.4408 153.603 55.5261 153.677 55.5948C153.752 55.6519 153.823 55.6966 153.89 55.7289C154.051 56.0335 154.212 56.2966 154.372 56.5184C154.534 56.7285 154.731 56.9432 154.962 57.1623C154.847 57.5019 154.692 57.8776 154.497 58.2894C154.314 58.6911 154.12 59.0972 153.913 59.5075C153.717 59.9193 153.523 60.3195 153.331 60.7081C153.14 61.0851 152.985 61.4136 152.866 61.6935C152.766 61.9168 152.662 62.175 152.553 62.4681C152.461 62.7162 152.357 63.0159 152.241 63.367C152.136 63.7197 152.026 64.1073 151.912 64.5297C152.081 64.5044 152.273 64.4348 152.489 64.3211C152.716 64.2088 152.927 64.0885 153.121 63.9601C153.353 63.813 153.58 63.6535 153.803 63.4817C154.105 63.2492 154.364 63.0346 154.578 62.838C154.793 62.6414 154.991 62.4367 155.172 62.2239C155.367 62.001 155.564 61.7607 155.762 61.503C155.975 61.2352 156.223 60.9188 156.506 60.5539C156.759 60.2441 157.021 59.9118 157.292 59.5571C157.574 59.2038 157.854 58.868 158.132 58.5496C158.41 58.2312 158.678 57.9411 158.937 57.6793C159.197 57.4059 159.43 57.1999 159.637 57.0614C159.749 57.2059 159.876 57.3584 160.021 57.519C160.177 57.6811 160.35 57.8041 160.54 57.8879C160.605 58.0263 160.665 58.1523 160.721 58.266C160.791 58.3695 160.854 58.4723 160.912 58.5744C160.988 58.7143 161.054 58.8411 161.11 58.9547C161.178 59.0699 161.233 59.1952 161.274 59.3306C161.251 59.422 161.211 59.541 161.157 59.6876C161.114 59.8356 161.063 60.0003 161.004 60.1817C160.947 60.3515 160.882 60.5263 160.812 60.7062C160.753 60.8876 160.694 61.0632 160.637 61.233C160.453 61.7408 160.314 62.1246 160.221 62.3843C160.128 62.644 160.06 62.8479 160.018 62.996C159.975 63.144 159.941 63.2696 159.915 63.3727C159.902 63.4772 159.883 63.6225 159.859 63.8084C159.841 63.9479 159.834 64.0889 159.839 64.2313C159.846 64.3622 159.852 64.4988 159.857 64.6413C159.875 64.7737 159.917 64.9033 159.983 65.03L160.904 64.4939C161.159 64.3498 161.412 64.1345 161.662 63.848C161.925 63.5513 162.182 63.2125 162.432 62.8314C162.696 62.4403 162.957 62.0193 163.217 61.5686C163.478 61.1062 163.74 60.6322 164.004 60.1466C164.192 59.7928 164.379 59.4449 164.566 59.1028C164.765 58.7506 164.961 58.4216 165.155 58.1159C165.35 57.7985 165.534 57.5153 165.708 57.2662C165.896 57.0069 166.071 56.7934 166.235 56.6256C166.523 56.864 166.765 57.0963 166.96 57.3225C167.166 57.5503 167.335 57.7968 167.466 58.062C167.61 58.3171 167.708 58.6076 167.761 58.9334C167.826 59.2492 167.855 59.6193 167.847 60.0437C167.527 60.4985 167.224 60.9672 166.937 61.4498C166.65 61.9324 166.362 62.4208 166.073 62.915C165.706 63.5527 165.328 64.189 164.938 64.8237C164.561 65.4483 164.154 66.0393 163.715 66.5967C163.276 67.1541 162.797 67.659 162.277 68.1114C161.77 68.5537 161.204 68.9113 160.578 69.1844C160.419 69.1283 160.282 69.0928 160.166 69.0776C160.038 69.061 159.925 69.0641 159.828 69.0869C159.742 69.1111 159.661 69.1478 159.583 69.1968C159.136 68.9141 158.794 68.5388 158.56 68.071C158.327 67.5916 158.105 67.0665 157.896 66.4957C157.872 66.4098 157.841 66.329 157.804 66.2532C157.779 66.1673 157.749 66.0807 157.713 65.9933L157.487 65.4144L157.356 65.0605L157.082 65.2554L156.673 65.539L156.437 65.7209C156.033 66.0111 155.624 66.2947 155.21 66.5717C154.797 66.8371 154.37 67.077 153.928 67.2913C153.488 67.4941 153.025 67.6466 152.539 67.7488C152.065 67.8525 151.566 67.8762 151.041 67.8198C150.954 67.7612 150.872 67.7092 150.795 67.6638C150.73 67.6199 150.665 67.5759 150.6 67.532C150.349 67.3694 150.144 67.2187 149.985 67.0798C149.826 66.9409 149.646 66.7343 149.445 66.46ZM46.0937 80.7069C45.9446 80.5811 45.8341 80.4309 45.7623 80.2561C45.6789 80.0798 45.6202 79.8949 45.5863 79.7014C45.5408 79.5064 45.5134 79.3078 45.5042 79.1058C45.485 78.8905 45.4642 78.6869 45.4419 78.495C45.463 78.3323 45.513 78.2206 45.5918 78.1599C45.6721 78.0877 45.7575 78.0219 45.8479 77.9628C46.1283 77.9875 46.3812 77.9967 46.6065 77.9906C46.8318 77.9844 47.0514 77.9775 47.2651 77.9699C47.4788 77.9622 47.6917 77.9604 47.9039 77.9644C48.1176 77.9567 48.3465 77.9687 48.5906 78.0005C48.8117 77.6629 49.019 77.3413 49.2124 77.0355C49.4073 76.7182 49.5941 76.4175 49.7729 76.1335C49.8804 75.852 50.0023 75.5961 50.1387 75.3657C50.2881 75.1251 50.4295 74.9013 50.5628 74.6941C50.6976 74.4752 50.8201 74.2607 50.9302 74.0505C51.0417 73.8287 51.1258 73.5914 51.1823 73.3388C51.3746 72.9502 51.545 72.5942 51.6934 72.2708C51.855 71.9373 51.9958 71.5361 52.1159 71.0672C51.6652 71.0795 51.3017 71.1031 51.0254 71.1381C50.7505 71.1614 50.5512 71.1946 50.4275 71.2376C50.1966 71.1957 50.0167 71.125 49.8878 71.0256C49.7706 70.9276 49.6788 70.8152 49.6126 70.6884C49.5464 70.5616 49.494 70.4189 49.4556 70.2603C49.4171 70.1017 49.3678 69.9357 49.3076 69.7624C49.3677 69.6639 49.399 69.5143 49.4014 69.3138C49.4054 69.1016 49.3553 68.9414 49.2512 68.8333C49.3472 68.8222 49.4267 68.7557 49.4898 68.6339C49.5545 68.5005 49.5739 68.3967 49.5481 68.3224C49.7532 68.29 49.9669 68.2824 50.1892 68.2995C50.413 68.305 50.6303 68.3155 50.841 68.3311C51.0648 68.3366 51.277 68.3405 51.4776 68.343C51.6797 68.3338 51.8565 68.2918 52.008 68.217C52.6153 68.2723 53.2459 68.3307 53.8997 68.3921C54.5651 68.4551 55.179 68.5054 55.7413 68.5431C55.9414 68.64 56.1751 68.7058 56.4424 68.7406C56.7213 68.7769 56.9921 68.8298 57.2548 68.8995C57.5292 68.9706 57.7634 69.0779 57.9575 69.2213C58.1632 69.3662 58.2878 69.5892 58.3313 69.8903C58.5026 69.9363 58.6244 69.9994 58.6967 70.0797C58.7806 70.1615 58.8273 70.2562 58.837 70.3638C58.8481 70.4598 58.8396 70.571 58.8113 70.6973C58.7962 70.8135 58.7811 70.9297 58.766 71.0459C58.5619 71.1612 58.3086 71.2464 58.006 71.3016C57.7165 71.3466 57.3995 71.3763 57.0549 71.3906C56.7118 71.3932 56.3529 71.382 55.978 71.3569C55.6162 71.3216 55.2603 71.2871 54.9101 71.2534C54.8021 71.6293 54.6386 72.069 54.4195 72.5722C54.2136 73.0654 54.0025 73.552 53.7865 74.0321C53.5719 74.5005 53.3808 74.9247 53.2132 75.3047C53.0588 75.6746 52.9798 75.9184 52.9763 76.0361C52.8253 76.2883 52.6971 76.502 52.5915 76.6774C52.4976 76.8542 52.4052 77.0195 52.3143 77.1731C52.2351 77.3282 52.15 77.4826 52.0591 77.6362C51.9813 77.7798 51.8831 77.9442 51.7645 78.1297L52.9498 78.2839C52.9564 78.4147 52.9974 78.5087 53.0727 78.5658C53.148 78.6228 53.2298 78.6748 53.3183 78.7218C53.4067 78.7688 53.482 78.8258 53.5442 78.893C53.6195 78.9501 53.6496 79.0367 53.6344 79.1529C53.8477 79.2397 53.9758 79.345 54.0188 79.4688C54.0618 79.5926 54.0568 79.7219 54.0038 79.8568C53.9639 79.9816 53.8884 80.1077 53.7773 80.2351C53.6778 80.3639 53.5806 80.4754 53.4856 80.5694C53.3841 80.5325 53.2815 80.5487 53.178 80.618C53.0759 80.6756 52.9782 80.7456 52.8848 80.828C52.5538 80.7377 52.2234 80.6888 51.8934 80.6813C51.5635 80.6739 51.2576 80.6636 50.9757 80.6506C50.9161 80.6547 50.8883 80.6865 50.8924 80.7461C50.8979 80.7941 50.8818 80.8275 50.8439 80.8462C50.4988 80.6831 50.1329 80.5882 49.7464 80.5616C49.3715 80.5365 48.9805 80.5447 48.5733 80.5863C48.1792 80.6177 47.7728 80.6535 47.3539 80.6936C46.9336 80.7452 46.5135 80.7497 46.0937 80.7069ZM66.2821 82.4643C66.2417 82.4118 66.2078 82.3542 66.1805 82.2916C66.1547 82.2173 66.137 82.1264 66.1273 82.0187C65.9903 81.8 65.892 81.5568 65.8323 81.289C65.7726 81.0213 65.7427 80.7515 65.7426 80.4797C65.744 80.1963 65.7745 79.9166 65.834 79.6407C65.8935 79.3649 65.9682 79.1087 66.058 78.8722C66.108 78.7605 66.1529 78.6423 66.1928 78.5175C66.2796 78.3042 66.3657 78.0968 66.451 77.8952C66.5378 77.682 66.6484 77.5132 66.7828 77.3888C66.7529 77.255 66.7769 77.1163 66.8546 76.9727C66.9324 76.8292 67.0086 76.6973 67.0833 76.5771C67.1111 76.5452 67.1323 76.5184 67.147 76.4967C67.1631 76.4634 67.1785 76.4358 67.1932 76.4141C67.3855 76.0255 67.5698 75.6536 67.746 75.2983C67.9353 74.933 68.1166 74.5843 68.2898 74.2523C68.6053 73.6434 68.9077 73.0446 69.197 72.4559C69.4979 71.8687 69.7809 71.2378 70.0459 70.5633C70.1479 70.5056 70.2353 70.4697 70.3081 70.4556C70.3328 70.447 70.3634 70.4391 70.3998 70.432C70.4361 70.4249 70.4776 70.4244 70.5241 70.4305C70.7515 70.59 71.0203 70.7491 71.3306 70.9076C71.654 71.0561 71.9319 71.1454 72.1643 71.1756L72.4266 71.4756C72.555 71.6696 72.6587 71.8722 72.7376 72.0833C72.8296 72.2844 72.8327 72.5329 72.7469 72.829C72.6636 72.9245 72.5972 72.9809 72.5477 72.9981C72.4432 73.2563 72.3366 73.4847 72.2281 73.6833C72.1211 73.8703 72.0148 74.0514 71.9092 74.2268C71.7891 74.4239 71.6747 74.6217 71.5661 74.8203C71.4576 75.0189 71.3546 75.2655 71.2572 75.5601C71.1769 75.6324 71.1213 75.696 71.0905 75.7511C71.0714 75.8077 71.0464 75.8635 71.0156 75.9186C70.9833 75.9853 70.9444 76.0571 70.8989 76.1339C70.855 76.1991 70.7944 76.2562 70.7171 76.3052C70.6238 76.6594 70.5155 76.9467 70.3923 77.167C70.2706 77.3757 70.1489 77.5844 70.0272 77.7931C69.8116 78.1787 69.6077 78.5658 69.4153 78.9544C69.2245 79.3313 69.0842 79.774 68.9944 80.2823C69.1384 80.2655 69.2685 80.2647 69.3847 80.2799C69.5358 80.2995 69.678 80.3416 69.8114 80.4063C70.257 80.2515 70.7268 80.1826 71.2209 80.1996C71.7267 80.2181 72.2244 80.2533 72.7139 80.3052C73.1207 80.3581 73.5006 80.3898 73.8538 80.4003C73.9594 80.4967 74.0289 80.5531 74.0622 80.5692C74.0971 80.5737 74.1552 80.5813 74.2366 80.5919C74.2714 80.5964 74.3063 80.601 74.3411 80.6055C74.376 80.61 74.4217 80.6219 74.4783 80.6411C74.6199 80.8249 74.7616 80.9615 74.9036 81.0509C75.0471 81.1287 75.2023 81.2079 75.369 81.2887C75.5125 81.3665 75.6495 81.4493 75.7799 81.5371C75.9234 81.6149 76.0581 81.7151 76.1839 81.8379L76.2252 82.7473C76.3015 82.8872 76.3308 82.9796 76.3132 83.0246C76.3011 83.1176 76.2672 83.1959 76.2117 83.2596L76.2171 83.4907C75.9902 83.5085 75.8382 83.5419 75.7609 83.5909C75.6851 83.6283 75.6013 83.6824 75.5093 83.7532C75.38 83.7482 75.2572 83.7381 75.141 83.723C74.9086 83.6928 74.6658 83.6966 74.4127 83.7346C74.0807 83.5614 73.7056 83.4476 73.2872 83.3932C73.1245 83.3721 72.9553 83.356 72.7794 83.3449C72.6152 83.3354 72.4503 83.3316 72.2846 83.3337C72.1072 83.3343 71.9299 83.3348 71.7525 83.3354C71.5767 83.3244 71.4017 83.3075 71.2273 83.2848C71.0849 83.2899 70.9838 83.2945 70.9242 83.2986C70.8646 83.3026 70.8042 83.3125 70.7431 83.3282C70.3314 83.4046 69.8848 83.4765 69.4033 83.5439C68.9335 83.6128 68.4661 83.617 68.0013 83.5565C67.3157 83.4673 66.7863 83.2212 66.4133 82.8182C66.3805 82.7075 66.3547 82.6333 66.336 82.5954C66.3172 82.5575 66.2993 82.5138 66.2821 82.4643ZM82.4769 85.2976C81.9565 85.3008 81.4947 85.2171 81.0915 85.0465C80.6883 84.8759 80.334 84.6466 80.0288 84.3588C79.7351 84.0724 79.4882 83.7448 79.288 83.3761C79.0994 83.0089 78.9545 82.6237 78.8533 82.2205C78.8515 81.4167 78.9735 80.7058 79.2194 80.0878C79.4667 79.4582 79.7828 78.8907 80.1676 78.3854C80.5524 77.88 80.9734 77.4148 81.4304 76.9897C81.8991 76.5662 82.3481 76.1578 82.7775 75.7646C82.8543 75.81 82.9182 75.8183 82.9692 75.7895C83.0318 75.7622 83.0844 75.7218 83.1268 75.6682C83.1808 75.6161 83.2349 75.5641 83.2889 75.512C83.3546 75.4615 83.4238 75.4291 83.4965 75.4149C83.5566 75.3164 83.6261 75.2368 83.7049 75.1761C83.7953 75.117 83.8849 75.0637 83.9738 75.0161C84.0759 74.9585 84.1663 74.8994 84.2451 74.8387C84.3355 74.7796 84.4166 74.7015 84.4883 74.6045C84.6075 74.5963 84.7116 74.5685 84.8005 74.521C84.901 74.475 84.9907 74.4216 85.0694 74.361C85.1599 74.3018 85.2495 74.2485 85.3384 74.201C85.4273 74.1535 85.5322 74.1198 85.6529 74.1001L85.6824 73.8735C85.9531 73.7905 86.1557 73.6869 86.2901 73.5625C86.4244 73.4382 86.5873 73.2762 86.7787 73.0766C86.908 73.0816 87.0076 73.0886 87.0773 73.0977C87.1586 73.1083 87.2822 73.1125 87.4479 73.1104C87.5782 72.9265 87.6958 72.7941 87.8009 72.7132C87.906 72.6323 88.0532 72.5451 88.2426 72.4516C88.4049 72.5672 88.5832 72.6495 88.7778 72.6985C88.9738 72.7358 89.1426 72.8464 89.2841 73.0302C89.2776 73.1712 89.3039 73.2869 89.3631 73.3773C89.4237 73.4561 89.4902 73.5356 89.5625 73.6159C89.6362 73.6846 89.7093 73.7591 89.7816 73.8394C89.8538 73.9197 89.8933 74.0253 89.8999 74.1562C89.958 74.1637 89.9944 74.1566 90.009 74.1349C90.0353 74.1147 90.0767 74.1142 90.1333 74.1333C90.1444 74.2293 90.1579 74.3079 90.1735 74.369C90.1892 74.4302 90.2057 74.4855 90.2229 74.535C90.2517 74.586 90.2739 74.6421 90.2896 74.7032C90.3169 74.7658 90.3369 74.8393 90.3496 74.9237C90.2733 75.0556 90.2014 75.1999 90.1337 75.3565C90.0676 75.5015 89.961 75.594 89.814 75.634C89.8019 75.727 89.83 75.7838 89.8982 75.8045C89.9679 75.8136 90.0033 75.8595 90.0043 75.9424C90.0024 76.0485 89.9736 76.1334 89.918 76.197C90.1724 76.7855 90.3939 77.3993 90.5826 78.0384C90.7728 78.6658 91.0008 79.2745 91.2668 79.8645C91.2224 80.0242 91.207 80.1877 91.2207 80.3549C91.2476 80.512 91.2802 80.6699 91.3187 80.8285C91.3687 80.9886 91.413 81.148 91.4515 81.3067C91.4899 81.4653 91.5109 81.6217 91.5145 81.7757C91.5121 81.9763 91.4841 82.1913 91.4306 82.4207C91.3787 82.6385 91.3042 82.8474 91.2073 83.0475C91.1104 83.2476 90.9917 83.4331 90.8513 83.6039C90.7124 83.7631 90.5614 83.8794 90.3982 83.9527C90.1821 84.1609 89.9247 84.3224 89.6262 84.4372C89.3291 84.5404 89.0515 84.6756 88.7934 84.843C88.6186 84.9148 88.4353 84.9618 88.2433 84.9841C88.0528 84.9948 87.8558 85.0105 87.6522 85.0313C87.489 85.1046 87.2968 85.1742 87.0755 85.2399C86.8558 85.2941 86.631 85.3416 86.4011 85.3826C86.1712 85.4236 85.9429 85.453 85.716 85.4708C85.4907 85.4769 85.2924 85.457 85.1211 85.4111C84.6831 85.5078 84.2628 85.5595 83.8601 85.5662C83.4574 85.5729 82.9964 85.4834 82.4769 85.2976ZM83.5289 78.9821C83.3779 79.2343 83.2067 79.4602 83.0153 79.6598C82.837 79.8493 82.658 80.0447 82.4782 80.2458C82.2984 80.447 82.1338 80.6678 81.9843 80.9084C81.848 81.1388 81.7521 81.4217 81.6966 81.7572C81.9033 81.985 82.1606 82.1426 82.4683 82.2299C82.7891 82.3071 83.1196 82.3559 83.4596 82.3765C83.8011 82.3855 84.1442 82.3829 84.4887 82.3686C84.8333 82.3543 85.1392 82.3646 85.4065 82.3993C85.4201 82.2948 85.4734 82.2485 85.5664 82.2606C86.0605 82.2776 86.5311 82.2029 86.9781 82.0365C87.4267 81.8585 87.8927 81.6828 88.3762 81.5093C88.4524 81.3774 88.5438 81.2653 88.6504 81.1728C88.757 81.0803 88.8289 80.936 88.8662 80.7399C88.8217 80.6278 88.7924 80.5354 88.7782 80.4626C88.7757 80.3914 88.7835 80.286 88.8016 80.1466C88.5539 79.6889 88.3514 79.2017 88.1941 78.6849C88.0383 78.1565 87.8438 77.6526 87.6107 77.1732C87.5799 77.2283 87.5259 77.2803 87.4486 77.3294C87.3713 77.3784 87.2973 77.357 87.2265 77.265C87.1766 77.3767 87.1137 77.4513 87.0379 77.4887C86.9637 77.5145 86.8801 77.5213 86.7871 77.5092C86.7057 77.4986 86.6208 77.4699 86.5324 77.4229C86.4556 77.3775 86.3861 77.3212 86.3239 77.254C85.8749 77.5265 85.4274 77.7873 84.9813 78.0366C84.5469 78.2873 84.1406 78.5949 83.7623 78.9593C83.6996 78.9866 83.6633 78.9937 83.6531 78.9806C83.643 78.9674 83.6016 78.9679 83.5289 78.9821ZM95.0419 80.1961C95.0261 79.8631 95.0525 79.5238 95.1211 79.1782C95.1897 78.8326 95.2452 78.4971 95.2875 78.1718C95.3283 77.858 95.3481 77.5238 95.347 77.1691C95.359 76.8043 95.3687 76.457 95.3762 76.1271C95.3953 75.7986 95.4222 75.5008 95.457 75.2335C95.5049 74.9561 95.5735 74.7464 95.6629 74.6044C95.7785 74.4422 95.9121 74.3237 96.0636 74.2489C96.2167 74.1624 96.3654 74.0636 96.5099 73.9524C96.658 73.9953 96.7855 74.0592 96.8927 74.144C97.013 74.2187 97.107 74.3137 97.1747 74.4288C97.2556 74.5339 97.3066 74.641 97.3279 74.7501C97.3608 74.8607 97.3588 74.9668 97.322 75.0684C97.5898 75.2805 97.7912 75.549 97.9262 75.8738C98.0744 76.1885 98.1715 76.532 98.2176 76.9044C98.2769 77.2666 98.2982 77.6475 98.2817 78.0472C98.2768 78.4483 98.261 78.8422 98.2344 79.2287C98.2193 79.6167 98.2008 79.9865 98.1787 80.3382C98.1697 80.6797 98.1893 80.9836 98.2373 81.2498C98.8454 80.5726 99.3608 79.972 99.7835 79.4479C100.219 78.9137 100.651 78.4086 101.08 77.9325C101.509 77.4448 101.981 76.9566 102.493 76.4678C103.017 75.9806 103.673 75.4395 104.459 74.8446C104.607 74.8875 104.72 74.9317 104.797 74.9771C104.873 75.0225 104.95 75.068 105.027 75.1134C105.104 75.1589 105.187 75.1993 105.277 75.2346C105.369 75.2583 105.497 75.2691 105.663 75.2671C105.703 75.4141 105.73 75.5239 105.744 75.5967C105.771 75.6593 105.793 75.7212 105.809 75.7823C105.824 75.8435 105.843 75.9228 105.866 76.0203C105.889 76.1178 105.923 76.264 105.969 76.459C105.998 76.5101 106.001 76.5755 105.979 76.6553C105.97 76.725 105.955 76.7882 105.936 76.8448C105.917 76.9014 105.905 76.9471 105.901 76.982C105.908 77.0183 105.948 77.0236 106.023 76.9978C105.951 77.1894 105.852 77.3597 105.726 77.5087C105.602 77.6462 105.531 77.8261 105.514 78.0484C105.146 78.4259 104.741 78.8106 104.3 79.2023C103.859 79.594 103.415 80.0089 102.968 80.4471C102.523 80.8737 102.086 81.325 101.658 81.8011C101.243 82.2671 100.875 82.7747 100.556 83.324C100.486 83.3149 100.431 83.3256 100.392 83.3559C100.352 83.3862 100.312 83.4224 100.271 83.4643C100.242 83.5078 100.207 83.5505 100.166 83.5924C100.137 83.6359 100.087 83.6531 100.018 83.644C99.946 84.0129 99.7605 84.3492 99.461 84.6529C99.1746 84.9465 98.8885 85.1929 98.6026 85.3921C98.6137 85.4881 98.6155 85.5651 98.608 85.6233C98.6004 85.6814 98.587 85.7387 98.5679 85.7953C98.5487 85.8519 98.5287 85.9143 98.5081 85.9825C98.5005 86.0406 98.4965 86.1169 98.496 86.2114C98.3551 86.4767 98.1855 86.691 97.987 86.8542C97.8001 87.019 97.6018 87.135 97.3922 87.2023C97.1825 87.2695 96.9746 87.278 96.7685 87.2275C96.5608 87.1887 96.3723 87.0933 96.203 86.9412C96.1277 86.8842 96.0663 86.8112 96.0188 86.7223C95.9713 86.6334 95.9172 86.5495 95.8565 86.4707C95.809 86.3818 95.7542 86.3038 95.692 86.2366C95.643 86.1593 95.5735 86.103 95.4835 86.0677C95.5219 85.9545 95.5377 85.8325 95.5311 85.7016C95.5361 85.5723 95.528 85.4531 95.5068 85.3439C95.4855 85.2348 95.4562 85.1424 95.4187 85.0666C95.3813 84.9908 95.3394 84.9499 95.2929 84.9439C95.2842 84.6473 95.2611 84.3252 95.2236 83.9776C95.1992 83.62 95.1683 83.2673 95.1308 82.9197C95.1049 82.5737 95.0899 82.2349 95.0857 81.9035C95.0815 81.572 95.1034 81.2676 95.1513 80.9902C95.1811 80.8523 95.1679 80.7265 95.1118 80.6128C95.0688 80.4891 95.0455 80.3501 95.0419 80.1961ZM106.074 87.6935C105.994 87.5884 105.938 87.4689 105.908 87.3351C105.89 87.2027 105.811 87.086 105.67 86.985C105.67 86.8077 105.66 86.6056 105.643 86.3788C105.638 86.1418 105.628 85.9041 105.611 85.6656C105.608 85.4171 105.61 85.1751 105.617 84.9396C105.637 84.6941 105.678 84.4748 105.738 84.2818C105.775 84.1802 105.823 84.086 105.881 83.999C105.952 83.9136 106.015 83.8333 106.072 83.758C106.142 83.6726 106.195 83.5849 106.231 83.4949C106.278 83.4065 106.295 83.3143 106.284 83.2183C106.355 83.2158 106.401 83.1862 106.42 83.1296C106.452 83.0629 106.513 83.0472 106.603 83.0825C106.718 82.8375 106.836 82.6106 106.958 82.4019C107.079 82.1932 107.206 81.991 107.338 81.7955C107.47 81.5999 107.602 81.4043 107.733 81.2087C107.878 81.0031 108.015 80.7726 108.142 80.5174C107.969 80.3058 107.849 80.0894 107.784 79.8681C107.731 79.6367 107.696 79.4076 107.678 79.1808C107.66 78.9539 107.654 78.7286 107.66 78.5048C107.667 78.2693 107.65 78.0309 107.611 77.7894C107.778 77.5983 107.968 77.4518 108.182 77.3496C108.398 77.2359 108.627 77.1534 108.87 77.1023C109.126 77.0411 109.397 77.0054 109.682 76.9952C109.968 76.9734 110.273 76.948 110.596 76.9191C111.176 76.8173 111.693 76.7487 112.147 76.7132C112.602 76.666 113.043 76.6406 113.469 76.6369C113.896 76.6216 114.339 76.6202 114.799 76.6326C115.259 76.6335 115.793 76.6202 116.399 76.5927C116.406 76.629 116.421 76.6487 116.445 76.6518C116.48 76.6563 116.52 76.6616 116.567 76.6676C116.591 76.7535 116.65 76.8025 116.743 76.8146C116.747 76.7797 116.745 76.7499 116.736 76.7252C116.741 76.6903 116.745 76.6613 116.748 76.638C116.771 76.641 116.799 76.6506 116.833 76.6668C116.878 76.6845 116.911 76.7006 116.933 76.7153C116.966 76.7314 116.995 76.7352 117.02 76.7266C117.046 76.7064 117.057 76.6665 117.053 76.6068C117.161 76.869 117.315 77.0958 117.514 77.2872C117.715 77.467 117.942 77.6324 118.194 77.7834C118.192 77.8895 118.182 77.965 118.165 78.01C118.159 78.0565 118.147 78.1022 118.129 78.1472C118.113 78.1805 118.101 78.2262 118.094 78.2843C118.088 78.3308 118.09 78.4021 118.101 78.4981C117.874 78.7876 117.628 79.0037 117.361 79.1463C117.106 79.2904 116.839 79.3915 116.559 79.4497C116.28 79.5079 115.986 79.5406 115.678 79.5478C115.381 79.5565 115.072 79.5695 114.751 79.5867C114.443 79.5939 114.126 79.6236 113.8 79.6758C113.474 79.7279 113.148 79.8273 112.822 79.9739C112.733 79.927 112.648 79.904 112.565 79.9051C112.495 79.896 112.418 79.8978 112.334 79.9104C112.249 79.9231 112.153 79.9343 112.046 79.9439C111.95 79.955 111.834 79.9399 111.697 79.8985C111.594 79.9678 111.476 80.0115 111.343 80.0298C111.223 80.0495 111.096 80.0685 110.964 80.0867C111.005 80.2221 111.012 80.353 110.983 80.4793C110.967 80.6071 110.97 80.7198 110.993 80.8173C111.475 80.9273 112.015 80.9976 112.614 81.0282C113.214 81.0472 113.8 81.0821 114.373 81.1329C114.377 81.1925 114.366 81.2324 114.339 81.2526C114.313 81.2729 114.296 81.312 114.289 81.3701C114.384 81.4535 114.472 81.5535 114.551 81.6701C114.63 81.7868 114.71 81.9035 114.789 82.0202C114.882 82.1267 114.976 82.2217 115.071 82.305C115.168 82.3767 115.287 82.4159 115.428 82.4224C115.471 82.5461 115.496 82.6734 115.503 82.8043C115.509 82.9352 115.474 83.0665 115.398 83.1984C115.146 83.3193 114.899 83.4467 114.657 83.5806C114.417 83.703 114.166 83.8122 113.905 83.9083C113.656 84.0059 113.387 84.0772 113.098 84.1223C112.808 84.1674 112.501 84.1629 112.178 84.109C112.119 84.1014 112.067 84.0946 112.021 84.0886C111.986 84.084 111.942 84.0547 111.89 84.0007C111.767 84.0437 111.607 84.0465 111.411 84.0092C111.228 83.9618 111.069 83.9588 110.933 84.0003C110.778 83.921 110.59 83.867 110.369 83.8383C110.16 83.8111 109.978 83.7579 109.823 83.6786C109.574 83.9535 109.335 84.2474 109.105 84.5602C108.877 84.8614 108.669 85.1889 108.481 85.5426C108.949 85.6743 109.34 85.7548 109.655 85.7839C109.971 85.8131 110.27 85.8284 110.553 85.8299C110.837 85.8313 111.126 85.8334 111.421 85.8364C111.728 85.8408 112.095 85.8768 112.524 85.9444C112.832 85.8427 113.176 85.7928 113.554 85.7947C113.945 85.7865 114.31 85.7512 114.649 85.689C114.76 85.7389 114.85 85.8215 114.918 85.9367C114.987 86.0402 115.05 86.1488 115.106 86.2625C115.175 86.366 115.246 86.458 115.318 86.5383C115.39 86.6186 115.492 86.6554 115.623 86.6488C115.673 86.7145 115.699 86.7887 115.7 86.8716C115.713 86.956 115.721 87.0338 115.723 87.105C115.737 87.1777 115.759 87.2396 115.788 87.2907C115.818 87.33 115.88 87.35 115.975 87.3505C115.695 87.7749 115.4 88.0911 115.089 88.2988C114.79 88.5081 114.457 88.6598 114.091 88.7539C113.737 88.8379 113.341 88.8868 112.902 88.9006C112.476 88.9043 111.995 88.9186 111.46 88.9435C111.329 88.9501 111.219 88.9358 111.129 88.9004C111.052 88.855 110.967 88.8262 110.874 88.8141C110.541 88.8299 110.144 88.8374 109.684 88.8365C109.235 88.8372 108.784 88.8023 108.332 88.7317C107.881 88.6611 107.452 88.5463 107.048 88.3873C106.643 88.2283 106.319 87.997 106.074 87.6935ZM128.911 91.8516C127.906 91.5791 127.355 90.9579 127.257 89.9879L127.299 89.7984C127.364 89.665 127.436 89.5149 127.517 89.3481C127.601 89.1582 127.69 88.9747 127.784 88.7979C127.879 88.6094 128.018 88.4502 128.2 88.3203C128.249 88.2202 128.333 88.0716 128.453 87.8746C128.587 87.6674 128.797 87.3639 129.086 86.9642C129.315 86.6513 129.496 86.403 129.626 86.219C129.768 86.0366 129.88 85.8976 129.964 85.8021C129.875 85.5778 129.738 85.3533 129.555 85.1285C129.414 84.7557 129.295 84.4033 129.196 84.0714C129.111 83.7294 129.05 83.426 129.013 83.1613C129.038 82.8809 129.028 82.5901 128.985 82.289C128.97 82.1334 128.954 81.9778 128.939 81.8222C128.924 81.6666 128.927 81.5075 128.948 81.3448C128.912 81.2574 128.885 81.1475 128.867 81.0151L128.929 80.8105C128.999 80.7251 129.027 80.6046 129.011 80.449C129.009 80.2833 128.996 80.116 128.97 79.9473C128.955 79.7917 128.941 79.6303 128.927 79.4631C128.926 79.2857 128.942 79.1165 128.975 78.9553C129.008 78.7941 129.069 78.6425 129.158 78.5005C129.259 78.36 129.41 78.2496 129.609 78.1692L129.799 78.0698L129.96 78.1971C130.077 78.2951 130.19 78.3807 130.299 78.4539C130.408 78.5271 130.516 78.6003 130.625 78.6735C130.755 78.7614 130.885 78.8551 131.014 78.9546C131.144 79.0424 131.285 79.1434 131.435 79.2575L131.594 79.4022L131.551 79.5917C131.548 79.615 131.55 79.6448 131.558 79.6811C131.565 79.7175 131.578 79.7488 131.598 79.7751L131.783 79.8523L131.769 80.0986L131.742 80.3078C131.728 80.4124 131.724 80.4887 131.73 80.5367C131.737 80.5731 131.755 80.6168 131.784 80.6678L131.841 80.9057C131.814 81.1149 131.807 81.3031 131.821 81.4703C131.835 81.6375 131.854 81.8055 131.88 81.9743C131.917 82.1445 131.941 82.3191 131.953 82.4979C131.967 82.6651 131.949 82.846 131.9 83.0406C131.975 83.0148 132.051 82.9715 132.13 82.9109C132.156 82.8907 132.183 82.8704 132.209 82.8502C132.247 82.8315 132.285 82.8128 132.323 82.7941L133.758 81.2968L133.75 81.0831L134.241 80.7215C134.369 80.6436 134.491 80.565 134.608 80.4857C134.726 80.3947 134.829 80.2898 134.915 80.171L135.04 80.0278C135.654 79.3985 136.384 79.0562 137.23 79.0009L137.535 78.9697L137.586 79.2599C137.623 79.4302 137.714 79.5898 137.861 79.7388C138.02 79.8777 138.191 80.0181 138.373 80.16L138.549 80.3069C138.6 80.4554 138.622 80.5646 138.613 80.6343C138.604 80.704 138.59 80.7614 138.573 80.8063L138.63 81.0443C138.459 81.3647 138.287 81.5906 138.117 81.722C137.947 81.8418 137.773 81.955 137.594 82.0617C137.452 82.1496 137.323 82.2391 137.204 82.3301C137.086 82.4211 136.99 82.5267 136.915 82.647L136.753 82.8031C136.443 82.9164 136.228 83.113 136.109 83.393L136.007 83.6279L135.746 83.5939C135.734 83.5924 135.702 83.6177 135.647 83.6698C135.595 83.7102 135.509 83.8231 135.391 84.0086C135.268 84.1345 135.18 84.2176 135.128 84.258C135.088 84.2884 135.056 84.3136 135.029 84.3338C134.999 84.3889 134.968 84.4382 134.939 84.4817C134.922 84.5266 134.897 84.5825 134.864 84.6492L134.742 84.775C134.625 84.8544 134.537 84.9375 134.479 85.0244C134.422 85.0997 134.356 85.1917 134.283 85.3004C134.223 85.3989 134.156 85.5025 134.083 85.6112C134.012 85.7082 133.917 85.8022 133.798 85.8932L133.808 86.0895L133.653 86.1933C133.549 86.2626 133.454 86.3566 133.368 86.4754C133.283 86.5825 133.198 86.6954 133.111 86.8142C133.023 86.9446 132.93 87.0742 132.83 87.2031C132.731 87.3319 132.61 87.4462 132.467 87.5458C132.358 87.7443 132.261 87.8972 132.177 88.0044C132.103 88.113 131.981 88.2388 131.808 88.3819C131.596 88.9216 131.187 89.4769 130.581 90.0481C130.553 90.1744 130.496 90.2969 130.409 90.4157C130.336 90.5243 130.258 90.6264 130.175 90.7219C130.145 90.7654 130.109 90.8139 130.067 90.8675C130.038 90.9109 130.016 90.9435 130.001 90.9653L129.924 91.1502C129.837 91.269 129.748 91.3637 129.656 91.4345C129.576 91.5068 129.497 91.5732 129.418 91.6339C129.38 91.6526 129.341 91.6771 129.302 91.7075C129.274 91.7393 129.247 91.7653 129.221 91.7855L128.911 91.8516ZM140.628 92.8616C140.107 92.8648 139.645 92.7811 139.242 92.6105C138.839 92.4398 138.485 92.2106 138.18 91.9227C137.886 91.6364 137.639 91.3088 137.439 90.9401C137.25 90.5728 137.105 90.1876 137.004 89.7845C137.002 88.9807 137.124 88.2698 137.37 87.6518C137.617 87.0222 137.934 86.4547 138.318 85.9493C138.703 85.444 139.124 84.9787 139.581 84.5537C140.05 84.1301 140.499 83.7217 140.928 83.3285C141.005 83.374 141.069 83.3823 141.12 83.3535C141.183 83.3262 141.235 83.2857 141.278 83.2322C141.332 83.1801 141.386 83.128 141.44 83.076C141.505 83.0254 141.575 82.9931 141.647 82.9789C141.707 82.8804 141.777 82.8008 141.856 82.7401C141.946 82.681 142.036 82.6276 142.125 82.5801C142.227 82.5225 142.317 82.4633 142.396 82.4027C142.486 82.3435 142.567 82.2654 142.639 82.1684C142.758 82.1603 142.862 82.1325 142.951 82.0849C143.052 82.0389 143.141 81.9856 143.22 81.9249C143.311 81.8658 143.4 81.8125 143.489 81.7649C143.578 81.7174 143.683 81.6838 143.804 81.664L143.833 81.4374C144.104 81.3545 144.306 81.2508 144.441 81.1265C144.575 81.0022 144.738 80.8402 144.929 80.6405C145.059 80.6455 145.158 80.6526 145.228 80.6617C145.309 80.6722 145.433 80.6765 145.599 80.6744C145.729 80.4905 145.847 80.358 145.952 80.2772C146.057 80.1963 146.204 80.1091 146.393 80.0156C146.556 80.1312 146.734 80.2135 146.929 80.2624C147.125 80.2997 147.293 80.4103 147.435 80.5942C147.428 80.7351 147.455 80.8508 147.514 80.9413C147.574 81.02 147.641 81.0996 147.713 81.1799C147.787 81.2486 147.86 81.3231 147.932 81.4034C148.005 81.4837 148.044 81.5893 148.051 81.7201C148.109 81.7277 148.145 81.7206 148.16 81.6989C148.186 81.6787 148.227 81.6781 148.284 81.6973C148.295 81.7933 148.309 81.8719 148.324 81.933C148.34 81.9941 148.356 82.0494 148.374 82.0989C148.402 82.15 148.425 82.206 148.44 82.2672C148.468 82.3298 148.488 82.4033 148.5 82.4877C148.424 82.6196 148.352 82.7638 148.284 82.9205C148.218 83.0655 148.112 83.158 147.965 83.198C147.953 83.2909 147.981 83.3478 148.049 83.3684C148.119 83.3775 148.154 83.4235 148.155 83.5063C148.153 83.6124 148.124 83.6973 148.069 83.761C148.323 84.3495 148.545 84.9633 148.733 85.6023C148.924 86.2298 149.152 86.8385 149.418 87.4285C149.373 87.5882 149.358 87.7516 149.371 87.9188C149.398 88.076 149.431 88.2338 149.469 88.3925C149.519 88.5526 149.564 88.712 149.602 88.8706C149.641 89.0293 149.662 89.1856 149.665 89.3397C149.663 89.5403 149.635 89.7553 149.581 89.9847C149.529 90.2024 149.455 90.4114 149.358 90.6115C149.261 90.8116 149.142 90.9971 149.002 91.1679C148.863 91.3271 148.712 91.4433 148.549 91.5166C148.333 91.7249 148.075 91.8864 147.777 92.0012C147.48 92.1043 147.202 92.2396 146.944 92.4069C146.769 92.4787 146.586 92.5258 146.394 92.5481C146.204 92.5587 146.007 92.5745 145.803 92.5953C145.64 92.6686 145.448 92.7381 145.226 92.8039C145.007 92.858 144.782 92.9056 144.552 92.9466C144.322 92.9876 144.094 93.017 143.867 93.0347C143.641 93.0409 143.443 93.021 143.272 92.9751C142.834 93.0717 142.414 93.1234 142.011 93.1301C141.608 93.1368 141.147 93.0473 140.628 92.8616ZM141.68 86.5461C141.529 86.7982 141.357 87.0241 141.166 87.2238C140.988 87.4133 140.809 87.6086 140.629 87.8098C140.449 88.0109 140.285 88.2318 140.135 88.4723C139.999 88.7027 139.903 88.9857 139.847 89.3212C140.054 89.549 140.311 89.7065 140.619 89.7938C140.94 89.871 141.27 89.9199 141.61 89.9405C141.952 89.9495 142.295 89.9468 142.639 89.9326C142.984 89.9183 143.29 89.9285 143.557 89.9633C143.571 89.8587 143.624 89.8125 143.717 89.8246C144.211 89.8416 144.682 89.7669 145.129 89.6005C145.577 89.4225 146.043 89.2468 146.527 89.0733C146.603 88.9414 146.695 88.8292 146.801 88.7367C146.908 88.6442 146.98 88.5 147.017 88.3039C146.972 88.1918 146.943 88.0993 146.929 88.0266C146.926 87.9553 146.934 87.85 146.952 87.7105C146.705 87.2529 146.502 86.7657 146.345 86.2489C146.189 85.7204 145.995 85.2165 145.761 84.7372C145.731 84.7922 145.677 84.8443 145.599 84.8933C145.522 84.9424 145.448 84.9209 145.377 84.829C145.327 84.9407 145.264 85.0152 145.189 85.0526C145.114 85.0784 145.031 85.0853 144.938 85.0732C144.856 85.0626 144.772 85.0338 144.683 84.9869C144.606 84.9414 144.537 84.8851 144.475 84.818C144.026 85.0904 143.578 85.3513 143.132 85.6005C142.698 85.8513 142.291 86.1589 141.913 86.5233C141.85 86.5506 141.814 86.5576 141.804 86.5445C141.794 86.5314 141.752 86.5319 141.68 86.5461ZM153.532 85.6948C153.529 85.5407 153.512 85.4439 153.481 85.4045C153.59 85.2059 153.674 85.0101 153.735 84.8171C153.809 84.614 153.869 84.421 153.917 84.238C153.961 84.0784 154.004 83.9303 154.045 83.7939C154.098 83.659 154.156 83.5306 154.22 83.4089C154.423 83.3881 154.579 83.3256 154.687 83.2215C154.808 83.1073 154.904 83.0075 154.974 82.922C155.185 82.9376 155.315 82.9841 155.364 83.0614C155.424 83.1401 155.485 83.2662 155.545 83.4395C155.586 83.5748 155.65 83.7249 155.735 83.8895C155.821 84.0426 155.964 84.1734 156.162 84.282C156.18 84.4143 156.205 84.5416 156.237 84.6639C156.268 84.7861 156.304 84.915 156.346 85.0504C156.419 85.308 156.484 85.5765 156.542 85.8559C156.602 86.1236 156.623 86.3745 156.604 86.6084C156.43 86.8575 156.279 87.1511 156.153 87.4892C156.038 87.8287 155.945 88.1771 155.875 88.5343C155.818 88.8815 155.786 89.22 155.778 89.5499C155.771 89.8798 155.793 90.1605 155.846 90.3918L155.914 90.6843L156.302 90.6994C156.734 90.6492 157.127 90.5821 157.481 90.4981C157.836 90.4025 158.171 90.2806 158.486 90.1325C158.8 89.9843 159.106 89.8114 159.404 89.6138C159.703 89.4045 160.019 89.1561 160.352 88.8685C160.673 88.5794 160.97 88.2458 161.244 87.8678C161.519 87.4782 161.755 87.0716 161.952 86.6482C162.161 86.2262 162.334 85.7998 162.473 85.3688C162.612 84.9377 162.718 84.532 162.791 84.1515C163.025 84.0757 163.169 83.923 163.223 83.6936L163.2 83.4602C163.173 83.3976 163.162 83.343 163.168 83.2966C163.187 83.24 163.212 83.1899 163.241 83.1465C163.369 82.8913 163.592 82.7194 163.911 82.6309C164.102 82.7976 164.274 82.9736 164.427 83.1589C164.592 83.3458 164.739 83.5304 164.869 83.7128C164.851 84.0296 164.862 84.3087 164.902 84.5502C164.943 84.78 164.99 85.0049 165.044 85.2246C165.1 85.4327 165.145 85.6336 165.179 85.8271C165.224 86.0221 165.241 86.2547 165.23 86.525C165.068 86.8585 164.938 87.1784 164.839 87.4846C164.753 87.7807 164.665 88.0942 164.575 88.4252L164.515 88.6124C164.259 88.9454 164.002 89.2901 163.743 89.6464C163.497 89.9925 163.292 90.2967 163.127 90.559C163.049 90.6197 162.974 90.6927 162.904 90.7781C162.845 90.865 162.787 90.952 162.728 91.0389C162.7 91.0707 162.658 91.1243 162.601 91.1996C162.556 91.2764 162.513 91.33 162.474 91.3603L162.076 91.149L161.901 91.6758L161.613 91.7092L161.372 91.926C161.044 92.3561 160.709 92.7084 160.366 92.9828C160.035 93.2588 159.667 93.4946 159.264 93.6903C158.872 93.8875 158.429 94.0662 157.935 94.2266C157.455 94.3768 156.902 94.5354 156.278 94.7023C156.05 94.6372 155.849 94.5933 155.675 94.5707C155.514 94.5379 155.352 94.5051 155.191 94.4723C155.028 94.4512 154.872 94.4249 154.723 94.3937C154.573 94.3624 154.401 94.3223 154.207 94.2734C154.174 94.1627 154.12 94.0789 154.044 94.0218C153.969 93.9647 153.897 93.9317 153.827 93.9226C153.61 93.7762 153.456 93.5908 153.367 93.3665C153.278 93.1422 153.187 92.8939 153.092 92.6216C153.052 92.4746 153.006 92.3269 152.955 92.1783C152.915 92.0313 152.857 91.8879 152.78 91.748L153.142 91.6887L152.757 91.1068C152.727 91.0674 152.691 91.0273 152.649 90.9864C152.619 90.947 152.589 90.9018 152.56 90.8507L152.603 90.5195C152.681 89.5606 152.772 88.6802 152.876 87.8784C152.993 87.0664 153.197 86.3661 153.486 85.7774L153.532 85.6948ZM165.846 93.4297C165.908 93.4969 166.015 93.5817 166.167 93.6842C166.332 93.7766 166.502 93.8756 166.678 93.9811C166.855 94.075 167.021 94.1616 167.176 94.2409C167.331 94.3201 167.443 94.3701 167.511 94.3908C167.608 94.6399 167.651 94.8581 167.638 95.0455C167.639 95.2229 167.644 95.4126 167.653 95.6147C167.587 95.6652 167.534 95.7587 167.492 95.8951C167.464 96.0215 167.446 96.1137 167.439 96.1718C167.415 96.2632 167.385 96.3125 167.349 96.3196C167.311 96.3383 167.275 96.3868 167.241 96.4651C167.226 96.4869 167.228 96.5225 167.245 96.572C167.262 96.6215 167.263 96.6571 167.249 96.6788C167.23 96.7354 167.197 96.7607 167.15 96.7547C167.114 96.7617 167.08 96.7928 167.049 96.8479C166.986 96.9697 166.942 97.0407 166.915 97.0609C166.899 97.0943 166.885 97.1102 166.874 97.1087C166.872 97.1203 166.859 97.1304 166.834 97.139C166.82 97.1607 166.776 97.2259 166.703 97.3346C166.599 97.4983 166.478 97.654 166.34 97.8015C166.202 97.9607 166.104 98.1194 166.048 98.2776C165.867 98.3959 165.641 98.5437 165.37 98.7211C165.109 98.9117 164.868 99.0341 164.649 99.0882C164.55 99.0281 164.397 98.9314 164.19 98.7981C163.971 98.6633 163.771 98.5191 163.59 98.3656C163.398 98.2105 163.259 98.0507 163.174 97.886C163.089 97.7213 163.119 97.5834 163.263 97.4722C163.501 97.2786 163.722 97.0355 163.926 96.7429C164.116 96.4604 164.292 96.1524 164.453 95.8189C164.617 95.4738 164.769 95.1213 164.91 94.7616C165.041 94.3887 165.17 94.0332 165.297 93.6951C165.337 93.7477 165.382 93.7711 165.43 93.7656C165.479 93.7484 165.529 93.7254 165.58 93.6965C165.633 93.6561 165.68 93.6091 165.723 93.5555C165.765 93.502 165.806 93.46 165.846 93.4297ZM80.4105 102.615C79.9481 102.354 79.5776 102.022 79.2991 101.62C79.0322 101.219 78.8317 100.761 78.6977 100.248C78.8547 99.9489 79.0746 99.7116 79.3575 99.5357C79.6419 99.3481 79.9508 99.1992 80.2842 99.089C80.6292 98.9802 80.9879 98.9028 81.3602 98.8567C81.7326 98.8106 82.0918 98.7746 82.4379 98.7487C82.5046 98.781 82.5394 98.7856 82.5424 98.7623C82.5455 98.7391 82.573 98.7545 82.6251 98.8085C83.06 98.7351 83.5582 98.6758 84.1195 98.6306C84.6823 98.5739 85.2694 98.603 85.8807 98.7179C85.9681 98.682 86.0699 98.6716 86.1862 98.6868C86.3039 98.6902 86.4266 98.7003 86.5545 98.7169C86.6823 98.7336 86.8043 98.7494 86.9205 98.7646C87.0383 98.768 87.1401 98.7577 87.2259 98.7334C87.2851 98.8238 87.3829 98.8897 87.5193 98.9311C87.6572 98.9608 87.7949 99.0378 87.9324 99.1621C87.9774 99.1797 87.9796 99.1623 87.9392 99.1098C87.9003 99.0456 87.9114 99.0057 87.9725 98.99C88.1236 99.0097 88.2527 99.0619 88.3598 99.1468C88.467 99.2316 88.561 99.3265 88.6418 99.4316C88.7358 99.5266 88.819 99.6142 88.8913 99.6945C88.9752 99.7763 89.0694 99.824 89.174 99.8376C89.262 99.9791 89.3681 100.117 89.4924 100.251C89.6299 100.376 89.755 100.504 89.8677 100.637C89.992 100.771 90.0858 100.913 90.149 101.063C90.2238 101.215 90.2499 101.378 90.2272 101.552C90.2066 101.62 90.2245 101.664 90.2811 101.683C90.3377 101.703 90.3738 101.743 90.3895 101.804C90.3452 102.235 90.2271 102.598 90.0352 102.892C89.855 103.188 89.6371 103.455 89.3815 103.693C89.1274 103.92 88.8575 104.133 88.5716 104.333C88.2973 104.533 88.0382 104.754 87.7943 104.994C87.911 105.186 88.0468 105.369 88.2014 105.543C88.3692 105.707 88.537 105.87 88.7048 106.034C88.8726 106.198 89.0273 106.371 89.1688 106.555C89.3234 106.729 89.446 106.922 89.5365 107.135C89.5623 107.209 89.6318 107.265 89.745 107.304C89.7617 107.448 89.7893 107.599 89.8278 107.758C89.8794 107.906 89.9251 108.054 89.9651 108.201C90.0066 108.336 90.0263 108.457 90.0243 108.563C90.0224 108.669 89.982 108.753 89.9032 108.813C89.9785 108.87 90.0151 108.952 90.0132 109.058C90.0127 109.153 90.0029 109.228 89.9837 109.285C89.6872 109.565 89.4842 109.763 89.3746 109.879C89.265 109.995 89.1832 110.079 89.1291 110.131C89.0751 110.183 89.0218 110.229 88.9693 110.269C88.9167 110.31 88.8001 110.389 88.6192 110.508C87.955 110.799 87.2662 111.052 86.5529 111.267C85.8527 111.471 85.1355 111.579 84.4014 111.59C84.3328 111.664 84.2373 111.716 84.115 111.747C84.0029 111.792 83.8748 111.823 83.7308 111.839C83.5868 111.856 83.432 111.865 83.2663 111.868C83.1122 111.871 82.9697 111.876 82.8389 111.883C82.7838 111.852 82.7542 111.807 82.7501 111.747C82.7562 111.701 82.7317 111.662 82.6766 111.631C82.6468 111.769 82.5738 111.831 82.4576 111.815C82.3515 111.814 82.2209 111.773 82.0658 111.694C81.9107 111.614 81.7527 111.511 81.592 111.384C81.4313 111.257 81.2931 111.138 81.1774 111.029C81.1057 111.126 81.0158 111.226 80.9077 111.33C80.8112 111.436 80.7135 111.506 80.6145 111.54C80.4548 111.496 80.335 111.463 80.2552 111.44C80.187 111.42 80.1135 111.44 80.0347 111.5C79.9478 111.442 79.8848 111.38 79.8459 111.316C79.8055 111.264 79.7658 111.205 79.7269 111.141C79.6864 111.089 79.6394 111.041 79.5859 110.999C79.5338 110.945 79.4519 110.893 79.3403 110.843C79.3711 110.788 79.365 110.698 79.322 110.574C79.2805 110.439 79.209 110.353 79.1074 110.316C79.1776 110.231 79.1695 110.112 79.083 109.958C78.9981 109.794 78.9387 109.615 78.9048 109.421C78.927 109.341 78.9434 109.261 78.9539 109.179C78.9777 109.088 78.9999 109.008 79.0205 108.94C79.0544 108.862 79.0925 108.796 79.1349 108.742C79.1773 108.689 79.2407 108.655 79.3251 108.643C79.3331 108.49 79.3055 108.339 79.2423 108.189C79.3575 108.121 79.4401 108.031 79.4901 107.92C79.5415 107.796 79.5872 107.672 79.6271 107.548C79.6786 107.424 79.7351 107.308 79.7967 107.197C79.8598 107.076 79.949 106.981 80.0641 106.913C80.0454 106.875 80.026 106.843 80.0058 106.817C79.9855 106.791 79.9792 106.748 79.9868 106.69C80.1989 106.422 80.3526 106.194 80.448 106.006C80.545 105.806 80.623 105.615 80.682 105.434C80.7542 105.242 80.8279 105.039 80.9031 104.824C80.9783 104.609 81.1075 104.343 81.2908 104.024C81.3064 103.813 81.3538 103.63 81.4331 103.475C81.5124 103.32 81.5909 103.171 81.6686 103.027C81.7595 102.873 81.8337 102.712 81.8913 102.542C81.9488 102.372 81.9695 102.168 81.9532 101.93C81.7526 101.927 81.5983 101.978 81.4902 102.082C81.3938 102.188 81.3211 102.338 81.2721 102.532C81.1554 102.612 81.0157 102.641 80.8531 102.62C80.6919 102.587 80.5443 102.585 80.4105 102.615ZM87.6426 106.977C87.2328 106.676 86.8449 106.477 86.4791 106.383C86.1249 106.289 85.7755 106.25 85.431 106.264C85.0996 106.268 84.7767 106.297 84.4625 106.351C84.1483 106.404 83.837 106.435 83.5289 106.442C83.3264 106.817 83.1128 107.233 82.8882 107.688C82.6635 108.143 82.4461 108.588 82.2361 109.021C82.662 109.018 83.0569 108.98 83.4206 108.91C83.7843 108.839 84.138 108.755 84.4815 108.658C84.8265 108.549 85.165 108.445 85.4969 108.347C85.8303 108.236 86.1738 108.139 86.5275 108.055C86.5805 107.92 86.6704 107.82 86.7972 107.753C86.9239 107.687 87.05 107.627 87.1753 107.572C87.302 107.506 87.4122 107.432 87.5056 107.349C87.599 107.267 87.6447 107.143 87.6426 106.977ZM87.1321 101.362C86.4147 101.245 85.6975 101.217 84.9806 101.278C84.2637 101.338 83.6481 101.482 83.1339 101.711C83.3406 101.939 83.5561 102.144 83.7805 102.327C84.0165 102.511 84.1818 102.739 84.2764 103.012C84.8629 102.863 85.3873 102.648 85.8495 102.365C86.3132 102.071 86.7407 101.737 87.1321 101.362ZM92.5908 111.237C92.5311 111.241 92.4841 111.193 92.4498 111.094C92.4169 110.984 92.3774 110.878 92.3314 110.778L92.5232 110.803C92.4751 110.536 92.4821 110.301 92.5441 110.096C92.6193 109.882 92.6988 109.679 92.7826 109.489C92.8679 109.288 92.9401 109.096 92.9992 108.915C93.0714 108.723 93.0804 108.518 93.0262 108.298C93.0798 108.34 93.122 108.334 93.1528 108.279C93.1967 108.214 93.2306 108.135 93.2543 108.044C93.2911 107.942 93.3105 107.838 93.3125 107.732C93.3276 107.616 93.3339 107.522 93.3314 107.451C93.5293 107.111 93.6939 106.754 93.8251 106.381C93.9679 106.01 94.0984 105.642 94.2165 105.28C94.3361 104.905 94.4593 104.549 94.586 104.211C94.7258 103.863 94.8858 103.541 95.0661 103.245C95.2318 103.243 95.3973 103.288 95.5625 103.381C95.7409 103.463 95.8531 103.554 95.8991 103.655C96.2956 103.423 96.659 103.127 96.9893 102.769C97.3196 102.41 97.6484 102.063 97.9757 101.727C98.3161 101.381 98.6853 101.087 99.0833 100.843C99.4814 100.599 99.9515 100.483 100.494 100.495C100.747 100.728 101.033 100.984 101.351 101.262C101.671 101.528 101.919 101.844 102.096 102.21C102.182 102.28 102.261 102.355 102.333 102.436C102.418 102.506 102.504 102.576 102.589 102.646L102.555 102.908C102.698 103.08 102.808 103.277 102.886 103.5C102.976 103.713 103.047 103.941 103.098 104.184C103.162 104.417 103.22 104.654 103.271 104.897C103.322 105.14 103.387 105.368 103.466 105.579C103.434 105.645 103.414 105.708 103.406 105.766C103.412 105.814 103.417 105.868 103.421 105.927C103.438 105.977 103.448 106.037 103.45 106.108C103.454 106.168 103.45 106.244 103.438 106.337C103.312 106.947 103.043 107.42 102.633 107.757C102.236 108.084 101.766 108.336 101.223 108.513C100.693 108.681 100.132 108.814 99.5402 108.915C98.9496 109.003 98.409 109.116 97.9185 109.253C97.9124 109.3 97.9327 109.326 97.9791 109.332C98.0372 109.34 98.0501 109.377 98.0178 109.443C98.3392 109.698 98.5846 109.901 98.7539 110.053C98.9348 110.207 99.1006 110.341 99.2512 110.455C99.4149 110.559 99.5918 110.653 99.7818 110.736C99.9834 110.822 100.259 110.928 100.609 111.057C100.958 111.185 101.228 111.291 101.418 111.375C101.621 111.448 101.802 111.513 101.96 111.569C102.12 111.614 102.291 111.66 102.474 111.707C102.657 111.754 102.903 111.816 103.212 111.892C103.323 112.036 103.408 112.201 103.467 112.386C103.526 112.571 103.561 112.752 103.573 112.931C103.586 113.11 103.569 113.279 103.525 113.439C103.494 113.589 103.431 113.705 103.338 113.787C103.344 113.835 103.37 113.862 103.416 113.868C103.476 113.864 103.534 113.872 103.59 113.891C103.501 113.938 103.423 113.999 103.354 114.073C103.285 114.146 103.217 114.22 103.148 114.294C103.079 114.368 103 114.434 102.909 114.493C102.83 114.554 102.732 114.583 102.614 114.579C102.175 114.687 101.64 114.624 101.009 114.388C100.377 114.152 99.5813 113.777 98.6201 113.262C98.1446 113.011 97.7598 112.79 97.4657 112.598C97.1716 112.406 96.9174 112.225 96.7031 112.055C96.4904 111.874 96.2958 111.689 96.1194 111.501C95.9445 111.301 95.7444 111.068 95.5189 110.802C95.4826 110.809 95.4563 110.83 95.4401 110.863C95.4356 110.898 95.4151 110.919 95.3788 110.926C95.2602 111.383 95.1181 111.749 94.9525 112.023C94.7985 112.298 94.5856 112.572 94.3139 112.844C94.1325 112.785 94.0024 112.785 93.9236 112.846C93.8565 112.908 93.7726 112.962 93.6721 113.008C93.5528 113.016 93.4664 112.999 93.4129 112.957C93.3578 112.926 93.3093 112.89 93.2673 112.849C93.2254 112.808 93.1776 112.767 93.1241 112.724C93.0705 112.682 92.979 112.658 92.8497 112.653C92.8284 112.544 92.8064 112.441 92.7836 112.343C92.7624 112.234 92.6755 112.176 92.5229 112.168C92.5714 112.067 92.5943 111.982 92.5918 111.911C92.5907 111.828 92.5824 111.756 92.5667 111.695C92.5525 111.622 92.5383 111.549 92.5242 111.476C92.5216 111.405 92.5438 111.325 92.5908 111.237ZM99.449 104.028C99.2692 104.229 99.0743 104.411 98.8641 104.572C98.6555 104.723 98.4454 104.884 98.2338 105.058C98.0353 105.221 97.8512 105.41 97.6815 105.624C97.5133 105.827 97.3798 106.081 97.2809 106.387C97.7765 106.393 98.3052 106.326 98.867 106.186C99.4303 106.035 99.963 105.891 100.465 105.756C100.463 105.318 100.356 104.956 100.146 104.668C99.9364 104.369 99.7042 104.156 99.449 104.028ZM109.424 115.022C108.904 115.025 108.442 114.941 108.039 114.771C107.635 114.6 107.281 114.371 106.976 114.083C106.682 113.797 106.435 113.469 106.235 113.1C106.047 112.733 105.902 112.348 105.8 111.945C105.799 111.141 105.921 110.43 106.166 109.812C106.414 109.182 106.73 108.615 107.115 108.11C107.5 107.604 107.92 107.139 108.378 106.714C108.846 106.29 109.295 105.882 109.725 105.489C109.801 105.534 109.865 105.542 109.916 105.514C109.979 105.486 110.031 105.446 110.074 105.392C110.128 105.34 110.182 105.288 110.236 105.236C110.302 105.186 110.371 105.153 110.444 105.139C110.504 105.041 110.573 104.961 110.652 104.9C110.742 104.841 110.832 104.788 110.921 104.74C111.023 104.683 111.113 104.624 111.192 104.563C111.283 104.504 111.364 104.426 111.435 104.329C111.555 104.321 111.659 104.293 111.748 104.245C111.848 104.199 111.938 104.146 112.017 104.085C112.107 104.026 112.197 103.973 112.286 103.925C112.374 103.878 112.479 103.844 112.6 103.824L112.629 103.598C112.9 103.515 113.103 103.411 113.237 103.287C113.371 103.162 113.534 103 113.726 102.801C113.855 102.806 113.955 102.813 114.024 102.822C114.106 102.832 114.229 102.837 114.395 102.835C114.525 102.651 114.643 102.518 114.748 102.437C114.853 102.357 115 102.269 115.19 102.176C115.352 102.291 115.53 102.374 115.725 102.423C115.921 102.46 116.09 102.571 116.231 102.754C116.225 102.895 116.251 103.011 116.31 103.101C116.371 103.18 116.437 103.26 116.51 103.34C116.583 103.409 116.656 103.483 116.729 103.564C116.801 103.644 116.84 103.749 116.847 103.88C116.905 103.888 116.941 103.881 116.956 103.859C116.982 103.839 117.024 103.838 117.08 103.858C117.092 103.954 117.105 104.032 117.121 104.093C117.136 104.154 117.153 104.21 117.17 104.259C117.199 104.31 117.221 104.366 117.237 104.427C117.264 104.49 117.284 104.564 117.297 104.648C117.22 104.78 117.148 104.924 117.081 105.081C117.015 105.226 116.908 105.318 116.761 105.358C116.749 105.451 116.777 105.508 116.845 105.529C116.915 105.538 116.95 105.584 116.951 105.667C116.949 105.773 116.921 105.858 116.865 105.921C117.119 106.51 117.341 107.124 117.53 107.763C117.72 108.39 117.948 108.999 118.214 109.589C118.169 109.748 118.154 109.912 118.168 110.079C118.195 110.236 118.227 110.394 118.266 110.553C118.316 110.713 118.36 110.872 118.399 111.031C118.437 111.189 118.458 111.346 118.462 111.5C118.459 111.701 118.431 111.915 118.378 112.145C118.326 112.363 118.251 112.572 118.154 112.772C118.057 112.972 117.939 113.157 117.798 113.328C117.66 113.487 117.508 113.604 117.345 113.677C117.129 113.885 116.872 114.047 116.573 114.161C116.276 114.265 115.999 114.4 115.741 114.567C115.566 114.639 115.382 114.686 115.19 114.708C115 114.719 114.803 114.735 114.599 114.755C114.436 114.829 114.244 114.898 114.023 114.964C113.803 115.018 113.578 115.066 113.348 115.107C113.118 115.148 112.89 115.177 112.663 115.195C112.438 115.201 112.239 115.181 112.068 115.135C111.63 115.232 111.21 115.284 110.807 115.29C110.405 115.297 109.943 115.208 109.424 115.022ZM110.476 108.706C110.325 108.958 110.154 109.184 109.962 109.384C109.784 109.574 109.605 109.769 109.425 109.97C109.245 110.171 109.081 110.392 108.931 110.633C108.795 110.863 108.699 111.146 108.644 111.481C108.85 111.709 109.108 111.867 109.415 111.954C109.736 112.031 110.067 112.08 110.407 112.101C110.748 112.11 111.091 112.107 111.436 112.093C111.78 112.079 112.086 112.089 112.354 112.124C112.367 112.019 112.42 111.973 112.513 111.985C113.008 112.002 113.478 111.927 113.925 111.761C114.374 111.583 114.84 111.407 115.323 111.234C115.4 111.102 115.491 110.989 115.598 110.897C115.704 110.804 115.776 110.66 115.813 110.464C115.769 110.352 115.74 110.26 115.725 110.187C115.723 110.116 115.731 110.01 115.749 109.871C115.501 109.413 115.298 108.926 115.141 108.409C114.985 107.881 114.791 107.377 114.558 106.897C114.527 106.952 114.473 107.005 114.396 107.054C114.318 107.103 114.244 107.081 114.174 106.989C114.124 107.101 114.061 107.175 113.985 107.213C113.911 107.239 113.827 107.245 113.734 107.233C113.653 107.223 113.568 107.194 113.48 107.147C113.403 107.102 113.333 107.045 113.271 106.978C112.822 107.251 112.374 107.512 111.928 107.761C111.494 108.011 111.088 108.319 110.709 108.683C110.647 108.711 110.61 108.718 110.6 108.705C110.59 108.692 110.549 108.692 110.476 108.706ZM123.115 114.622C123.126 114.718 123.132 114.808 123.133 114.891C123.134 114.973 123.14 115.063 123.151 115.159C123.09 115.269 123.034 115.38 122.984 115.492C122.935 115.592 122.887 115.692 122.838 115.792C122.793 115.869 122.763 115.918 122.748 115.94C122.734 115.961 122.725 115.978 122.724 115.99C122.722 116.001 122.72 116.019 122.717 116.042C122.727 116.055 122.727 116.102 122.716 116.184L122.62 116.384C122.551 116.457 122.473 116.512 122.385 116.548C122.298 116.584 122.211 116.614 122.126 116.638C122.099 116.659 122.062 116.672 122.014 116.677C121.965 116.694 121.927 116.713 121.9 116.733L121.821 116.936L121.59 116.941C121.386 116.962 121.215 116.963 121.075 116.945L120.866 116.918C120.743 116.772 120.646 116.659 120.573 116.578C120.501 116.498 120.422 116.423 120.337 116.353C120.242 116.175 120.193 116.05 120.19 115.979C120.189 115.896 120.182 115.818 120.168 115.746C120.164 115.592 120.148 115.489 120.119 115.438L119.907 115.162L120.136 115.033L119.988 114.676C120.141 114.59 120.255 114.528 120.331 114.491C120.407 114.453 120.471 114.414 120.523 114.374C120.577 114.322 120.639 114.259 120.707 114.185C120.776 114.111 120.887 113.99 121.039 113.82L121.225 113.614L121.436 113.766C121.478 113.807 121.572 113.854 121.718 113.909C121.878 113.953 122.014 113.995 122.128 114.033C122.318 114.117 122.498 114.187 122.667 114.245C122.839 114.291 122.97 114.367 123.063 114.474L123.115 114.622ZM128.978 115.385C128.99 115.481 128.996 115.57 128.997 115.653C128.998 115.736 129.004 115.826 129.015 115.922C128.953 116.032 128.898 116.143 128.848 116.254C128.799 116.354 128.751 116.454 128.702 116.554C128.657 116.631 128.627 116.681 128.612 116.702C128.597 116.724 128.589 116.741 128.588 116.752C128.586 116.764 128.584 116.781 128.581 116.805C128.591 116.818 128.591 116.865 128.58 116.946L128.483 117.146C128.415 117.22 128.337 117.275 128.249 117.311C128.162 117.347 128.075 117.377 127.989 117.401C127.963 117.421 127.926 117.434 127.878 117.44C127.828 117.457 127.791 117.476 127.764 117.496L127.685 117.698L127.454 117.704C127.25 117.725 127.079 117.726 126.939 117.708L126.73 117.681C126.607 117.535 126.51 117.421 126.437 117.341C126.365 117.261 126.286 117.186 126.201 117.115C126.106 116.938 126.057 116.813 126.054 116.742C126.053 116.659 126.046 116.581 126.032 116.508C126.028 116.354 126.012 116.252 125.983 116.201L125.771 115.925L126 115.795L125.852 115.439C126.005 115.353 126.119 115.291 126.195 115.253C126.271 115.216 126.335 115.177 126.387 115.137C126.441 115.085 126.503 115.022 126.571 114.948C126.64 114.874 126.75 114.752 126.902 114.583L127.089 114.377L127.299 114.528C127.341 114.569 127.436 114.617 127.582 114.672C127.742 114.716 127.878 114.757 127.992 114.796C128.182 114.88 128.361 114.95 128.531 115.008C128.702 115.054 128.834 115.13 128.927 115.236L128.978 115.385Z" fill="white"/>
<path d="M38.2238 34.707L38.768 37.147C39.7888 36.9193 40.56 36.0802 40.701 35.0438L38.2238 34.707ZM23.9409 96.2771L26.3461 96.959C26.6734 95.8045 26.1343 94.5803 25.0617 94.0424L23.9409 96.2771ZM102.756 131.91L104.235 129.894C103.497 129.353 102.523 129.258 101.694 129.647L102.756 131.91ZM135.714 142.878L136.286 140.444C136.145 140.411 136.001 140.39 135.857 140.382L135.714 142.878ZM159.375 153.494L160.523 151.273L159.375 153.494ZM190.501 160.5L188.02 160.81L190.501 160.5ZM188.376 119.114L186.129 118.019C186.014 118.253 185.937 118.504 185.901 118.762L188.376 119.114ZM185.283 91.8824L183.803 89.8679C183.264 90.2642 182.906 90.8602 182.809 91.5225C182.713 92.1848 182.886 92.8581 183.29 93.3916L185.283 91.8824ZM139.579 33.475L137.122 33.9372C137.364 35.2251 138.56 36.1074 139.862 35.9589L139.579 33.475ZM40.701 35.0438C41.7818 27.095 47.2425 19.7388 55.8941 14.3004C64.5266 8.87409 76.1448 5.5 89.001 5.5V0.5C75.3089 0.5 62.7476 4.08653 53.2332 10.0673C43.7379 16.036 37.0841 24.5332 35.7465 34.3701L40.701 35.0438ZM5.50098 68C5.50098 54.1857 18.8033 41.5998 38.768 37.147L37.6795 32.2669C16.7554 36.9338 0.500977 50.7123 0.500977 68H5.50098ZM25.0617 94.0424C12.8563 87.9211 5.50098 78.3282 5.50098 68H0.500977C0.500977 80.9043 9.6376 91.9004 22.8201 98.5118L25.0617 94.0424ZM25.501 103C25.501 100.937 25.7906 98.9186 26.3461 96.959L21.5357 95.5952C20.8576 97.987 20.501 100.464 20.501 103H25.501ZM74.001 135.5C60.3573 135.5 48.115 131.701 39.3531 125.687C30.5798 119.667 25.501 111.603 25.501 103H20.501C20.501 113.727 26.8389 123.163 36.5239 129.81C46.2204 136.464 59.4781 140.5 74.001 140.5V135.5ZM101.694 129.647C93.8613 133.324 84.325 135.5 74.001 135.5V140.5C85.0107 140.5 95.2784 138.182 103.819 134.173L101.694 129.647ZM135.857 140.382C123.298 139.665 112.185 135.724 104.235 129.894L101.278 133.926C110.112 140.404 122.186 144.61 135.572 145.374L135.857 140.382ZM160.523 151.273C156.027 148.95 151.493 146.607 147.364 144.678C143.269 142.764 139.409 141.178 136.286 140.444L135.143 145.312C137.73 145.92 141.194 147.313 145.247 149.207C149.268 151.087 153.709 153.381 158.228 155.716L160.523 151.273ZM188.02 160.81C188.137 161.746 187.991 162.098 187.96 162.157C187.953 162.17 187.95 162.172 187.953 162.169C187.955 162.166 187.957 162.165 187.953 162.168C187.947 162.173 187.891 162.214 187.738 162.256C187.397 162.35 186.772 162.4 185.764 162.258C184.781 162.12 183.584 161.824 182.183 161.368C176.496 159.518 168.625 155.46 160.523 151.273L158.228 155.716C166.172 159.82 174.469 164.117 180.637 166.123C182.2 166.631 183.697 167.017 185.069 167.21C186.416 167.399 187.807 167.426 189.074 167.074C190.419 166.701 191.643 165.887 192.38 164.494C193.07 163.188 193.168 161.68 192.982 160.19L188.02 160.81ZM185.901 118.762C184.985 125.201 184.857 135.505 188.02 160.81L192.982 160.19C189.828 134.96 190.034 125.21 190.851 119.467L185.901 118.762ZM188.501 108C188.501 111.48 187.677 114.844 186.129 118.019L190.623 120.21C192.48 116.401 193.501 112.291 193.501 108H188.501ZM183.29 93.3916C186.662 97.8441 188.501 102.807 188.501 108H193.501C193.501 101.569 191.211 95.5685 187.276 90.3731L183.29 93.3916ZM196.501 68C196.501 76.2196 191.869 83.9401 183.803 89.8679L186.764 93.8968C195.717 87.3169 201.501 78.2437 201.501 68H196.501ZM148.001 35.5C161.645 35.5 173.887 39.2995 182.649 45.3125C191.422 51.3334 196.501 59.3973 196.501 68H201.501C201.501 57.2727 195.163 47.8366 185.478 41.19C175.782 34.5355 162.524 30.5 148.001 30.5V35.5ZM139.862 35.9589C142.507 35.6572 145.226 35.5 148.001 35.5V30.5C145.038 30.5 142.13 30.6679 139.295 30.9911L139.862 35.9589ZM89.001 5.5C101.558 5.5 112.935 8.71884 121.503 13.9267C130.091 19.1468 135.673 26.2352 137.122 33.9372L142.036 33.0129C140.25 23.5224 133.509 15.3733 124.1 9.65403C114.671 3.92245 102.377 0.5 89.001 0.5V5.5Z" fill="white"/>
</svg>
