<svg width="215" height="112" viewBox="0 0 215 112" fill="none" xmlns="http://www.w3.org/2000/svg">
<path d="M31.6626 100.614C31.4934 100.667 31.3309 100.725 31.1752 100.787C31.0311 100.848 30.8822 100.915 30.7285 100.989C30.6632 101.025 30.5969 101.054 30.5296 101.077C30.4623 101.101 30.3903 101.131 30.3134 101.168C30.0976 101.158 29.8895 101.158 29.6892 101.169C29.5005 101.178 29.331 101.195 29.1809 101.221L28.9091 101.197C28.7626 101.175 28.6527 101.158 28.5794 101.147C28.5041 101.124 28.4308 101.113 28.3595 101.113C28.2978 101.1 28.2198 101.096 28.1254 101.1C28.0426 101.103 27.9183 101.106 27.7527 101.111C27.5703 101.226 27.3868 101.299 27.202 101.331C27.075 101.353 26.9392 101.359 26.7946 101.348C26.6481 101.326 26.4955 101.269 26.337 101.177C26.1765 101.074 26.0148 100.93 25.8518 100.744C25.6869 100.546 25.5293 100.288 25.3791 99.9693C25.3678 99.6977 25.3683 99.4598 25.3806 99.2555C25.3929 99.0512 25.4121 98.8873 25.4384 98.7639L25.55 98.5841C25.7439 98.4673 25.9736 98.386 26.2392 98.3401C26.4933 98.2962 26.7485 98.2937 27.005 98.3327C27.2615 98.3716 27.5189 98.4163 27.7774 98.4668C27.8893 98.495 27.9704 98.5167 28.0205 98.5318C28.0707 98.5469 28.1084 98.5582 28.1334 98.5658C28.1585 98.5734 28.1884 98.5741 28.223 98.5682C28.2692 98.5602 28.3443 98.5472 28.4482 98.5293C28.506 98.5193 28.5579 98.5103 28.6041 98.5023C28.6599 98.4808 28.7156 98.4593 28.7713 98.4377L28.9822 98.4192C29.071 98.4514 29.1732 98.4575 29.2886 98.4376C29.3695 98.4236 29.4483 98.3981 29.5251 98.361C29.6135 98.322 29.7019 98.2829 29.7903 98.2438C29.8767 98.1932 29.9536 98.1562 30.0209 98.1327C30.0881 98.1091 30.1487 98.0808 30.2024 98.0478L30.3487 97.862C30.4562 97.7958 30.5338 97.7289 30.5816 97.6612C30.6409 97.5915 30.6876 97.518 30.7219 97.4407C30.7541 97.3519 30.7805 97.2641 30.8012 97.1773C30.8334 97.0884 30.8762 96.9919 30.9295 96.8875C30.9753 96.8082 31.0153 96.73 31.0495 96.6527C31.0953 96.5735 31.1421 96.5 31.1898 96.4322L31.1599 96.259C31.2708 95.7998 31.3577 95.3389 31.4204 94.8761C31.4832 94.4134 31.5286 93.9536 31.5567 93.4968C31.5848 93.0401 31.5976 92.5978 31.5951 92.1702C31.6041 91.7405 31.6085 91.3532 31.6084 91.0084C31.5738 91.0143 31.5391 91.0203 31.5045 91.0263C31.4678 91.0207 31.438 91.02 31.4149 91.024C31.0684 91.0838 30.7865 91.1385 30.5691 91.1879C30.3517 91.2374 30.1526 91.2896 29.9718 91.3446C29.7911 91.3997 29.6007 91.4682 29.4009 91.5503C29.2105 91.6189 28.9645 91.709 28.6627 91.8206L28.3772 91.9234C28.1757 92.0653 27.9791 92.2003 27.7872 92.3286C27.6048 92.4434 27.4039 92.5197 27.1845 92.5576C26.8381 92.6175 26.5139 92.5308 26.212 92.2975C25.9185 92.1817 25.7284 91.9767 25.6419 91.6825C25.5662 91.5885 25.5262 91.4944 25.5218 91.4C25.4476 91.2463 25.3938 91.1069 25.3603 90.9819C25.3364 90.8433 25.3144 90.7163 25.2945 90.6008L25.2609 90.3034L25.5207 90.2585C25.5781 90.1772 25.6153 90.1173 25.6324 90.0787C25.661 90.038 25.6772 89.9936 25.6807 89.9454L25.7028 89.7632L25.873 89.716C26.1095 89.6394 26.3508 89.5561 26.5968 89.466C26.8429 89.376 27.0938 89.2791 27.3494 89.1755C27.607 89.0834 27.8252 89.0041 28.004 88.9375C28.1943 88.8689 28.3751 88.8139 28.5463 88.7724C28.7155 88.7194 28.8925 88.677 29.0773 88.645C29.26 88.6016 29.4727 88.5589 29.7152 88.517C29.8075 88.501 29.8894 88.4928 29.9607 88.4924C30.0415 88.4784 30.1223 88.4645 30.2032 88.4505C30.2394 88.3848 30.2796 88.3421 30.3238 88.3226C30.368 88.3031 30.4016 88.2913 30.4247 88.2873C30.5075 88.2849 30.5673 88.2865 30.6039 88.2921C30.6521 88.2956 30.6887 88.3012 30.7138 88.3087C31.0945 88.1716 31.4455 88.0694 31.7668 88.0019C32.0977 87.921 32.3959 87.8576 32.6615 87.8117C32.7886 87.7897 32.9156 87.7678 33.0426 87.7458C33.1696 87.7239 33.2919 87.7087 33.4094 87.7003L34.0676 87.5866L34.5352 87.5058C34.591 87.4842 34.642 87.4695 34.6881 87.4615C34.7459 87.4515 34.8036 87.4416 34.8614 87.4316C34.9768 87.4116 35.0634 87.3967 35.1212 87.3867C35.1905 87.3747 35.2492 87.3705 35.2974 87.3741C35.3436 87.3661 35.3908 87.3639 35.439 87.3675C35.4851 87.3595 35.5497 87.3543 35.6325 87.3519C35.8348 87.3526 36.0188 87.3505 36.1844 87.3457C36.3501 87.3408 36.5137 87.3245 36.6754 87.2965L37.0015 87.2223L37.0894 87.4212L37.2842 87.6195C37.3308 87.6828 37.388 87.7383 37.4557 87.7861C37.5234 87.8338 37.5969 87.8806 37.6762 87.9264C37.8367 88.0294 37.9974 88.1682 38.1583 88.3425C38.3288 88.5033 38.4277 88.7657 38.4549 89.1297L38.3349 89.3645C38.2927 89.3956 38.2515 89.4324 38.2113 89.475C38.1827 89.5157 38.1492 89.5631 38.111 89.6172L37.9647 89.8031C37.8166 89.8405 37.6916 89.874 37.5897 89.9035C37.4857 89.9215 37.3702 89.9415 37.2432 89.9634C37.0354 89.9993 36.8207 90.0305 36.5993 90.0568C36.3895 90.0812 36.1681 90.1075 35.9351 90.1359C35.8061 90.1463 35.707 90.1575 35.6377 90.1695C35.5684 90.1814 35.5049 90.1924 35.4471 90.2024C35.3894 90.2124 35.3211 90.2301 35.2423 90.2556C35.173 90.2676 35.0806 90.2835 34.9651 90.3035C34.8497 90.3234 34.763 90.3384 34.7053 90.3484C34.6591 90.3564 34.5908 90.3741 34.5004 90.4016C34.5412 90.7751 34.5509 91.1065 34.5295 91.3956C34.5176 91.6711 34.4914 91.967 34.4509 92.2832C34.4271 93.4528 34.3403 94.5679 34.1905 95.6284C34.0523 96.6869 33.8567 97.6542 33.6038 98.5304C33.3021 98.9869 33.0107 99.3999 32.7297 99.7696C32.4467 100.128 32.1083 100.406 31.7146 100.605L31.6626 100.614ZM39.4743 90.7553C39.4253 90.6091 39.3804 90.5217 39.3398 90.4931C39.3847 90.2713 39.4075 90.0592 39.4083 89.8569C39.4185 89.6411 39.4193 89.4388 39.4104 89.25C39.4056 89.0844 39.4028 88.9302 39.4019 88.7877C39.4126 88.6431 39.4301 88.5033 39.4543 88.3683C39.6427 88.2882 39.773 88.1825 39.8455 88.051C39.9274 87.906 39.9893 87.7824 40.0311 87.68C40.237 87.6325 40.3747 87.6385 40.4445 87.6978C40.5257 87.7551 40.6207 87.8576 40.7295 88.0053C40.8092 88.1224 40.914 88.247 41.0438 88.3791C41.1717 88.4997 41.3465 88.5825 41.5684 88.6274C41.625 88.7485 41.6863 88.8627 41.7525 88.9702C41.8186 89.0777 41.8915 89.19 41.9712 89.307C42.117 89.5316 42.2591 89.7687 42.3974 90.0183C42.5336 90.2564 42.6275 90.4899 42.6789 90.7189C42.5863 91.0084 42.5294 91.3334 42.5085 91.6938C42.499 92.0522 42.5137 92.4124 42.5525 92.7743C42.6008 93.1227 42.6702 93.4556 42.7607 93.773C42.8512 94.0903 42.9558 94.3517 43.0746 94.5572L43.2264 94.8164L43.6015 94.7159C43.9992 94.5401 44.3546 94.3598 44.6675 94.1749C44.9784 93.9785 45.2623 93.7629 45.5191 93.5283C45.7758 93.2936 46.0171 93.0379 46.2427 92.7611C46.4664 92.4727 46.6947 92.1419 46.9275 91.7686C47.1488 91.3974 47.3342 90.9908 47.4838 90.5487C47.6314 90.0951 47.7365 89.6369 47.7993 89.1741C47.8736 88.7094 47.9133 88.2506 47.9183 87.7978C47.9233 87.3451 47.9044 86.9262 47.8617 86.5411C48.0631 86.3993 48.1554 86.2109 48.1386 85.9759L48.0478 85.7597C48.0031 85.708 47.9768 85.659 47.9689 85.6128C47.9704 85.5531 47.9788 85.4981 47.9939 85.4479C48.0404 85.1664 48.2028 84.9361 48.4811 84.7572C48.7129 84.8599 48.9293 84.9771 49.1305 85.1088C49.3432 85.2386 49.5386 85.3713 49.7166 85.507C49.7936 85.8148 49.8867 86.0782 49.9958 86.2972C50.103 86.5046 50.215 86.7053 50.3318 86.8992C50.4465 87.0815 50.5487 87.2601 50.6384 87.4349C50.7396 87.6077 50.8247 87.8249 50.8937 88.0865C50.8381 88.4529 50.8083 88.7969 50.8044 89.1187C50.8101 89.4269 50.8188 89.7525 50.8305 90.0953L50.8288 90.2919C50.6827 90.6857 50.5387 91.0912 50.3967 91.5082C50.2643 91.9116 50.1585 92.2629 50.0793 92.562C50.022 92.6432 49.9725 92.735 49.9307 92.8374C49.9005 92.9378 49.8702 93.0381 49.84 93.1385C49.8229 93.1771 49.7982 93.2408 49.766 93.3297C49.7453 93.4165 49.7207 93.4802 49.692 93.5208L49.2493 93.4368L49.2382 93.9917L48.973 94.1089L48.8071 94.3873C48.6213 94.8951 48.4052 95.3308 48.1588 95.6945C47.924 96.0561 47.6428 96.3901 47.3152 96.6965C46.9991 97.0008 46.629 97.3026 46.2051 97.6018C45.7906 97.8875 45.3099 98.2025 44.7628 98.5467C44.5259 98.552 44.3208 98.5696 44.1476 98.5995C43.9839 98.6159 43.8203 98.6323 43.6566 98.6487C43.495 98.6766 43.3381 98.6978 43.186 98.7121C43.0338 98.7265 42.8576 98.7391 42.6573 98.75C42.5932 98.654 42.5167 98.5899 42.4279 98.5577C42.3391 98.5255 42.26 98.5154 42.1907 98.5273C41.9398 98.4518 41.7387 98.32 41.5873 98.1321C41.4359 97.9442 41.2747 97.7342 41.1038 97.5021C41.0221 97.3735 40.9347 97.2459 40.8415 97.1193C40.7598 96.9907 40.6618 96.8709 40.5474 96.7598L40.8759 96.596L40.3358 96.1542C40.2951 96.1255 40.2487 96.0979 40.1966 96.0712C40.1559 96.0426 40.1143 96.0081 40.0717 95.9679L40.0148 95.6388C39.805 94.6999 39.6313 93.832 39.4936 93.0353C39.3655 92.2249 39.3525 91.4958 39.4546 90.8479L39.4743 90.7553ZM52.6906 89.2566C52.6953 89.0774 52.6945 88.9349 52.6881 88.8289C52.6797 88.7115 52.6183 88.5972 52.504 88.4861C52.5182 88.2934 52.5279 88.1431 52.5331 88.0351C52.5498 87.9252 52.5306 87.7799 52.4756 87.5991C52.5276 87.2809 52.6396 86.9999 52.8116 86.7562C52.9951 86.5104 53.2019 86.2963 53.432 86.1138C53.6601 85.9198 53.9047 85.7526 54.1659 85.6124C54.4251 85.4606 54.67 85.3291 54.9005 85.2179C54.8925 85.1717 54.8654 85.1526 54.8192 85.1606C54.773 85.1685 54.7565 85.1417 54.7696 85.0799C55.3732 84.8567 55.9679 84.5815 56.5535 84.2544C57.1508 83.9253 57.7635 83.6172 58.3918 83.3303C59.0201 83.0433 59.6777 82.8227 60.3645 82.6683C61.0494 82.5024 61.7919 82.4633 62.5919 82.551C62.6621 82.6816 62.7485 82.8035 62.8513 82.9165C62.9541 83.0296 63.0569 83.1426 63.1596 83.2557C63.272 83.3552 63.3728 83.4567 63.462 83.5602C63.5512 83.6637 63.6126 83.778 63.6461 83.903C63.8066 84.0061 63.9403 84.1257 64.047 84.2619C64.1634 84.3845 64.2136 84.572 64.1978 84.8245C64.0867 84.9388 63.9699 85.0542 63.8473 85.1705C63.7247 85.2868 63.5953 85.3983 63.4591 85.5051C62.9175 85.4679 62.3899 85.5115 61.8762 85.6359C61.3626 85.7603 60.9019 85.8816 60.4942 85.9996C60.3432 85.883 60.1821 85.8454 60.0109 85.8869C59.8377 85.9168 59.6579 85.9776 59.4715 86.0692C59.2948 86.1473 59.119 86.2312 58.9442 86.3209C58.7674 86.399 58.5962 86.4405 58.4305 86.4453C58.3235 86.5827 58.17 86.6925 57.9701 86.7746C57.7682 86.8452 57.5538 86.912 57.3269 86.975C57.3253 87.0347 57.3438 87.0731 57.3825 87.0902C57.4211 87.1073 57.4348 87.1525 57.4237 87.2258C57.5225 87.3158 57.6452 87.3719 57.7917 87.3941C57.9363 87.4048 58.0809 87.4155 58.2254 87.4262C58.3815 87.4349 58.5233 87.4639 58.6507 87.5133C58.7762 87.5511 58.8682 87.6362 58.9268 87.7688C59.1366 87.7445 59.3256 87.7713 59.4937 87.8493C59.6598 87.9157 59.8067 88.0092 59.9346 88.1298C60.0625 88.2505 60.1635 88.3876 60.2376 88.5413C60.3097 88.6834 60.351 88.819 60.3614 88.948C60.4275 89.0555 60.4817 89.0937 60.5239 89.0627C60.5777 89.0296 60.6462 89.0475 60.7294 89.1164C60.8055 89.2816 60.9414 89.4484 61.137 89.6168C61.3421 89.7716 61.5098 89.9507 61.6401 90.1542C61.7231 90.4966 61.7943 90.8054 61.8537 91.0806C61.9247 91.3537 61.9254 91.6331 61.8558 91.9186C61.7473 92.4606 61.5432 92.9656 61.2435 93.4337C60.9438 93.9017 60.5841 94.3325 60.1646 94.7261C59.7545 95.1061 59.3096 95.4565 58.8299 95.7773C58.3482 96.0864 57.8662 96.36 57.3841 96.5979C57.3359 96.5943 57.2781 96.6043 57.2109 96.6278C57.1551 96.6494 57.1376 96.6167 57.1583 96.5299C57.0703 96.6402 56.959 96.7189 56.8244 96.766C56.7014 96.811 56.558 96.8417 56.3944 96.8581C56.2443 96.884 56.0874 96.9052 55.9237 96.9216C55.7716 96.936 55.6225 96.9677 55.4763 97.0167C55.368 96.9403 55.2654 96.8629 55.1686 96.7845C55.0834 96.7041 55.0067 96.6043 54.9386 96.4853C54.8788 96.4837 54.844 96.4541 54.834 96.3963C54.8336 96.325 54.8045 96.2944 54.7468 96.3044C54.7388 96.2582 54.7386 96.2225 54.7461 96.1974C54.7537 96.1723 54.7612 96.1473 54.7688 96.1222C54.809 96.0795 54.8223 96.0535 54.8088 96.0439C54.8048 96.0208 54.7845 96.0065 54.7478 96.0009C54.7208 95.9818 54.6879 95.9637 54.6493 95.9466C54.6222 95.9275 54.6114 95.8996 54.617 95.863C54.6568 95.7491 54.6531 95.6248 54.6061 95.4903C54.5686 95.3421 54.5311 95.194 54.4936 95.0459C54.4561 94.8978 54.4438 94.7572 54.4564 94.6242C54.4671 94.4796 54.5454 94.3472 54.6911 94.2269C55.1725 94.1913 55.6131 94.0913 56.0128 93.9271C56.4241 93.7609 56.8006 93.5651 57.1422 93.3396C57.4953 93.112 57.8234 92.877 58.1263 92.6344C58.4388 92.3782 58.7428 92.1413 59.0382 91.9238C59.0529 91.8023 59.0879 91.6952 59.1432 91.6024C59.2101 91.5076 59.2779 91.4186 59.3468 91.3353C59.4137 91.2405 59.4748 91.1467 59.5301 91.0539C59.5834 90.9496 59.6164 90.8309 59.6291 90.6979C59.6327 90.6497 59.6267 90.615 59.6112 90.5939C59.5956 90.5728 59.5753 90.5585 59.5502 90.551C59.5231 90.5319 59.496 90.5128 59.469 90.4936C59.4419 90.4745 59.4243 90.4419 59.4164 90.3957C59.3797 90.3901 59.3431 90.3846 59.3064 90.379C59.2813 90.3715 59.2573 90.3697 59.2342 90.3737C58.908 90.2754 58.5685 90.2033 58.2156 90.1572C57.8628 90.1111 57.5599 90.0445 57.307 89.9574C57.1844 90.0737 57.0498 90.1208 56.9033 90.0985C56.7567 90.0763 56.5813 90.059 56.377 90.0468C55.888 90.1075 55.4181 90.1411 54.9674 90.1476C54.5281 90.1521 54.0915 90.1027 53.6574 89.9993C53.6223 89.934 53.5834 89.8813 53.5408 89.8411C53.4962 89.7893 53.4124 89.786 53.2893 89.831C53.1886 89.7295 53.084 89.6406 52.9757 89.5641C52.8769 89.4742 52.7818 89.3717 52.6906 89.2566ZM64.5017 85.2001C64.4742 85.1097 64.4371 85.0329 64.3905 84.9696C64.3535 84.8927 64.3096 84.8111 64.259 84.7247C64.1773 84.5961 64.0994 84.455 64.0253 84.3013C63.9512 84.1476 63.8952 83.9611 63.8573 83.7417C63.8604 83.6222 63.8753 83.5364 63.902 83.4842C63.9266 83.4205 63.9533 83.3683 63.982 83.3277L63.9974 83.0039L64.2572 82.959C64.3516 82.9546 64.445 82.9444 64.5373 82.9285C64.6413 82.9105 64.7394 82.8935 64.8318 82.8776C65.2706 82.8018 65.718 82.7066 66.1739 82.5922C66.6298 82.4777 67.0963 82.3555 67.5733 82.2255C68.0925 82.0644 68.6552 81.9137 69.2612 81.7733C69.297 81.6363 69.3177 81.5495 69.3232 81.5129C69.3403 81.4742 69.3564 81.4298 69.3716 81.3796L69.5441 81.2428C69.8077 81.1854 69.9985 81.1881 70.1164 81.251C70.2323 81.3023 70.3251 81.3576 70.3948 81.4169C70.691 81.3419 70.9921 81.2602 71.2979 81.1717C71.6017 81.0716 71.917 80.9696 72.2439 80.8655C72.6959 80.728 73.1536 80.5894 73.617 80.4499C74.0805 80.3103 74.5374 80.2017 74.9878 80.1238C75.1841 80.0899 75.3699 80.0638 75.5451 80.0454C75.7203 80.027 75.8907 80.0154 76.0564 80.0106L76.2912 80.1305C76.3513 80.2034 76.422 80.2685 76.5033 80.3258C76.5845 80.3831 76.6774 80.4384 76.7817 80.4918C76.9789 80.6004 77.1762 80.7447 77.3738 80.9246C77.5829 81.1025 77.6993 81.3976 77.723 81.8097L77.6663 81.9979C77.6281 82.0521 77.5783 82.1082 77.517 82.1664L77.3827 82.4215L77.1922 82.4544C77.0767 82.4744 76.9921 82.5009 76.9383 82.534C76.8826 82.5555 76.8173 82.5906 76.7425 82.6392C76.7003 82.6702 76.6523 82.7023 76.5985 82.7354C76.5428 82.7569 76.4823 82.7852 76.417 82.8203C76.288 82.8307 76.1888 82.8419 76.1195 82.8538C76.0502 82.8658 75.9694 82.8798 75.877 82.8957C75.5306 82.9556 75.1593 83.0435 74.7631 83.1595C74.3669 83.2756 73.9833 83.3954 73.6122 83.519C73.341 83.6015 73.0814 83.682 72.8333 83.7606C72.5833 83.8275 72.3563 83.8905 72.1524 83.9496C72.0888 84.2697 72.0308 84.5533 71.9783 84.8002C71.9259 85.0471 71.8676 85.295 71.8036 85.544C71.7396 85.7929 71.6823 86.0465 71.6318 86.305C71.5793 86.5519 71.5376 86.8267 71.5067 87.1294C71.404 87.3612 71.3235 87.5832 71.265 87.7955C71.2045 87.9962 71.1664 88.2228 71.1506 88.4753C71.0113 88.7015 70.9211 88.9371 70.8802 89.182C70.8508 89.4249 70.8212 89.6322 70.7914 89.8039L70.767 90.0757C70.7002 90.1705 70.6592 90.2429 70.6441 90.2931C70.6405 90.3413 70.6206 90.3983 70.5844 90.464C70.5757 90.6201 70.5544 90.7724 70.5206 90.921C70.5075 90.9827 70.4954 91.0502 70.4843 91.1235C70.4712 91.1852 70.4734 91.2324 70.4909 91.265C70.4898 91.3961 70.4721 91.5002 70.4379 91.5775C70.4498 91.6467 70.456 91.717 70.4564 91.7883C70.4569 91.8596 70.4573 91.9309 70.4577 92.0022C70.4486 92.087 70.4442 92.165 70.4447 92.2363C70.4431 92.296 70.4588 92.3528 70.4919 92.4065C70.5345 92.4467 70.5772 92.4869 70.6198 92.5271C70.6624 92.5674 70.7012 92.6201 70.7363 92.6854C70.7634 92.7045 70.7953 92.7168 70.8319 92.7224C70.8685 92.728 70.9004 92.7403 70.9275 92.7594C71.0338 92.8243 71.1284 92.8555 71.2113 92.8531L71.4204 93.031C71.5615 93.4348 71.5538 93.7691 71.3974 94.0339C71.2355 94.3354 70.912 94.5281 70.427 94.6119L70.1815 94.6365C70.0867 94.5696 70.0315 94.5256 70.016 94.5045C69.9041 94.4763 69.8105 94.4508 69.7352 94.4282C69.6619 94.417 69.5895 94.3761 69.5177 94.3052C69.4907 94.2861 69.4598 94.2795 69.4252 94.2855C69.3885 94.28 69.3567 94.2676 69.3296 94.2485C69.2081 94.2338 69.1087 94.2094 69.0315 94.1752L68.823 94.1041C68.8146 93.9867 68.8064 93.9048 68.7984 93.8587C68.6841 93.7476 68.5851 93.622 68.5014 93.4818C68.4293 93.3397 68.3619 93.1908 68.2993 93.0351C68.2427 92.9141 68.1882 92.8046 68.1356 92.7066C68.0945 92.6067 68.0381 92.5213 67.9664 92.4504C67.8037 91.6461 67.762 90.9576 67.8414 90.3849C67.9189 89.8007 68.0166 89.2308 68.1347 88.6753C68.2023 88.3782 68.2631 88.0763 68.3172 87.7697C68.3712 87.463 68.4127 87.1526 68.4417 86.8384L68.5993 86.6149C68.6682 86.5317 68.7131 86.4823 68.7342 86.4667C68.7083 86.3166 68.7122 86.1673 68.746 86.0187C68.7778 85.8586 68.8154 85.6975 68.8587 85.5354C68.889 85.4351 68.9134 85.3357 68.9321 85.2374C68.9623 85.137 68.9772 85.0512 68.9768 84.9799C68.896 84.9939 68.8219 85.0126 68.7546 85.0361C68.6969 85.0461 68.6344 85.0628 68.5671 85.0864C68.423 85.1469 68.2816 85.1892 68.143 85.2131C68.0391 85.2311 67.963 85.2383 67.9149 85.2347C67.8305 85.2969 67.7488 85.3407 67.67 85.3662C67.5892 85.3802 67.5083 85.3942 67.4275 85.4081L67.2196 85.444L67.0118 85.48C66.8732 85.5039 66.7665 85.5402 66.6917 85.5888C66.53 85.6167 66.4261 85.6347 66.3799 85.6427C66.3337 85.6506 66.2817 85.6596 66.224 85.6696L66.0161 85.7055L65.8083 85.7414C65.7159 85.7574 65.611 85.7696 65.4935 85.778C65.374 85.7748 65.2448 85.7496 65.1058 85.7022L64.9606 85.5846C64.8694 85.4696 64.7939 85.4113 64.7341 85.4097L64.5346 85.3906L64.5017 85.2001ZM88.4252 91.3237C88.0764 91.3008 87.7936 91.2129 87.5769 91.06C87.3698 90.8936 87.1981 90.6914 87.0618 90.4533C86.9351 90.2017 86.8275 89.923 86.739 89.6172C86.662 89.3094 86.5773 88.991 86.4848 88.6621C86.505 88.504 86.5408 88.367 86.5921 88.2511C86.655 88.1332 86.6647 87.9829 86.6213 87.8001C86.6844 87.4087 86.7381 87.0307 86.7821 86.6664C86.8262 86.302 86.8336 85.932 86.8044 85.5565C86.8558 85.4406 86.9131 85.3594 86.9764 85.3127C86.955 84.6386 86.8499 83.961 86.6609 83.2801C86.4719 82.5993 86.2456 81.9783 85.9822 81.4173C85.9718 81.2883 85.9732 81.1929 85.9863 81.1312C85.9974 81.0579 85.9874 81.0002 85.9564 80.958C85.9153 80.858 85.941 80.8001 86.0334 80.7841C86.1257 80.7682 86.2181 80.7522 86.3105 80.7362C86.2746 80.5284 86.1993 80.3333 86.0845 80.1509C85.9793 79.9551 85.8691 79.7303 85.7539 79.4767C85.8104 79.2529 85.839 79.0398 85.8397 78.8375C85.8405 78.6352 85.873 78.4452 85.9375 78.2676C86.327 78.3192 86.7137 78.3892 87.0976 78.4775C87.4815 78.5657 87.8596 78.655 88.232 78.7453C88.6024 78.824 88.967 78.9037 89.3258 78.9844C89.6826 79.0536 90.0297 79.1006 90.367 79.1256C90.9254 79.3978 91.4953 79.668 92.0768 79.9361C92.6679 80.1908 93.2139 80.4948 93.715 80.8483C94.2257 81.1882 94.6722 81.6046 95.0547 82.0974C95.4372 82.5903 95.7153 83.2022 95.8892 83.9333C95.8781 84.0066 95.8708 84.0673 95.8672 84.1155C95.8636 84.1637 95.8601 84.2119 95.8565 84.2601C95.8529 84.3082 95.8561 84.3612 95.8661 84.4189C95.8761 84.4767 95.89 84.5575 95.908 84.6614C95.618 85.4608 95.1983 86.1636 94.649 86.7699C94.0997 87.3762 93.4826 87.9347 92.7979 88.4454C92.1131 88.9562 91.3887 89.4441 90.6247 89.9091C89.8702 90.3605 89.1371 90.8321 88.4252 91.3237ZM88.4258 81.2092C88.3219 81.2271 88.2508 81.2632 88.2126 81.3174C88.441 81.8131 88.6297 82.2859 88.7788 82.7358C88.9279 83.1857 89.0423 83.6417 89.1221 84.1036C89.2135 84.5635 89.2722 85.0409 89.2983 85.5359C89.3243 86.0309 89.3343 86.5703 89.3281 87.1541C89.4762 87.1166 89.604 87.0648 89.7115 86.9986C89.819 86.9325 89.9255 86.8606 90.031 86.7829C90.1481 86.7032 90.2661 86.6293 90.3852 86.5611C90.5158 86.491 90.6667 86.4352 90.8379 86.3937C90.8681 86.2934 90.9139 86.2141 90.9752 86.1559C91.046 86.0842 91.1054 86.0145 91.1531 85.9468C91.4219 85.7814 91.6896 85.6103 91.9563 85.4334C92.2231 85.2565 92.4637 85.0663 92.6783 84.8627C92.8929 84.6591 93.0804 84.4365 93.2408 84.1947C93.4012 83.9529 93.5199 83.6767 93.5971 83.3661C93.4748 83.2088 93.3343 83.0844 93.1758 82.9929C93.0268 82.8878 92.8673 82.7905 92.6973 82.701C92.5367 82.5979 92.3762 82.4948 92.2157 82.3917C92.0647 82.2751 91.9339 82.1372 91.8231 81.9779C91.6343 81.9867 91.4647 81.9685 91.3142 81.9231C91.1616 81.8662 91.0159 81.8141 90.8769 81.7668C90.7359 81.7079 90.5843 81.6568 90.4222 81.6134C90.2717 81.5681 90.0973 81.5566 89.899 81.579C89.5708 81.4692 89.2805 81.4064 89.028 81.3905C88.7735 81.3632 88.5728 81.3027 88.4258 81.2092ZM103.1 88.6634C102.604 88.8204 102.138 88.8772 101.702 88.8335C101.266 88.7899 100.86 88.6757 100.483 88.4911C100.118 88.3044 99.7854 88.0646 99.4851 87.7716C99.1963 87.4767 98.9439 87.1516 98.7279 86.7965C98.4883 86.0292 98.3945 85.314 98.4464 84.651C98.4963 83.9764 98.6303 83.3408 98.8483 82.7442C99.0663 82.1475 99.3307 81.5786 99.6416 81.0373C99.9639 80.494 100.272 79.971 100.566 79.4684C100.652 79.4891 100.716 79.4781 100.756 79.4355C100.808 79.3908 100.846 79.3367 100.871 79.273C100.907 79.2072 100.943 79.1415 100.979 79.0758C101.027 79.0081 101.084 78.9567 101.149 78.9216C101.177 78.8097 101.22 78.7131 101.277 78.6319C101.346 78.5486 101.416 78.4711 101.487 78.3994C101.567 78.3142 101.636 78.2309 101.694 78.1497C101.762 78.0664 101.817 77.9678 101.857 77.8539C101.968 77.8109 102.059 77.7535 102.13 77.6818C102.212 77.6081 102.282 77.5306 102.34 77.4494C102.408 77.3661 102.478 77.2886 102.549 77.2169C102.62 77.1452 102.71 77.0821 102.82 77.0275L102.781 76.8023C103.015 76.6429 103.178 76.484 103.269 76.3255C103.361 76.1669 103.468 75.964 103.592 75.7167C103.717 75.6832 103.814 75.6604 103.884 75.6485C103.964 75.6345 104.084 75.602 104.241 75.551C104.311 75.3367 104.385 75.1754 104.461 75.0671C104.537 74.9587 104.652 74.8319 104.806 74.6864C104.995 74.7489 105.19 74.7747 105.39 74.7639C105.588 74.7415 105.782 74.7972 105.972 74.9309C106.007 75.0675 106.067 75.1702 106.15 75.2391C106.231 75.2964 106.318 75.3527 106.411 75.408C106.502 75.4518 106.593 75.5014 106.686 75.5567C106.779 75.612 106.848 75.7012 106.893 75.8242C106.951 75.8142 106.983 75.7967 106.991 75.7716C107.01 75.7445 107.05 75.7318 107.109 75.7333C107.148 75.8217 107.184 75.8928 107.217 75.9465C107.251 76.0003 107.283 76.0483 107.314 76.0905C107.356 76.1307 107.394 76.1777 107.427 76.2314C107.472 76.2832 107.513 76.3474 107.55 76.4243C107.516 76.5728 107.49 76.7319 107.472 76.9016C107.451 77.0597 107.377 77.1796 107.248 77.2613C107.264 77.3536 107.308 77.3996 107.379 77.3992C107.449 77.3872 107.496 77.4207 107.521 77.4995C107.551 77.6014 107.549 77.691 107.514 77.7683C107.931 78.2552 108.325 78.7759 108.694 79.3305C109.061 79.8735 109.459 80.3875 109.888 80.8724C109.893 81.038 109.927 81.1987 109.989 81.3544C110.061 81.4965 110.139 81.6377 110.223 81.7778C110.318 81.9159 110.408 82.0551 110.491 82.1952C110.575 82.3354 110.641 82.4785 110.69 82.6246C110.747 82.817 110.784 83.0306 110.801 83.2655C110.816 83.4889 110.807 83.7105 110.773 83.9304C110.74 84.1502 110.681 84.3625 110.598 84.5672C110.512 84.7604 110.402 84.9161 110.268 85.0344C110.123 85.2973 109.925 85.5277 109.674 85.7257C109.421 85.9122 109.196 86.1235 108.999 86.3597C108.853 86.4801 108.692 86.5793 108.515 86.6574C108.336 86.724 108.153 86.7973 107.964 86.8774C107.83 86.9957 107.667 87.119 107.475 87.2473C107.281 87.3641 107.081 87.476 106.873 87.5832C106.666 87.6904 106.457 87.7861 106.245 87.8702C106.032 87.9427 105.836 87.9824 105.659 87.9893C105.269 88.2112 104.883 88.385 104.501 88.5105C104.118 88.6361 103.651 88.6871 103.1 88.6634ZM102.236 82.3194C102.166 82.605 102.069 82.8714 101.946 83.1188C101.831 83.3526 101.718 83.5921 101.606 83.8375C101.494 84.0828 101.402 84.3425 101.33 84.6165C101.268 84.877 101.26 85.1756 101.307 85.5125C101.572 85.6689 101.864 85.7433 102.184 85.7356C102.513 85.7144 102.843 85.6633 103.174 85.5823C103.503 85.4898 103.83 85.3858 104.155 85.2702C104.48 85.1546 104.775 85.0738 105.04 85.0279C105.022 84.924 105.06 84.864 105.152 84.8481C105.629 84.7181 106.057 84.5075 106.434 84.2163C106.81 83.9135 107.203 83.6077 107.614 83.2989C107.648 83.1504 107.702 83.0162 107.776 82.8963C107.85 82.7764 107.877 82.6173 107.854 82.419C107.778 82.325 107.723 82.2454 107.688 82.1801C107.664 82.1128 107.641 82.0099 107.617 81.8713C107.245 81.5075 106.907 81.102 106.604 80.6549C106.299 80.1963 105.964 79.7725 105.599 79.3836C105.586 79.4453 105.55 79.511 105.491 79.5807C105.431 79.6504 105.354 79.6518 105.26 79.585C105.245 79.7064 105.207 79.7963 105.146 79.8544C105.082 79.901 105.004 79.9323 104.912 79.9483C104.831 79.9622 104.742 79.9599 104.643 79.9412C104.556 79.9205 104.473 79.8873 104.394 79.8415C104.046 80.2347 103.695 80.6163 103.343 80.9864C103.002 81.3545 102.705 81.7685 102.452 82.2286C102.4 82.2732 102.367 82.2907 102.354 82.2812C102.34 82.2716 102.301 82.2844 102.236 82.3194ZM122.555 85.4446C122.375 85.3686 122.225 85.2577 122.105 85.112C121.973 84.9683 121.862 84.8091 121.773 84.6343C121.672 84.4615 121.587 84.2799 121.518 84.0896C121.436 83.8897 121.356 83.7014 121.278 83.5246C121.25 83.3629 121.265 83.2415 121.322 83.1602C121.377 83.0674 121.439 82.9794 121.508 82.8961C121.783 82.8367 122.028 82.7707 122.241 82.6982C122.454 82.6256 122.662 82.5541 122.864 82.4835C123.066 82.4129 123.269 82.3482 123.473 82.2891C123.674 82.2186 123.897 82.1624 124.139 82.1205C124.25 81.7326 124.353 81.364 124.448 81.0147C124.54 80.6539 124.629 80.3114 124.716 79.9872C124.735 79.6865 124.776 79.406 124.838 79.1455C124.91 78.8715 124.979 78.6158 125.045 78.3785C125.109 78.1296 125.162 77.8884 125.205 77.655C125.246 77.4101 125.256 77.1587 125.235 76.9006C125.304 76.4725 125.361 76.082 125.407 75.7292C125.463 75.3628 125.479 74.9379 125.455 74.4545C125.028 74.5996 124.688 74.7297 124.434 74.8449C124.178 74.9485 123.998 75.0392 123.892 75.1169C123.659 75.1452 123.467 75.131 123.314 75.0741C123.173 75.0152 123.052 74.935 122.951 74.8335C122.851 74.732 122.758 74.6111 122.675 74.471C122.591 74.3309 122.495 74.1869 122.386 74.0392C122.414 73.9273 122.4 73.7752 122.343 73.5829C122.284 73.379 122.189 73.2409 122.057 73.1684C122.146 73.1294 122.202 73.0424 122.226 72.9073C122.248 72.7608 122.236 72.6559 122.19 72.5926C122.376 72.5009 122.578 72.4304 122.795 72.3809C123.011 72.3199 123.221 72.2657 123.427 72.2182C123.643 72.1572 123.846 72.0982 124.039 72.0412C124.229 71.9726 124.386 71.8802 124.508 71.7638C125.105 71.637 125.724 71.5062 126.367 71.3713C127.021 71.2345 127.622 71.1009 128.171 70.9705C128.391 71.0038 128.633 70.9976 128.899 70.9517C129.176 70.9038 129.45 70.8742 129.722 70.863C130.005 70.8498 130.261 70.8829 130.488 70.9625C130.728 71.04 130.913 71.2162 131.043 71.4909C131.221 71.4841 131.356 71.5083 131.448 71.5636C131.553 71.617 131.626 71.6936 131.667 71.7935C131.706 71.8819 131.73 71.9906 131.741 72.1197C131.761 72.2351 131.781 72.3506 131.801 72.4661C131.64 72.6366 131.423 72.793 131.15 72.9352C130.887 73.0639 130.593 73.1861 130.268 73.3017C129.941 73.4057 129.595 73.5012 129.23 73.5882C128.874 73.6616 128.523 73.734 128.179 73.8054C128.187 74.1964 128.161 74.6648 128.101 75.2103C128.05 75.7424 127.992 76.2696 127.928 76.7921C127.862 77.3031 127.805 77.7648 127.757 78.1774C127.719 78.5764 127.716 78.8327 127.747 78.9462C127.677 79.2317 127.618 79.4738 127.569 79.6726C127.532 79.8693 127.493 80.0545 127.451 80.2281C127.421 80.3998 127.386 80.5724 127.345 80.7461C127.313 80.9062 127.268 81.0923 127.209 81.3046L128.387 81.1011C128.432 81.2241 128.499 81.3018 128.588 81.334C128.677 81.3662 128.77 81.3917 128.869 81.4103C128.967 81.429 129.056 81.4612 129.135 81.507C129.224 81.5392 129.278 81.6131 129.298 81.7286C129.528 81.7484 129.681 81.8111 129.759 81.9166C129.836 82.0221 129.87 82.1471 129.859 82.2916C129.858 82.4227 129.823 82.5654 129.755 82.72C129.698 82.8725 129.638 83.0077 129.575 83.1256C129.467 83.1205 129.374 83.1663 129.296 83.2631C129.215 83.3484 129.143 83.4441 129.078 83.5505C128.735 83.5622 128.405 83.6133 128.087 83.7038C127.77 83.7943 127.475 83.875 127.202 83.946C127.146 83.9675 127.129 84.0062 127.15 84.0619C127.17 84.1061 127.164 84.1427 127.134 84.1718C126.756 84.1182 126.378 84.1358 126.001 84.2248C125.636 84.3117 125.265 84.4353 124.888 84.5955C124.521 84.7422 124.143 84.8966 123.755 85.0589C123.369 85.2326 122.969 85.3612 122.555 85.4446ZM131.837 73.5658C131.81 73.4754 131.773 73.3985 131.726 73.3352C131.689 73.2584 131.645 73.1768 131.595 73.0904C131.513 72.9618 131.435 72.8206 131.361 72.6669C131.287 72.5133 131.231 72.3267 131.193 72.1073C131.196 71.9878 131.211 71.902 131.237 71.8498C131.262 71.7861 131.289 71.7339 131.317 71.6933L131.333 71.3696L131.593 71.3247C131.687 71.3202 131.78 71.3101 131.873 71.2941C131.977 71.2761 132.075 71.2592 132.167 71.2432C132.606 71.1674 133.053 71.0723 133.509 70.9578C133.965 70.8434 134.432 70.7211 134.909 70.5912C135.428 70.4301 135.991 70.2794 136.597 70.139C136.632 70.002 136.653 69.9151 136.659 69.8785C136.676 69.8399 136.692 69.7955 136.707 69.7453L136.88 69.6084C137.143 69.551 137.334 69.5537 137.452 69.6166C137.568 69.6679 137.661 69.7232 137.73 69.7826C138.027 69.7076 138.328 69.6258 138.633 69.5373C138.937 69.4373 139.253 69.3352 139.579 69.2312C140.031 69.0936 140.489 68.9551 140.953 68.8155C141.416 68.676 141.873 68.5673 142.323 68.4895C142.52 68.4556 142.705 68.4294 142.881 68.411C143.056 68.3927 143.226 68.381 143.392 68.3762L143.627 68.4962C143.687 68.569 143.758 68.6341 143.839 68.6914C143.92 68.7488 144.013 68.8041 144.117 68.8574C144.314 68.966 144.512 69.1103 144.709 69.2902C144.918 69.4682 145.035 69.7632 145.058 70.1754L145.002 70.3635C144.964 70.4177 144.914 70.4739 144.853 70.532L144.718 70.7872L144.528 70.8201C144.412 70.84 144.328 70.8665 144.274 70.8996C144.218 70.9211 144.153 70.9562 144.078 71.0048C144.036 71.0359 143.988 71.068 143.934 71.101C143.878 71.1226 143.818 71.1508 143.752 71.1859C143.623 71.1963 143.524 71.2075 143.455 71.2195C143.386 71.2314 143.305 71.2454 143.213 71.2614C142.866 71.3212 142.495 71.4092 142.099 71.5252C141.702 71.6412 141.319 71.761 140.948 71.8846C140.676 71.9671 140.417 72.0477 140.169 72.1262C139.919 72.1932 139.692 72.2562 139.488 72.3152C139.424 72.6354 139.366 72.9189 139.314 73.1659C139.261 73.4128 139.203 73.6607 139.139 73.9096C139.075 74.1585 139.018 74.4122 138.967 74.6707C138.915 74.9176 138.873 75.1924 138.842 75.495C138.74 75.7268 138.659 75.9488 138.6 76.1611C138.54 76.3618 138.502 76.5884 138.486 76.8409C138.347 77.0672 138.257 77.3027 138.216 77.5477C138.186 77.7906 138.157 77.9979 138.127 78.1695L138.103 78.4413C138.036 78.5361 137.995 78.6086 137.98 78.6588C137.976 78.707 137.956 78.7639 137.92 78.8296C137.911 78.9857 137.89 79.1381 137.856 79.2866C137.843 79.3483 137.831 79.4158 137.82 79.4891C137.807 79.5508 137.809 79.598 137.826 79.6307C137.825 79.7617 137.808 79.8658 137.773 79.9431C137.785 80.0124 137.792 80.0827 137.792 80.154C137.792 80.2252 137.793 80.2965 137.793 80.3678C137.784 80.4526 137.78 80.5307 137.78 80.602C137.779 80.6617 137.794 80.7184 137.827 80.7722C137.87 80.8124 137.913 80.8526 137.955 80.8928C137.998 80.933 138.037 80.9857 138.072 81.051C138.099 81.0701 138.131 81.0825 138.167 81.088C138.204 81.0936 138.236 81.1059 138.263 81.125C138.369 81.1899 138.464 81.2211 138.547 81.2187L138.756 81.3967C138.897 81.8004 138.889 82.1347 138.733 82.3996C138.571 82.7011 138.247 82.8937 137.762 82.9775L137.517 83.0021C137.422 82.9353 137.367 82.8913 137.351 82.8702C137.24 82.8419 137.146 82.8165 137.071 82.7938C136.997 82.7827 136.925 82.7417 136.853 82.6708C136.826 82.6517 136.795 82.6452 136.761 82.6512C136.724 82.6456 136.692 82.6333 136.665 82.6142C136.544 82.5995 136.444 82.575 136.367 82.5408L136.158 82.4698C136.15 82.3523 136.142 82.2705 136.134 82.2243C136.02 82.1132 135.921 81.9876 135.837 81.8475C135.765 81.7053 135.697 81.5564 135.635 81.4008C135.578 81.2797 135.524 81.1702 135.471 81.0723C135.43 80.9723 135.374 80.8869 135.302 80.8161C135.139 80.0117 135.097 79.3232 135.177 78.7506C135.254 78.1664 135.352 77.5965 135.47 77.0409C135.538 76.7438 135.599 76.4419 135.653 76.1353C135.707 75.8286 135.748 75.5182 135.777 75.204L135.935 74.9806C136.004 74.8973 136.049 74.8479 136.07 74.8324C136.044 74.6823 136.048 74.5329 136.082 74.3844C136.113 74.2243 136.151 74.0632 136.194 73.9011C136.224 73.8007 136.249 73.7014 136.268 73.603C136.298 73.5026 136.313 73.4168 136.312 73.3455C136.231 73.3595 136.157 73.3782 136.09 73.4018C136.032 73.4117 135.97 73.4285 135.903 73.452C135.758 73.5126 135.617 73.5548 135.479 73.5788C135.375 73.5967 135.299 73.6039 135.25 73.6004C135.166 73.6625 135.084 73.7064 135.005 73.7319C134.925 73.7458 134.844 73.7598 134.763 73.7738L134.555 73.8097L134.347 73.8456C134.209 73.8695 134.102 73.9058 134.027 73.9544C133.865 73.9824 133.762 74.0003 133.715 74.0083C133.669 74.0163 133.617 74.0253 133.559 74.0352L133.352 74.0711L133.144 74.1071C133.051 74.123 132.946 74.1352 132.829 74.1436C132.709 74.1405 132.58 74.1152 132.441 74.0679L132.296 73.9503C132.205 73.8352 132.129 73.7769 132.07 73.7753L131.87 73.7563L131.837 73.5658ZM154.022 71.1775C153.504 71.065 153.051 70.8576 152.666 70.5555C152.293 70.2514 151.966 69.8738 151.686 69.4228C151.747 69.091 151.887 68.7993 152.105 68.5475C152.321 68.2842 152.572 68.0506 152.858 67.8466C153.156 67.6406 153.475 67.4605 153.817 67.3062C154.159 67.152 154.492 67.0113 154.815 66.8842C154.888 66.8953 154.923 66.8893 154.919 66.8662C154.915 66.8431 154.946 66.8497 155.011 66.8859C155.405 66.687 155.863 66.483 156.386 66.2737C156.907 66.0529 157.476 65.907 158.094 65.8359C158.167 65.7757 158.261 65.7357 158.377 65.7157C158.49 65.6842 158.611 65.6575 158.738 65.6356C158.865 65.6136 158.986 65.5927 159.101 65.5727C159.215 65.5412 159.309 65.5011 159.384 65.4525C159.467 65.5214 159.58 65.5554 159.723 65.5546C159.863 65.5422 160.017 65.575 160.186 65.653C160.234 65.6565 160.231 65.6392 160.177 65.601C160.12 65.5512 160.119 65.5098 160.173 65.4767C160.323 65.4508 160.462 65.4625 160.589 65.5118C160.717 65.5612 160.835 65.6241 160.943 65.7005C161.061 65.7633 161.166 65.8224 161.259 65.8778C161.363 65.9311 161.467 65.9488 161.571 65.9308C161.697 66.0399 161.839 66.1402 161.998 66.2317C162.166 66.3097 162.324 66.3955 162.471 66.489C162.629 66.5805 162.761 66.6886 162.866 66.8132C162.982 66.9358 163.055 67.0837 163.085 67.2569C163.085 67.3282 163.115 67.3646 163.175 67.3662C163.235 67.3678 163.281 67.3955 163.314 67.4492C163.4 67.8745 163.394 68.256 163.298 68.5937C163.213 68.9294 163.084 69.249 162.911 69.5525C162.735 69.8445 162.54 70.1279 162.326 70.4027C162.124 70.6756 161.941 70.9628 161.779 71.2643C161.948 71.4136 162.132 71.5483 162.331 71.6685C162.54 71.7751 162.748 71.8818 162.957 71.9884C163.166 72.0951 163.365 72.2153 163.554 72.349C163.754 72.4692 163.928 72.6175 164.077 72.7938C164.124 72.8571 164.207 72.8903 164.326 72.8935C164.385 73.0261 164.456 73.1624 164.54 73.3026C164.633 73.4292 164.72 73.5568 164.802 73.6854C164.882 73.8024 164.936 73.9119 164.966 74.0139C164.995 74.1158 164.982 74.2074 164.924 74.2886C165.013 74.3209 165.072 74.3879 165.102 74.4899C165.129 74.5803 165.142 74.6553 165.141 74.7151C164.94 75.0707 164.805 75.3201 164.735 75.4631C164.664 75.606 164.611 75.7104 164.575 75.7761C164.539 75.8418 164.501 75.9018 164.463 75.9559C164.425 76.0101 164.337 76.1205 164.199 76.287C163.651 76.7622 163.068 77.2079 162.45 77.6238C161.842 78.0262 161.189 78.3413 160.491 78.5689C160.447 78.6597 160.371 78.7382 160.264 78.8043C160.17 78.88 160.056 78.9472 159.924 79.0057C159.791 79.0643 159.646 79.1191 159.488 79.1702C159.342 79.2192 159.208 79.2662 159.085 79.3113C159.023 79.2982 158.981 79.2637 158.96 79.208C158.952 79.1618 158.917 79.1321 158.855 79.119C158.868 79.2596 158.816 79.3398 158.701 79.3598C158.599 79.3893 158.462 79.3892 158.29 79.3593C158.119 79.3295 157.937 79.2776 157.746 79.2036C157.555 79.1296 157.388 79.0574 157.245 78.987C157.205 79.1009 157.149 79.2236 157.077 79.355C157.016 79.4844 156.943 79.5802 156.859 79.6424C156.693 79.6472 156.569 79.6509 156.486 79.6533C156.415 79.6537 156.35 79.6945 156.293 79.7758C156.193 79.7456 156.114 79.7056 156.058 79.6558C156.004 79.6176 155.949 79.5736 155.893 79.5239C155.839 79.4857 155.78 79.4542 155.716 79.4296C155.65 79.3933 155.557 79.3679 155.435 79.3532C155.448 79.2915 155.416 79.2079 155.338 79.1024C155.259 78.9853 155.165 78.9242 155.057 78.9191C155.099 78.8167 155.056 78.7052 154.928 78.5846C154.798 78.4525 154.688 78.299 154.598 78.1242C154.596 78.0414 154.588 77.9595 154.574 77.8787C154.569 77.7843 154.567 77.7015 154.567 77.6302C154.576 77.5454 154.593 77.4711 154.617 77.4074C154.642 77.3437 154.693 77.2933 154.77 77.2562C154.732 77.1081 154.661 76.9717 154.556 76.8471C154.646 76.7483 154.698 76.6382 154.713 76.5167C154.726 76.3837 154.733 76.2517 154.734 76.1207C154.747 75.9877 154.766 75.8595 154.792 75.736C154.816 75.601 154.874 75.4841 154.964 75.3853C154.934 75.3547 154.906 75.3298 154.879 75.3107C154.852 75.2916 154.834 75.2531 154.824 75.1954C154.947 74.8768 155.026 74.6133 155.062 74.4051C155.095 74.1852 155.113 73.9799 155.116 73.7892C155.128 73.5849 155.138 73.3691 155.147 73.1417C155.155 72.9143 155.2 72.6212 155.28 72.2624C155.233 72.0565 155.224 71.8677 155.254 71.6961C155.284 71.5245 155.314 71.3586 155.346 71.1985C155.388 71.0249 155.411 70.8484 155.415 70.6692C155.42 70.49 155.379 70.289 155.293 70.066C155.101 70.123 154.968 70.2172 154.896 70.3487C154.835 70.4781 154.81 70.643 154.821 70.8433C154.733 70.9536 154.608 71.0227 154.447 71.0507C154.283 71.0671 154.142 71.1093 154.022 71.1775ZM162.222 73.2037C161.741 73.037 161.312 72.9625 160.934 72.9801C160.568 72.9958 160.223 73.0614 159.898 73.177C159.583 73.2791 159.283 73.4022 158.998 73.5465C158.714 73.6907 158.426 73.8119 158.134 73.91C158.051 74.3285 157.97 74.7885 157.89 75.2899C157.811 75.7913 157.734 76.2801 157.662 76.7564C158.068 76.6268 158.434 76.4744 158.761 76.2991C159.087 76.1237 159.4 75.9388 159.699 75.7444C159.997 75.5384 160.289 75.3392 160.577 75.1468C160.863 74.9428 161.162 74.7483 161.475 74.5634C161.486 74.4189 161.542 74.2962 161.644 74.1954C161.745 74.0946 161.848 73.9996 161.951 73.9104C162.053 73.8096 162.136 73.706 162.201 73.5997C162.266 73.4933 162.273 73.3613 162.222 73.2037ZM160.072 67.9915C159.352 68.0921 158.659 68.2774 157.992 68.5472C157.325 68.817 156.78 69.1372 156.356 69.5077C156.621 69.6641 156.888 69.7964 157.156 69.9046C157.436 70.0109 157.662 70.18 157.833 70.4121C158.349 70.0969 158.786 69.736 159.144 69.3293C159.5 68.911 159.809 68.4651 160.072 67.9915ZM168.209 75.8083C168.153 75.8298 168.094 75.7983 168.032 75.7139C167.968 75.618 167.899 75.5288 167.825 75.4464L168.016 75.4135C167.891 75.1734 167.828 74.9465 167.827 74.7326C167.835 74.5052 167.851 74.2884 167.875 74.0821C167.897 73.8643 167.909 73.66 167.912 73.4692C167.924 73.2649 167.872 73.0658 167.755 72.872C167.819 72.8966 167.857 72.8781 167.87 72.8164C167.893 72.7411 167.902 72.6563 167.897 72.5619C167.903 72.454 167.89 72.349 167.861 72.2471C167.841 72.1316 167.819 72.0403 167.796 71.973C167.884 71.589 167.936 71.1996 167.951 70.8045C167.977 70.4075 167.993 70.0182 167.999 69.6367C168.002 69.2437 168.014 68.867 168.035 68.5066C168.066 68.1326 168.123 67.7778 168.208 67.4421C168.366 67.391 168.537 67.3852 168.722 67.4246C168.917 67.4504 169.051 67.5045 169.125 67.5869C169.435 67.2479 169.695 66.8582 169.904 66.4176C170.113 65.9771 170.325 65.5482 170.538 65.1308C170.761 64.6998 171.026 64.3091 171.334 63.9585C171.643 63.608 172.057 63.358 172.578 63.2084C172.889 63.3569 173.238 63.5166 173.624 63.6877C174.009 63.8473 174.34 64.0755 174.617 64.3725C174.719 64.4143 174.817 64.4628 174.91 64.5181C175.012 64.5599 175.114 64.6017 175.217 64.6435L175.262 64.9033C175.449 65.0255 175.613 65.1815 175.753 65.3714C175.902 65.5478 176.037 65.7445 176.158 65.9614C176.288 66.1649 176.414 66.3751 176.535 66.5921C176.655 66.8091 176.785 67.0067 176.922 67.1851C176.911 67.2584 176.911 67.3239 176.921 67.3816C176.94 67.4258 176.961 67.4758 176.982 67.5315C177.013 67.5737 177.041 67.6285 177.064 67.6958C177.086 67.7515 177.104 67.8256 177.12 67.9179C177.18 68.538 177.064 69.0694 176.772 69.5123C176.489 69.9417 176.115 70.3216 175.648 70.6518C175.192 70.9686 174.695 71.2625 174.16 71.5334C173.622 71.7929 173.139 72.0607 172.711 72.3368C172.719 72.383 172.746 72.4021 172.792 72.3941C172.85 72.3841 172.873 72.4158 172.862 72.489C173.244 72.637 173.539 72.7586 173.745 72.8537C173.964 72.9468 174.162 73.0256 174.339 73.09C174.526 73.1409 174.723 73.1783 174.929 73.2021C175.147 73.2239 175.442 73.2443 175.814 73.2633C176.186 73.2823 176.475 73.3037 176.681 73.3275C176.897 73.3378 177.089 73.3463 177.257 73.353C177.422 73.3482 177.6 73.3413 177.788 73.3325C177.977 73.3237 178.23 73.3096 178.548 73.2904C178.697 73.3955 178.827 73.5276 178.938 73.6869C179.048 73.8461 179.136 74.0094 179.201 74.1766C179.265 74.3438 179.3 74.5103 179.305 74.6759C179.319 74.8281 179.294 74.9573 179.229 75.0636C179.249 75.1078 179.281 75.1259 179.328 75.118C179.383 75.0964 179.441 75.0865 179.501 75.088C179.43 75.1597 179.373 75.241 179.329 75.3318C179.285 75.4226 179.241 75.5134 179.198 75.6042C179.154 75.695 179.098 75.7821 179.029 75.8653C178.971 75.9466 178.886 76.003 178.772 76.0345C178.385 76.268 177.855 76.3655 177.182 76.3271C176.509 76.2887 175.638 76.1658 174.567 75.9583C174.039 75.8593 173.606 75.7617 173.268 75.6655C172.93 75.5692 172.634 75.4718 172.379 75.3731C172.122 75.2629 171.882 75.1439 171.657 75.0162C171.431 74.8769 171.171 74.7137 170.877 74.5266C170.844 74.5442 170.825 74.5713 170.82 74.6079C170.826 74.6425 170.812 74.6686 170.78 74.6862C170.802 75.158 170.774 75.5493 170.697 75.8599C170.632 76.1686 170.509 76.493 170.33 76.8331C170.139 76.8304 170.015 76.8697 169.958 76.9509C169.912 77.0302 169.848 77.1067 169.766 77.1804C169.654 77.2234 169.567 77.2326 169.503 77.2079C169.441 77.1948 169.384 77.1749 169.332 77.1483C169.28 77.1216 169.222 77.0959 169.158 77.0713C169.095 77.0466 169 77.051 168.875 77.0845C168.823 76.9866 168.771 76.8944 168.72 76.808C168.668 76.7101 168.567 76.6798 168.419 76.7173C168.436 76.6074 168.433 76.5188 168.409 76.4515C168.383 76.3727 168.354 76.3064 168.321 76.2526C168.286 76.1873 168.251 76.122 168.216 76.0567C168.192 75.9895 168.19 75.9066 168.209 75.8083ZM172.626 66.8927C172.514 67.1381 172.382 67.3691 172.229 67.5858C172.074 67.7909 171.921 68.0076 171.77 68.2358C171.629 68.4505 171.509 68.6853 171.41 68.9402C171.31 69.1836 171.257 69.4661 171.253 69.7879C171.729 69.6464 172.214 69.4258 172.709 69.1261C173.202 68.8149 173.669 68.5203 174.108 68.2422C173.977 67.8249 173.768 67.5102 173.481 67.298C173.193 67.0743 172.908 66.9392 172.626 66.8927ZM185.408 74.442C184.912 74.5991 184.446 74.6558 184.01 74.6121C183.575 74.5685 183.168 74.4543 182.792 74.2697C182.426 74.0831 182.094 73.8433 181.793 73.5503C181.504 73.2553 181.252 72.9303 181.036 72.5751C180.796 71.8078 180.703 71.0927 180.755 70.4296C180.805 69.755 180.938 69.1194 181.156 68.5228C181.374 67.9262 181.639 67.3572 181.95 66.8159C182.272 66.2727 182.58 65.7497 182.874 65.247C182.961 65.2677 183.024 65.2567 183.064 65.2141C183.116 65.1695 183.154 65.1153 183.179 65.0516C183.215 64.9859 183.251 64.9202 183.288 64.8544C183.335 64.7867 183.392 64.7353 183.457 64.7003C183.485 64.5883 183.528 64.4918 183.586 64.4105C183.654 64.3273 183.724 64.2498 183.795 64.1781C183.876 64.0928 183.944 64.0096 184.002 63.9283C184.071 63.8451 184.125 63.7465 184.165 63.6326C184.276 63.5895 184.367 63.5322 184.438 63.4605C184.521 63.3868 184.59 63.3093 184.648 63.228C184.717 63.1448 184.786 63.0673 184.857 62.9956C184.928 62.9239 185.018 62.8607 185.128 62.8061L185.089 62.581C185.323 62.4216 185.486 62.2626 185.577 62.1041C185.669 61.9456 185.777 61.7427 185.9 61.4953C186.025 61.4618 186.123 61.4391 186.192 61.4271C186.273 61.4131 186.392 61.3806 186.55 61.3296C186.62 61.1154 186.693 60.954 186.769 60.8457C186.846 60.7374 186.96 60.6105 187.114 60.4651C187.303 60.5275 187.498 60.5534 187.698 60.5425C187.896 60.5202 188.09 60.5758 188.28 60.7096C188.315 60.8461 188.375 60.9489 188.458 61.0177C188.539 61.075 188.626 61.1314 188.719 61.1867C188.81 61.2305 188.902 61.28 188.994 61.3353C189.087 61.3906 189.156 61.4798 189.201 61.6028C189.259 61.5929 189.292 61.5753 189.299 61.5502C189.318 61.5232 189.358 61.5104 189.417 61.512C189.456 61.6004 189.493 61.6714 189.526 61.7252C189.559 61.7789 189.591 61.8269 189.622 61.8691C189.664 61.9093 189.702 61.9563 189.735 62.01C189.78 62.0618 189.821 62.1261 189.858 62.2029C189.824 62.3515 189.798 62.5106 189.78 62.6802C189.76 62.8383 189.685 62.9582 189.557 63.0399C189.573 63.1323 189.616 63.1783 189.687 63.1778C189.757 63.1659 189.804 63.1993 189.83 63.2781C189.859 63.3801 189.857 63.4697 189.823 63.5469C190.24 64.0338 190.633 64.5545 191.002 65.1091C191.37 65.6522 191.768 66.1661 192.196 66.651C192.201 66.8167 192.235 66.9773 192.297 67.133C192.37 67.2751 192.447 67.4163 192.531 67.5564C192.626 67.6946 192.716 67.8337 192.799 67.9739C192.883 68.114 192.949 68.2571 192.998 68.4033C193.056 68.5956 193.092 68.8092 193.109 69.0442C193.124 69.2676 193.115 69.4892 193.081 69.709C193.048 69.9288 192.99 70.1411 192.906 70.3458C192.82 70.539 192.711 70.6947 192.576 70.8131C192.432 71.0759 192.234 71.3064 191.982 71.5044C191.729 71.6908 191.504 71.9022 191.307 72.1384C191.161 72.2587 191 72.3579 190.823 72.436C190.644 72.5026 190.461 72.5759 190.273 72.656C190.138 72.7744 189.975 72.8977 189.784 73.026C189.59 73.1427 189.389 73.2547 189.182 73.3619C188.974 73.4691 188.765 73.5647 188.553 73.6488C188.34 73.7214 188.145 73.7611 187.967 73.7679C187.578 73.9898 187.191 74.1636 186.809 74.2892C186.426 74.4148 185.959 74.4657 185.408 74.442ZM184.544 68.0981C184.474 68.3836 184.378 68.6501 184.254 68.8974C184.14 69.1312 184.026 69.3708 183.914 69.6161C183.802 69.8615 183.71 70.1211 183.638 70.3951C183.576 70.6556 183.569 70.9543 183.615 71.2911C183.88 71.4475 184.172 71.5219 184.492 71.5142C184.821 71.493 185.151 71.4419 185.482 71.3609C185.811 71.2684 186.138 71.1644 186.463 71.0488C186.788 70.9332 187.083 70.8524 187.349 70.8066C187.331 70.7026 187.368 70.6427 187.46 70.6267C187.937 70.4967 188.365 70.2861 188.742 69.9949C189.118 69.6921 189.511 69.3863 189.922 69.0776C189.956 68.929 190.01 68.7948 190.084 68.6749C190.159 68.555 190.185 68.3959 190.162 68.1976C190.087 68.1037 190.031 68.024 189.996 67.9587C189.973 67.8915 189.949 67.7885 189.925 67.6499C189.553 67.2861 189.215 66.8806 188.912 66.4336C188.607 65.9749 188.272 65.5511 187.907 65.1622C187.894 65.2239 187.858 65.2896 187.799 65.3594C187.74 65.4291 187.662 65.4305 187.568 65.3636C187.553 65.4851 187.515 65.5749 187.454 65.6331C187.39 65.6797 187.313 65.711 187.22 65.7269C187.139 65.7409 187.05 65.7385 186.951 65.7198C186.865 65.6992 186.782 65.6659 186.702 65.6202C186.354 66.0133 186.004 66.395 185.651 66.765C185.311 67.1331 185.013 67.5472 184.76 68.0072C184.708 68.0518 184.676 68.0694 184.662 68.0598C184.649 68.0503 184.609 68.063 184.544 68.0981ZM198.367 70.0088C198.406 70.0972 198.438 70.1808 198.464 70.2596C198.489 70.3384 198.522 70.4221 198.561 70.5105C198.535 70.6339 198.514 70.7564 198.499 70.8778C198.483 70.9877 198.466 71.0977 198.449 71.2076C198.429 71.2944 198.414 71.3504 198.407 71.3754C198.399 71.4005 198.397 71.4189 198.399 71.4304C198.401 71.4419 198.404 71.4593 198.408 71.4824C198.421 71.4919 198.435 71.5371 198.449 71.6179L198.415 71.8378C198.372 71.9286 198.313 72.0041 198.241 72.0642C198.168 72.1244 198.094 72.1788 198.019 72.2274C198 72.2545 197.968 72.2778 197.924 72.2973C197.882 72.3284 197.851 72.3575 197.832 72.3845L197.816 72.6014L197.597 72.6749C197.408 72.755 197.245 72.8071 197.106 72.831L196.899 72.8669C196.738 72.7638 196.611 72.6846 196.519 72.6293C196.426 72.574 196.328 72.5254 196.226 72.4837C196.082 72.342 195.999 72.2375 195.975 72.1702C195.95 72.0913 195.92 72.0193 195.885 71.954C195.836 71.8078 195.79 71.7147 195.747 71.6745L195.463 71.4739L195.644 71.2821L195.396 70.9859C195.517 70.858 195.608 70.765 195.669 70.7068C195.73 70.6487 195.78 70.5925 195.818 70.5383C195.855 70.4726 195.895 70.3943 195.938 70.3035C195.982 70.2127 196.052 70.064 196.147 69.8572L196.264 69.6051L196.51 69.6875C196.562 69.7141 196.666 69.7318 196.822 69.7405C196.988 69.7357 197.13 69.7348 197.25 69.738C197.456 69.7618 197.649 69.7761 197.828 69.7808C198.005 69.7739 198.154 69.8077 198.274 69.8822L198.367 70.0088ZM204.194 69.002C204.233 69.0904 204.265 69.174 204.291 69.2528C204.316 69.3317 204.349 69.4153 204.388 69.5037C204.361 69.6271 204.341 69.7496 204.326 69.871C204.31 69.981 204.293 70.0909 204.276 70.2008C204.256 70.2876 204.241 70.3436 204.234 70.3687C204.226 70.3937 204.224 70.4121 204.226 70.4236C204.228 70.4352 204.231 70.4525 204.235 70.4756C204.248 70.4851 204.262 70.5303 204.276 70.6112L204.242 70.831C204.199 70.9218 204.14 70.9973 204.067 71.0574C203.995 71.1176 203.921 71.172 203.846 71.2206C203.827 71.2477 203.795 71.271 203.751 71.2905C203.709 71.3216 203.678 71.3507 203.659 71.3777L203.643 71.5946L203.424 71.6681C203.235 71.7482 203.072 71.8003 202.933 71.8242L202.726 71.8601C202.565 71.757 202.438 71.6778 202.346 71.6225C202.253 71.5672 202.155 71.5187 202.053 71.4769C201.909 71.3352 201.826 71.2307 201.802 71.1634C201.777 71.0845 201.747 71.0125 201.712 70.9472C201.663 70.801 201.617 70.7079 201.574 70.6677L201.29 70.4671L201.471 70.2753L201.223 69.9791C201.344 69.8512 201.435 69.7582 201.496 69.7C201.557 69.6419 201.607 69.5857 201.645 69.5315C201.682 69.4658 201.722 69.3875 201.765 69.2967C201.809 69.2059 201.879 69.0572 201.974 68.8505L202.091 68.5983L202.337 68.6807C202.389 68.7073 202.493 68.725 202.649 68.7337C202.815 68.7289 202.957 68.728 203.077 68.7312C203.283 68.755 203.476 68.7693 203.655 68.774C203.832 68.7672 203.981 68.801 204.101 68.8754L204.194 69.002ZM210.021 67.9952C210.06 68.0836 210.092 68.1672 210.118 68.246C210.143 68.3249 210.176 68.4085 210.215 68.4969C210.188 68.6203 210.168 68.7428 210.153 68.8643C210.137 68.9742 210.12 69.0841 210.103 69.194C210.083 69.2808 210.068 69.3368 210.061 69.3619C210.053 69.387 210.05 69.4053 210.052 69.4168C210.054 69.4284 210.057 69.4457 210.061 69.4688C210.075 69.4783 210.089 69.5235 210.103 69.6044L210.069 69.8242C210.026 69.915 209.967 69.9905 209.894 70.0506C209.822 70.1108 209.748 70.1652 209.673 70.2138C209.654 70.2409 209.622 70.2642 209.578 70.2837C209.536 70.3148 209.505 70.3439 209.486 70.371L209.47 70.5878L209.251 70.6613C209.062 70.7414 208.899 70.7935 208.76 70.8174L208.553 70.8533C208.392 70.7503 208.265 70.6711 208.173 70.6157C208.08 70.5604 207.982 70.5119 207.88 70.4701C207.736 70.3284 207.653 70.2239 207.629 70.1566C207.604 70.0777 207.574 70.0057 207.539 69.9404C207.489 69.7943 207.444 69.7011 207.401 69.6609L207.117 69.4603L207.298 69.2685L207.05 68.9723C207.171 68.8444 207.262 68.7514 207.323 68.6932C207.384 68.6351 207.434 68.5789 207.472 68.5247C207.509 68.459 207.549 68.3807 207.592 68.2899C207.636 68.1991 207.705 68.0504 207.801 67.8437L207.918 67.5915L208.164 67.6739C208.216 67.7006 208.32 67.7182 208.476 67.7269C208.642 67.7221 208.784 67.7213 208.904 67.7244C209.11 67.7482 209.303 67.7625 209.482 67.7672C209.659 67.7604 209.808 67.7942 209.928 67.8686L210.021 67.9952Z" fill="white"/>
<path d="M88.8986 50.7499C89.0294 51.5679 88.4724 52.3371 87.6544 52.468C86.8363 52.5989 86.0671 52.0418 85.9362 51.2238L88.8986 50.7499ZM6.40835 3.74644C6.74199 2.98817 7.62716 2.64394 8.38544 2.97758L20.7422 8.4145C21.5005 8.74814 21.8447 9.63331 21.5111 10.3916C21.1774 11.1499 20.2923 11.4941 19.534 11.1605L8.5502 6.32763L3.71738 17.3114C3.38374 18.0697 2.49857 18.4139 1.7403 18.0803C0.982025 17.7467 0.637792 16.8615 0.97143 16.1032L6.40835 3.74644ZM85.9362 51.2238C85.2184 46.737 83.7789 43.479 81.8464 41.0675C79.9159 38.6584 77.4207 37.0032 74.4454 35.8345C68.388 33.4552 60.6226 33.1716 52.0497 32.5919C43.6118 32.0214 34.5297 31.1585 26.4026 27.4005C18.1929 23.6043 11.0541 16.9046 6.38333 4.89422L9.17934 3.80688C13.5769 15.1148 20.1768 21.2164 27.6618 24.6775C35.2294 28.1768 43.7979 29.0271 52.252 29.5987C60.5711 30.1612 68.9392 30.4486 75.5421 33.0422C78.897 34.3599 81.8636 36.2916 84.1875 39.1915C86.5093 42.0889 88.1166 45.862 88.8986 50.7499L85.9362 51.2238Z" fill="white"/>
</svg>
