<svg width="682" height="363" viewBox="0 0 682 363" fill="none" xmlns="http://www.w3.org/2000/svg">
<g filter="url(#filter0_d_826_217)">
<path d="M107.32 160.089C93.2028 126.42 79.1041 92.9193 65.0246 59.5883C62.1953 60.0177 59.3684 60.4591 56.5439 60.9123V33.309C76.2057 30.1935 95.9056 27.4048 115.644 24.9429V52.5104C111.574 53.0209 107.504 53.5433 103.434 54.0777C109.599 72.0505 115.765 90.0543 121.934 108.089C127.798 88.6134 133.662 69.1568 139.525 49.7193C135.575 50.163 131.625 50.6163 127.674 51.079C127.674 41.8803 127.674 32.6816 127.674 23.4829C144.64 21.4791 161.63 19.7161 178.644 18.1942V45.7903L170.106 46.5775C157.491 83.2626 144.888 120.069 132.297 156.998C123.967 157.976 115.641 159.006 107.32 160.089Z" fill="white"/>
<path d="M190.511 151.272V123.884C193.602 123.626 196.704 123.388 199.814 123.168V44.0226L190.511 44.7382V17.1707C209.07 15.6345 227.644 14.382 246.233 13.4135V41.0096C243.131 41.1718 240.03 41.3412 236.929 41.5177V120.635C240.021 120.458 243.122 120.289 246.233 120.127V147.501C227.649 148.469 209.075 149.727 190.511 151.272Z" fill="white"/>
<path d="M262.964 146.706V119.103L272.268 118.731V39.8431C269.166 39.9671 266.065 40.0936 262.964 40.2224V12.6191C284.911 11.6649 306.858 11.1258 328.805 11.0017C343.319 10.9158 353.739 14.0791 360.066 20.3054C366.392 26.5317 369.555 34.3181 369.555 43.6647C369.555 51.6373 367.819 57.7825 364.345 62.1003C360.867 66.4301 355.163 69.4645 347.226 71.2752C354.168 72.5276 359.693 74.8535 363.787 78.3102C367.801 81.63 370.853 85.9644 372.625 90.8629C374.477 96.1235 375.39 101.668 375.324 107.245C375.324 115.98 373.556 123.156 370.02 128.772C366.485 134.387 361.275 138.502 354.39 141.117C347.506 143.751 338.975 145.06 328.805 145.125C306.858 145.244 284.911 145.771 262.964 146.706ZM309.482 61.5993C313.018 61.5325 316.553 61.4824 320.088 61.449C324.053 61.4061 327.002 60.3899 328.927 58.3788C330.852 56.3678 331.79 53.5338 331.79 49.8553C331.79 46.3246 330.859 43.5693 328.998 41.5893C327.138 39.6141 324.161 38.6336 320.067 38.6765C316.532 38.7195 312.996 38.7696 309.461 38.8268L309.482 61.5993ZM309.482 117.486C313.39 117.419 317.297 117.364 321.205 117.321C326.658 117.264 330.602 115.89 333.02 113.099C335.439 110.308 336.649 106.572 336.649 101.82C336.649 96.9103 335.439 93.1555 333.02 90.5552C330.602 87.9645 326.658 86.6763 321.205 86.7336C317.297 86.7765 313.39 86.8314 309.482 86.8982V117.486Z" fill="white"/>
<path d="M388.356 145.683V118.352C391.453 118.433 394.554 118.521 397.66 118.617V39.4638C394.564 39.3684 391.462 39.2801 388.356 39.199V11.5957C406.964 12.0728 425.559 12.8505 444.143 13.9288V41.5321C441.041 41.3555 437.94 41.1861 434.839 41.0239V120.141C437.94 120.298 441.041 120.468 444.143 120.649V148.016C425.554 146.952 406.959 146.174 388.356 145.683Z" fill="white"/>
<path d="M460.86 149.047V121.451C463.962 121.656 467.063 121.87 470.164 122.095V43.2067C467.063 42.9825 463.962 42.7678 460.86 42.5626V14.9665C478.256 16.1259 495.642 17.5333 513.018 19.1889C526.31 46.0646 539.588 73.0858 552.852 100.253V51.0361C549.155 50.5876 545.447 50.163 541.731 49.7622V22.1661C556.545 23.8217 571.335 25.6586 586.102 27.6767V55.2728C583.025 54.853 579.945 54.4403 576.863 54.0347V160.519C564.458 158.897 552.053 157.398 539.648 156.024C524.342 125.122 509.015 94.4174 493.667 63.9109V123.934C497.383 124.249 501.095 124.576 504.802 124.914V152.51C490.184 151.179 475.536 150.025 460.86 149.047Z" fill="white"/>
<path d="M597.782 92.8096V80.4214C601.475 80.951 604.213 79.8154 605.998 77.0148C607.782 74.2142 608.674 69.4431 608.674 62.7015C604.857 62.1385 601.041 61.5803 597.224 61.0268V29.9454C606.289 31.2431 615.33 32.6053 624.347 34.0319V58.6436C624.347 71.6783 622.317 80.982 618.257 86.5546C614.206 92.1368 607.386 94.1908 597.782 92.8096Z" fill="white"/>
<path d="M15 343.25V314.738C18.1298 314.141 21.2621 313.555 24.3967 312.977V231.484C21.2621 232.062 18.1298 232.651 15 233.252V204.74C33.7886 201.162 52.6178 197.891 71.4876 194.928V223.44C68.3386 223.917 65.1945 224.418 62.0551 224.943V251.788C72.4895 250.099 82.9335 248.5 93.387 246.993V220.148C90.238 220.597 87.0891 221.059 83.9402 221.537V193.024C102.824 190.205 121.739 187.697 140.685 185.503V214.008L131.217 215.131V296.624C134.376 296.238 137.532 295.863 140.685 295.501V324.006C121.744 326.205 102.829 328.712 83.9402 331.527V302.994C87.0891 302.517 90.238 302.054 93.387 301.605V273.129C82.9335 274.632 72.4895 276.23 62.0551 277.924V306.436C65.1993 305.921 68.3434 305.417 71.4876 304.926V333.438C52.6178 336.396 33.7886 339.667 15 343.25Z" fill="white"/>
<path d="M215.494 319.59C204.472 320.392 195.076 319.232 187.289 316.012C179.665 312.96 173.385 307.281 169.584 300.002C165.533 292.488 163.508 282.793 163.508 270.918V211.517C160.354 211.842 157.195 212.173 154.032 212.512V184.014C173.489 181.91 192.974 180.138 212.488 178.697V207.202C208.819 207.474 205.148 207.758 201.474 208.053V266.738C201.474 272.277 202.137 276.855 203.463 280.472C204.79 284.088 206.722 286.75 209.26 288.459C211.794 290.167 214.962 290.882 218.764 290.606C222.309 290.475 225.727 289.25 228.547 287.099C231.315 284.786 233.361 281.729 234.445 278.289C235.776 274.472 236.441 269.799 236.441 264.269V205.584C234.029 205.727 231.625 205.878 229.213 206.035V177.537C244.299 176.583 259.39 175.81 274.486 175.219V203.731L264.975 204.117V262.559C264.975 274.281 263.167 284.262 259.55 292.502C256.192 300.443 250.437 307.136 243.09 311.646C235.704 316.176 226.515 318.796 215.494 319.59Z" fill="white"/>
<path d="M288.342 313.249V284.744C291.515 284.644 294.687 284.556 297.86 284.479V202.994C294.692 203.075 291.519 203.161 288.342 203.251V174.746C306.171 174.212 324.003 173.949 341.838 173.959C355.483 200.42 369.129 227.04 382.774 253.82V203.008C378.957 202.917 375.14 202.836 371.323 202.765V174.231C386.553 174.493 401.78 174.971 417.004 175.662V204.174C413.836 204.031 410.664 203.9 407.486 203.781V313.729C394.738 313.252 381.984 312.901 369.226 312.677C353.482 282.247 337.737 252.029 321.992 222.023V284.036C325.809 283.993 329.626 283.964 333.443 283.95V312.455C318.414 312.536 303.38 312.801 288.342 313.249Z" fill="white"/>
<path d="M431.518 314.838V286.333C434.69 286.495 437.858 286.669 441.022 286.855V205.37C437.858 205.184 434.69 205.007 431.518 204.84V176.321C450.602 177.313 469.67 178.628 488.721 180.264V208.769C485.558 208.497 482.394 208.235 479.231 207.982V243.622C488.597 232.496 497.962 221.441 507.328 210.458C504.465 210.186 501.617 209.921 498.783 209.664V181.166C516.126 182.745 533.443 184.589 550.733 186.698V215.21C548.458 214.931 546.189 214.659 543.913 214.394C534.065 225.902 524.208 237.498 514.342 249.183C525.153 264.756 535.957 280.434 546.754 296.216L553.575 297.047V325.552C535.211 323.29 516.82 321.32 498.404 319.64V291.128L505.238 291.765C496.574 278.501 487.905 265.309 479.231 252.189V289.489C482.394 289.742 485.558 290.004 488.721 290.276V318.781C469.67 317.159 450.602 315.845 431.518 314.838Z" fill="white"/>
<path d="M627.403 338.655C621.564 337.577 615.934 335.579 610.721 332.737C604.953 329.746 599.722 325.819 595.241 321.114C590.912 316.702 587.982 311.111 586.818 305.041L591.734 305.756V330.704C583.547 329.512 575.355 328.374 567.158 327.291V280.007C574.406 280.961 581.653 281.96 588.9 283.005C591.028 287.855 593.72 292.436 596.923 296.653C599.841 300.523 603.387 303.876 607.414 306.572C611.218 309.132 615.529 310.84 620.053 311.582C623.321 312.111 625.96 311.634 627.968 310.15C629.977 308.667 630.981 306.183 630.981 302.7C631.028 300.401 630.538 298.122 629.55 296.045C628.453 293.974 626.869 292.2 624.934 290.878C622.275 289.05 619.43 287.51 616.446 286.283C611.422 284.131 606.391 282.001 601.353 279.892C589.143 274.56 580.226 267.897 574.623 259.775C569.019 251.652 566.199 241.346 566.199 228.836C566.199 220.601 567.745 213.481 570.837 207.474C573.66 201.738 578.272 197.076 583.976 194.191C589.644 191.328 596.193 190.472 603.621 191.622C612.682 193.01 620.375 196.123 626.723 200.925C633.328 206.017 638.81 212.417 642.826 219.726L638.31 218.939V199.637C645.839 200.949 653.363 202.307 660.882 203.709V244.574C653.992 243.286 647.096 242.036 640.192 240.824C638.601 237.419 636.575 234.234 634.166 231.348C631.648 228.309 628.696 225.657 625.406 223.476C622.084 221.265 618.321 219.8 614.378 219.182C611.229 218.705 608.777 219.11 607.021 220.399C605.265 221.687 604.382 223.927 604.373 227.119C604.357 228.884 604.739 230.63 605.491 232.228C606.243 233.825 607.346 235.232 608.717 236.344C611.58 238.856 616.453 241.518 623.238 244.373L630.774 247.537C638.942 250.981 645.657 255.168 650.92 260.097C656.103 264.897 660.093 270.843 662.571 277.459C665.076 284.105 666.328 291.865 666.328 300.739C666.328 310.401 664.701 318.249 661.447 324.285C658.193 330.32 653.661 334.555 647.85 336.988C641.991 339.412 635.175 339.967 627.403 338.655Z" fill="white"/>
</g>
<defs>
<filter id="filter0_d_826_217" x="0" y="0" width="681.328" height="362.25" filterUnits="userSpaceOnUse" color-interpolation-filters="sRGB">
<feFlood flood-opacity="0" result="BackgroundImageFix"/>
<feColorMatrix in="SourceAlpha" type="matrix" values="0 0 0 0 0 0 0 0 0 0 0 0 0 0 0 0 0 0 127 0" result="hardAlpha"/>
<feOffset dy="4"/>
<feGaussianBlur stdDeviation="7.5"/>
<feComposite in2="hardAlpha" operator="out"/>
<feColorMatrix type="matrix" values="0 0 0 0 0 0 0 0 0 0 0 0 0 0 0 0 0 0 0.8 0"/>
<feBlend mode="normal" in2="BackgroundImageFix" result="effect1_dropShadow_826_217"/>
<feBlend mode="normal" in="SourceGraphic" in2="effect1_dropShadow_826_217" result="shape"/>
</filter>
</defs>
</svg>
