<svg width="652" height="333" viewBox="0 0 652 333" fill="none" xmlns="http://www.w3.org/2000/svg">
<path d="M92.3205 149.089C78.2028 115.42 64.1041 81.9193 50.0246 48.5883C47.1953 49.0177 44.3684 49.4591 41.5439 49.9123V22.309C61.2057 19.1935 80.9056 16.4048 100.644 13.9429V41.5104C96.5739 42.0209 92.5042 42.5433 88.4344 43.0777C94.5987 61.0505 100.765 79.0543 106.934 97.0891C112.798 77.6134 118.662 58.1568 124.525 38.7193C120.575 39.163 116.625 39.6163 112.674 40.079C112.674 30.8803 112.674 21.6816 112.674 12.4829C129.64 10.4791 146.63 8.71615 163.644 7.19416V34.7903L155.106 35.5775C142.491 72.2626 129.888 109.069 117.297 145.998C108.967 146.976 100.641 148.006 92.3205 149.089Z" fill="white"/>
<path d="M175.511 140.272V112.884C178.602 112.626 181.704 112.388 184.814 112.168V33.0226L175.511 33.7382V6.17075C194.07 4.63445 212.644 3.38203 231.233 2.4135V30.0096C228.131 30.1718 225.03 30.3412 221.929 30.5177V109.635C225.021 109.458 228.122 109.289 231.233 109.127V136.501C212.649 137.469 194.075 138.727 175.511 140.272Z" fill="white"/>
<path d="M247.964 135.706V108.103L257.268 107.731V28.8431C254.166 28.9671 251.065 29.0936 247.964 29.2224V1.61911C269.911 0.664887 291.858 0.125752 313.805 0.0017029C328.319 -0.0841771 338.739 3.07907 345.066 9.30537C351.392 15.5317 354.555 23.3181 354.555 32.6647C354.555 40.6373 352.819 46.7825 349.345 51.1003C345.867 55.4301 340.163 58.4645 332.226 60.2752C339.168 61.5276 344.693 63.8535 348.787 67.3102C352.801 70.63 355.853 74.9644 357.625 79.8629C359.477 85.1235 360.39 90.6682 360.324 96.2446C360.324 104.98 358.556 112.156 355.02 117.772C351.485 123.387 346.275 127.502 339.39 130.117C332.506 132.751 323.975 134.06 313.805 134.125C291.858 134.244 269.911 134.771 247.964 135.706ZM294.482 50.5993C298.018 50.5325 301.553 50.4824 305.088 50.449C309.053 50.4061 312.002 49.3899 313.927 47.3788C315.852 45.3678 316.79 42.5338 316.79 38.8553C316.79 35.3246 315.859 32.5693 313.998 30.5893C312.138 28.6141 309.161 27.6336 305.067 27.6765C301.532 27.7195 297.996 27.7696 294.461 27.8268L294.482 50.5993ZM294.482 106.486C298.39 106.419 302.297 106.364 306.205 106.321C311.658 106.264 315.602 104.89 318.02 102.099C320.439 99.3076 321.649 95.5718 321.649 90.8198C321.649 85.9103 320.439 82.1555 318.02 79.5552C315.602 76.9645 311.658 75.6763 306.205 75.7336C302.297 75.7765 298.39 75.8314 294.482 75.8982V106.486Z" fill="white"/>
<path d="M373.356 134.683V107.352C376.453 107.433 379.554 107.521 382.66 107.617V28.4638C379.564 28.3684 376.462 28.2801 373.356 28.199V0.595711C391.964 1.07282 410.559 1.85051 429.143 2.92878V30.5321C426.041 30.3555 422.94 30.1861 419.839 30.0239V109.141C422.94 109.298 426.041 109.468 429.143 109.649V137.016C410.554 135.952 391.959 135.174 373.356 134.683Z" fill="white"/>
<path d="M445.86 138.047V110.451C448.962 110.656 452.063 110.87 455.164 111.095V32.2067C452.063 31.9825 448.962 31.7678 445.86 31.5626V3.96649C463.256 5.12587 480.642 6.53335 498.018 8.18893C511.31 35.0646 524.588 62.0858 537.852 89.2525V40.0361C534.155 39.5876 530.447 39.163 526.731 38.7622V11.1661C541.545 12.8217 556.335 14.6586 571.102 16.6767V44.2728C568.025 43.853 564.945 43.4403 561.863 43.0347V149.519C549.458 147.897 537.053 146.398 524.648 145.024C509.342 114.122 494.015 83.4174 478.667 52.9109V112.934C482.383 113.249 486.095 113.576 489.802 113.914V141.51C475.184 140.179 460.536 139.025 445.86 138.047Z" fill="white"/>
<path d="M582.782 81.8096V69.4214C586.475 69.951 589.213 68.8154 590.998 66.0148C592.782 63.2142 593.674 58.4431 593.674 51.7015C589.857 51.1385 586.041 50.5803 582.224 50.0268V18.9454C591.289 20.2431 600.33 21.6053 609.347 23.0319V47.6436C609.347 60.6783 607.317 69.982 603.257 75.5546C599.206 81.1368 592.386 83.1908 582.782 81.8096Z" fill="white"/>
<path d="M0 332.25V303.738C3.12985 303.141 6.26208 302.555 9.3967 301.977V220.484C6.26208 221.062 3.12985 221.651 0 222.252V193.74C18.7886 190.162 37.6178 186.891 56.4876 183.928V212.44C53.3386 212.917 50.1945 213.418 47.0551 213.943V240.788C57.4895 239.099 67.9335 237.5 78.387 235.993V209.148C75.238 209.597 72.0891 210.059 68.9402 210.537V182.024C87.8242 179.205 106.739 176.697 125.685 174.503V203.008L116.217 204.131V285.624C119.376 285.238 122.532 284.863 125.685 284.501V313.006C106.744 315.205 87.829 317.712 68.9402 320.527V291.994C72.0891 291.517 75.238 291.054 78.387 290.605V262.129C67.9335 263.632 57.4895 265.23 47.0551 266.924V295.436C50.1993 294.921 53.3434 294.417 56.4876 293.926V322.438C37.6178 325.396 18.7886 328.667 0 332.25Z" fill="white"/>
<path d="M200.494 308.59C189.472 309.392 180.076 308.232 172.289 305.012C164.665 301.96 158.385 296.281 154.584 289.002C150.533 281.488 148.508 271.793 148.508 259.918V200.517C145.354 200.842 142.195 201.173 139.032 201.512V173.014C158.489 170.91 177.974 169.138 197.488 167.697V196.202C193.819 196.474 190.148 196.758 186.474 197.053V255.738C186.474 261.277 187.137 265.855 188.463 269.472C189.79 273.088 191.722 275.75 194.26 277.459C196.794 279.167 199.962 279.882 203.764 279.606C207.309 279.475 210.727 278.25 213.547 276.099C216.315 273.786 218.361 270.729 219.445 267.289C220.776 263.472 221.441 258.799 221.441 253.269V194.584C219.029 194.727 216.625 194.878 214.213 195.035V166.537C229.299 165.583 244.39 164.81 259.486 164.219V192.731L249.975 193.117V251.559C249.975 263.281 248.167 273.262 244.55 281.502C241.192 289.443 235.437 296.136 228.09 300.646C220.704 305.176 211.515 307.796 200.494 308.59Z" fill="white"/>
<path d="M273.342 302.249V273.744C276.515 273.644 279.687 273.556 282.86 273.479V191.994C279.692 192.075 276.519 192.161 273.342 192.251V163.746C291.171 163.212 309.003 162.949 326.838 162.959C340.483 189.42 354.129 216.04 367.774 242.82V192.008C363.957 191.917 360.14 191.836 356.323 191.765V163.231C371.553 163.493 386.78 163.971 402.004 164.662V193.174C398.836 193.031 395.664 192.9 392.486 192.781V302.729C379.738 302.252 366.984 301.901 354.226 301.677C338.482 271.247 322.737 241.029 306.992 211.023V273.036C310.809 272.993 314.626 272.964 318.443 272.95V301.455C303.414 301.536 288.38 301.801 273.342 302.249Z" fill="white"/>
<path d="M416.518 303.838V275.333C419.69 275.495 422.858 275.669 426.022 275.855V194.37C422.858 194.184 419.69 194.007 416.518 193.84V165.321C435.602 166.313 454.67 167.628 473.721 169.264V197.769C470.558 197.497 467.394 197.235 464.231 196.982V232.622C473.597 221.496 482.962 210.441 492.328 199.458C489.465 199.186 486.617 198.921 483.783 198.664V170.166C501.126 171.745 518.443 173.589 535.733 175.698V204.21C533.458 203.931 531.189 203.659 528.913 203.394C519.065 214.902 509.208 226.498 499.342 238.183C510.153 253.756 520.957 269.434 531.754 285.216L538.575 286.047V314.552C520.211 312.29 501.82 310.32 483.404 308.64V280.128L490.238 280.765C481.574 267.501 472.905 254.309 464.231 241.189V278.489C467.394 278.742 470.558 279.004 473.721 279.276V307.781C454.67 306.159 435.602 304.845 416.518 303.838Z" fill="white"/>
<path d="M612.403 327.655C606.564 326.577 600.934 324.579 595.721 321.737C589.953 318.746 584.722 314.819 580.241 310.114C575.912 305.702 572.982 300.111 571.818 294.041L576.734 294.756V319.704C568.547 318.512 560.355 317.374 552.158 316.291V269.007C559.406 269.961 566.653 270.96 573.9 272.005C576.028 276.855 578.72 281.436 581.923 285.653C584.841 289.523 588.387 292.876 592.414 295.572C596.218 298.132 600.529 299.84 605.053 300.582C608.321 301.111 610.96 300.634 612.968 299.15C614.977 297.667 615.981 295.183 615.981 291.7C616.028 289.401 615.538 287.122 614.55 285.045C613.453 282.974 611.869 281.2 609.934 279.878C607.275 278.05 604.43 276.51 601.446 275.283C596.422 273.131 591.391 271.001 586.353 268.892C574.143 263.56 565.226 256.897 559.623 248.775C554.019 240.652 551.199 230.346 551.199 217.836C551.199 209.601 552.745 202.481 555.837 196.474C558.66 190.738 563.272 186.076 568.976 183.191C574.644 180.328 581.193 179.472 588.621 180.622C597.682 182.01 605.375 185.123 611.723 189.925C618.328 195.017 623.81 201.417 627.826 208.726L623.31 207.939V188.637C630.839 189.949 638.363 191.307 645.882 192.709V233.574C638.992 232.286 632.096 231.036 625.192 229.824C623.601 226.419 621.575 223.234 619.166 220.348C616.648 217.309 613.696 214.657 610.406 212.476C607.084 210.265 603.321 208.8 599.378 208.182C596.229 207.705 593.777 208.11 592.021 209.399C590.265 210.687 589.382 212.927 589.373 216.119C589.357 217.884 589.739 219.63 590.491 221.228C591.243 222.825 592.346 224.232 593.717 225.344C596.58 227.856 601.453 230.518 608.238 233.373L615.774 236.537C623.942 239.981 630.657 244.168 635.92 249.097C641.103 253.897 645.093 259.843 647.571 266.459C650.076 273.105 651.328 280.865 651.328 289.739C651.328 299.401 649.701 307.249 646.447 313.285C643.193 319.32 638.661 323.555 632.85 325.988C626.991 328.412 620.175 328.967 612.403 327.655Z" fill="white"/>
</svg>
