<svg width="99" height="90" viewBox="0 0 99 90" fill="none" xmlns="http://www.w3.org/2000/svg">
<path d="M12.052 61.121C11.8828 61.174 11.7204 61.2318 11.5647 61.2944C11.4205 61.355 11.2716 61.4224 11.1179 61.4965C11.0526 61.5315 10.9864 61.5608 10.9191 61.5844C10.8518 61.6079 10.7797 61.6382 10.7029 61.6752C10.487 61.665 10.279 61.6652 10.0787 61.676C9.8899 61.6849 9.72047 61.7023 9.57035 61.7282L9.29856 61.7038C9.152 61.6816 9.04209 61.6649 8.96881 61.6537C8.89354 61.6311 8.82026 61.62 8.74898 61.6204C8.68725 61.6073 8.6092 61.6029 8.51482 61.6073C8.432 61.6097 8.30775 61.6134 8.1421 61.6182C7.95975 61.733 7.7762 61.8063 7.59144 61.8382C7.46441 61.8602 7.32862 61.8658 7.18406 61.8551C7.03751 61.8328 6.88497 61.7759 6.72645 61.6844C6.56593 61.5813 6.4042 61.4368 6.24126 61.2509C6.07633 61.0535 5.91874 60.7953 5.7685 60.4764C5.75725 60.2048 5.75776 59.9668 5.77004 59.7626C5.78231 59.5583 5.80156 59.3944 5.8278 59.2709L5.93944 59.0911C6.13333 58.9743 6.36307 58.893 6.62867 58.8471C6.88272 58.8032 7.13797 58.8008 7.39444 58.8397C7.65091 58.8786 7.90837 58.9233 8.16684 58.9738C8.27875 59.0021 8.35979 59.0237 8.40997 59.0388C8.46015 59.054 8.49779 59.0653 8.52288 59.0728C8.54797 59.0804 8.57784 59.0812 8.61248 59.0752C8.65867 59.0672 8.73373 59.0543 8.83766 59.0363C8.8954 59.0263 8.94736 59.0173 8.99355 59.0094C9.04929 58.9878 9.10504 58.9663 9.16078 58.9448L9.37163 58.9262C9.46045 58.9584 9.56259 58.9646 9.67807 58.9446C9.7589 58.9306 9.83774 58.9051 9.91458 58.8681C10.003 58.829 10.0914 58.7899 10.1798 58.7509C10.2661 58.7003 10.343 58.6632 10.4103 58.6397C10.4776 58.6162 10.5381 58.5879 10.5918 58.5548L10.7381 58.369C10.8456 58.3029 10.9232 58.2359 10.971 58.1682C11.0303 58.0985 11.0771 58.025 11.1113 57.9477C11.1435 57.8589 11.17 57.7711 11.1907 57.6843C11.2229 57.5955 11.2656 57.4989 11.319 57.3945C11.3647 57.3153 11.4047 57.237 11.439 57.1598C11.4847 57.0805 11.5315 57.007 11.5792 56.9393L11.5493 56.7661C11.6603 56.3069 11.7471 55.8459 11.8099 55.3832C11.8726 54.9204 11.918 54.4607 11.9462 54.0039C11.9743 53.5471 11.987 53.1049 11.9845 52.6772C11.9935 52.2475 11.9979 51.8603 11.9978 51.5154C11.9632 51.5214 11.9285 51.5274 11.8939 51.5333C11.8573 51.5278 11.8274 51.527 11.8043 51.531C11.4579 51.5908 11.1759 51.6455 10.9585 51.695C10.7411 51.7444 10.542 51.7967 10.3613 51.8517C10.1805 51.9067 9.99017 51.9753 9.79029 52.0574C9.59997 52.1259 9.3539 52.216 9.05209 52.3276L8.7666 52.4305C8.56516 52.5723 8.36848 52.7074 8.17659 52.8357C7.99424 52.9504 7.79337 53.0267 7.57396 53.0647C7.22753 53.1245 6.90335 53.0378 6.60142 52.8046C6.30789 52.6888 6.11787 52.4838 6.03135 52.1895C5.95565 52.0956 5.9156 52.0014 5.91118 51.907C5.83706 51.7533 5.78325 51.614 5.74976 51.489C5.72581 51.3504 5.70387 51.2234 5.68391 51.1079L5.65036 50.8104L5.91018 50.7655C5.96749 50.6843 6.0047 50.6243 6.02181 50.5857C6.05047 50.5451 6.06658 50.5007 6.07015 50.4525L6.09219 50.2703L6.26241 50.223C6.49892 50.1465 6.74021 50.0632 6.98628 49.9731C7.23235 49.883 7.48319 49.7861 7.73881 49.6825C7.99643 49.5904 8.21462 49.5111 8.3934 49.4445C8.58372 49.376 8.7645 49.321 8.93572 49.2795C9.10494 49.2265 9.28193 49.184 9.4667 49.1521C9.64946 49.1086 9.8621 49.0659 10.1046 49.024C10.197 49.0081 10.2788 48.9999 10.3501 48.9994C10.4309 48.9855 10.5118 48.9715 10.5926 48.9575C10.6288 48.8918 10.669 48.8492 10.7132 48.8297C10.7574 48.8101 10.791 48.7984 10.8141 48.7944C10.897 48.792 10.9567 48.7935 10.9933 48.7991C11.0415 48.8027 11.0782 48.8082 11.1033 48.8158C11.4839 48.6787 11.8349 48.5764 12.1562 48.509C12.4871 48.428 12.7854 48.3646 13.051 48.3187C13.178 48.2968 13.305 48.2748 13.432 48.2529C13.5591 48.2309 13.6813 48.2157 13.7988 48.2073L14.457 48.0936L14.9247 48.0128C14.9804 47.9913 15.0314 47.9765 15.0776 47.9685C15.1353 47.9586 15.1931 47.9486 15.2508 47.9386C15.3663 47.9187 15.4529 47.9037 15.5106 47.8937C15.5799 47.8818 15.6386 47.8776 15.6868 47.8811C15.733 47.8731 15.7802 47.8709 15.8284 47.8745C15.8746 47.8665 15.9391 47.8613 16.0219 47.8589C16.2242 47.8596 16.4082 47.8576 16.5738 47.8527C16.7395 47.8479 16.9032 47.8315 17.0648 47.8036L17.391 47.7294L17.4788 47.9283L17.6736 48.1265C17.7202 48.1898 17.7774 48.2453 17.8451 48.2931C17.9128 48.3409 17.9863 48.3876 18.0656 48.4334C18.2261 48.5365 18.3868 48.6752 18.5478 48.8496C18.7183 49.0104 18.8171 49.2728 18.8443 49.6367L18.7244 49.8715C18.6822 49.9026 18.641 49.9395 18.6008 49.9821C18.5721 50.0227 18.5387 50.0701 18.5005 50.1243L18.3542 50.3101C18.206 50.3476 18.081 50.3811 17.9791 50.4106C17.8752 50.4285 17.7597 50.4485 17.6327 50.4704C17.4248 50.5064 17.2102 50.5375 16.9888 50.5639C16.7789 50.5882 16.5575 50.6146 16.3246 50.6429C16.1955 50.6533 16.0964 50.6645 16.0271 50.6765C15.9578 50.6885 15.8943 50.6994 15.8366 50.7094C15.7788 50.7194 15.7105 50.7371 15.6317 50.7627C15.5624 50.7746 15.47 50.7906 15.3546 50.8105C15.2391 50.8305 15.1525 50.8455 15.0947 50.8554C15.0486 50.8634 14.9803 50.8812 14.8899 50.9087C14.9306 51.2822 14.9403 51.6135 14.9189 51.9026C14.9071 52.1782 14.8809 52.4741 14.8404 52.7903C14.8165 53.9599 14.7297 55.0749 14.5799 56.1354C14.4417 57.1939 14.2462 58.1613 13.9932 59.0374C13.6915 59.4939 13.4002 59.907 13.1192 60.2766C12.8362 60.6347 12.4978 60.9132 12.104 61.112L12.052 61.121ZM19.8637 51.2623C19.8147 51.1162 19.7699 51.0288 19.7292 51.0001C19.7741 50.7783 19.797 50.5662 19.7977 50.3639C19.808 50.1481 19.8087 49.9458 19.7999 49.7571C19.795 49.5914 19.7922 49.4373 19.7913 49.2947C19.802 49.1502 19.8195 49.0104 19.8438 48.8754C20.0321 48.7953 20.1625 48.6895 20.2349 48.5581C20.3169 48.4131 20.3788 48.2894 20.4205 48.1871C20.6264 48.1396 20.7642 48.1455 20.8339 48.2048C20.9151 48.2621 21.0102 48.3646 21.1189 48.5123C21.1986 48.6294 21.3034 48.754 21.4333 48.8862C21.5611 49.0068 21.736 49.0895 21.9578 49.1345C22.0144 49.2555 22.0758 49.3698 22.1419 49.4773C22.208 49.5848 22.281 49.697 22.3606 49.8141C22.5065 50.0386 22.6485 50.2757 22.7868 50.5253C22.9231 50.7634 23.0169 50.997 23.0684 51.2259C22.9757 51.5155 22.9189 51.8404 22.8979 52.2008C22.8885 52.5592 22.9031 52.9194 22.9419 53.2814C22.9902 53.6298 23.0596 53.9627 23.1501 54.28C23.2406 54.5974 23.3452 54.8588 23.464 55.0642L23.6158 55.3234L23.9909 55.2229C24.3886 55.0472 24.744 54.8668 25.0569 54.6819C25.3679 54.4855 25.6517 54.27 25.9085 54.0353C26.1653 53.8007 26.4065 53.5449 26.6322 53.2681C26.8559 52.9797 27.0841 52.6489 27.317 52.2757C27.5382 51.9045 27.7237 51.4978 27.8732 51.0557C28.0208 50.6021 28.126 50.1439 28.1887 49.6812C28.263 49.2164 28.3027 48.7577 28.3077 48.3049C28.3127 47.8521 28.2939 47.4332 28.2511 47.0481C28.4526 46.9063 28.5449 46.7179 28.5281 46.483L28.4372 46.2668C28.3926 46.215 28.3663 46.166 28.3583 46.1198C28.3599 46.0601 28.3682 46.0052 28.3833 45.955C28.4298 45.6734 28.5922 45.4432 28.8705 45.2643C29.1023 45.3669 29.3188 45.4841 29.5199 45.6159C29.7326 45.7456 29.928 45.8784 30.106 46.0141C30.183 46.3219 30.2761 46.5853 30.3853 46.8043C30.4925 47.0117 30.6044 47.2124 30.7212 47.4062C30.8359 47.5886 30.9381 47.7672 31.0278 47.9419C31.129 48.1147 31.2141 48.3319 31.2831 48.5935C31.2275 48.9599 31.1977 49.304 31.1939 49.6257C31.1996 49.934 31.2082 50.2595 31.2199 50.6024L31.2182 50.7989C31.0722 51.1928 30.9282 51.5982 30.7862 52.0152C30.6537 52.4187 30.5479 52.7699 30.4688 53.069C30.4114 53.1503 30.3619 53.2421 30.3201 53.3444C30.2899 53.4448 30.2597 53.5452 30.2294 53.6455C30.2123 53.6842 30.1877 53.7479 30.1554 53.8367C30.1348 53.9235 30.1101 53.9872 30.0814 54.0279L29.6388 53.9438L29.6276 54.4987L29.3625 54.6159L29.1965 54.8943C29.0107 55.4021 28.7946 55.8378 28.5483 56.2015C28.3134 56.5632 28.0322 56.8972 27.7046 57.2035C27.3885 57.5079 27.0185 57.8097 26.5945 58.1089C26.18 58.3945 25.6993 58.7095 25.1523 59.0538C24.9153 59.059 24.7103 59.0766 24.537 59.1065C24.3734 59.1229 24.2097 59.1393 24.0461 59.1557C23.8844 59.1836 23.7275 59.2048 23.5754 59.2192C23.4233 59.2336 23.2471 59.2462 23.0468 59.257C22.9826 59.1611 22.9061 59.097 22.8173 59.0648C22.7285 59.0325 22.6495 59.0224 22.5802 59.0344C22.3293 58.9588 22.1281 58.8271 21.9767 58.6392C21.8253 58.4513 21.6642 58.2412 21.4933 58.0091C21.4116 57.8806 21.3241 57.753 21.2309 57.6264C21.1492 57.4978 21.0512 57.3779 20.9369 57.2669L21.2654 57.1031L20.7252 56.6612C20.6846 56.6326 20.6382 56.6049 20.586 56.5783C20.5454 56.5496 20.5037 56.5152 20.4611 56.475L20.4043 56.1459C20.1945 55.2069 20.0207 54.3391 19.8831 53.5423C19.7549 52.732 19.7419 52.0028 19.844 51.3549L19.8637 51.2623ZM33.08 49.7637C33.0848 49.5845 33.0839 49.4419 33.0775 49.336C33.0691 49.2185 33.0077 49.1042 32.8934 48.9932C32.9077 48.8004 32.9174 48.6501 32.9225 48.5422C32.9392 48.4323 32.92 48.2869 32.865 48.1061C32.9171 47.7879 33.0291 47.507 33.201 47.2632C33.3845 47.0174 33.5913 46.8033 33.8214 46.6208C34.0495 46.4268 34.2942 46.2597 34.5553 46.1194C34.8145 45.9676 35.0594 45.8361 35.2899 45.7249C35.2819 45.6787 35.2549 45.6596 35.2087 45.6676C35.1625 45.6756 35.1459 45.6487 35.1591 45.587C35.7627 45.3638 36.3573 45.0886 36.943 44.7614C37.5402 44.4323 38.1529 44.1242 38.7812 43.8373C39.4095 43.5504 40.0671 43.3297 40.754 43.1754C41.4388 43.0095 42.1813 42.9704 42.9814 43.0581C43.0515 43.1887 43.138 43.3105 43.2407 43.4236C43.3435 43.5366 43.4463 43.6497 43.5491 43.7627C43.6614 43.8622 43.7622 43.9638 43.8514 44.0673C43.9407 44.1708 44.002 44.285 44.0355 44.4101C44.1961 44.5131 44.3297 44.6328 44.4365 44.7689C44.5528 44.8915 44.603 45.0791 44.5872 45.3315C44.4761 45.4459 44.3593 45.5612 44.2367 45.6775C44.1141 45.7938 43.9847 45.9054 43.8486 46.0122C43.307 45.9749 42.7793 46.0185 42.2657 46.1429C41.752 46.2674 41.2913 46.3886 40.8836 46.5066C40.7326 46.39 40.5715 46.3524 40.4003 46.3939C40.2271 46.4238 40.0473 46.4846 39.861 46.5763C39.6842 46.6544 39.5084 46.7383 39.3336 46.8279C39.1569 46.9061 38.9856 46.9475 38.82 46.9524C38.7129 47.0898 38.5594 47.1996 38.3596 47.2817C38.1577 47.3522 37.9433 47.419 37.7163 47.482C37.7147 47.5417 37.7333 47.5801 37.7719 47.5973C37.8105 47.6144 37.8243 47.6596 37.8132 47.7328C37.9119 47.8228 38.0346 47.8789 38.1812 47.9012C38.3257 47.9119 38.4703 47.9226 38.6148 47.9333C38.7709 47.942 38.9127 47.971 39.0402 48.0203C39.1656 48.0581 39.2576 48.1433 39.3162 48.2759C39.5261 48.2515 39.715 48.2783 39.8831 48.3563C40.0492 48.4227 40.1962 48.5163 40.3241 48.6369C40.4519 48.7575 40.5529 48.8947 40.627 49.0483C40.6992 49.1905 40.7404 49.3261 40.7508 49.4551C40.817 49.5626 40.8712 49.6008 40.9134 49.5697C40.9671 49.5366 41.0356 49.5545 41.1189 49.6234C41.195 49.7886 41.3308 49.9554 41.5264 50.1238C41.7315 50.2786 41.8993 50.4578 42.0296 50.6612C42.1125 51.0037 42.1837 51.3125 42.2431 51.5876C42.3141 51.8608 42.3148 52.1401 42.2452 52.4257C42.1367 52.9677 41.9326 53.4727 41.6329 53.9407C41.3332 54.4087 40.9736 54.8395 40.554 55.2331C40.144 55.6132 39.6991 55.9636 39.2193 56.2843C38.7376 56.5935 38.2557 56.867 37.7735 57.1049C37.7253 57.1014 37.6676 57.1114 37.6003 57.1349C37.5445 57.1564 37.527 57.1237 37.5477 57.0369C37.4597 57.1473 37.3484 57.226 37.2139 57.273C37.0908 57.318 36.9475 57.3487 36.7838 57.3651C36.6337 57.3911 36.4768 57.4122 36.3131 57.4286C36.161 57.443 36.0119 57.4747 35.8658 57.5238C35.7574 57.4473 35.6549 57.3699 35.5581 57.2915C35.4728 57.2111 35.3961 57.1114 35.328 56.9923C35.2683 56.9908 35.2334 56.9611 35.2234 56.9034C35.223 56.8321 35.1939 56.8014 35.1362 56.8114C35.1282 56.7652 35.128 56.7296 35.1355 56.7045C35.1431 56.6794 35.1507 56.6543 35.1582 56.6292C35.1984 56.5866 35.2118 56.5605 35.1982 56.5509C35.1942 56.5278 35.1739 56.5135 35.1373 56.508C35.1102 56.4889 35.0773 56.4707 35.0387 56.4536C35.0116 56.4345 35.0008 56.4067 35.0064 56.37C35.0462 56.2561 35.0426 56.1319 34.9955 55.9973C34.958 55.8492 34.9206 55.701 34.8831 55.5529C34.8456 55.4048 34.8332 55.2642 34.8459 55.1312C34.8566 54.9867 34.9348 54.8542 35.0805 54.7339C35.5619 54.6983 36.0025 54.5984 36.4023 54.4342C36.8136 54.268 37.19 54.0721 37.5316 53.8466C37.8847 53.6191 38.2128 53.384 38.5158 53.1414C38.8283 52.8852 39.1322 52.6484 39.4276 52.4308C39.4423 52.3094 39.4773 52.2023 39.5326 52.1094C39.5995 52.0146 39.6674 51.9256 39.7362 51.8424C39.8031 51.7476 39.8642 51.6538 39.9195 51.561C39.9728 51.4566 40.0058 51.3379 40.0185 51.2049C40.0221 51.1567 40.0161 51.1221 40.0006 51.101C39.985 51.0799 39.9647 51.0656 39.9396 51.058C39.9126 51.0389 39.8855 51.0198 39.8584 51.0007C39.8313 50.9816 39.8138 50.9489 39.8058 50.9027C39.7691 50.8972 39.7325 50.8916 39.6959 50.8861C39.6708 50.8785 39.6467 50.8767 39.6236 50.8807C39.2974 50.7825 38.9579 50.7103 38.6051 50.6642C38.2522 50.6182 37.9494 50.5516 37.6965 50.4645C37.5738 50.5808 37.4393 50.6278 37.2927 50.6056C37.1462 50.5833 36.9707 50.5661 36.7664 50.5538C36.2775 50.6145 35.8076 50.6481 35.3568 50.6547C34.9176 50.6592 34.4809 50.6098 34.0468 50.5064C34.0117 50.4411 33.9729 50.3883 33.9303 50.3481C33.8856 50.2964 33.8018 50.293 33.6788 50.3381C33.578 50.2366 33.4734 50.1476 33.3651 50.0712C33.2663 49.9812 33.1713 49.8787 33.08 49.7637ZM44.8911 45.7072C44.8636 45.6168 44.8266 45.5399 44.78 45.4766C44.7429 45.3998 44.6991 45.3182 44.6485 45.2318C44.5668 45.1032 44.4889 44.962 44.4147 44.8083C44.3406 44.6547 44.2846 44.4681 44.2467 44.2487C44.2498 44.1292 44.2647 44.0434 44.2914 43.9912C44.3161 43.9275 44.3427 43.8753 44.3714 43.8347L44.3868 43.511L44.6466 43.4661C44.741 43.4616 44.8344 43.4515 44.9268 43.4355C45.0307 43.4175 45.1288 43.4006 45.2212 43.3846C45.66 43.3088 46.1074 43.2137 46.5633 43.0992C47.0192 42.9848 47.4857 42.8625 47.9627 42.7326C48.482 42.5715 49.0446 42.4208 49.6506 42.2804C49.6864 42.1434 49.7071 42.0565 49.7127 42.0199C49.7298 41.9813 49.7459 41.9369 49.761 41.8867L49.9336 41.7498C50.1972 41.6924 50.3879 41.6951 50.5058 41.758C50.6217 41.8093 50.7145 41.8646 50.7842 41.924C51.0805 41.849 51.3815 41.7672 51.6873 41.6787C51.9911 41.5787 52.3065 41.4766 52.6334 41.3726C53.0853 41.235 53.543 41.0965 54.0065 40.9569C54.47 40.8174 54.9269 40.7087 55.3772 40.6309C55.5735 40.597 55.7593 40.5708 55.9345 40.5524C56.1097 40.5341 56.2802 40.5224 56.4458 40.5176L56.6806 40.6376C56.7408 40.7104 56.8115 40.7755 56.8927 40.8328C56.974 40.8902 57.0668 40.9455 57.1711 40.9988C57.3683 41.1074 57.5657 41.2517 57.7632 41.4316C57.9724 41.6096 58.0888 41.9046 58.1124 42.3168L58.0557 42.5049C58.0175 42.5591 57.9678 42.6153 57.9065 42.6734L57.7721 42.9286L57.5816 42.9615C57.4661 42.9814 57.3815 43.0079 57.3278 43.041C57.272 43.0625 57.2067 43.0976 57.1319 43.1462C57.0897 43.1773 57.0417 43.2094 56.988 43.2424C56.9322 43.264 56.8717 43.2922 56.8064 43.3273C56.6774 43.3377 56.5782 43.3489 56.5089 43.3609C56.4397 43.3728 56.3588 43.3868 56.2664 43.4028C55.92 43.4626 55.5487 43.5506 55.1525 43.6666C54.7563 43.7826 54.3727 43.9024 54.0016 44.026C53.7304 44.1085 53.4708 44.1891 53.2228 44.2676C52.9727 44.3346 52.7457 44.3976 52.5419 44.4566C52.4783 44.7768 52.4202 45.0603 52.3678 45.3073C52.3153 45.5542 52.257 45.8021 52.193 46.051C52.129 46.2999 52.0717 46.5536 52.0213 46.8121C51.9688 47.059 51.9271 47.3338 51.8961 47.6364C51.7935 47.8682 51.7129 48.0902 51.6544 48.3025C51.594 48.5032 51.5558 48.7298 51.54 48.9823C51.4007 49.2086 51.3106 49.4441 51.2696 49.6891C51.2403 49.932 51.2107 50.1393 51.1809 50.3109L51.1565 50.5827C51.0896 50.6775 51.0486 50.75 51.0335 50.8002C51.0299 50.8484 51.01 50.9053 50.9738 50.971C50.9651 51.1271 50.9439 51.2795 50.9101 51.428C50.897 51.4897 50.8848 51.5572 50.8737 51.6305C50.8606 51.6922 50.8628 51.7394 50.8803 51.7721C50.8792 51.9031 50.8615 52.0072 50.8273 52.0845C50.8393 52.1538 50.8455 52.2241 50.8459 52.2954C50.8463 52.3666 50.8467 52.4379 50.8471 52.5092C50.838 52.594 50.8337 52.6721 50.8341 52.7434C50.8325 52.8031 50.8483 52.8598 50.8813 52.9136C50.924 52.9538 50.9666 52.994 51.0092 53.0342C51.0518 53.0744 51.0907 53.1271 51.1257 53.1924C51.1528 53.2115 51.1847 53.2239 51.2213 53.2294C51.258 53.235 51.2898 53.2473 51.3169 53.2664C51.4233 53.3313 51.5179 53.3625 51.6007 53.3601L51.8098 53.5381C51.9509 53.9418 51.9433 54.2761 51.7869 54.541C51.6249 54.8425 51.3014 55.0351 50.8164 55.1189L50.5709 55.1435C50.4761 55.0767 50.421 55.0327 50.4054 55.0116C50.2935 54.9833 50.1999 54.9579 50.1247 54.9352C50.0514 54.9241 49.9789 54.8831 49.9072 54.8122C49.8801 54.7931 49.8492 54.7866 49.8146 54.7926C49.7779 54.787 49.7461 54.7747 49.719 54.7556C49.5975 54.7409 49.4982 54.7164 49.4209 54.6822L49.2124 54.6112C49.204 54.4937 49.1958 54.4119 49.1878 54.3657C49.0735 54.2546 48.9745 54.129 48.8908 53.9889C48.8187 53.8467 48.7513 53.6978 48.6888 53.5422C48.6322 53.4211 48.5776 53.3116 48.525 53.2137C48.4839 53.1137 48.4276 53.0283 48.3559 52.9575C48.1931 52.1531 48.1514 51.4646 48.2309 50.892C48.3083 50.3078 48.4061 49.7379 48.5241 49.1823C48.5917 48.8852 48.6526 48.5833 48.7066 48.2767C48.7606 47.97 48.8022 47.6596 48.8311 47.3454L48.9887 47.122C49.0576 47.0387 49.1026 46.9893 49.1237 46.9738C49.0977 46.8236 49.1017 46.6743 49.1355 46.5258C49.1673 46.3657 49.2048 46.2046 49.2482 46.0425C49.2784 45.9421 49.3029 45.8428 49.3215 45.7444C49.3518 45.644 49.3667 45.5582 49.3663 45.4869C49.2854 45.5009 49.2114 45.5196 49.1441 45.5432C49.0863 45.5531 49.0238 45.5699 48.9565 45.5934C48.8124 45.654 48.671 45.6962 48.5325 45.7202C48.4285 45.7381 48.3525 45.7453 48.3043 45.7418C48.2199 45.8039 48.1383 45.8478 48.0594 45.8733C47.9786 45.8872 47.8978 45.9012 47.8169 45.9152L47.6091 45.9511L47.4012 45.987C47.2626 46.0109 47.1559 46.0472 47.0811 46.0958C46.9194 46.1238 46.8155 46.1417 46.7693 46.1497C46.7231 46.1577 46.6711 46.1667 46.6134 46.1766L46.4055 46.2125L46.1977 46.2485C46.1053 46.2644 46.0004 46.2766 45.8829 46.285C45.7634 46.2819 45.6342 46.2566 45.4952 46.2093L45.35 46.0917C45.2588 45.9766 45.1833 45.9183 45.1236 45.9167L44.9241 45.8977L44.8911 45.7072ZM68.8147 51.8308C68.4658 51.8078 68.1831 51.7199 67.9664 51.5671C67.7592 51.4007 67.5875 51.1984 67.4513 50.9604C67.3245 50.7087 67.2169 50.43 67.1284 50.1242C67.0514 49.8164 66.9667 49.4981 66.8742 49.1692C66.8945 49.0111 66.9302 48.8741 66.9816 48.7582C67.0444 48.6403 67.0542 48.49 67.0107 48.3072C67.0739 47.9157 67.1275 47.5378 67.1716 47.1734C67.2156 46.809 67.2231 46.4391 67.1939 46.0636C67.2452 45.9477 67.3025 45.8664 67.3658 45.8198C67.3445 45.1456 67.2393 44.4681 67.0503 43.7872C66.8613 43.1063 66.6351 42.4854 66.3716 41.9244C66.3612 41.7953 66.3626 41.7 66.3757 41.6382C66.3868 41.565 66.3769 41.5072 66.3458 41.465C66.3047 41.3651 66.3304 41.3071 66.4228 41.2912C66.5152 41.2752 66.6076 41.2592 66.6999 41.2433C66.664 41.0354 66.5887 40.8403 66.4739 40.658C66.3687 40.4621 66.2585 40.2373 66.1434 39.9837C66.1998 39.7599 66.2284 39.5468 66.2292 39.3445C66.2299 39.1422 66.2625 38.9523 66.3269 38.7747C66.7164 38.8263 67.1031 38.8962 67.487 38.9845C67.8709 39.0728 68.2491 39.162 68.6214 39.2523C68.9918 39.331 69.3564 39.4107 69.7152 39.4914C70.0721 39.5606 70.4191 39.6077 70.7564 39.6326C71.3148 39.9048 71.8848 40.175 72.4663 40.4432C73.0573 40.6978 73.6034 41.0019 74.1045 41.3553C74.6151 41.6952 75.0617 42.1116 75.4441 42.6045C75.8266 43.0973 76.1048 43.7093 76.2787 44.4403C76.2675 44.5136 76.2602 44.5744 76.2566 44.6225C76.253 44.6707 76.2495 44.7189 76.2459 44.7671C76.2423 44.8153 76.2456 44.8682 76.2555 44.926C76.2655 44.9837 76.2795 45.0646 76.2974 45.1685C76.0074 45.9678 75.5877 46.6706 75.0384 47.2769C74.4891 47.8832 73.872 48.4417 73.1873 48.9525C72.5025 49.4632 71.7782 49.9511 71.0141 50.4161C70.2597 50.8676 69.5265 51.3391 68.8147 51.8308ZM68.8152 41.7162C68.7113 41.7342 68.6402 41.7702 68.602 41.8244C68.8304 42.3201 69.0191 42.7929 69.1682 43.2429C69.3173 43.6928 69.4318 44.1487 69.5116 44.6106C69.6029 45.0705 69.6616 45.548 69.6877 46.0429C69.7138 46.5379 69.7237 47.0773 69.7175 47.6611C69.8657 47.6236 69.9935 47.5718 70.101 47.5057C70.2085 47.4395 70.315 47.3676 70.4205 47.2899C70.5375 47.2102 70.6556 47.1363 70.7746 47.0682C70.9052 46.998 71.0561 46.9422 71.2273 46.9008C71.2575 46.8004 71.3033 46.7211 71.3646 46.663C71.4355 46.5913 71.4948 46.5216 71.5426 46.4538C71.8113 46.2885 72.079 46.1174 72.3458 45.9405C72.6125 45.7635 72.8532 45.5733 73.0677 45.3697C73.2823 45.1662 73.4698 44.9435 73.6302 44.7017C73.7906 44.46 73.9094 44.1837 73.9865 43.8731C73.8642 43.7159 73.7238 43.5915 73.5652 43.4999C73.4163 43.3948 73.2568 43.2975 73.0867 43.208C72.9262 43.1049 72.7656 43.0018 72.6051 42.8988C72.4542 42.7821 72.3233 42.6442 72.2125 42.485C72.0238 42.4938 71.8541 42.4755 71.7036 42.4302C71.551 42.3733 71.4053 42.3212 71.2663 42.2738C71.1253 42.2149 70.9738 42.1638 70.8117 42.1205C70.6611 42.0751 70.4867 42.0637 70.2884 42.086C69.9602 41.9762 69.6699 41.9134 69.4174 41.8976C69.1629 41.8702 68.9622 41.8097 68.8152 41.7162ZM83.4893 49.1704C82.9931 49.3275 82.5272 49.3842 82.0916 49.3405C81.6559 49.2969 81.2497 49.1828 80.8729 48.9981C80.5077 48.8115 80.1749 48.5717 79.8745 48.2787C79.5857 47.9837 79.3333 47.6587 79.1173 47.3035C78.8777 46.5362 78.7839 45.8211 78.8358 45.158C78.8858 44.4834 79.0197 43.8478 79.2378 43.2512C79.4558 42.6546 79.7202 42.0856 80.031 41.5443C80.3534 41.0011 80.6614 40.4781 80.9551 39.9754C81.0419 39.9961 81.1054 39.9851 81.1456 39.9425C81.1974 39.8979 81.2356 39.8437 81.2603 39.78C81.2965 39.7143 81.3327 39.6486 81.3689 39.5828C81.4167 39.5151 81.4732 39.4637 81.5385 39.4287C81.5667 39.3168 81.6095 39.2202 81.6668 39.1389C81.7357 39.0557 81.8055 38.9782 81.8764 38.9065C81.9568 38.8212 82.0257 38.738 82.083 38.6567C82.1518 38.5735 82.2062 38.4749 82.2459 38.361C82.3574 38.3179 82.4486 38.2606 82.5195 38.1889C82.6019 38.1152 82.6717 38.0377 82.729 37.9564C82.7979 37.8732 82.8678 37.7957 82.9386 37.724C83.0095 37.6523 83.0997 37.5891 83.2091 37.5345L83.1702 37.3094C83.4043 37.15 83.5671 36.991 83.6587 36.8325C83.7502 36.674 83.8579 36.4711 83.9816 36.2237C84.1066 36.1902 84.2038 36.1675 84.2731 36.1555C84.3539 36.1416 84.4732 36.1091 84.6309 36.058C84.7009 35.8438 84.7741 35.6825 84.8505 35.5741C84.9269 35.4658 85.0418 35.3389 85.195 35.1935C85.3842 35.2559 85.5789 35.2818 85.7792 35.2709C85.9775 35.2486 86.1715 35.3042 86.3611 35.438C86.3966 35.5746 86.456 35.6773 86.5392 35.7461C86.6205 35.8035 86.7075 35.8598 86.8003 35.9151C86.8911 35.9589 86.9829 36.0084 87.0757 36.0637C87.1685 36.119 87.2375 36.2082 87.2825 36.3313C87.3402 36.3213 87.3729 36.3037 87.3804 36.2787C87.3995 36.2516 87.439 36.2388 87.4987 36.2404C87.5378 36.3288 87.5738 36.3998 87.6069 36.4536C87.64 36.5073 87.672 36.5553 87.7031 36.5975C87.7457 36.6377 87.7836 36.6847 87.8167 36.7384C87.8613 36.7902 87.9021 36.8545 87.9392 36.9313C87.9054 37.0799 87.8794 37.239 87.8611 37.4086C87.8408 37.5667 87.7664 37.6866 87.6378 37.7683C87.6538 37.8607 87.6974 37.9067 87.7687 37.9062C87.838 37.8943 87.8854 37.9277 87.9109 38.0065C87.9404 38.1085 87.938 38.1981 87.9038 38.2753C88.3209 38.7622 88.7142 39.2829 89.0835 39.8375C89.4509 40.3806 89.8489 40.8945 90.2775 41.3794C90.2824 41.5451 90.3161 41.7057 90.3786 41.8614C90.4508 42.0036 90.5287 42.1447 90.6123 42.2848C90.7076 42.423 90.797 42.5621 90.8807 42.7023C90.9644 42.8424 91.0307 42.9856 91.0798 43.1317C91.1368 43.324 91.1737 43.5376 91.1905 43.7726C91.2053 43.996 91.196 44.2176 91.1627 44.4374C91.1293 44.6572 91.0708 44.8695 90.9873 45.0742C90.9017 45.2674 90.7919 45.4231 90.6577 45.5415C90.5129 45.8043 90.3148 46.0348 90.0636 46.2328C89.8104 46.4192 89.5853 46.6306 89.3883 46.8668C89.2426 46.9871 89.0813 47.0863 88.9045 47.1644C88.7258 47.231 88.5422 47.3043 88.3539 47.3844C88.2197 47.5028 88.0567 47.6261 87.8648 47.7544C87.6709 47.8711 87.4702 47.9831 87.2628 48.0903C87.0554 48.1975 86.8459 48.2931 86.6345 48.3772C86.4211 48.4498 86.2258 48.4895 86.0486 48.4963C85.6588 48.7182 85.2726 48.892 84.89 49.0176C84.5073 49.1432 84.0404 49.1941 83.4893 49.1704ZM82.6251 42.8265C82.5555 43.112 82.4588 43.3785 82.335 43.6258C82.2208 43.8596 82.1076 44.0992 81.9954 44.3445C81.8832 44.5899 81.7913 44.8495 81.7197 45.1235C81.6577 45.384 81.6498 45.6827 81.6962 46.0195C81.961 46.1759 82.2533 46.2503 82.5731 46.2426C82.9024 46.2214 83.2325 46.1703 83.5634 46.0894C83.8923 45.9969 84.2192 45.8928 84.5441 45.7772C84.869 45.6616 85.1643 45.5809 85.4299 45.535C85.4119 45.431 85.4491 45.3711 85.5415 45.3551C86.0185 45.2251 86.446 45.0145 86.8238 44.7233C87.1996 44.4205 87.5927 44.1147 88.0032 43.806C88.037 43.6574 88.0911 43.5232 88.1655 43.4033C88.2399 43.2834 88.2659 43.1243 88.2436 42.926C88.1679 42.8321 88.1125 42.7524 88.0774 42.6871C88.0539 42.6199 88.0302 42.5169 88.0062 42.3784C87.6342 42.0145 87.2965 41.609 86.9933 41.162C86.6881 40.7033 86.3533 40.2795 85.9888 39.8906C85.9756 39.9523 85.9394 40.0181 85.8801 40.0878C85.8208 40.1575 85.7438 40.1589 85.649 40.092C85.6343 40.2135 85.5963 40.3033 85.535 40.3615C85.4717 40.4081 85.3938 40.4394 85.3014 40.4553C85.2206 40.4693 85.131 40.4669 85.0326 40.4483C84.9458 40.4276 84.8628 40.3944 84.7835 40.3486C84.4352 40.7418 84.0849 41.1234 83.7326 41.4934C83.3919 41.8615 83.0948 42.2756 82.8413 42.7356C82.7895 42.7802 82.7569 42.7978 82.7433 42.7882C82.7298 42.7787 82.6904 42.7914 82.6251 42.8265ZM10.2861 88.3466C10.1064 88.2706 9.95647 88.1597 9.83615 88.014C9.70429 87.8703 9.59353 87.711 9.50387 87.5363C9.40266 87.3635 9.31777 87.1819 9.24921 86.9916C9.1671 86.7917 9.08699 86.6034 9.00888 86.4266C8.98095 86.2649 8.99564 86.1435 9.05295 86.0622C9.10827 85.9694 9.17036 85.8814 9.23922 85.7981C9.51437 85.7387 9.75866 85.6727 9.97208 85.6001C10.1855 85.5276 10.3931 85.456 10.595 85.3855C10.7969 85.3149 10.9998 85.2501 11.2036 85.1911C11.4055 85.1206 11.6277 85.0643 11.8702 85.0224C11.9815 84.6345 12.0844 84.266 12.1786 83.9167C12.2709 83.5559 12.3603 83.2134 12.447 82.8892C12.4664 82.5885 12.5072 82.308 12.5692 82.0475C12.6408 81.7735 12.7096 81.5178 12.7756 81.2805C12.8396 81.0315 12.8931 80.7904 12.936 80.557C12.9769 80.3121 12.987 80.0606 12.9662 79.8026C13.0349 79.3745 13.0923 78.984 13.1384 78.6312C13.194 78.2648 13.2098 77.8399 13.1857 77.3565C12.7589 77.5016 12.4187 77.6317 12.1651 77.7469C11.9094 77.8505 11.7289 77.9412 11.6234 78.0189C11.3904 78.0472 11.1977 78.0329 11.0451 77.976C10.9041 77.9172 10.7833 77.837 10.6825 77.7355C10.5817 77.6339 10.4895 77.5131 10.4058 77.373C10.3221 77.2328 10.2259 77.0889 10.1171 76.9412C10.1454 76.8293 10.131 76.6772 10.0739 76.4849C10.0149 76.281 9.91971 76.1429 9.78828 76.0704C9.87667 76.0314 9.93298 75.9443 9.95723 75.8093C9.97947 75.6628 9.96729 75.5578 9.92068 75.4945C10.107 75.4029 10.3089 75.3323 10.5263 75.2829C10.7417 75.2219 10.9523 75.1676 11.1582 75.1202C11.3736 75.0592 11.5775 75.0002 11.7698 74.9432C11.9601 74.8746 12.1166 74.7821 12.2392 74.6658C12.8357 74.539 13.4553 74.4081 14.098 74.2733C14.7522 74.1365 15.3534 74.0029 15.9018 73.8725C16.1216 73.9058 16.3643 73.8996 16.6299 73.8537C16.907 73.8058 17.1814 73.7762 17.453 73.765C17.7361 73.7517 17.9916 73.7849 18.2194 73.8645C18.4587 73.942 18.6438 74.1182 18.7745 74.3929C18.9517 74.3861 19.0867 74.4103 19.1795 74.4656C19.2839 74.5189 19.3566 74.5956 19.3976 74.6955C19.4367 74.7839 19.4614 74.8926 19.4718 75.0216C19.4918 75.1371 19.5117 75.2526 19.5317 75.3681C19.3708 75.5386 19.1541 75.6949 18.8813 75.8372C18.6182 75.9659 18.3241 76.0881 17.9992 76.2037C17.6723 76.3077 17.3261 76.4032 16.9606 76.4902C16.6046 76.5636 16.2544 76.636 15.9099 76.7074C15.918 77.0984 15.8919 77.5667 15.8316 78.1123C15.7808 78.6444 15.7233 79.1716 15.6589 79.6941C15.5926 80.205 15.5356 80.6668 15.488 81.0794C15.4499 81.4784 15.4466 81.7347 15.4781 81.8481C15.4085 82.1337 15.3493 82.3758 15.3004 82.5746C15.263 82.7713 15.2236 82.9565 15.1823 83.1301C15.1525 83.3018 15.1169 83.4744 15.0756 83.648C15.0438 83.8081 14.9986 83.9943 14.9402 84.2066L16.118 84.0031C16.1631 84.1261 16.23 84.2037 16.3188 84.236C16.4076 84.2682 16.5012 84.2936 16.5996 84.3123C16.6979 84.331 16.7868 84.3632 16.866 84.409C16.9548 84.4412 17.0092 84.5151 17.0292 84.6305C17.2586 84.6504 17.4121 84.713 17.4898 84.8185C17.5675 84.924 17.601 85.0491 17.5903 85.1936C17.5891 85.3246 17.5543 85.4674 17.4859 85.6219C17.429 85.7745 17.3691 85.9097 17.3062 86.0276C17.1983 86.0225 17.1051 86.0683 17.0267 86.1651C16.9463 86.2503 16.8737 86.3461 16.8088 86.4525C16.4659 86.4641 16.1358 86.5152 15.8185 86.6057C15.5011 86.6963 15.2059 86.777 14.9327 86.848C14.877 86.8695 14.8599 86.9081 14.8814 86.9639C14.9009 87.0081 14.8954 87.0447 14.8647 87.0738C14.4868 87.0202 14.1093 87.0378 13.7322 87.1268C13.3667 87.2137 12.9956 87.3373 12.6189 87.4975C12.2518 87.6442 11.8742 87.7986 11.486 87.9608C11.0997 88.1346 10.6998 88.2632 10.2861 88.3466ZM19.5682 76.4677C19.5407 76.3773 19.5037 76.3005 19.4571 76.2372C19.42 76.1604 19.3762 76.0787 19.3256 75.9923C19.2439 75.8638 19.166 75.7226 19.0919 75.5689C19.0177 75.4152 18.9617 75.2287 18.9238 75.0093C18.9269 74.8898 18.9419 74.804 18.9685 74.7518C18.9932 74.6881 19.0198 74.6359 19.0485 74.5953L19.0639 74.2715L19.3237 74.2266C19.4181 74.2222 19.5115 74.212 19.6039 74.1961C19.7078 74.1781 19.806 74.1612 19.8983 74.1452C20.3371 74.0694 20.7845 73.9742 21.2404 73.8598C21.6964 73.7453 22.1628 73.6231 22.6398 73.4931C23.1591 73.3321 23.7217 73.1813 24.3277 73.0409C24.3635 72.9039 24.3842 72.8171 24.3898 72.7805C24.4069 72.7419 24.423 72.6974 24.4381 72.6473L24.6107 72.5104C24.8743 72.453 25.065 72.4557 25.1829 72.5186C25.2988 72.5699 25.3916 72.6252 25.4613 72.6845C25.7576 72.6096 26.0586 72.5278 26.3644 72.4393C26.6682 72.3392 26.9836 72.2372 27.3105 72.1331C27.7624 71.9956 28.2201 71.857 28.6836 71.7175C29.1471 71.578 29.604 71.4693 30.0543 71.3915C30.2506 71.3575 30.4364 71.3314 30.6116 71.313C30.7868 71.2946 30.9573 71.283 31.1229 71.2782L31.3577 71.3982C31.4179 71.471 31.4886 71.5361 31.5698 71.5934C31.6511 71.6507 31.7439 71.7061 31.8482 71.7594C32.0454 71.868 32.2428 72.0123 32.4404 72.1922C32.6495 72.3702 32.7659 72.6652 32.7895 73.0773L32.7328 73.2655C32.6946 73.3197 32.6449 73.3759 32.5836 73.434L32.4493 73.6891L32.2587 73.7221C32.1432 73.742 32.0586 73.7685 32.0049 73.8016C31.9491 73.8231 31.8838 73.8582 31.809 73.9068C31.7668 73.9379 31.7188 73.9699 31.6651 74.003C31.6093 74.0245 31.5488 74.0528 31.4835 74.0879C31.3545 74.0983 31.2553 74.1095 31.1861 74.1215C31.1168 74.1334 31.0359 74.1474 30.9436 74.1634C30.5971 74.2232 30.2258 74.3111 29.8296 74.4272C29.4334 74.5432 29.0498 74.663 28.6787 74.7866C28.4075 74.8691 28.1479 74.9496 27.8999 75.0282C27.6498 75.0952 27.4229 75.1582 27.219 75.2172C27.1554 75.5374 27.0973 75.8209 27.0449 76.0678C26.9924 76.3148 26.9341 76.5627 26.8701 76.8116C26.8061 77.0605 26.7488 77.3142 26.6984 77.5726C26.6459 77.8195 26.6042 78.0943 26.5732 78.397C26.4706 78.6288 26.39 78.8508 26.3315 79.0631C26.2711 79.2638 26.2329 79.4904 26.2171 79.7429C26.0778 79.9691 25.9877 80.2047 25.9468 80.4496C25.9174 80.6926 25.8878 80.8998 25.858 81.0715L25.8336 81.3433C25.7667 81.4381 25.7257 81.5106 25.7106 81.5608C25.707 81.6089 25.6872 81.6659 25.6509 81.7316C25.6422 81.8877 25.621 82.04 25.5872 82.1886C25.5741 82.2503 25.5619 82.3178 25.5508 82.3911C25.5377 82.4528 25.5399 82.5 25.5574 82.5327C25.5563 82.6637 25.5386 82.7678 25.5044 82.8451C25.5164 82.9144 25.5226 82.9847 25.523 83.0559C25.5234 83.1272 25.5238 83.1985 25.5243 83.2698C25.5151 83.3546 25.5108 83.4327 25.5112 83.5039C25.5096 83.5637 25.5254 83.6204 25.5585 83.6742C25.6011 83.7144 25.6437 83.7546 25.6863 83.7948C25.7289 83.835 25.7678 83.8877 25.8029 83.953C25.8299 83.9721 25.8618 83.9845 25.8984 83.99C25.9351 83.9956 25.9669 84.0079 25.994 84.027C26.1004 84.0919 26.195 84.1231 26.2778 84.1207L26.4869 84.2986C26.628 84.7024 26.6204 85.0367 26.464 85.3016C26.302 85.6031 25.9785 85.7957 25.4935 85.8795L25.248 85.9041C25.1532 85.8372 25.0981 85.7932 25.0825 85.7721C24.9706 85.7439 24.877 85.7185 24.8018 85.6958C24.7285 85.6847 24.656 85.6437 24.5843 85.5728C24.5572 85.5537 24.5263 85.5472 24.4917 85.5531C24.4551 85.5476 24.4232 85.5352 24.3961 85.5161C24.2746 85.5014 24.1753 85.477 24.098 85.4428L23.8895 85.3718C23.8811 85.2543 23.8729 85.1725 23.8649 85.1263C23.7506 85.0152 23.6516 84.8896 23.5679 84.7495C23.4958 84.6073 23.4285 84.4584 23.3659 84.3027C23.3093 84.1817 23.2547 84.0722 23.2021 83.9743C23.161 83.8743 23.1047 83.7889 23.033 83.7181C22.8702 82.9137 22.8285 82.2252 22.908 81.6525C22.9854 81.0683 23.0832 80.4984 23.2013 79.9429C23.2688 79.6458 23.3297 79.3439 23.3837 79.0373C23.4378 78.7306 23.4793 78.4202 23.5082 78.106L23.6658 77.8825C23.7347 77.7993 23.7797 77.7499 23.8008 77.7343C23.7748 77.5842 23.7788 77.4349 23.8126 77.2863C23.8444 77.1263 23.8819 76.9652 23.9253 76.8031C23.9555 76.7027 23.98 76.6033 23.9987 76.505C24.0289 76.4046 24.0438 76.3188 24.0434 76.2475C23.9625 76.2615 23.8885 76.2802 23.8212 76.3037C23.7634 76.3137 23.7009 76.3305 23.6336 76.354C23.4895 76.4146 23.3481 76.4568 23.2096 76.4808C23.1056 76.4987 23.0296 76.5059 22.9814 76.5024C22.897 76.5645 22.8154 76.6083 22.7365 76.6339C22.6557 76.6478 22.5749 76.6618 22.494 76.6758L22.2862 76.7117L22.0783 76.7476C21.9398 76.7715 21.833 76.8078 21.7582 76.8564C21.5965 76.8843 21.4926 76.9023 21.4464 76.9103C21.4002 76.9183 21.3483 76.9272 21.2905 76.9372L21.0827 76.9731L20.8748 77.009C20.7824 77.025 20.6775 77.0372 20.56 77.0456C20.4406 77.0425 20.3113 77.0172 20.1723 76.9699L20.0271 76.8522C19.9359 76.7372 19.8604 76.6789 19.8007 76.6773L19.6012 76.6583L19.5682 76.4677ZM41.7535 74.0794C41.2346 73.9669 40.7825 73.7596 40.3974 73.4575C40.0237 73.1534 39.6968 72.7758 39.4167 72.3247C39.4783 71.993 39.6182 71.7012 39.8363 71.4495C40.0525 71.1862 40.3035 70.9525 40.5893 70.7486C40.8867 70.5426 41.2064 70.3625 41.5484 70.2082C41.8905 70.054 42.2229 69.9133 42.5458 69.7862C42.6191 69.7973 42.6537 69.7913 42.6498 69.7682C42.6458 69.7451 42.6766 69.7517 42.7423 69.7879C43.1361 69.589 43.5944 69.385 44.1172 69.1757C44.638 68.9549 45.2074 68.809 45.8254 68.7379C45.8982 68.6777 45.9924 68.6377 46.1079 68.6177C46.2214 68.5862 46.3416 68.5595 46.4686 68.5375C46.5957 68.5156 46.7169 68.4946 46.8324 68.4747C46.9459 68.4432 47.04 68.4031 47.1149 68.3545C47.1981 68.4234 47.311 68.4574 47.4536 68.4565C47.5942 68.4441 47.7485 68.4769 47.9166 68.5549C47.9648 68.5585 47.9618 68.5412 47.9076 68.503C47.8514 68.4532 47.8502 68.4118 47.904 68.3787C48.0541 68.3528 48.1929 68.3645 48.3203 68.4138C48.4478 68.4632 48.5657 68.526 48.674 68.6025C48.7919 68.6653 48.8972 68.7244 48.99 68.7797C49.0944 68.8331 49.1985 68.8508 49.3025 68.8328C49.4283 68.9419 49.5705 69.0422 49.7291 69.1337C49.8971 69.2117 50.0547 69.2974 50.2017 69.391C50.3602 69.4825 50.4918 69.5906 50.5966 69.7152C50.7129 69.8378 50.7861 69.9857 50.816 70.1589C50.8164 70.2302 50.8465 70.2666 50.9062 70.2682C50.9659 70.2698 51.0124 70.2974 51.0454 70.3512C51.1308 70.7764 51.1254 71.1579 51.0291 71.4957C50.9444 71.8314 50.8153 72.151 50.6418 72.4545C50.4663 72.7465 50.2714 73.0299 50.0573 73.3047C49.8547 73.5776 49.6724 73.8648 49.5105 74.1663C49.679 74.3155 49.8628 74.4503 50.0619 74.5705C50.2706 74.6771 50.4793 74.7838 50.6881 74.8904C50.8968 74.9971 51.0959 75.1173 51.2855 75.251C51.4847 75.3712 51.6589 75.5194 51.8083 75.6958C51.8549 75.7591 51.938 75.7923 52.0575 75.7955C52.116 75.9281 52.1872 76.0644 52.2708 76.2046C52.3641 76.3312 52.4515 76.4588 52.5332 76.5874C52.6129 76.7044 52.6675 76.8139 52.697 76.9158C52.7265 77.0178 52.7126 77.1094 52.6553 77.1906C52.7441 77.2228 52.8033 77.2899 52.8328 77.3919C52.8603 77.4822 52.8732 77.5573 52.8717 77.617C52.6715 77.9727 52.5362 78.222 52.4657 78.365C52.3953 78.508 52.342 78.6124 52.3058 78.6781C52.2696 78.7438 52.2324 78.8038 52.1941 78.8579C52.1559 78.9121 52.068 79.0224 51.9302 79.1889C51.3821 79.6642 50.799 80.1098 50.1811 80.5258C49.5728 80.9282 48.9196 81.2432 48.2216 81.4709C48.1779 81.5617 48.1022 81.6402 47.9947 81.7063C47.9008 81.782 47.7875 81.8491 47.6549 81.9077C47.5223 81.9663 47.3772 82.0211 47.2195 82.0721C47.0734 82.1212 46.9388 82.1682 46.8158 82.2133C46.7541 82.2001 46.7124 82.1657 46.6909 82.11C46.6829 82.0638 46.6481 82.0341 46.5864 82.021C46.5987 82.1616 46.5472 82.2418 46.4317 82.2618C46.3298 82.2913 46.193 82.2911 46.0214 82.2613C45.8497 82.2315 45.6683 82.1796 45.4771 82.1056C45.286 82.0316 45.1189 81.9594 44.9759 81.889C44.9361 82.0029 44.88 82.1255 44.8076 82.257C44.7467 82.3864 44.6741 82.4822 44.5897 82.5444C44.424 82.5492 44.2998 82.5528 44.2169 82.5553C44.1457 82.5557 44.0814 82.5965 44.024 82.6778C43.9237 82.6476 43.8454 82.6076 43.7893 82.5578C43.7351 82.5196 43.6799 82.4756 43.6237 82.4259C43.5696 82.3876 43.5106 82.3562 43.4469 82.3315C43.3812 82.2953 43.2876 82.2699 43.1661 82.2552C43.1792 82.1935 43.147 82.1098 43.0693 82.0043C42.9896 81.8873 42.8958 81.8262 42.7879 81.8211C42.8296 81.7187 42.7866 81.6072 42.6587 81.4866C42.5289 81.3544 42.4191 81.201 42.3294 81.0262C42.327 80.9433 42.3188 80.8615 42.3049 80.7807C42.3004 80.6863 42.298 80.6035 42.2976 80.5322C42.3067 80.4474 42.3236 80.3731 42.3483 80.3094C42.373 80.2457 42.4237 80.1953 42.5006 80.1582C42.4631 80.0101 42.3919 79.8737 42.2872 79.7491C42.3771 79.6503 42.4294 79.5402 42.4441 79.4187C42.4568 79.2857 42.4638 79.1537 42.4649 79.0227C42.4776 78.8897 42.4971 78.7614 42.5233 78.638C42.5475 78.503 42.6047 78.3861 42.6946 78.2873C42.6655 78.2566 42.6374 78.2318 42.6104 78.2127C42.5833 78.1936 42.5647 78.1551 42.5548 78.0974C42.6781 77.7788 42.7575 77.5153 42.7928 77.307C42.8262 77.0872 42.8442 76.8819 42.847 76.6912C42.8592 76.4869 42.8695 76.271 42.8778 76.0437C42.8861 75.8163 42.9306 75.5232 43.0113 75.1643C42.9638 74.9585 42.955 74.7697 42.9848 74.5981C43.0146 74.4264 43.0454 74.2606 43.0772 74.1005C43.1186 73.9268 43.1416 73.7504 43.1463 73.5712C43.151 73.392 43.1103 73.1909 43.0242 72.968C42.8319 73.025 42.6995 73.1192 42.6271 73.2506C42.5662 73.3801 42.5412 73.545 42.552 73.7453C42.4641 73.8556 42.3392 73.9247 42.1776 73.9527C42.0139 73.969 41.8726 74.0113 41.7535 74.0794ZM49.9526 76.1056C49.4719 75.939 49.0428 75.8644 48.6653 75.8821C48.2993 75.8978 47.9539 75.9634 47.629 76.079C47.3136 76.1811 47.0138 76.3042 46.7295 76.4485C46.4452 76.5927 46.157 76.7139 45.8647 76.812C45.7824 77.2305 45.7014 77.6905 45.6215 78.1919C45.5416 78.6933 45.4655 79.1821 45.3932 79.6584C45.799 79.5288 46.1651 79.3764 46.4916 79.201C46.818 79.0257 47.131 78.8408 47.4304 78.6464C47.7278 78.4404 48.0204 78.2412 48.3082 78.0487C48.5941 77.8448 48.8935 77.6503 49.2064 77.4654C49.2171 77.3209 49.2732 77.1982 49.3747 77.0974C49.4762 76.9966 49.5787 76.9016 49.6822 76.8124C49.7837 76.7116 49.8669 76.608 49.9318 76.5017C49.9967 76.3953 50.0036 76.2633 49.9526 76.1056ZM47.8033 70.8935C47.0834 70.9941 46.3899 71.1793 45.723 71.4492C45.0561 71.719 44.5108 72.0392 44.0873 72.4097C44.3521 72.5661 44.6188 72.6984 44.8872 72.8066C45.1672 72.9128 45.3927 73.082 45.5636 73.3141C46.08 72.9989 46.5171 72.638 46.8749 72.2313C47.2308 71.813 47.5403 71.3671 47.8033 70.8935ZM55.9397 78.7102C55.884 78.7318 55.825 78.7003 55.7629 78.6159C55.6987 78.52 55.6298 78.4308 55.5561 78.3484L55.7466 78.3155C55.6219 78.0754 55.5589 77.8484 55.5576 77.6346C55.5659 77.4072 55.582 77.1904 55.6058 76.9841C55.6276 76.7662 55.6399 76.562 55.6426 76.3712C55.6549 76.1669 55.6026 75.9678 55.4859 75.7739C55.5496 75.7986 55.588 75.7801 55.6011 75.7183C55.6238 75.6431 55.6329 75.5582 55.6285 75.4639C55.6337 75.356 55.6215 75.251 55.592 75.1491C55.572 75.0336 55.5503 74.9422 55.5268 74.8749C55.615 74.491 55.6667 74.1016 55.6817 73.7065C55.7082 73.3095 55.7242 72.9202 55.7296 72.5387C55.7331 72.1457 55.7453 71.769 55.7663 71.4086C55.7968 71.0346 55.8544 70.6798 55.9391 70.3441C56.0968 70.293 56.2682 70.2872 56.4534 70.3265C56.6481 70.3524 56.7823 70.4065 56.856 70.4889C57.1661 70.1499 57.4258 69.7601 57.6351 69.3196C57.8445 68.8791 58.0558 68.4502 58.269 68.0328C58.4919 67.6018 58.7574 67.2111 59.0655 66.8605C59.3736 66.51 59.7882 66.2599 60.3094 66.1104C60.6205 66.2588 60.9692 66.4186 61.3555 66.5897C61.7399 66.7492 62.0707 66.9775 62.3479 67.2745C62.4503 67.3163 62.5479 67.3648 62.6407 67.4201C62.743 67.4619 62.8454 67.5037 62.9478 67.5455L62.9926 67.8053C63.1803 67.9275 63.344 68.0835 63.4838 68.2734C63.6332 68.4498 63.7683 68.6464 63.889 68.8634C64.0193 69.0669 64.1448 69.2771 64.2656 69.4941C64.3863 69.7111 64.5156 69.9087 64.6534 70.0871C64.6423 70.1604 64.6417 70.2259 64.6517 70.2836C64.6712 70.3278 64.6918 70.3778 64.7133 70.4335C64.7444 70.4757 64.7717 70.5304 64.7952 70.5977C64.8167 70.6535 64.8355 70.7275 64.8514 70.8199C64.911 71.4399 64.7947 71.9714 64.5025 72.4143C64.22 72.8437 63.8456 73.2235 63.3794 73.5538C62.9227 73.8706 62.4265 74.1644 61.8906 74.4354C61.3527 74.6949 60.8697 74.9626 60.4417 75.2388C60.4497 75.2849 60.4768 75.304 60.523 75.2961C60.5807 75.2861 60.604 75.3177 60.5929 75.391C60.9752 75.539 61.2698 75.6606 61.4765 75.7557C61.6947 75.8488 61.8927 75.9275 62.0703 75.992C62.2575 76.0429 62.4542 76.0803 62.6605 76.1041C62.8783 76.1259 63.1732 76.1463 63.5452 76.1653C63.9171 76.1843 64.2062 76.2057 64.4125 76.2295C64.6284 76.2398 64.8201 76.2483 64.9878 76.255C65.1534 76.2501 65.3306 76.2433 65.5194 76.2345C65.7081 76.2256 65.9614 76.2116 66.2792 76.1924C66.4281 76.2975 66.558 76.4296 66.6688 76.5889C66.7795 76.7481 66.8672 76.9114 66.9318 77.0786C66.9963 77.2458 67.031 77.4123 67.0359 77.5779C67.0503 77.73 67.025 77.8593 66.9602 77.9656C66.9797 78.0098 67.0125 78.0279 67.0587 78.0199C67.1145 77.9984 67.1722 77.9884 67.2319 77.99C67.1611 78.0617 67.1038 78.143 67.06 78.2338C67.0162 78.3246 66.9725 78.4154 66.9287 78.5062C66.8849 78.597 66.8286 78.6841 66.7597 78.7673C66.7024 78.8486 66.617 78.9049 66.5035 78.9364C66.1158 79.1699 65.5856 79.2675 64.913 79.2291C64.2404 79.1907 63.3688 79.0678 62.2983 78.8603C61.7698 78.7613 61.3367 78.6637 60.999 78.5675C60.6613 78.4712 60.365 78.3738 60.1101 78.2751C59.8532 78.1649 59.6126 78.0459 59.3884 77.9181C59.1622 77.7789 58.9021 77.6157 58.6081 77.4286C58.5755 77.4462 58.5564 77.4732 58.5508 77.5099C58.5568 77.5445 58.5434 77.5706 58.5108 77.5881C58.5329 78.06 58.5053 78.4513 58.4282 78.7619C58.3626 79.0706 58.2403 79.395 58.0612 79.7351C57.8704 79.7324 57.7464 79.7716 57.6891 79.8529C57.6433 79.9322 57.5792 80.0087 57.4968 80.0824C57.3853 80.1254 57.2977 80.1346 57.234 80.1099C57.1723 80.0968 57.1153 80.0769 57.0632 80.0502C57.011 80.0236 56.953 79.9979 56.8893 79.9733C56.8256 79.9486 56.7312 79.953 56.6062 79.9865C56.5536 79.8886 56.502 79.7964 56.4514 79.71C56.3988 79.612 56.2984 79.5818 56.1503 79.6193C56.167 79.5094 56.1636 79.4208 56.14 79.3535C56.1145 79.2747 56.0852 79.2084 56.0522 79.1546C56.0171 79.0893 55.982 79.024 55.947 78.9587C55.9234 78.8914 55.921 78.8086 55.9397 78.7102ZM60.3573 69.7947C60.2451 70.0401 60.1126 70.2711 59.9598 70.4878C59.8049 70.6929 59.6521 70.9096 59.5013 71.1378C59.36 71.3525 59.24 71.5873 59.1413 71.8422C59.0407 72.0856 58.9884 72.3681 58.9845 72.6899C59.4595 72.5483 59.9447 72.3277 60.44 72.0281C60.9333 71.7169 61.3997 71.4223 61.8392 71.1442C61.7076 70.7269 61.4987 70.4122 61.2123 70.2C60.9239 69.9763 60.6389 69.8412 60.3573 69.7947ZM73.1391 77.344C72.6429 77.5011 72.177 77.5578 71.7414 77.5141C71.3057 77.4705 70.8995 77.3563 70.5227 77.1717C70.1575 76.9851 69.8247 76.7452 69.5243 76.4523C69.2355 76.1573 68.9831 75.8322 68.7671 75.4771C68.5275 74.7098 68.4337 73.9946 68.4856 73.3316C68.5356 72.657 68.6695 72.0214 68.8875 71.4248C69.1056 70.8282 69.37 70.2592 69.6808 69.7179C70.0031 69.1746 70.3112 68.6517 70.6049 68.149C70.6917 68.1697 70.7552 68.1587 70.7954 68.1161C70.8472 68.0715 70.8854 68.0173 70.9101 67.9536C70.9463 67.8878 70.9825 67.8221 71.0187 67.7564C71.0665 67.6887 71.123 67.6373 71.1883 67.6022C71.2165 67.4903 71.2593 67.3937 71.3166 67.3125C71.3855 67.2292 71.4553 67.1518 71.5262 67.0801C71.6066 66.9948 71.6755 66.9116 71.7328 66.8303C71.8016 66.747 71.856 66.6485 71.8957 66.5346C72.0072 66.4915 72.0984 66.4341 72.1693 66.3624C72.2517 66.2887 72.3215 66.2113 72.3788 66.13C72.4477 66.0467 72.5176 65.9693 72.5884 65.8976C72.6593 65.8259 72.7494 65.7627 72.8589 65.7081L72.82 65.4829C73.0541 65.3236 73.2169 65.1646 73.3085 65.0061C73.4 64.8476 73.5077 64.6446 73.6314 64.3973C73.7564 64.3638 73.8536 64.3411 73.9229 64.3291C74.0037 64.3151 74.123 64.2826 74.2806 64.2316C74.3507 64.0173 74.4239 63.856 74.5003 63.7477C74.5767 63.6393 74.6916 63.5125 74.8448 63.3671C75.034 63.4295 75.2287 63.4553 75.429 63.4445C75.6273 63.4221 75.8213 63.4778 76.0109 63.6116C76.0464 63.7481 76.1057 63.8508 76.189 63.9197C76.2703 63.977 76.3573 64.0333 76.4501 64.0887C76.5409 64.1324 76.6327 64.182 76.7255 64.2373C76.8183 64.2926 76.8872 64.3818 76.9323 64.5048C76.99 64.4948 77.0227 64.4773 77.0302 64.4522C77.0493 64.4251 77.0888 64.4124 77.1485 64.414C77.1875 64.5023 77.2236 64.5734 77.2567 64.6272C77.2898 64.6809 77.3218 64.7289 77.3529 64.7711C77.3955 64.8113 77.4334 64.8583 77.4664 64.912C77.5111 64.9638 77.5519 65.0281 77.589 65.1049C77.5552 65.2535 77.5291 65.4126 77.5109 65.5822C77.4906 65.7403 77.4162 65.8602 77.2876 65.9419C77.3036 66.0343 77.3472 66.0802 77.4185 66.0798C77.4878 66.0678 77.5352 66.1013 77.5607 66.1801C77.5902 66.282 77.5878 66.3716 77.5536 66.4489C77.9707 66.9358 78.3639 67.4565 78.7333 68.0111C79.1006 68.5541 79.4987 69.0681 79.9273 69.553C79.9321 69.7186 79.9659 69.8793 80.0284 70.035C80.1006 70.1771 80.1785 70.3183 80.2621 70.4584C80.3574 70.5966 80.4468 70.7357 80.5305 70.8758C80.6142 71.016 80.6805 71.1591 80.7296 71.3053C80.7866 71.4976 80.8235 71.7112 80.8403 71.9461C80.8551 72.1695 80.8458 72.3912 80.8124 72.611C80.7791 72.8308 80.7206 73.0431 80.6371 73.2478C80.5515 73.441 80.4417 73.5967 80.3075 73.715C80.1626 73.9779 79.9646 74.2083 79.7134 74.4064C79.4602 74.5928 79.2351 74.8041 79.0381 75.0404C78.8924 75.1607 78.7311 75.2599 78.5543 75.338C78.3755 75.4046 78.192 75.4779 78.0037 75.558C77.8695 75.6763 77.7065 75.7996 77.5146 75.9279C77.3207 76.0447 77.12 76.1567 76.9126 76.2639C76.7052 76.371 76.4957 76.4667 76.2843 76.5508C76.0709 76.6233 75.8756 76.663 75.6984 76.6699C75.3086 76.8918 74.9224 77.0656 74.5397 77.1912C74.1571 77.3167 73.6902 77.3677 73.1391 77.344ZM72.2748 71.0001C72.2053 71.2856 72.1086 71.552 71.9848 71.7994C71.8706 72.0332 71.7574 72.2728 71.6452 72.5181C71.533 72.7634 71.4411 73.0231 71.3695 73.2971C71.3075 73.5576 71.2996 73.8562 71.3459 74.1931C71.6108 74.3495 71.9031 74.4239 72.2229 74.4162C72.5522 74.395 72.8823 74.3439 73.2132 74.2629C73.5421 74.1704 73.869 74.0664 74.1939 73.9508C74.5188 73.8352 74.8141 73.7544 75.0797 73.7085C75.0617 73.6046 75.0989 73.5447 75.1913 73.5287C75.6683 73.3987 76.0957 73.1881 76.4736 72.8969C76.8494 72.5941 77.2425 72.2883 77.6529 71.9795C77.6867 71.831 77.7409 71.6968 77.8153 71.5769C77.8897 71.457 77.9157 71.2979 77.8934 71.0996C77.8177 71.0056 77.7623 70.926 77.7272 70.8607C77.7037 70.7934 77.68 70.6905 77.656 70.5519C77.284 70.1881 76.9463 69.7826 76.6431 69.3355C76.3379 68.8769 76.0031 68.4531 75.6386 68.0642C75.6254 68.1259 75.5892 68.1916 75.5299 68.2613C75.4706 68.331 75.3935 68.3325 75.2987 68.2656C75.2841 68.3871 75.2461 68.4769 75.1847 68.535C75.1214 68.5816 75.0436 68.6129 74.9512 68.6289C74.8704 68.6429 74.7808 68.6405 74.6824 68.6218C74.5956 68.6011 74.5126 68.5679 74.4333 68.5222C74.085 68.9153 73.7347 69.2969 73.3824 69.667C73.0417 70.0351 72.7445 70.4491 72.491 70.9092C72.4393 70.9538 72.4066 70.9713 72.3931 70.9618C72.3796 70.9522 72.3401 70.965 72.2748 71.0001ZM86.0981 72.9107C86.1371 72.9991 86.1694 73.0828 86.1949 73.1616C86.2205 73.2404 86.2527 73.324 86.2918 73.4124C86.2656 73.5359 86.2451 73.6584 86.2304 73.7798C86.2137 73.8897 86.197 73.9996 86.1804 74.1096C86.1597 74.1964 86.1456 74.2523 86.138 74.2774C86.1304 74.3025 86.1277 74.3208 86.1297 74.3324C86.1317 74.3439 86.1346 74.3612 86.1386 74.3843C86.1522 74.3939 86.1659 74.4391 86.1799 74.5199L86.1465 74.7398C86.1028 74.8306 86.0444 74.906 85.9716 74.9662C85.8987 75.0264 85.8249 75.0807 85.75 75.1294C85.7309 75.1564 85.6993 75.1797 85.6551 75.1993C85.6129 75.2303 85.5822 75.2594 85.5631 75.2865L85.5471 75.5034L85.3279 75.5769C85.1396 75.657 84.9761 75.709 84.8375 75.733L84.6297 75.7689C84.4692 75.6658 84.3425 75.5866 84.2497 75.5313C84.1569 75.476 84.0593 75.4274 83.957 75.3856C83.8135 75.2439 83.7301 75.1394 83.7066 75.0721C83.681 74.9933 83.6508 74.9212 83.6157 74.8559C83.5667 74.7098 83.5208 74.6166 83.4782 74.5764L83.1938 74.3758L83.3747 74.184L83.1273 73.8878C83.2479 73.76 83.3389 73.667 83.4002 73.6088C83.4615 73.5506 83.5113 73.4945 83.5495 73.4403C83.5857 73.3746 83.6257 73.2963 83.6695 73.2055C83.7132 73.1147 83.7827 72.9659 83.8778 72.7592L83.9947 72.5071L84.2409 72.5894C84.2931 72.6161 84.3972 72.6338 84.5533 72.6425C84.719 72.6377 84.8615 72.6368 84.981 72.64C85.1873 72.6638 85.38 72.678 85.5592 72.6828C85.7364 72.6759 85.885 72.7097 86.0049 72.7841L86.0981 72.9107ZM91.925 71.904C91.9641 71.9923 91.9964 72.076 92.0219 72.1548C92.0474 72.2336 92.0797 72.3173 92.1187 72.4056C92.0925 72.5291 92.072 72.6516 92.0573 72.773C92.0407 72.8829 92.024 72.9929 92.0073 73.1028C91.9866 73.1896 91.9725 73.2455 91.9649 73.2706C91.9574 73.2957 91.9546 73.314 91.9566 73.3256C91.9586 73.3371 91.9616 73.3545 91.9656 73.3776C91.9791 73.3871 91.9929 73.4323 92.0068 73.5131L91.9735 73.733C91.9297 73.8238 91.8714 73.8993 91.7985 73.9594C91.7257 74.0196 91.6518 74.074 91.577 74.1226C91.5579 74.1496 91.5262 74.173 91.482 74.1925C91.4398 74.2236 91.4092 74.2526 91.3901 74.2797L91.374 74.4966L91.1548 74.5701C90.9665 74.6502 90.803 74.7022 90.6645 74.7262L90.4566 74.7621C90.2961 74.659 90.1694 74.5798 90.0766 74.5245C89.9838 74.4692 89.8862 74.4206 89.7839 74.3789C89.6405 74.2371 89.557 74.1326 89.5335 74.0654C89.508 73.9865 89.4777 73.9144 89.4426 73.8492C89.3936 73.703 89.3478 73.6099 89.3051 73.5697L89.0207 73.369L89.2017 73.1772L88.9543 72.8811C89.0749 72.7532 89.1658 72.6602 89.2271 72.602C89.2884 72.5438 89.3382 72.4877 89.3764 72.4335C89.4126 72.3678 89.4526 72.2895 89.4964 72.1987C89.5402 72.1079 89.6096 71.9591 89.7047 71.7524L89.8217 71.5003L90.0678 71.5827C90.12 71.6093 90.2241 71.627 90.3802 71.6357C90.5459 71.6309 90.6885 71.63 90.8079 71.6332C91.0142 71.657 91.2069 71.6713 91.3861 71.676C91.5634 71.6691 91.7119 71.7029 91.8318 71.7774L91.925 71.904ZM97.752 70.8972C97.791 70.9856 97.8233 71.0692 97.8488 71.148C97.8743 71.2268 97.9066 71.3105 97.9457 71.3989C97.9194 71.5223 97.899 71.6448 97.8843 71.7662C97.8676 71.8761 97.8509 71.9861 97.8342 72.096C97.8136 72.1828 97.7994 72.2388 97.7919 72.2638C97.7843 72.2889 97.7815 72.3073 97.7835 72.3188C97.7855 72.3303 97.7885 72.3477 97.7925 72.3708C97.8061 72.3803 97.8198 72.4255 97.8338 72.5063L97.8004 72.7262C97.7566 72.817 97.6983 72.8925 97.6255 72.9526C97.5526 73.0128 97.4788 73.0672 97.4039 73.1158C97.3848 73.1429 97.3532 73.1662 97.309 73.1857C97.2668 73.2168 97.2361 73.2458 97.217 73.2729L97.201 73.4898L96.9818 73.5633C96.7934 73.6434 96.63 73.6955 96.4914 73.7194L96.2836 73.7553C96.123 73.6522 95.9964 73.573 95.9036 73.5177C95.8108 73.4624 95.7132 73.4138 95.6108 73.3721C95.4674 73.2304 95.384 73.1259 95.3604 73.0586C95.3349 72.9797 95.3046 72.9077 95.2696 72.8424C95.2205 72.6962 95.1747 72.6031 95.1321 72.5629L94.8477 72.3623L95.0286 72.1705L94.7812 71.8743C94.9018 71.7464 94.9928 71.6534 95.0541 71.5952C95.1154 71.5371 95.1651 71.4809 95.2034 71.4267C95.2396 71.361 95.2796 71.2827 95.3233 71.1919C95.3671 71.1011 95.4365 70.9524 95.5316 70.7456L95.6486 70.4935L95.8948 70.5759C95.9469 70.6025 96.0511 70.6202 96.2072 70.6289C96.3728 70.6241 96.5154 70.6232 96.6349 70.6264C96.8411 70.6502 97.0339 70.6645 97.2131 70.6692C97.3903 70.6623 97.5388 70.6961 97.6587 70.7706L97.752 70.8972Z" fill="white"/>
<path d="M55.6225 31.8074C55.7534 32.6254 55.1964 33.3946 54.3783 33.5255C53.5603 33.6564 52.7911 33.0993 52.6602 32.2813L55.6225 31.8074ZM20.9199 14.3228C20.2378 13.8527 20.066 12.9186 20.5361 12.2365L28.1975 1.12104C28.6676 0.438941 29.6017 0.267114 30.2838 0.737253C30.9659 1.20739 31.1377 2.14147 30.6676 2.82357L23.8575 12.704L33.7379 19.5141C34.42 19.9842 34.5918 20.9183 34.1217 21.6004C33.6515 22.2825 32.7175 22.4543 32.0354 21.9842L20.9199 14.3228ZM52.6602 32.2813C51.5008 25.0343 48.0705 19.9034 42.9495 16.9207C37.7869 13.9138 30.6985 12.9707 22.0426 14.563L21.4998 11.6125C30.6107 9.93652 38.4882 10.8505 44.4593 14.3283C50.4721 17.8304 54.3434 23.8119 55.6225 31.8074L52.6602 32.2813Z" fill="white"/>
</svg>
