<svg width="1620" height="672" viewBox="0 0 1620 672" fill="none" xmlns="http://www.w3.org/2000/svg">
<path d="M258.397 67.8847L257.402 65.6657C256.249 63.0963 255.622 60.7591 255.519 58.654C255.416 56.5489 255.752 54.4813 256.524 52.4512C257.262 50.3433 258.407 48.0996 259.958 45.7203C261.717 42.9676 262.939 40.6891 263.626 38.8845C264.313 37.08 264.133 35.0098 263.085 32.674C262.002 30.2604 260.424 28.7236 258.351 28.0635C256.243 27.3256 253.71 27.6202 250.751 28.9473C247.326 30.484 245.101 32.5104 244.079 35.0266C243.1 37.43 243.361 40.3056 244.862 43.6536L227.811 51.302C225.052 45.1511 224.137 39.6698 225.065 34.8579C226.035 29.9332 228.356 25.6191 232.025 21.9155C235.773 18.1769 240.45 15.0504 246.055 12.5359C254.464 8.76403 261.712 7.61715 267.8 9.09521C273.965 10.5383 278.392 14.2575 281.081 20.2527C282.793 24.0678 283.312 27.6227 282.639 30.9174C281.93 34.1343 280.469 37.5488 278.255 41.1607C276.532 43.9912 275.21 46.3611 274.289 48.2704C273.334 50.1019 272.824 51.7802 272.76 53.3053C272.661 54.7526 273.031 56.4105 273.869 58.2792L274.864 60.4982L258.397 67.8847ZM276.473 86.2907C273.67 87.548 271.046 87.7433 268.599 86.8766C266.118 85.932 264.336 84.2529 263.253 81.8393C262.136 79.3478 262.084 76.9392 263.099 74.6137C264.078 72.2103 265.969 70.38 268.772 69.1227C271.653 67.8305 274.317 67.6178 276.763 68.4845C279.174 69.2734 280.939 70.9135 282.056 73.405C283.139 75.8187 283.208 78.2661 282.264 80.7473C281.284 83.1507 279.354 84.9985 276.473 86.2907Z" fill="white"/>
<path d="M888.333 542.637L889.394 537.23C890.624 530.97 892.521 525.826 895.085 521.798C897.649 517.77 900.974 514.383 905.059 511.639C909.182 508.705 914.234 506.052 920.217 503.681C927.07 500.889 932.312 498.273 935.943 495.834C939.575 493.395 941.949 489.33 943.067 483.638C944.222 477.757 943.314 472.85 940.343 468.917C937.409 464.795 932.337 462.026 925.128 460.61C916.781 458.971 910.016 459.81 904.833 463.126C899.877 466.291 896.598 471.952 894.996 480.109L853.45 471.951C856.393 456.964 861.87 445.627 869.881 437.94C878.12 430.1 888.055 425.155 899.688 423.105C911.511 421.092 924.252 421.427 937.911 424.109C958.4 428.133 973.308 435.493 982.634 446.191C992.151 456.926 995.475 469.597 992.606 484.205C990.781 493.5 987.09 500.755 981.535 505.969C976.017 510.993 968.847 515.398 960.026 519.182C953.136 522.164 947.59 524.818 943.39 527.146C939.226 529.284 936.088 531.721 933.974 534.459C931.897 537.006 930.412 540.556 929.518 545.11L928.456 550.516L888.333 542.637ZM897.691 600.332C890.861 598.99 885.751 595.918 882.36 591.115C879.005 586.121 877.906 580.684 879.061 574.803C880.253 568.733 883.308 564.21 888.227 561.235C893.183 558.071 899.076 557.159 905.905 558.5C912.925 559.879 918.13 562.97 921.521 567.773C924.95 572.387 926.068 577.729 924.876 583.8C923.721 589.681 920.647 594.299 915.654 597.653C910.698 600.817 904.71 601.71 897.691 600.332Z" fill="white"/>
<path d="M648.187 198.042L649.662 192.536C651.371 186.161 653.689 180.984 656.618 177.007C659.548 173.03 663.217 169.768 667.626 167.223C672.087 164.484 677.488 162.1 683.829 160.073C691.098 157.672 696.692 155.34 700.611 153.078C704.53 150.815 707.266 146.786 708.819 140.99C710.424 135.002 709.831 129.873 707.04 125.606C704.301 121.145 699.262 117.931 691.92 115.964C683.42 113.686 676.379 114.077 670.797 117.137C665.46 120.055 661.679 125.667 659.453 133.974L617.145 122.638C621.235 107.376 627.683 96.0598 636.491 88.6884C645.544 81.1754 656.146 76.7692 668.296 75.4697C680.64 74.2219 693.766 75.4615 707.675 79.1885C728.539 84.779 743.409 93.4221 752.285 105.118C761.353 116.865 763.894 130.176 759.909 145.052C757.372 154.518 753.054 161.746 746.954 166.738C740.907 171.536 733.198 175.579 723.828 178.865C716.507 181.459 710.597 183.81 706.098 185.917C701.651 187.831 698.241 190.127 695.867 192.804C693.545 195.287 691.763 198.847 690.521 203.484L689.046 208.99L648.187 198.042ZM653.796 258.245C646.842 256.381 641.783 252.852 638.62 247.656C635.509 242.267 634.755 236.578 636.36 230.59C638.016 224.408 641.487 219.954 646.773 217.229C652.11 214.311 658.256 213.784 665.21 215.647C672.358 217.563 677.514 221.118 680.677 226.314C683.891 231.316 684.671 236.909 683.014 243.091C681.41 249.079 677.913 253.629 672.524 256.741C667.187 259.659 660.944 260.16 653.796 258.245Z" fill="white"/>
<path d="M1394.84 126.271L1394.76 123.233C1394.67 119.714 1395.08 116.716 1395.97 114.238C1396.87 111.761 1398.25 109.538 1400.12 107.569C1401.99 105.494 1404.39 103.458 1407.33 101.461C1410.68 99.134 1413.19 97.0953 1414.85 95.3451C1416.51 93.595 1417.3 91.1205 1417.22 87.9216C1417.14 84.616 1416.06 82.083 1413.98 80.3225C1411.91 78.4554 1408.84 77.5742 1404.79 77.6787C1400.1 77.7998 1396.56 79.0649 1394.17 81.474C1391.88 83.7738 1390.79 87.2163 1390.91 91.8014L1367.56 92.4039C1367.34 83.98 1368.93 77.2169 1372.32 72.1144C1375.81 66.9026 1380.57 63.0453 1386.58 60.5426C1392.71 58.0372 1399.61 56.6854 1407.29 56.4873C1418.8 56.1902 1427.72 58.361 1434.02 62.9999C1440.44 67.636 1443.75 74.0593 1443.96 82.2699C1444.1 87.4948 1442.98 91.845 1440.62 95.3205C1438.25 98.6894 1434.92 101.923 1430.63 105.021C1427.27 107.455 1424.61 109.552 1422.63 111.31C1420.64 112.962 1419.24 114.652 1418.44 116.38C1417.62 118.001 1417.25 120.091 1417.32 122.651L1417.39 125.69L1394.84 126.271ZM1406.82 156.213C1402.98 156.312 1399.86 155.272 1397.45 153.093C1395.05 150.808 1393.8 148.012 1393.72 144.707C1393.63 141.294 1394.73 138.492 1397.02 136.299C1399.31 133.999 1402.37 132.799 1406.21 132.7C1410.16 132.599 1413.33 133.637 1415.74 135.816C1418.14 137.888 1419.38 140.63 1419.47 144.042C1419.55 147.348 1418.45 150.204 1416.17 152.61C1413.88 154.91 1410.76 156.111 1406.82 156.213Z" fill="white"/>
<path d="M49.319 573.363L47.783 572.244C46.0045 570.949 44.672 569.608 43.7856 568.22C42.8991 566.833 42.324 565.301 42.0603 563.624C41.7426 561.909 41.6481 559.943 41.7767 557.728C41.9006 555.179 41.8453 553.16 41.6108 551.67C41.3764 550.179 40.4507 548.846 38.8339 547.668C37.1631 546.452 35.4969 546.022 33.8351 546.379C32.1194 546.697 30.516 547.88 29.0249 549.928C27.2983 552.299 26.5766 554.536 26.8598 556.639C27.1283 558.649 28.4213 560.497 30.7387 562.185L22.1451 573.988C17.8874 570.888 15.1395 567.526 13.9014 563.903C12.6486 560.187 12.5477 556.362 13.5988 552.427C14.689 548.437 16.6468 544.503 19.4721 540.622C23.71 534.801 28.1796 531.211 32.8808 529.851C37.6213 528.437 42.0664 529.241 46.2163 532.262C48.8572 534.185 50.5886 536.394 51.4107 538.889C52.179 541.345 52.5132 544.228 52.4134 547.536C52.3434 550.124 52.3667 552.244 52.4835 553.896C52.5463 555.508 52.852 556.844 53.4003 557.903C53.8948 558.923 54.7888 559.904 56.0823 560.845L57.6183 561.964L49.319 573.363ZM68.7184 578.828C67.3057 580.768 65.6019 581.919 63.6068 582.281C61.5578 582.603 59.698 582.156 58.0272 580.94C56.3026 579.684 55.333 578.071 55.1184 576.101C54.8499 574.091 55.4219 572.116 56.8346 570.176C58.2865 568.182 60.01 567.004 62.005 566.642C63.9462 566.241 65.7791 566.669 67.5037 567.924C69.1745 569.141 70.1711 570.773 70.4935 572.822C70.762 574.832 70.1703 576.834 68.7184 578.828Z" fill="white"/>
<path d="M119.66 371.205L120.436 367.874C121.335 364.018 122.624 360.868 124.302 358.425C125.98 355.982 128.116 353.954 130.71 352.341C133.331 350.61 136.523 349.074 140.285 347.733C144.597 346.151 147.905 344.642 150.211 343.208C152.517 341.774 154.078 339.304 154.895 335.798C155.739 332.175 155.283 329.111 153.525 326.607C151.795 323.986 148.709 322.158 144.268 321.123C139.126 319.925 134.911 320.298 131.624 322.243C128.481 324.098 126.324 327.538 125.153 332.563L99.5587 326.599C101.71 317.367 105.354 310.453 110.491 305.859C115.771 301.175 122.042 298.324 129.303 297.305C136.68 296.314 144.576 296.798 152.991 298.759C165.613 301.7 174.7 306.59 180.253 313.429C185.923 320.295 187.709 328.227 185.612 337.226C184.278 342.952 181.831 347.372 178.272 350.486C174.739 353.482 170.196 356.059 164.642 358.214C160.303 359.914 156.806 361.44 154.149 362.793C151.52 364.028 149.52 365.472 148.15 367.124C146.806 368.659 145.808 370.829 145.154 373.634L144.378 376.965L119.66 371.205ZM124.211 407.197C120.004 406.217 116.9 404.2 114.901 401.146C112.929 397.976 112.365 394.579 113.21 390.957C114.081 387.217 116.075 384.478 119.19 382.739C122.333 380.884 126.009 380.447 130.216 381.427C134.54 382.435 137.702 384.465 139.701 387.519C141.727 390.455 142.305 393.794 141.433 397.533C140.589 401.156 138.582 403.954 135.412 405.926C132.269 407.781 128.535 408.205 124.211 407.197Z" fill="white"/>
<path d="M453.086 578.838L450.462 573.778C447.424 567.918 445.645 562.533 445.126 557.62C444.606 552.708 445.116 547.826 446.654 542.973C448.101 537.942 450.481 532.54 453.796 526.766C457.544 520.091 460.102 514.597 461.47 510.283C462.837 505.969 462.14 501.149 459.378 495.823C456.524 490.319 452.628 486.932 447.689 485.663C442.659 484.216 436.77 485.242 430.023 488.741C422.211 492.792 417.276 497.829 415.218 503.853C413.245 509.607 414.238 516.301 418.197 523.935L379.313 544.098C372.04 530.071 369.17 517.367 370.702 505.984C372.319 494.331 377.175 483.928 385.27 474.774C393.543 465.528 404.071 457.591 416.854 450.962C436.03 441.019 452.838 437.372 467.279 440.022C481.897 442.58 492.751 450.695 499.84 464.366C504.351 473.066 506.038 481.316 504.9 489.115C503.671 496.736 500.705 504.92 496.003 513.666C492.347 520.518 489.569 526.239 487.668 530.829C485.676 535.242 484.706 539.237 484.759 542.814C484.719 546.214 485.804 550.044 488.014 554.306L490.638 559.366L453.086 578.838ZM497.829 619.506C491.438 622.821 485.322 623.626 479.483 621.923C473.551 620.042 469.158 616.35 466.304 610.846C463.358 605.164 462.917 599.535 464.982 593.959C466.955 588.205 471.137 583.671 477.529 580.356C484.098 576.95 490.303 576.098 496.142 577.801C501.89 579.327 506.236 582.931 509.182 588.612C512.037 594.116 512.523 599.834 510.643 605.766C508.67 611.52 504.399 616.1 497.829 619.506Z" fill="white"/>
<path d="M1212.95 360.949L1214.36 357.625C1215.99 353.777 1217.9 350.734 1220.09 348.496C1222.27 346.258 1224.86 344.535 1227.85 343.325C1230.89 341.999 1234.48 340.978 1238.64 340.262C1243.41 339.394 1247.12 338.423 1249.78 337.348C1252.44 336.272 1254.51 333.985 1255.99 330.486C1257.52 326.871 1257.6 323.602 1256.22 320.681C1254.9 317.642 1252.02 315.184 1247.59 313.306C1242.45 311.132 1238 310.759 1234.23 312.188C1230.63 313.55 1227.77 316.739 1225.64 321.754L1200.1 310.93C1204 301.717 1209.04 295.185 1215.21 291.334C1221.55 287.416 1228.59 285.583 1236.32 285.834C1244.17 286.135 1252.3 288.064 1260.69 291.623C1273.29 296.96 1281.86 303.686 1286.4 311.801C1291.06 319.965 1291.48 328.537 1287.68 337.517C1285.25 343.232 1281.91 347.387 1277.65 349.983C1273.43 352.461 1268.24 354.32 1262.08 355.56C1257.26 356.544 1253.35 357.5 1250.34 358.427C1247.38 359.237 1245.04 360.378 1243.32 361.848C1241.64 363.202 1240.21 365.279 1239.03 368.078L1237.62 371.402L1212.95 360.949ZM1211.19 399.203C1206.99 397.423 1204.12 394.766 1202.6 391.229C1201.12 387.576 1201.15 383.942 1202.68 380.326C1204.26 376.594 1206.83 374.106 1210.38 372.86C1213.98 371.498 1217.89 371.707 1222.08 373.486C1226.4 375.315 1229.32 377.997 1230.85 381.534C1232.43 384.953 1232.42 388.529 1230.84 392.262C1229.31 395.877 1226.72 398.424 1223.07 399.903C1219.46 401.264 1215.5 401.031 1211.19 399.203Z" fill="white"/>
<path d="M1547.51 546.733L1546.24 543.557C1544.77 539.88 1544.03 536.56 1544.01 533.596C1543.98 530.632 1544.58 527.747 1545.78 524.939C1546.94 522.021 1548.68 518.935 1551 515.682C1553.63 511.917 1555.48 508.787 1556.55 506.292C1557.62 503.796 1557.49 500.877 1556.15 497.534C1554.77 494.08 1552.64 491.828 1549.77 490.78C1546.85 489.62 1543.27 489.887 1539.04 491.579C1534.14 493.538 1530.89 496.256 1529.31 499.731C1527.79 503.051 1527.99 507.107 1529.91 511.898L1505.5 521.65C1501.99 512.847 1501.02 505.092 1502.6 498.385C1504.25 491.523 1507.77 485.596 1513.14 480.607C1518.62 475.573 1525.38 471.452 1533.4 468.246C1545.43 463.437 1555.68 462.248 1564.15 464.68C1572.73 467.067 1578.73 472.551 1582.16 481.131C1584.34 486.591 1584.87 491.616 1583.73 496.206C1582.54 500.685 1580.29 505.397 1576.97 510.343C1574.38 514.219 1572.39 517.472 1570.98 520.101C1569.54 522.619 1568.72 524.947 1568.54 527.086C1568.32 529.114 1568.74 531.465 1569.81 534.139L1571.08 537.315L1547.51 546.733ZM1571.84 573.648C1567.82 575.251 1564.13 575.373 1560.74 574.012C1557.31 572.541 1554.9 570.077 1553.52 566.623C1552.1 563.057 1552.16 559.67 1553.72 556.462C1555.24 553.142 1558.01 550.681 1562.02 549.078C1566.14 547.43 1569.89 547.286 1573.28 548.647C1576.62 549.896 1579.01 552.303 1580.43 555.869C1581.81 559.323 1581.77 562.766 1580.29 566.197C1578.78 569.517 1575.96 572.001 1571.84 573.648Z" fill="white"/>
</svg>
