<svg width="155" height="89" viewBox="0 0 155 89" fill="none" xmlns="http://www.w3.org/2000/svg">
<path d="M15.4718 83.6251C15.4786 83.8078 15.4523 83.9874 15.3929 84.1642C15.345 84.3265 15.2778 84.491 15.1911 84.6576C15.103 84.8112 15.002 84.9663 14.888 85.1227C14.7855 85.2648 14.6817 85.394 14.5764 85.5102C14.6336 85.6743 14.6476 85.8037 14.6186 85.8985C14.6012 85.979 14.6081 86.1027 14.6393 86.2696C14.5014 86.8085 14.2409 87.1838 13.8579 87.3957C13.4893 87.6191 13.1168 87.6269 12.7406 87.4189C12.587 87.3308 12.4499 87.2147 12.3295 87.0706C12.2206 86.9122 12.0799 86.8227 11.9074 86.8021C11.9223 86.5779 11.879 86.3599 11.7774 86.1483C11.6758 85.9367 11.579 85.8293 11.487 85.8262C11.4187 85.5586 11.3288 85.2737 11.2173 84.9714C11.1059 84.6692 11.001 84.3662 10.9025 84.0626C10.8026 83.746 10.7106 83.4417 10.6265 83.1496C10.5539 82.8431 10.51 82.5597 10.4948 82.2994C10.4937 82.1686 10.4552 82.0549 10.3792 81.9584C10.3162 81.8604 10.264 81.7417 10.2226 81.6021C10.1385 81.31 10.0853 81.0014 10.0631 80.6764C10.0524 80.3371 10.0309 80.0185 9.99859 79.7208C9.96765 79.436 9.91519 79.1339 9.8412 78.8145C9.77874 78.4808 9.7184 78.1664 9.66016 77.8715C9.60052 77.5636 9.55734 77.2867 9.53062 77.0408C9.5025 76.7819 9.51306 76.5777 9.56231 76.4283C9.62311 76.2645 9.7133 76.1303 9.83291 76.0256C9.96405 75.9066 10.0815 75.7825 10.1854 75.6534C10.473 75.6483 10.7122 75.7402 10.9029 75.929C11.0937 76.1179 11.1795 76.305 11.1604 76.4905C11.4505 76.6292 11.688 76.8261 11.8729 77.081C12.0693 77.3216 12.2311 77.6053 12.3583 77.932C12.497 78.2444 12.6061 78.5862 12.6858 78.9573C12.764 79.3156 12.8357 79.6745 12.901 80.0341C12.9648 80.3808 13.0273 80.7146 13.0883 81.0354C13.1494 81.3562 13.2314 81.6289 13.3344 81.8534C13.7388 81.1153 14.074 80.4633 14.3399 79.8975C14.6045 79.3186 14.8783 78.765 15.1615 78.2365C15.4446 77.708 15.7658 77.1689 16.1252 76.619C16.4846 76.0692 16.9599 75.4413 17.5512 74.7353C17.682 74.7341 17.7884 74.7488 17.8703 74.7792C17.9651 74.8082 18.0463 74.8321 18.1138 74.851C18.1814 74.8698 18.2619 74.8873 18.3553 74.9033C18.4473 74.9064 18.5696 74.8866 18.7221 74.8438C18.7879 74.9676 18.8373 75.0605 18.8702 75.1224C18.9018 75.1714 18.9275 75.2275 18.9475 75.2908C18.979 75.3398 19.0126 75.4082 19.0484 75.496C19.097 75.5824 19.1693 75.7055 19.2653 75.8653C19.3084 75.9 19.3269 75.9503 19.321 76.0165C19.3151 76.0826 19.3092 76.1487 19.3033 76.2148C19.3089 76.2666 19.3131 76.3055 19.3159 76.3313C19.3187 76.3572 19.3511 76.3537 19.413 76.3208C19.3939 76.5062 19.341 76.6823 19.2543 76.8488C19.1791 77.0011 19.1593 77.1801 19.1947 77.3858C18.9392 77.8064 18.6527 78.2436 18.3352 78.6972C18.0307 79.1494 17.7212 79.6152 17.4065 80.0947C17.1048 80.5728 16.8189 81.0754 16.5487 81.6025C16.2772 82.1166 16.0537 82.6516 15.8783 83.2077C15.8136 83.2147 15.7639 83.2398 15.7293 83.2828C15.7077 83.3245 15.6867 83.3726 15.6664 83.4272C15.6448 83.4688 15.6166 83.5112 15.582 83.5542C15.5603 83.5959 15.5236 83.6195 15.4718 83.6251ZM24.9845 84.6742C25.0914 85.0555 25.0986 85.3625 25.006 85.5952C24.9264 85.8265 24.7886 86.0052 24.5927 86.1313C24.4112 86.2688 24.1917 86.3582 23.9342 86.3993C23.6767 86.4403 23.4294 86.4541 23.1922 86.4406C23.043 86.2734 22.9019 86.0595 22.7688 85.799C22.6357 85.5384 22.5084 85.2706 22.3869 84.9957C22.2639 84.7078 22.1481 84.4257 22.0395 84.1493C21.9439 83.8716 21.8582 83.6255 21.7825 83.411C21.8303 83.2487 21.8502 83.0697 21.842 82.8741C21.8454 82.6642 21.8359 82.4557 21.8134 82.2486C21.8038 82.04 21.7878 81.8322 21.7653 81.6251C21.7543 81.4036 21.7512 81.1944 21.756 80.9974C21.7876 80.4439 21.8608 79.9121 21.9756 79.4019C22.1034 78.8903 22.1902 78.3635 22.2361 77.8215C22.2494 77.7022 22.2245 77.5936 22.1614 77.4957C22.1114 77.3963 22.0943 77.2999 22.1104 77.2065C22.1177 77.1533 22.153 77.1168 22.2163 77.0968C22.2783 77.0639 22.3122 77.0143 22.3181 76.9482C22.3414 76.8016 22.3353 76.6844 22.2995 76.5966C22.2767 76.5074 22.2907 76.3945 22.3413 76.2581C22.3948 76.1475 22.4563 75.9902 22.5258 75.7862C22.6069 75.5678 22.6225 75.35 22.5727 75.1327C22.6808 75.0424 22.781 74.9399 22.8733 74.825C22.9656 74.7102 23.0593 74.6084 23.1544 74.5195C23.2611 74.4162 23.3756 74.3252 23.498 74.2464C23.6334 74.1662 23.7981 74.1155 23.9923 74.0944C24.1099 74.2126 24.1901 74.348 24.2329 74.5005C24.2886 74.6516 24.3378 74.8035 24.3806 74.956C24.4363 75.1071 24.5043 75.2503 24.5845 75.3857C24.6632 75.5081 24.7845 75.5997 24.9483 75.6605C24.9595 75.7641 24.9736 75.8935 24.9905 76.0488C25.0074 76.2042 25.0307 76.3588 25.0605 76.5127C25.0889 76.6537 25.1296 76.7868 25.1825 76.9121C25.2469 77.0229 25.333 77.0922 25.4408 77.1198C25.2753 77.7664 25.1221 78.4052 24.981 79.0361C24.853 79.6656 24.758 80.298 24.696 80.9334C24.6327 81.5559 24.6153 82.1799 24.644 82.8055C24.6856 83.4296 24.7991 84.0525 24.9845 84.6742ZM39.689 81.2496C39.7708 81.28 39.8232 81.3398 39.846 81.429C39.8688 81.5182 39.8765 81.5894 39.8692 81.6426C39.6685 81.9656 39.5292 82.1903 39.4512 82.3166C39.3733 82.443 39.3184 82.5406 39.2866 82.6096C39.2534 82.6656 39.213 82.7158 39.1655 82.7603C39.1308 82.8033 39.0429 82.898 38.9016 83.0443C38.3571 83.4571 37.7889 83.8332 37.1971 84.1725C36.6182 84.5105 35.9979 84.7678 35.336 84.9445C35.2479 85.0981 35.0578 85.217 34.7657 85.3011C34.488 85.3968 34.2289 85.4838 33.9886 85.5623C33.934 85.5421 33.8974 85.5068 33.8789 85.4564C33.8746 85.4176 33.8452 85.388 33.7906 85.3677C33.7918 85.4986 33.7405 85.5696 33.637 85.5809C33.5348 85.6051 33.4026 85.5933 33.2402 85.5454C33.0922 85.5091 32.9284 85.4483 32.7489 85.363C32.5837 85.2893 32.4386 85.2199 32.3137 85.1549C32.2602 85.2655 32.2003 85.3768 32.1339 85.4888C32.0804 85.5994 32.004 85.6797 31.9046 85.7298C31.7594 85.7194 31.6473 85.7119 31.5682 85.7074C31.5021 85.7015 31.4402 85.7344 31.3825 85.8062C31.3006 85.7758 31.231 85.7375 31.1736 85.6914C31.1291 85.6438 31.0782 85.5969 31.0208 85.5508C30.9777 85.5162 30.9217 85.483 30.8528 85.4512C30.7968 85.4179 30.7156 85.394 30.6092 85.3794C30.6295 85.3248 30.6081 85.2485 30.5451 85.1506C30.4806 85.0397 30.3952 84.977 30.2889 84.9623C30.3308 84.8661 30.293 84.7589 30.1753 84.6407C30.0693 84.5081 29.9812 84.3605 29.9111 84.1979C29.9215 84.0527 29.9241 83.8952 29.9187 83.7255C29.9134 83.5558 29.9805 83.4503 30.1201 83.409C30.0973 83.3198 30.0695 83.2442 30.0365 83.1823C30.0036 83.1204 29.9707 83.0585 29.9378 82.9966C30.02 82.909 30.0748 82.8114 30.1024 82.7036C30.1286 82.5829 30.1483 82.4629 30.1615 82.3436C30.1748 82.2243 30.1945 82.1042 30.2206 81.9835C30.2468 81.8628 30.3075 81.758 30.4026 81.6691C30.4769 81.2681 30.5366 80.9734 30.5816 80.7852C30.6252 80.584 30.6502 80.3914 30.6564 80.2073C30.6755 80.0219 30.6932 79.8235 30.7096 79.6122C30.7389 79.3994 30.7949 79.1314 30.8776 78.8081C30.8436 78.6153 30.8447 78.4449 30.881 78.2969C30.9159 78.1359 30.9515 77.9814 30.9878 77.8334C31.0357 77.671 31.0706 77.5101 31.0925 77.3505C31.1131 77.178 31.0855 76.9846 31.0098 76.7701C30.83 76.8028 30.7076 76.8815 30.6426 77.0065C30.5762 77.1185 30.5399 77.2665 30.5337 77.4505C30.4414 77.5653 30.3175 77.6312 30.1622 77.6481C30.0184 77.6506 29.8904 77.6776 29.7781 77.7291C29.3053 77.5971 28.9018 77.379 28.5675 77.0748C28.2332 76.7705 27.9509 76.4017 27.7204 75.9684C27.8046 75.658 27.9526 75.3931 28.1645 75.1736C28.375 74.9411 28.6221 74.744 28.9058 74.5822C29.188 74.4075 29.4932 74.263 29.8213 74.1488C30.1481 74.0216 30.4625 73.9023 30.7648 73.7909C31.2598 73.6454 31.7534 73.487 32.2455 73.3157C32.7377 73.1443 33.2772 73.0464 33.8639 73.022C33.9374 72.9747 34.0259 72.9454 34.1294 72.9342C34.2445 72.9086 34.3603 72.8895 34.4768 72.8768C34.5933 72.8642 34.7033 72.8522 34.8069 72.8409C34.922 72.8153 35.0163 72.7789 35.0897 72.7316C35.1629 72.8023 35.2591 72.8442 35.3784 72.8574C35.5093 72.8563 35.6515 72.8998 35.8052 72.9879C35.9479 72.8545 36.0745 72.8146 36.1851 72.868C36.3086 72.9201 36.4199 72.9801 36.519 73.0479C36.618 73.1157 36.7099 73.1778 36.7946 73.234C36.8922 73.2889 36.9864 73.3114 37.077 73.3016C37.1802 73.4082 37.3022 73.5063 37.4429 73.5958C37.5966 73.6839 37.738 73.7799 37.8671 73.8837C38.0078 73.9732 38.124 74.0785 38.2158 74.1995C38.3204 74.3191 38.3819 74.463 38.4002 74.6313C38.3943 74.6974 38.4179 74.7342 38.4711 74.7415C38.5243 74.7488 38.5659 74.7705 38.596 74.8065C38.6526 75.2064 38.6258 75.5629 38.5158 75.8761C38.4173 76.1749 38.2778 76.4586 38.0974 76.727C37.93 76.9941 37.7352 77.251 37.5132 77.4978C37.3041 77.7431 37.1158 77.9994 36.9484 78.2664C37.0961 78.4206 37.2611 78.5533 37.4435 78.6645C37.6258 78.7756 37.8082 78.8868 37.9905 78.998C38.1858 79.1077 38.3689 79.2254 38.5397 79.3509C38.7105 79.4764 38.8582 79.6306 38.9828 79.8135C39.0115 79.8366 39.0467 79.859 39.0884 79.8806C39.1286 79.8894 39.1696 79.9046 39.2112 79.9262C39.2641 80.0515 39.3306 80.1818 39.4108 80.3171C39.4896 80.4395 39.5555 80.5634 39.6084 80.6886C39.6728 80.7995 39.7171 80.906 39.7413 81.0081C39.7641 81.0973 39.7466 81.1778 39.689 81.2496ZM35.567 75.1356C34.904 75.1814 34.2502 75.3114 33.6054 75.5255C32.9737 75.7382 32.4518 75.9979 32.0398 76.3046C32.2796 76.4619 32.5172 76.5998 32.7527 76.7183C33.0012 76.8354 33.2035 77.0099 33.3597 77.2417C33.842 76.9798 34.2605 76.6724 34.6151 76.3195C34.9683 75.9537 35.2856 75.5591 35.567 75.1356ZM36.4923 81.3022C36.5171 81.1685 36.5771 81.0572 36.6722 80.9683C36.7673 80.8794 36.8631 80.7969 36.9596 80.7209C37.0548 80.632 37.1369 80.5445 37.2062 80.4584C37.274 80.3594 37.293 80.2329 37.2632 80.0789C36.825 79.9039 36.4291 79.8159 36.0754 79.8151C35.7332 79.7998 35.4096 79.835 35.1045 79.9205C34.811 79.9917 34.5268 80.0881 34.2519 80.2096C33.9899 80.3298 33.7186 80.4247 33.438 80.4945C33.3364 80.8854 33.2318 81.3093 33.1243 81.7663C33.0168 82.2233 32.9144 82.6666 32.817 83.0963C33.1997 83.0024 33.5472 82.886 33.8596 82.7473C34.1705 82.5956 34.4679 82.4389 34.7515 82.2771C35.0481 82.1139 35.3318 81.9521 35.6025 81.7918C35.8848 81.617 36.1814 81.4538 36.4923 81.3022ZM52.406 72.0095C52.4288 72.0987 52.4365 72.1699 52.4292 72.2231C52.4334 72.2619 52.4312 72.3015 52.4224 72.3417C52.4267 72.3805 52.4316 72.4259 52.4372 72.4776C52.4414 72.5165 52.4614 72.5798 52.4971 72.6676C52.2731 73.1372 51.989 73.4759 51.6448 73.6835C51.3122 73.8769 50.943 74.0348 50.5372 74.1575C50.13 74.2672 49.7106 74.3848 49.2789 74.5103C48.8602 74.6344 48.4513 74.8491 48.0522 75.1544C47.8769 75.1079 47.7216 75.1248 47.5862 75.205C47.4638 75.2838 47.2717 75.3243 47.01 75.3266C46.9408 75.4127 46.85 75.4815 46.7378 75.5329C46.6241 75.5715 46.5111 75.6165 46.3988 75.668C46.4632 75.7789 46.496 75.8997 46.4971 76.0306C46.5098 76.1471 46.5398 76.2421 46.587 76.3155C47.0443 76.3051 47.542 76.2445 48.08 76.1337C48.631 76.0214 49.1712 75.93 49.7005 75.8594C49.7205 75.9227 49.7189 75.9687 49.6959 75.9974C49.6714 76.0132 49.6684 76.0462 49.687 76.0966C49.7846 76.1515 49.8844 76.2258 49.9862 76.3195C50.0867 76.4003 50.1872 76.481 50.2876 76.5618C50.3881 76.6426 50.4871 76.7104 50.5848 76.7653C50.694 76.8058 50.8126 76.8126 50.9406 76.7856C51.0036 76.8835 51.0486 76.9965 51.0757 77.1245C51.1142 77.2382 51.1146 77.3626 51.0769 77.4977C50.8853 77.6626 50.6943 77.8339 50.5041 78.0118C50.3124 78.1767 50.1064 78.33 49.8861 78.4718C49.6787 78.6122 49.4498 78.7353 49.1993 78.8411C48.9604 78.9326 48.6849 78.9887 48.3728 79.0095C48.3081 79.0165 48.2563 79.0222 48.2175 79.0264C48.1916 79.0292 48.1506 79.014 48.0946 78.9808C47.9981 79.0568 47.8514 79.0923 47.6544 79.0876C47.4703 79.0814 47.3301 79.1162 47.2335 79.1922C47.0841 79.143 46.9065 79.1361 46.7008 79.1715C46.5067 79.1926 46.3291 79.1857 46.1681 79.1508C45.9906 79.4451 45.8345 79.7568 45.7 80.0857C45.5654 80.4147 45.4524 80.7609 45.361 81.1245C45.8081 81.1414 46.1734 81.1279 46.4568 81.0841C46.7531 81.0388 47.0293 80.9891 47.2854 80.9351C47.54 80.8681 47.8019 80.8069 48.0709 80.7515C48.3385 80.6832 48.6802 80.6329 49.0958 80.6009C49.3392 80.4304 49.6336 80.3067 49.9789 80.2299C50.3357 80.1387 50.6573 80.0252 50.9438 79.8893C51.0516 79.9169 51.1499 79.9782 51.2389 80.0734C51.3264 80.1555 51.4074 80.2384 51.482 80.322C51.5681 80.3912 51.6535 80.454 51.7382 80.5103C51.8229 80.5666 51.9228 80.5819 52.0379 80.5563C52.0953 80.6025 52.1347 80.6637 52.1561 80.7399C52.189 80.8018 52.2154 80.8644 52.2354 80.9278C52.2554 80.9911 52.2811 81.0472 52.3126 81.0962C52.3557 81.1308 52.4153 81.1374 52.4916 81.116C52.3438 81.5643 52.1532 81.919 51.9196 82.1801C51.6976 82.4269 51.4311 82.6261 51.1201 82.7778C50.8091 82.9295 50.4565 83.0594 50.0623 83.1678C49.681 83.2747 49.2558 83.3995 48.7866 83.5421C48.673 83.5806 48.5752 83.5847 48.4933 83.5543C48.4128 83.5369 48.3208 83.5338 48.2172 83.545C47.9265 83.6421 47.5769 83.739 47.1683 83.8358C46.7597 83.9326 46.3411 83.9977 45.9125 84.0312C45.4839 84.0646 45.0698 84.0507 44.6702 83.9893C44.2721 83.9409 43.9366 83.8071 43.664 83.5878C43.5506 83.5085 43.4681 83.4126 43.4166 83.3004C43.3767 83.1737 43.282 83.0858 43.1326 83.0365C43.1013 82.8697 43.0551 82.6848 42.9937 82.4819C42.9324 82.279 42.8703 82.0696 42.8076 81.8538C42.7435 81.625 42.6865 81.402 42.6367 81.1847C42.5998 80.9661 42.591 80.764 42.6101 80.5786C42.6279 80.3802 42.6866 80.197 42.7862 80.029C42.8987 79.8596 42.9258 79.6864 42.8673 79.5094C42.9306 79.4894 42.9659 79.4528 42.9732 79.3997C42.9791 79.3335 43.0281 79.302 43.1201 79.3051C43.1725 79.0637 43.2327 78.8345 43.3008 78.6175C43.3689 78.4006 43.4377 78.1901 43.5072 77.9861C43.5897 77.7806 43.6657 77.5759 43.7352 77.3719C43.8163 77.1535 43.8887 76.9165 43.9526 76.6607C43.7531 76.5121 43.5975 76.3456 43.4858 76.1613C43.3856 75.9626 43.3056 75.7683 43.2457 75.5783C43.1843 75.3754 43.1295 75.1719 43.0811 74.9675C43.0313 74.7503 42.9621 74.5352 42.8734 74.3221C42.9818 74.1139 43.1203 73.9417 43.2888 73.8055C43.4689 73.655 43.6648 73.5289 43.8764 73.4273C44.088 73.3258 44.3205 73.235 44.5738 73.1551C44.827 73.0752 45.0925 72.9874 45.3703 72.8918C45.8698 72.6672 46.3153 72.4879 46.7067 72.3536C47.1111 72.218 47.5046 72.1032 47.8873 72.0093C48.2816 71.9009 48.6895 71.7977 49.111 71.6995C49.5326 71.6013 50.0096 71.4709 50.542 71.3083C50.6712 71.4121 50.7875 71.4584 50.8911 71.4472C50.9302 71.3251 50.9849 71.2864 51.0553 71.3311C51.1372 71.3615 51.1653 71.3192 51.1397 71.2041C51.2931 71.4101 51.4753 71.5802 51.6863 71.7144C51.9089 71.8343 52.1488 71.9327 52.406 72.0095ZM75.4225 80.8252C74.9469 80.6673 74.5514 80.4025 74.236 80.0307C73.9335 79.6576 73.6261 79.2391 73.3137 78.7753C73.2665 78.7019 73.2192 78.6284 73.1719 78.555C73.1246 78.4815 73.0781 78.4146 73.0322 78.354L72.7055 77.8787L72.5164 77.5849L72.3066 77.8238L71.9909 78.1725L71.8178 78.3877C71.515 78.735 71.2057 79.0829 70.89 79.4316C70.5857 79.7659 70.2528 80.0771 69.8912 80.3652C69.5411 80.639 69.1609 80.8768 68.7506 81.0785C68.3519 81.2659 67.9072 81.3928 67.4168 81.4592L66.9664 81.292C66.7064 81.1893 66.4866 81.0953 66.3071 81.01C66.1275 80.9247 65.9158 80.784 65.6718 80.5879C65.5944 80.4784 65.5242 80.3747 65.4612 80.2768C65.4111 80.1774 65.3546 80.0788 65.2915 79.9808C65.121 79.7374 64.9792 79.5171 64.8661 79.3198C64.753 79.1225 64.637 78.8994 64.5183 78.6503C64.5375 78.4649 64.5627 78.1544 64.5939 77.7187C64.6238 77.2702 64.6623 76.7814 64.7097 76.2523C64.7699 75.7219 64.8301 75.1915 64.8904 74.661C64.9622 74.1162 65.0417 73.6426 65.129 73.2402C65.2089 72.891 65.2997 72.521 65.4013 72.1301C65.5158 71.7378 65.6404 71.3772 65.7749 71.0483C65.921 70.705 66.0856 70.412 66.2688 70.1695C66.4506 69.914 66.6559 69.7541 66.8847 69.69C66.9593 69.7736 67.0375 69.8306 67.1194 69.8609C67.2013 69.8913 67.276 69.916 67.3435 69.9348C67.5529 70.174 67.7515 70.3751 67.9395 70.5381C68.1404 70.6996 68.3672 70.8583 68.6199 71.0142C68.5903 71.3449 68.5326 71.7179 68.4468 72.1332C68.3725 72.5342 68.2859 72.9431 68.1871 73.3598C68.0999 73.7622 68.0119 74.1582 67.9232 74.5476C67.8346 74.9371 67.7662 75.272 67.718 75.5522C67.6643 75.7807 67.6263 76.0337 67.604 76.3112C67.5396 76.8028 67.5006 77.4684 67.487 78.3082C67.6381 78.2524 67.7973 78.15 67.9644 78.0009C68.1316 77.8518 68.2916 77.6969 68.4444 77.5362C68.6217 77.3597 68.7969 77.1639 68.9699 76.9486C69.1892 76.676 69.3717 76.4269 69.5174 76.2015C69.6632 75.9761 69.7954 75.7457 69.9138 75.5101C70.0453 75.2732 70.1746 75.0169 70.3018 74.7411C70.4276 74.4524 70.5808 74.1148 70.7615 73.7285C70.9219 73.3967 71.0867 73.0448 71.2559 72.6728C71.4366 72.2865 71.6129 71.9202 71.7848 71.5741C71.9683 71.2136 72.1489 70.8862 72.3264 70.5919C72.504 70.2976 72.6685 70.0636 72.8199 69.89C72.9375 70.0082 73.0803 70.1171 73.2483 70.2167C73.4293 70.3149 73.6139 70.3865 73.8021 70.4316C73.8925 70.5396 73.9756 70.6419 74.0516 70.7385C74.1391 70.8206 74.2194 70.897 74.2926 70.9677C74.3829 71.0757 74.4661 71.178 74.542 71.2746C74.631 71.3697 74.7134 71.4655 74.7894 71.562C74.7863 71.6541 74.7795 71.7727 74.7691 71.9179C74.7587 72.0631 74.7432 72.2219 74.7226 72.3944C74.715 72.5655 74.7017 72.7438 74.6825 72.9292C74.662 73.1017 74.6407 73.2678 74.6187 73.4273C74.5686 73.9305 74.531 74.3078 74.506 74.5594C74.4809 74.811 74.4632 75.0094 74.4528 75.1546C74.4553 75.2984 74.4557 75.4227 74.454 75.5277C74.4639 75.6183 74.4779 75.7478 74.4962 75.916C74.4973 76.0469 74.5179 76.1756 74.5578 76.3023C74.5834 76.4174 74.6227 76.5375 74.6756 76.6628C74.7285 76.788 74.7929 76.8989 74.8689 76.9954L75.5801 76.3091C75.7819 76.1169 75.9644 75.8679 76.1277 75.562C76.3024 75.2418 76.46 74.8841 76.6005 74.489C76.7525 74.0796 76.8945 73.6385 77.0265 73.1657C77.1585 72.693 77.2898 72.2138 77.4204 71.7281C77.6177 71.0125 77.8171 70.3163 78.0186 69.6395C78.2331 68.9613 78.4508 68.4334 78.6717 68.0558C78.9762 68.2061 79.2425 68.3671 79.4707 68.5387C79.7104 68.6961 79.9199 68.8763 80.0992 69.0795C80.2784 69.2827 80.4288 69.5217 80.5504 69.7967C80.6849 70.0702 80.7926 70.399 80.8737 70.7832C80.6899 71.2615 80.514 71.7522 80.3459 72.255C80.1909 72.7565 80.0423 73.2572 79.9001 73.7573C79.7087 74.4067 79.5044 75.0576 79.2871 75.7099C79.0828 76.3608 78.8433 76.9893 78.5686 77.5954C78.2925 78.1886 77.9734 78.7472 77.6112 79.2711C77.2476 79.7821 76.8115 80.229 76.303 80.6116C76.1564 80.5883 76.0313 80.5822 75.9277 80.5935C75.7206 80.616 75.5522 80.6932 75.4225 80.8252ZM86.8277 77.9555C86.9346 78.3368 86.9417 78.6438 86.8491 78.8765C86.7695 79.1078 86.6317 79.2865 86.4359 79.4126C86.2544 79.5502 86.0349 79.6395 85.7774 79.6806C85.5199 79.7216 85.2725 79.7354 85.0353 79.7219C84.8862 79.5547 84.7451 79.3409 84.612 79.0803C84.4789 78.8197 84.3516 78.5519 84.23 78.277C84.1071 77.9891 83.9913 77.707 83.8827 77.4306C83.787 77.1529 83.7013 76.9068 83.6256 76.6924C83.6735 76.53 83.6933 76.351 83.6852 76.1555C83.6886 75.9455 83.679 75.737 83.6565 75.5299C83.647 75.3214 83.6309 75.1136 83.6084 74.9064C83.5975 74.685 83.5944 74.4757 83.5992 74.2788C83.6307 73.7252 83.7039 73.1934 83.8188 72.6832C83.9465 72.1716 84.0334 71.6448 84.0793 71.1029C84.0925 70.9835 84.0676 70.8749 84.0046 70.777C83.9545 70.6777 83.9375 70.5813 83.9535 70.4878C83.9609 70.4347 83.9962 70.3981 84.0595 70.3781C84.1214 70.3452 84.1553 70.2957 84.1612 70.2295C84.1846 70.0829 84.1784 69.9657 84.1427 69.8779C84.1199 69.7887 84.1338 69.6759 84.1845 69.5394C84.2379 69.4288 84.2994 69.2715 84.369 69.0675C84.45 68.8491 84.4656 68.6313 84.4159 68.4141C84.5239 68.3237 84.6241 68.2212 84.7164 68.1064C84.8087 67.9916 84.9024 67.8897 84.9975 67.8008C85.1042 67.6975 85.2187 67.6065 85.3412 67.5277C85.4765 67.4475 85.6413 67.3969 85.8354 67.3758C85.9531 67.494 86.0333 67.6293 86.076 67.7818C86.1317 67.933 86.181 68.0848 86.2237 68.2373C86.2795 68.3884 86.3474 68.5317 86.4276 68.667C86.5064 68.7894 86.6277 68.881 86.7914 68.9418C86.8027 69.0454 86.8167 69.1748 86.8336 69.3302C86.8505 69.4855 86.8738 69.6401 86.9037 69.7941C86.9321 69.9351 86.9727 70.0682 87.0256 70.1934C87.0901 70.3043 87.1762 70.3735 87.284 70.4011C87.1185 71.0477 86.9652 71.6865 86.8242 72.3174C86.6961 72.9469 86.6011 73.5794 86.5392 74.2148C86.4758 74.8372 86.4585 75.4612 86.4871 76.0868C86.5287 76.711 86.6423 77.3339 86.8277 77.9555ZM101.25 68.3141C100.926 68.3493 100.579 68.4131 100.21 68.5057C99.8384 68.5853 99.4744 68.6707 99.1175 68.7618C98.8629 68.8288 98.614 68.8886 98.3708 68.9412C98.1406 68.9924 97.9292 69.035 97.7364 69.0691C97.6767 69.3637 97.6135 69.6259 97.5468 69.8559C97.4801 70.0858 97.4062 70.3099 97.3252 70.5283C97.2455 70.7596 97.1731 70.9966 97.1078 71.2395C97.054 71.468 97.0023 71.7159 96.9528 71.9832C96.8459 72.2044 96.7569 72.4105 96.686 72.6016C96.6266 72.7783 96.583 72.9795 96.5551 73.2052C96.4209 73.4163 96.3269 73.636 96.2731 73.8645C96.2179 74.0801 96.1794 74.2676 96.1574 74.4272L96.1051 74.6686C96.0358 74.7547 95.9976 74.8244 95.9902 74.8776C95.9815 74.9178 95.9534 74.9602 95.9058 75.0046C95.9083 75.1484 95.8785 75.2957 95.8163 75.4466C95.7974 75.5141 95.7851 75.5809 95.7791 75.6471C95.7718 75.7002 95.7696 75.7398 95.7724 75.7657C95.7864 75.8951 95.7632 75.9828 95.7027 76.0286C95.7227 76.0919 95.7304 76.1631 95.7259 76.2422C95.72 76.3083 95.7141 76.3745 95.7082 76.4406C95.6862 76.6002 95.6866 76.7245 95.7094 76.8137C95.7539 76.8613 95.7912 76.9031 95.8213 76.9391C95.8643 76.9737 95.8959 77.0227 95.9158 77.086C95.9991 77.1294 96.0609 77.1554 96.1011 77.1641C96.1571 77.1973 96.2397 77.2342 96.3489 77.2747L96.5447 77.4499C96.6503 77.8183 96.6243 78.1223 96.467 78.3621C96.2996 78.6291 95.9829 78.788 95.5168 78.8386L95.2838 78.8639C95.2121 78.8062 95.1676 78.7586 95.1505 78.7212C95.0427 78.6936 94.955 78.6704 94.8875 78.6516C94.82 78.6327 94.7561 78.5872 94.6959 78.5152C94.5191 78.4558 94.3762 78.4059 94.267 78.3653L94.0817 78.2872C94.0662 78.1448 94.0578 78.0672 94.0564 78.0542C93.9531 77.9476 93.8679 77.8259 93.8006 77.6891C93.7463 77.5509 93.6985 77.412 93.6571 77.2725C93.6186 77.1588 93.5743 77.0523 93.5242 76.9529C93.487 76.8522 93.4384 76.7658 93.3781 76.6937C93.2707 75.9458 93.273 75.3037 93.385 74.7677C93.497 74.2316 93.6176 73.7143 93.7468 73.2156C93.8223 72.9455 93.8977 72.6753 93.9731 72.4052C94.0472 72.1221 94.1075 71.8339 94.1543 71.5407L94.3079 71.3276C94.376 71.1106 94.4289 70.9346 94.4667 70.7995C94.5159 70.6501 94.5652 70.5007 94.6144 70.3512C94.6434 70.2564 94.6666 70.1688 94.6841 70.0883C94.7131 69.9934 94.737 69.9123 94.7559 69.8447C94.6782 69.8532 94.6077 69.8674 94.5444 69.8873C94.4797 69.8944 94.4156 69.9079 94.3523 69.9279C94.2761 69.9492 94.2063 69.9699 94.1429 69.9899C94.0782 69.9969 94.0135 70.004 93.9488 70.011C93.8582 70.0208 93.7927 70.0214 93.7525 70.0127C93.6171 70.0929 93.4653 70.1421 93.297 70.1604L93.1029 70.1815C93.064 70.1857 93.0252 70.1899 92.9864 70.1941C92.9591 70.184 92.9325 70.1803 92.9066 70.1832C92.7771 70.1972 92.6757 70.2279 92.6022 70.2752C92.4469 70.292 92.298 70.3082 92.1557 70.3237L91.9615 70.3448C91.9356 70.3476 91.9039 70.3576 91.8665 70.3747C91.8277 70.379 91.7953 70.3825 91.7694 70.3853C91.6788 70.3951 91.581 70.3992 91.4761 70.3975C91.3697 70.3829 91.2547 70.3495 91.1312 70.2974C90.9534 70.1072 90.8379 70.0084 90.7847 70.0011L90.5846 69.7871C90.5632 69.7108 90.5361 69.6417 90.5031 69.5798C90.4688 69.505 90.4338 69.4236 90.3981 69.3358C90.3322 69.212 90.2657 69.0817 90.1984 68.945C90.1427 68.7939 90.1036 68.6147 90.0811 68.4076C90.0828 68.3027 90.1003 68.2222 90.1335 68.1662C90.1667 68.1102 90.1941 68.0614 90.2158 68.0197L90.2424 67.7221L90.4969 67.7141L91.0406 67.6551C91.4548 67.6101 91.8741 67.5514 92.2985 67.4791C92.7214 67.3939 93.1573 67.3072 93.6062 67.2192C93.8623 67.1651 94.1183 67.1111 94.3744 67.0571C94.6434 67.0017 94.9189 66.9456 95.2009 66.8887C95.24 66.7666 95.2799 66.651 95.3204 66.5418L95.504 66.4236C95.7356 66.3853 95.9009 66.4001 96 66.4679C96.1106 66.5214 96.2017 66.577 96.2735 66.6347C96.5555 66.5779 96.8374 66.521 97.1194 66.4642C97.4129 66.393 97.7057 66.3154 97.9978 66.2313C98.4309 66.1187 98.8647 66.0126 99.2992 65.9131C99.7466 65.8121 100.177 65.7391 100.592 65.6941C100.773 65.6744 100.948 65.6618 101.118 65.6565C101.288 65.6512 101.445 65.6537 101.59 65.6641L101.799 65.779C101.847 65.8524 101.906 65.918 101.978 65.9757C102.063 66.032 102.147 66.0882 102.232 66.1445C102.403 66.27 102.576 66.4214 102.753 66.5987C102.929 66.776 103.018 67.0545 103.02 67.4341C102.934 67.6007 102.866 67.6997 102.817 67.7313L102.667 67.9832L102.471 67.9849C102.394 67.9934 102.324 68.014 102.262 68.047C102.199 68.0669 102.136 68.0934 102.074 68.1263C102.025 68.1578 101.976 68.1893 101.927 68.2209C101.877 68.2394 101.82 68.2587 101.757 68.2787C101.64 68.2913 101.543 68.3019 101.465 68.3103C101.399 68.3044 101.327 68.3057 101.25 68.3141ZM112.475 74.6387C112.537 74.9725 112.529 75.255 112.449 75.4863C112.369 75.7176 112.247 75.9208 112.083 76.0958C111.919 76.2708 111.725 76.4163 111.502 76.5322C111.279 76.6481 111.061 76.7569 110.85 76.8585C110.739 76.805 110.629 76.7515 110.518 76.6981C110.419 76.6302 110.303 76.5839 110.169 76.5592C109.967 76.2668 109.775 76.0125 109.595 75.7964C109.413 75.5673 109.311 75.2967 109.291 74.9847C109.289 74.9717 109.288 74.8998 109.287 74.769C109.299 74.6367 109.309 74.4915 109.318 74.3333C109.34 74.1738 109.35 74.0286 109.349 73.8977C109.36 73.7525 109.364 73.6735 109.363 73.6605C109.068 73.7187 108.764 73.8172 108.452 73.9559C108.14 74.0947 107.836 74.2521 107.541 74.4282C107.258 74.603 106.989 74.7763 106.733 74.9482C106.489 75.1187 106.289 75.2649 106.132 75.3868C106.136 75.4256 106.121 75.5255 106.086 75.6864C106.05 75.8345 106.002 75.9968 105.942 76.1735C105.882 76.3373 105.813 76.4889 105.736 76.6281C105.66 76.7674 105.576 76.842 105.486 76.8518C105.503 76.8893 105.526 76.926 105.556 76.962C105.587 76.998 105.592 77.0498 105.573 77.1174C105.398 77.1888 105.243 77.2711 105.109 77.3643C104.976 77.4703 104.835 77.5577 104.686 77.6264C104.537 77.708 104.373 77.7586 104.191 77.7783C104.01 77.798 103.79 77.7565 103.529 77.6537C103.521 77.5761 103.482 77.5149 103.411 77.4701C103.34 77.4124 103.263 77.3684 103.181 77.338C103.111 77.2932 103.048 77.2607 102.993 77.2405C102.937 77.2073 102.908 77.1777 102.905 77.1518C102.842 77.1718 102.811 77.1293 102.813 77.0243C102.814 76.9194 102.863 76.8879 102.96 76.9298C102.798 76.764 102.69 76.6186 102.637 76.4933C102.596 76.3537 102.506 76.1867 102.367 75.9923C102.39 75.9636 102.411 75.9155 102.43 75.8479C102.435 75.7818 102.442 75.7221 102.449 75.6689C102.457 75.6158 102.472 75.5748 102.495 75.5461C102.518 75.5174 102.551 75.5204 102.594 75.555C102.556 75.4413 102.545 75.3442 102.563 75.2637C102.58 75.1832 102.598 75.1092 102.617 75.0417C102.636 74.9742 102.648 74.9073 102.654 74.8412C102.66 74.7751 102.633 74.706 102.573 74.6339C102.749 74.3267 102.852 74.0077 102.881 73.677C102.91 73.3335 102.915 73.025 102.899 72.7518C102.979 72.6513 103.043 72.5134 103.09 72.3381C103.149 72.1614 103.189 71.9868 103.209 71.8143C103.229 71.6289 103.223 71.4592 103.193 71.3052C103.175 71.137 103.141 71.0032 103.091 70.9038C103.097 70.8377 103.166 70.8105 103.298 70.8224C103.329 70.3868 103.329 69.9022 103.297 69.3686C103.277 68.8207 103.28 68.3031 103.305 67.8157C103.33 67.3154 103.413 66.8741 103.555 66.492C103.695 66.0969 103.96 65.8193 104.348 65.6592C104.455 65.9226 104.578 66.1515 104.717 66.346C104.869 66.5391 105.027 66.7249 105.191 66.9036C105.366 67.068 105.535 67.2395 105.698 67.4182C105.875 67.5955 106.041 67.8001 106.197 68.032C106.211 68.2793 106.216 68.5669 106.212 68.8948C106.209 69.2226 106.193 69.5583 106.165 69.9019C106.149 70.2441 106.126 70.574 106.095 70.8917C106.077 71.208 106.054 71.479 106.027 71.7047C106.047 71.768 106.083 71.8034 106.136 71.8107C106.202 71.8166 106.222 71.8734 106.194 71.9812C106.496 71.8698 106.812 71.7634 107.142 71.6621C107.471 71.5609 107.8 71.4531 108.128 71.3389C108.456 71.2246 108.771 71.1053 109.072 70.981C109.384 70.8423 109.668 70.6869 109.925 70.515C109.935 70.0031 109.964 69.4892 110.013 68.9731C110.061 68.457 110.018 67.9378 109.883 67.4155C109.942 67.3567 109.987 67.2863 110.017 67.2044C110.047 67.1225 110.106 67.0637 110.194 67.028C110.103 66.7891 110.049 66.533 110.032 66.2598C110.016 65.9865 110.033 65.7227 110.084 65.4683C110.148 65.2125 110.248 64.9921 110.385 64.8069C110.534 64.6074 110.722 64.4691 110.949 64.392C111.114 64.5836 111.262 64.7968 111.392 65.0315C111.521 65.2533 111.65 65.4815 111.781 65.7162C111.922 65.9365 112.064 66.1504 112.204 66.3578C112.356 66.5509 112.537 66.7145 112.748 66.8487C112.828 67.2199 112.896 67.6055 112.953 68.0053C113.022 68.4038 113.086 68.8095 113.144 69.2223C113.094 69.7254 113.029 70.217 112.95 70.6971C112.883 71.1628 112.852 71.6574 112.856 72.1808C112.777 72.2942 112.718 72.4184 112.681 72.5535C112.643 72.6886 112.606 72.8301 112.57 72.9781C112.532 73.1132 112.488 73.249 112.437 73.3855C112.385 73.509 112.319 73.621 112.238 73.7215C112.306 73.8712 112.329 74.0193 112.306 74.1659C112.294 74.2982 112.35 74.4558 112.475 74.6387ZM135.902 62.8206C135.959 63.1026 136.031 63.3436 136.118 63.5437C136.205 63.7437 136.298 63.9367 136.397 64.1224C136.481 64.2966 136.559 64.4715 136.631 64.6471C136.714 64.8083 136.782 65.0105 136.834 65.2537C136.767 65.6015 136.723 65.9206 136.703 66.211C136.695 66.5 136.682 66.8026 136.664 67.1189C136.506 67.5945 136.349 68.0176 136.192 68.3882C136.036 68.7588 135.914 69.0799 135.826 69.3514C135.768 69.4232 135.718 69.5072 135.676 69.6034C135.646 69.6853 135.61 69.7743 135.568 69.8706C135.546 69.9122 135.52 69.974 135.49 70.0559C135.459 70.1378 135.432 70.1931 135.409 70.2218L135.006 70.128L134.981 70.6219L134.718 70.7291L134.549 70.9832C134.35 71.4371 134.13 71.8277 133.891 72.1549C133.65 72.4692 133.367 72.7619 133.043 73.0329C132.73 73.2895 132.364 73.5388 131.945 73.7808C131.539 74.0214 131.077 74.2877 130.559 74.5797C130.336 74.5778 130.14 74.5859 129.972 74.6042C129.815 74.6081 129.665 74.6114 129.521 74.6139C129.275 74.6406 128.969 74.6542 128.602 74.6548C128.552 74.5554 128.486 74.4906 128.404 74.4602C128.322 74.4298 128.249 74.4181 128.184 74.4251C127.953 74.3455 127.769 74.2149 127.631 74.0334C127.505 73.8375 127.378 73.6287 127.249 73.407C127.168 73.2716 127.09 73.1492 127.012 73.0397C126.933 72.9173 126.848 72.7956 126.756 72.6746L127.076 72.5416L126.598 72.122C126.568 72.086 126.532 72.0572 126.491 72.0355C126.448 72.0009 126.411 71.9656 126.381 71.9295L126.328 71.621C126.192 70.732 126.084 69.9186 126.004 69.1808C125.935 68.4286 125.966 67.7507 126.097 67.1471L126.074 66.9335C126.082 66.6445 126.095 66.4072 126.114 66.2218C126.132 66.0234 126.145 65.8387 126.152 65.6676C126.16 65.3786 126.19 65.1069 126.241 64.8525C126.418 64.794 126.546 64.708 126.625 64.5946C126.703 64.4683 126.77 64.3563 126.824 64.2586C127.004 64.226 127.13 64.2385 127.202 64.2962C127.274 64.3539 127.35 64.4504 127.43 64.5858C127.507 64.6953 127.599 64.8163 127.705 64.9488C127.824 65.08 127.985 65.1738 128.187 65.2304C128.225 65.3311 128.269 65.4376 128.32 65.5499C128.383 65.6479 128.448 65.7587 128.514 65.8826C128.641 66.0914 128.757 66.3145 128.861 66.552C128.977 66.7752 129.054 66.9961 129.091 67.2148C128.988 67.4748 128.915 67.7708 128.873 68.1029C128.843 68.4335 128.834 68.7685 128.844 69.1079C128.867 69.4329 128.908 69.7494 128.967 70.0572C129.038 70.3507 129.124 70.5968 129.224 70.7955L129.368 71.0353L129.694 70.9606C130.071 70.8148 130.409 70.6668 130.707 70.5166C131.016 70.352 131.298 70.1707 131.551 69.9729C131.805 69.7751 132.043 69.5528 132.265 69.306C132.485 69.0463 132.715 68.7528 132.955 68.4256C133.194 68.0983 133.391 67.7364 133.544 67.3399C133.709 66.9291 133.834 66.5095 133.918 66.0812C134.016 65.6515 134.075 65.2325 134.096 64.8242C134.129 64.4016 134.138 64.0076 134.125 63.6423C134.336 63.5408 134.43 63.3735 134.404 63.1405L134.342 62.9311C134.282 62.859 134.272 62.7684 134.313 62.6593C134.364 62.4049 134.525 62.1975 134.795 62.0371C135.016 62.144 135.213 62.2667 135.385 62.4052C135.57 62.5423 135.743 62.6807 135.902 62.8206ZM138.627 64.8625C138.688 64.5808 138.805 64.3323 138.978 64.117C139.164 63.9004 139.366 63.7147 139.585 63.5599C139.816 63.3908 140.056 63.2469 140.305 63.1281C140.554 63.0094 140.791 62.905 141.017 62.815C141.511 62.5386 142.039 62.2718 142.6 62.0143C143.173 61.7425 143.755 61.4959 144.347 61.2744C144.951 61.0516 145.575 60.8856 146.218 60.7765C146.86 60.6544 147.548 60.6582 148.282 60.788C148.335 60.9132 148.407 61.0298 148.497 61.1379C148.587 61.246 148.678 61.354 148.768 61.4621C148.871 61.5688 148.962 61.6768 149.039 61.7863C149.115 61.8828 149.166 61.9886 149.191 62.1037C149.333 62.2062 149.451 62.3244 149.544 62.4583C149.636 62.5793 149.668 62.7527 149.64 62.9784C149.522 63.096 149.403 63.2071 149.283 63.3118C149.175 63.4021 149.054 63.4874 148.918 63.5676C148.427 63.5031 147.937 63.517 147.449 63.6093C146.962 63.7016 146.525 63.7817 146.139 63.8498C146.01 63.746 145.862 63.7032 145.693 63.7215C145.538 63.7383 145.372 63.7825 145.197 63.854C145.034 63.924 144.865 63.9948 144.689 64.0663C144.527 64.1363 144.366 64.1669 144.208 64.1578C144.09 64.2755 143.936 64.3642 143.746 64.4242C143.568 64.4697 143.37 64.5174 143.153 64.5672C143.147 64.6334 143.165 64.6773 143.206 64.6989C143.246 64.7077 143.257 64.7458 143.238 64.8133C143.326 64.8955 143.43 64.9497 143.551 64.9759C143.684 65.0006 143.818 65.0254 143.952 65.0502C144.098 65.0735 144.227 65.1119 144.337 65.1654C144.447 65.2059 144.528 65.2888 144.581 65.4141C144.775 65.393 144.948 65.42 145.1 65.4951C145.252 65.5703 145.381 65.6676 145.485 65.7872C145.59 65.9068 145.67 66.0422 145.726 66.1933C145.793 66.3301 145.833 66.4567 145.846 66.5732C145.896 66.6726 145.946 66.7129 145.997 66.6944C146.047 66.6758 146.108 66.6954 146.18 66.7531C146.237 66.9171 146.353 67.0813 146.528 67.2457C146.702 67.3971 146.845 67.5714 146.958 67.7687C147.019 68.0895 147.07 68.3786 147.111 68.6361C147.151 68.8807 147.133 69.138 147.058 69.4082C146.915 69.9082 146.69 70.3649 146.381 70.7783C146.086 71.1902 145.734 71.569 145.326 71.9145C144.93 72.2457 144.497 72.5416 144.028 72.8021C143.558 73.0627 143.098 73.2895 142.648 73.4825C142.594 73.4752 142.543 73.4808 142.492 73.4994C142.442 73.518 142.425 73.487 142.443 73.4065C142.349 73.5084 142.239 73.5793 142.112 73.6192C141.999 73.6578 141.87 73.6783 141.726 73.6808C141.584 73.6963 141.434 73.706 141.277 73.7099C141.134 73.7125 140.998 73.7337 140.872 73.7737C140.771 73.6929 140.677 73.6114 140.59 73.5292C140.517 73.4586 140.454 73.3607 140.401 73.2355C140.336 73.2425 140.3 73.2136 140.293 73.1489C140.299 73.0828 140.276 73.0525 140.224 73.0582C140.288 72.9203 140.313 72.8456 140.298 72.834C140.295 72.8081 140.274 72.7908 140.234 72.7821C140.206 72.772 140.179 72.7618 140.152 72.7517C140.123 72.7286 140.113 72.697 140.122 72.6567C140.162 72.5475 140.169 72.4289 140.142 72.3009C140.114 72.1599 140.085 72.0189 140.057 71.8779C140.028 71.737 140.02 71.6003 140.032 71.4681C140.057 71.3344 140.143 71.2203 140.289 71.1258C140.735 71.1297 141.148 71.0718 141.528 70.9519C141.919 70.8177 142.281 70.654 142.614 70.4606C142.947 70.2673 143.258 70.0632 143.549 69.8482C143.853 69.6318 144.153 69.4356 144.448 69.2594C144.474 69.1387 144.516 69.036 144.572 68.9513C144.641 68.8652 144.711 68.7856 144.782 68.7124C144.852 68.6392 144.916 68.5603 144.972 68.4756C145.028 68.3909 145.063 68.2889 145.076 68.1696C145.079 68.0776 145.048 68.0286 144.982 68.0227C144.927 68.0024 144.896 67.9535 144.887 67.8758L144.667 67.8407C144.406 67.7251 144.115 67.6388 143.794 67.5819C143.473 67.5121 143.195 67.4309 142.962 67.3383C142.829 67.4315 142.695 67.4657 142.561 67.4409C142.44 67.4147 142.281 67.3928 142.082 67.375C141.639 67.3969 141.207 67.3981 140.786 67.3783C140.378 67.3572 139.977 67.2829 139.583 67.1554C139.55 67.0935 139.511 67.0387 139.467 66.9912C139.423 66.9436 139.35 66.9384 139.249 66.9756C139.16 66.8804 139.072 66.7918 138.985 66.7096C138.896 66.6145 138.813 66.5122 138.735 66.4027C138.744 66.2446 138.749 66.113 138.751 66.0081C138.751 65.8902 138.701 65.7843 138.599 65.6906C138.632 65.5167 138.656 65.3766 138.671 65.2702C138.686 65.1638 138.671 65.0279 138.627 64.8625Z" fill="white"/>
<path d="M80.2147 51.8822C79.7275 52.5522 78.7893 52.7004 78.1193 52.2132C77.4493 51.726 77.3011 50.7879 77.7883 50.1179L80.2147 51.8822ZM85.1567 1.02465C85.6355 0.348573 86.5717 0.188612 87.2477 0.66737L98.2651 8.46917C98.9412 8.94793 99.1011 9.88411 98.6224 10.5602C98.1436 11.2363 97.2074 11.3962 96.5313 10.9175L86.7381 3.98254L79.8032 13.7757C79.3245 14.4518 78.3883 14.6118 77.7122 14.133C77.0361 13.6543 76.8762 12.7181 77.3549 12.042L85.1567 1.02465ZM77.7883 50.1179C85.4791 39.5414 88.9766 25.9893 84.9023 2.14416L87.8594 1.63888C92.0238 26.0111 88.5212 40.459 80.2147 51.8822L77.7883 50.1179Z" fill="white"/>
</svg>
